<svg width="48" height="48" viewBox="0 0 48 48" fill="none" xmlns="http://www.w3.org/2000/svg">
<g id="Frame">
<g id="bird">
<path id="Path" d="M32.2446 28.117C32.2491 28.117 32.2491 28.117 32.2537 28.117C35.2517 28.1125 37.7621 26.04 38.4439 23.2497L32.2446 21.9087V28.117Z" fill="#676DE7"/>
<path id="Oval" d="M29.6304 20.9244C30.4358 20.9244 31.0888 20.2715 31.0888 19.466C31.0888 18.6606 30.4358 18.0076 29.6304 18.0076C28.8249 18.0076 28.172 18.6606 28.172 19.466C28.172 20.2715 28.8249 20.9244 29.6304 20.9244Z" fill="#676DE7"/>
<path id="Path_2" d="M43.6724 21.8184C43.6724 18.4907 42.2366 15.4972 39.952 13.4202C38.1053 11.7406 35.6987 10.666 33.0483 10.5034C32.7955 10.4899 32.5426 10.4809 32.2898 10.4809C29.8381 10.4583 27.4134 10.9459 25.1694 11.8851C24.4109 12.2011 23.6704 12.5714 22.9615 12.9913L20.1757 6.81457L19.0604 4.34479C16.2926 5.59548 14.2608 7.8079 13.1817 10.4086L17.4801 14.2104L12.7302 11.6999L6.32772 8.15105C2.40407 15.2082 4.99124 24.1437 12.0439 28.0673L4.32751 42.7867C8.02541 44.7282 12.5992 43.3059 14.5408 39.6035C14.6491 39.4003 14.7439 39.1881 14.8297 38.9804C14.5949 38.8585 14.3647 38.7366 14.1344 38.6102C13.719 38.3799 13.3081 38.1451 12.9018 37.9058C12.0936 37.4227 11.2989 36.9125 10.5268 36.3887C11.3982 36.7274 12.2832 37.0389 13.1682 37.3279C13.6106 37.4678 14.0531 37.6033 14.5001 37.7297C14.8388 37.8245 15.1819 37.9148 15.516 37.9916C22.212 38.2535 28.7815 34.7362 32.1001 28.4014L32.2311 28.1215C32.1904 28.1215 32.1498 28.1215 32.1092 28.1215C27.6753 28.0448 24.1038 24.4281 24.1038 19.9762C24.1038 19.8498 24.1083 19.7279 24.1129 19.6014C24.307 15.285 27.883 11.8444 32.2446 11.8264C32.2446 14.558 32.2446 20.5722 32.2446 21.5836L43.4557 24.0082C43.5957 23.2993 43.6724 22.5679 43.6724 21.8184Z" fill="#676DE7"/>
</g>
</g>
</svg>
