<svg width="100" height="29" viewBox="0 0 100 29" fill="none" xmlns="http://www.w3.org/2000/svg">
<path d="M37.7039 7.56703C36.9722 7.56703 36.4233 7.68937 36.0275 7.83856V0.140241H31.7029V20.69C32.9235 21.4479 34.8399 22.1461 37.1851 22.1461C41.9086 22.1461 45.2585 19.3562 45.2585 14.6298C45.2585 10.4166 41.7256 7.56703 37.7039 7.56703ZM37.491 18.2969C36.8822 18.2969 36.3934 18.1746 36.0275 18.0254V11.7832C36.3634 11.5714 37.0621 11.3893 37.6709 11.3893C39.3774 11.3893 40.9609 12.753 40.9609 14.785C40.9639 16.8736 39.6233 18.2969 37.491 18.2969Z" fill="#393C63"/>
<path d="M67.1815 10.1451L67.0585 7.99372H62.9469V21.7254H67.3944V16.3008C67.3944 12.9976 69.5867 11.6042 71.965 11.6042C72.1779 11.6042 72.2709 11.6042 72.3308 11.6042L72.3668 8.05639C70.1116 8.05042 68.0332 8.41743 67.1815 10.1451Z" fill="#393C63"/>
<path d="M80.2243 3.71787L75.9597 5.32318V7.99074H74.3282L74.3582 11.628H75.8697V17.2347C75.8697 19.9918 77.9421 21.9611 80.9861 21.9611C81.8708 21.9611 82.6326 21.8388 83.0884 21.6269L83.4243 17.9896C83.0284 18.1418 82.5726 18.2015 81.9938 18.2015C80.9891 18.2015 80.2873 17.6256 80.2873 16.5962V11.631H84.216L84.5519 7.99372H80.2243V3.71787Z" fill="#393C63"/>
<path d="M95.7983 7.99372L93.726 13.3885C93.4201 14.2061 93.1472 15.0565 92.9043 16.0262H92.8413C92.5684 15.0266 92.2925 14.1464 91.9896 13.3587L89.9472 7.99372H85.5296L90.679 21.0272C89.3684 24.1811 88.0308 25.4224 85.8955 26.1206L87.7249 29C91.0449 28.1824 93.3001 25.3627 95.1565 20.5438L100 7.99671H95.7983V7.99372Z" fill="#393C63"/>
<path d="M54.2556 7.56703C50.3869 7.56703 47.0669 10.3241 47.0669 14.782C47.0669 19.2667 50.6328 22.1491 55.1404 22.1491C56.9698 22.1491 58.3103 21.8149 59.252 21.3614L59.6479 17.6942C58.4603 18.3924 57.2397 18.7565 55.6562 18.7565C53.218 18.7565 51.9404 17.363 51.6045 16.1486L57.5816 16.1665C57.5816 16.1665 60.0678 16.1665 60.3437 14.3792C60.3437 14.3792 60.4397 13.475 60.4397 13.0275C60.4397 10.2048 58.0944 7.56703 54.2556 7.56703ZM56.325 13.296H51.4515C51.7574 11.9026 52.9151 10.9328 54.2556 10.9328C55.5362 10.9328 56.358 11.9026 56.358 12.9946C56.358 13.114 56.358 13.2065 56.325 13.296Z" fill="#393C63"/>
<path d="M16.8066 10.9567C17.3416 10.9567 17.7753 10.5252 17.7753 9.9929C17.7753 9.46062 17.3416 9.02912 16.8066 9.02912C16.2716 9.02912 15.8379 9.46062 15.8379 9.9929C15.8379 10.5252 16.2716 10.9567 16.8066 10.9567Z" fill="#393C63"/>
<path d="M18.5431 15.7099C18.5461 15.7099 18.5461 15.7099 18.5491 15.7099C20.5404 15.707 22.2079 14.3374 22.6607 12.4934L18.5431 11.6072V15.7099Z" fill="#393C63"/>
<path d="M26.1336 11.5475C26.1336 9.34839 25.1799 7.3701 23.6624 5.99753C22.4358 4.88754 20.8373 4.17738 19.0769 4.06997C18.9089 4.06101 18.741 4.05505 18.5731 4.05505C16.9446 4.04013 15.3341 4.36238 13.8436 4.98302C13.3397 5.19189 12.8479 5.43657 12.377 5.71407L9.78587 0C7.94746 0.826525 6.59789 2.28861 5.88112 4.00731L8.7362 6.5197L5.58121 4.86069L1.32857 2.51538C-1.27759 7.17913 0.440859 13.0842 5.12536 15.6771L0 25.4045C2.45621 26.6875 5.49424 25.7476 6.78383 23.3009C6.85581 23.1666 6.91879 23.0263 6.97577 22.8891C6.81982 22.8085 6.66687 22.728 6.51392 22.6444C6.238 22.4922 5.96509 22.3371 5.69518 22.1789C5.15835 21.8597 4.63052 21.5225 4.11768 21.1764C4.6965 21.4001 5.28431 21.606 5.87212 21.797C6.16603 21.8895 6.45993 21.979 6.75684 22.0626C6.98176 22.1252 7.20969 22.1849 7.43162 22.2356C11.8792 22.4087 16.2428 20.0843 18.4471 15.8979L18.5341 15.7129C18.5071 15.7129 18.4801 15.7129 18.4531 15.7129C15.508 15.6622 13.1358 13.2721 13.1358 10.3301C13.1358 10.2465 13.1388 10.166 13.1418 10.0824C13.2708 7.22986 15.646 4.95617 18.5431 4.94423C18.5431 6.74946 18.5431 10.7239 18.5431 11.3923L25.9897 12.9946C26.0827 12.5262 26.1336 12.0428 26.1336 11.5475Z" fill="#393C63"/>
</svg>
