<svg xmlns="http://www.w3.org/2000/svg" xmlns:xlink="http://www.w3.org/1999/xlink" width="12294" height="3584" version="1.1" viewBox="0 0 12294 3584"><title>berty_new_color_plain</title><desc>Created with Sketch.</desc><g id="Page-1" fill="none" fill-rule="evenodd" stroke="none" stroke-width="1"><g id="berty_new_color_plain" fill-rule="nonzero"><g id="Group" fill="#F74868" transform="translate(3897.000000, 18.000000)"><path id="Shape" d="M738.2,918 C648.2,918 580.8,933.1 532.2,951.7 L532.2,0.6 L0.4,0.6 L0.4,2539.8 C150.3,2633.4 386.2,2719.6 674.5,2719.6 C1255.1,2719.6 1667,2375 1667,1790.7 C1666.9,1270.1 1232.5,918 738.2,918 Z M712,2243.8 C637.1,2243.8 577.2,2228.9 532.2,2210.1 L532.2,1438.7 C573.4,1412.5 659.5,1389.9 734.4,1389.9 C944.2,1389.9 1138.9,1558.5 1138.9,1809.4 C1138.9,2067.9 974.1,2243.8 712,2243.8 Z"/><path id="Path" d="M4361.8,1236.4 L4346.9,970.5 L3841.3,970.5 L3841.3,2667.1 L4388,2667.1 L4388,1996.7 C4388,1588.5 4657.6,1416.2 4949.7,1416.2 C4975.9,1416.2 4987.2,1416.2 4994.7,1416.2 L4999.3,977.8 C4722.1,977.7 4466.7,1022.9 4361.8,1236.4 Z"/><path id="Path" d="M5965.5,442.5 L5441.3,641 L5441.3,970.5 L5240.7,970.5 L5244.3,1420 L5430,1420 L5430,2112.8 C5430,2453.6 5684.6,2696.9 6059.1,2696.9 C6167.8,2696.9 6261.4,2682 6317.5,2655.7 L6358.7,2206.4 C6310.1,2225.2 6253.9,2232.6 6182.7,2232.6 C6059,2232.6 5973,2161.4 5973,2034.1 L5973,1420 L6456,1420 L6497.2,970.5 L5965.4,970.5 L5965.4,442.5 L5965.5,442.5 Z"/><path id="Path" d="M7880.1,970.5 L7625.5,1637.1 C7588,1738.2 7554.3,1843.1 7524.4,1962.9 L7516.8,1962.9 C7483.1,1839.4 7449.4,1730.7 7412,1633.4 L7161,970.4 L6617.9,970.4 L7250.8,2580.8 C7089.8,2970.4 6925.1,3123.9 6662.9,3210.1 L6887.6,3565.8 C7295.8,3464.7 7573,3116.5 7801.4,2520.9 L8397,970.4 L7880.1,970.4 L7880.1,970.5 Z"/><path id="Shape" d="M2772.8,918 C2297.2,918 1888.9,1258.8 1888.9,1809.4 C1888.9,2363.6 2327.1,2719.5 2881.4,2719.5 C3106.1,2719.5 3271,2678.3 3387,2622.1 L3435.8,2168.9 C3289.7,2255 3139.8,2300 2945.1,2300 C2645.5,2300 2488.1,2127.7 2447,1977.8 L3181.7,1979.9 C3181.7,1979.9 3487.5,1979.9 3521.4,1759.1 C3521.4,1759.1 3533.1,1647.3 3533.1,1592.2 C3533.1,1243.9 3244.7,918 2772.8,918 Z M3027.5,1626 L2428.3,1626 C2465.8,1453.7 2608.1,1333.9 2772.9,1333.9 C2930.3,1333.9 3031.3,1453.7 3031.3,1588.5 C3031.3,1603.4 3031.3,1614.7 3027.5,1626 Z"/></g><g id="Group"><g id="Path"><path fill="#3F49EA" d="M1360,848.3 C1360,838.1 1360.2,827.9 1360.7,817.8 C1376.6,465 1675.1,183.9 2031.6,183.1 C2032,117.2 2024.6,74.4 2024.6,72.9 C2025.9,72.9 2027.2,72.8 2028.4,72.8 C1828.1,70.9 1630.2,110.6 1447.1,187.4 C1385.1,213.4 1324.9,243.6 1266.8,277.9 L1266.8,277.9 C1193.8,321 1124.3,370.5 1059.2,426.4 C1037.5,445 1016.3,464.3 995.6,484.3 L631.9,283 L431.5,172.2 L120.2,0.1 C-135,459.1 29.9,1037.9 488.3,1293.6 L37.8,2153.8 C37.9,2153.8 37.9,2153.9 38,2153.9 C227.9,2253.3 429.7,2306.5 630.6,2318.2 C1187.2,2350.7 1737.6,2062.3 2013.1,1536.3 L2023.7,1513.6 C2020.4,1513.6 2017,1513.6 2013.7,1513.5 C1651.7,1507.3 1360,1211.9 1360,848.3 Z" transform="translate(255.000000, 429.000000)"/><path fill="#FFBF47" d="M1533.2,1235 C1432,1123.8 1367.9,978.2 1360.7,817.8 C1360.2,827.9 1360,838.1 1360,848.3 C1360,1211.9 1651.6,1507.4 2013.8,1513.5 C2017.7,1513.6 2021.5,1513.6 2025.4,1513.6 L2025.4,1452.5 C1830.4,1452.6 1654.9,1368.7 1533.2,1235 Z" transform="translate(255.000000, 429.000000)"/><path fill="#FFF" d="M2023.8,183 C1667.3,183.8 1376.7,465 1360.7,817.8 C1367.9,978.2 1432,1123.8 1533.2,1235 C1654.9,1368.7 1830.3,1452.6 2025.4,1452.6 L2025.4,182.9 C2024.9,182.9 2024.4,182.9 2023.8,183 Z" transform="translate(255.000000, 429.000000)"/></g><g><path id="Path" fill="#FFBF47" d="M375.2,429.1 L163.8,311.5 C-156.5,887.6 54.6,1617.4 630.7,1937.7 L744.5,1723.3 C285.1,1467.9 119.8,888.5 375.2,429.1 Z"/><g id="Path"><path fill="#FFAE3A" d="M0.6,919.9 L0.6,1441.3 C0.8,1441.3 1.1,1441.3 1.3,1441.3 C251.7,1441 460.7,1264.1 510.6,1028.5 L0.6,919.9 Z" transform="translate(2279.000000, 501.000000)"/><path fill="#FFBF47" d="M629.9,241 C479,104 282.7,16.3 66.3,2.7 C45.7,1.6 25.1,0.9 4.5,0.7 C3.2,0.7 1.9,0.8 0.7,0.8 C0.7,4.2 0.7,919.9 0.7,919.9 L914.5,1114.3 C927,1053.7 933.7,991 933.7,926.7 C933.5,654.9 816.4,410.4 629.9,241 Z" transform="translate(2279.000000, 501.000000)"/></g><g id="Path"><g><path fill="#3442D9" d="M835.7,706.8 L608.3,202.4 C390.4,300.7 245.6,494.5 200.9,712 L564.7,913.1 C647.3,833.2 738.5,764.2 835.7,706.8 Z" transform="translate(686.000000, 0.000000)"/><path fill="#FFBF47" d="M200.9,712 C245.7,494.5 390.4,300.7 608.3,202.4 L517.4,0.8 C254.6,119.3 73.2,343.9 0.4,601.1 L200.9,712 L200.9,712 Z" transform="translate(686.000000, 0.000000)"/></g><path fill="#F74868" d="M0.7,3139.8 C302.7,3298.3 676,3182 834.5,2880 C857.1,2836.9 874,2792.4 885.6,2747.2 C684.6,2735.5 482.9,2682.3 293,2582.9 L0.7,3139.8 Z"/></g><circle id="Oval" cx="2066.2" cy="1235.7" r="119.2" fill="#383B62"/></g></g></g></g></svg>