<svg xmlns="http://www.w3.org/2000/svg" xmlns:xlink="http://www.w3.org/1999/xlink" width="3336" height="972" version="1.1" viewBox="0 0 3336 972"><title>Slice</title><desc>Created with Sketch.</desc><g id="Page-1" fill="none" fill-rule="evenodd" stroke="none" stroke-width="1"><g id="berty_color" fill-rule="nonzero" transform="translate(1.000000, 0.000000)"><g id="text" fill="#F74868" transform="translate(1057.000000, 5.000000)"><path id="Path" d="M2137.15192,263.172602 L2068.10217,443.935979 C2057.93185,471.351486 2048.79211,499.797448 2040.68297,532.283875 L2038.62179,532.283875 C2029.48205,498.794111 2020.34232,469.317695 2010.19911,442.932642 L1942.12572,263.145485 L1794.83226,263.145485 L1966.48026,699.841167 C1922.81566,805.489849 1878.14758,847.114778 1807.03665,870.489821 L1867.97725,966.945766 C1978.68466,939.530258 2053.86372,845.108104 2115.80779,683.597953 L2277.33971,263.145485 L2137.15192,263.145485 L2137.15192,263.172602 Z"/><path id="Path" d="M1617.89568,119.99369 L1475.72807,173.821368 L1475.72807,263.172602 L1421.32359,263.172602 L1422.29995,385.064498 L1472.66341,385.064498 L1472.66341,572.932586 C1472.66341,665.348065 1541.71315,731.324257 1643.28082,731.324257 C1672.76121,731.324257 1698.14635,727.283791 1713.36116,720.151963 L1724.53495,598.314302 C1711.35421,603.412339 1696.11228,605.419013 1676.80222,605.419013 C1643.2537,605.419013 1619.92975,586.111554 1619.92975,551.591335 L1619.92975,385.064498 L1750.92356,385.064498 L1762.09736,263.172602 L1617.86856,263.172602 L1617.86856,119.99369 L1617.89568,119.99369 Z"/><path id="Path" d="M1182.95824,335.277285 L1178.91723,263.172602 L1041.7941,263.172602 L1041.7941,723.243326 L1190.06391,723.243326 L1190.06391,541.449495 C1190.06391,430.757011 1263.18178,384.034044 1342.40185,384.034044 C1349.50752,384.034044 1352.57218,384.034044 1354.60625,384.034044 L1355.85381,265.152159 C1280.67475,265.125042 1211.40804,277.382025 1182.95824,335.277285 Z"/><path id="Shape" d="M752.007568,248.936063 C623.020696,248.936063 512.286171,341.351542 512.286171,490.658946 C512.286171,640.942569 631.129837,737.452748 781.460836,737.452748 C842.401438,737.452748 887.123758,726.280454 918.58397,711.040578 L931.818956,588.145345 C892.195361,611.49327 851.541172,623.696018 798.736832,623.696018 C717.482697,623.696018 674.794442,576.973051 663.647764,536.324341 L862.904818,536.893803 C862.904818,536.893803 945.840448,536.893803 955.034424,477.018985 C955.034424,477.018985 958.207566,446.701935 958.207566,431.760348 C958.207566,337.311077 879.990968,248.936063 752.007568,248.936063 Z M821.084432,440.925967 L658.57616,440.925967 C668.746488,394.203001 707.33949,361.716573 752.034689,361.716573 C794.722943,361.716573 822.115025,394.203001 822.115025,430.757011 C822.115025,434.797476 822.115025,437.861722 821.084432,440.925967 Z"/><path id="Shape" d="M200.206285,248.936063 C175.797499,248.936063 157.518031,253.030763 144.337286,258.074565 L144.337286,0.162703309 L0.108483492,0.162703309 L0.108483492,688.723107 C40.7626722,714.104823 104.740812,737.479865 182.930289,737.479865 C340.394078,737.479865 452.104954,644.033932 452.104954,485.588026 C452.077833,344.415788 334.26476,248.936063 200.206285,248.936063 Z M193.100616,608.456141 C172.787082,608.456141 156.541679,604.415676 144.337286,599.317639 L144.337286,390.135418 C155.511086,383.030707 178.862158,376.902215 199.175692,376.902215 C256.075283,376.902215 308.879623,422.621845 308.879623,490.658946 C308.879623,560.756955 264.184424,608.456141 193.100616,608.456141 Z"/></g><g id="bird"><path id="Path" fill="#3F49EA" d="M437.975079,346.474089 C437.975079,343.707287 438.029317,340.940486 438.164913,338.20081 C442.476866,242.502024 523.427678,166.252227 620.11187,166.035223 C620.216103,148.159514 618.209282,136.549798 618.209282,136.142915 C618.561831,136.142915 618.914381,136.115789 619.239811,136.115789 C564.920054,135.600405 511.251157,146.369231 461.595902,167.201619 C444.781998,174.254251 428.45624,182.446154 412.699985,191.750202 L412.699985,191.750202 C392.902969,203.441296 374.055125,216.868421 356.400526,232.031579 C350.515659,237.076923 344.766389,242.312146 339.152714,247.737247 L240.520184,193.133603 L186.173308,163.078543 L101.751238,116.395547 C32.5430399,240.901619 77.2626006,397.904049 201.577013,467.263968 L79.4050174,700.597571 C79.4321366,700.597571 79.4321366,700.624696 79.4592558,700.624696 C130.958617,727.587449 185.685162,742.018219 240.167635,745.191903 C391.113102,754.007692 540.377178,675.777733 615.090574,533.097571 L617.965209,526.940081 C617.070275,526.940081 616.148223,526.940081 615.253289,526.912955 C517.081785,525.231174 437.975079,445.102429 437.975079,346.474089 Z"/><path id="Path" fill="#FFBF47" d="M484.945533,451.368421 C457.500903,421.204858 440.117496,381.710121 438.164913,338.20081 C438.029317,340.940486 437.975079,343.707287 437.975079,346.474089 C437.975079,445.102429 517.054666,525.2583 615.280408,526.912955 C616.338057,526.940081 617.368587,526.940081 618.426235,526.940081 L618.426235,510.366397 C565.543796,510.393522 517.9496,487.635223 484.945533,451.368421 Z"/><path id="Path" fill="#FFF" d="M617.992328,166.008097 C521.31238,166.225101 442.503985,242.502024 438.164913,338.20081 C440.117496,381.710121 457.500903,421.204858 484.945533,451.368421 C517.9496,487.635223 565.516676,510.393522 618.426235,510.393522 L618.426235,165.980972 C618.290639,165.980972 618.155043,165.980972 617.992328,166.008097 Z"/><path id="Path" fill="#FFBF47" d="M101.751238,116.395547 L44.4212495,84.4959514 C-42.4415479,240.765992 14.8070832,438.727935 171.040794,525.610931 L201.902444,467.453846 C77.316839,398.175304 32.4888015,241.010121 101.751238,116.395547 Z"/><path id="Path" fill="#FFAE3A" d="M618.209282,385.426316 L618.209282,526.858704 C618.26352,526.858704 618.344878,526.858704 618.399116,526.858704 C686.305593,526.777328 742.984721,478.792308 756.517201,414.884615 L618.209282,385.426316 Z"/><path id="Path" fill="#FFBF47" d="M788.870407,201.271255 C747.947534,164.109312 694.712545,140.320243 636.026596,136.631174 C630.440041,136.332794 624.853486,136.142915 619.266931,136.088664 C618.914381,136.088664 618.561831,136.115789 618.236401,136.115789 C618.236401,137.038057 618.236401,385.426316 618.236401,385.426316 L866.05165,438.1583 C869.44155,421.720243 871.258536,404.712551 871.258536,387.27085 C871.204298,313.543725 839.447715,247.221862 788.870407,201.271255 Z"/><path id="Path" fill="#3442D9" d="M412.672865,191.723077 L351.003805,54.9020243 C291.911068,81.5663968 252.642467,134.135628 240.520184,193.133603 L339.179834,247.682996 C361.580293,226.009717 386.313003,207.293117 412.672865,191.723077 Z"/><path id="Path" fill="#FFBF47" d="M240.520184,193.133603 C252.669586,134.135628 291.911068,81.5663968 351.003805,54.9020243 L326.352452,0.217004049 C255.083195,32.3607287 205.888966,93.2846154 186.146188,163.051417 L240.520184,193.133603 L240.520184,193.133603 Z"/><path id="Path" fill="#F74868" d="M0.1898344,851.68664 C82.0898182,894.680567 183.325792,863.133603 226.309723,781.214575 C232.438663,769.523482 237.021807,757.452632 240.167635,745.191903 C185.658043,742.018219 130.958617,727.587449 79.4592558,700.624696 L0.1898344,851.68664 Z"/><ellipse id="Oval" cx="560.337" cy="335.19" fill="#383B62" rx="32.326" ry="32.334"/></g></g></g></svg>