<svg xmlns="http://www.w3.org/2000/svg" xmlns:xlink="http://www.w3.org/1999/xlink" width="512" height="448" version="1.1" viewBox="0 0 512 448"><title>home-light</title><desc>Created with Sketch.</desc><g id="Page-1" fill="none" fill-rule="evenodd" stroke="none" stroke-width="1"><g id="home-light" fill="#353DD0" fill-rule="nonzero"><path id="Shape" d="M509,197.16 L448,147.33 L448,69.93 C448,66.6162915 445.313708,63.93 442,63.93 L422,63.93 C418.686292,63.93 416,66.6162915 416,69.93 L416,121.26 L276.19,7.14 C264.407407,-2.36324162 247.592593,-2.36324162 235.81,7.14 L3,197.16 C-0.418966782,199.946323 -0.937852582,204.974148 1.84,208.4 L11.94,220.81 C14.7143223,224.212734 19.7126081,224.743802 23.14,222 L64,188.62 L64,431.62 C64,440.456556 71.163444,447.62 80,447.62 L208,447.62 C216.836556,447.62 224,440.456556 224,431.62 L224,303.62 L288,303.92 L288,432 C288,440.836556 295.163444,448 304,448 L432,447.67 C440.836556,447.67 448,440.506556 448,431.67 L448,188.62 L488.86,222 C492.287417,224.784632 497.322908,224.265417 500.11,220.84 L510.21,208.43 C511.547885,206.776592 512.172295,204.658484 511.945246,202.54374 C511.718197,200.428996 510.658382,198.491714 509,197.16 Z M415.89,415.75 L415.99,415.75 L319.99,416.05 L319.99,287.88 C319.962738,279.074243 312.845628,271.934823 304.04,271.88 L208.04,271.61 C203.78788,271.596712 199.70536,273.276554 196.693955,276.278577 C193.682551,279.280601 191.989979,283.357859 191.99,287.61 L191.99,415.75 L96,415.75 L96,162.51 L256,31.94 L416,162.51 L415.89,415.75 Z"/></g></g></svg>