<svg xmlns="http://www.w3.org/2000/svg" xmlns:xlink="http://www.w3.org/1999/xlink" width="512" height="512" version="1.1" viewBox="0 0 512 512"><title>rocket-launch-light</title><desc>Created with Sketch.</desc><g id="Page-1" fill="none" fill-rule="evenodd" stroke="none" stroke-width="1"><g id="rocket-launch-light" fill="#353DD0" fill-rule="nonzero"><path id="Shape" d="M368.05829,88.0293 C345.410019,88.0280987 324.991192,101.670216 316.323333,122.594184 C307.655474,143.518151 312.445626,167.603215 328.460087,183.618245 C344.474549,199.633276 368.559442,204.424284 389.483718,195.757168 C410.407993,187.090053 424.05044,166.671711 424.05044,144.02344 C424.037858,113.10472 398.977009,88.0429804 368.05829,88.0293 Z M368.05829,168.02148 C358.35183,168.022257 349.600699,162.175824 345.88566,153.208447 C342.170621,144.241071 344.223314,133.918788 351.086543,127.05501 C357.949772,120.191232 368.27189,118.137713 377.239563,121.852035 C386.207237,125.566357 392.05437,134.31702 392.05437,144.02348 C392.040884,157.27087 381.305679,168.006934 368.05829,168.02148 Z M505.1656,19.29492 C503.98982,13.832 498.18123,8.0293 492.71835,6.86133 C460.63244,0 435.48793,0 410.45084,0 C307.26342,0 245.38261,55.19727 199.18734,127.98828 L95.01555,127.98828 C78.72255,127.98828 59.42769,139.91016 52.13863,154.48438 L2.73242,253.27344 C1.20469134,256.64322 0.350140166,260.279049 0.2168,263.97656 C0.2168,277.227951 10.9614791,287.96967 24.21287,287.97456 L128.13466,287.97456 C181.147453,287.975775 224.121893,330.951997 224.12091,383.96479 L224.12091,487.95508 C224.123355,501.207047 234.865024,511.95308 248.11699,511.95308 C251.813362,511.815951 255.447827,510.961564 258.81815,509.43746 L357.53486,460.03707 C372.09149,452.75191 384.00164,433.47457 384.00164,417.19723 L384.00164,312.76758 C456.568,266.46094 511.982,204.37109 511.982,101.69336 C512.0738,76.54492 512.0738,51.39648 505.1656,19.29492 Z M37.15427,255.97656 L80.75579,168.79492 C82.60735,165.08984 90.87102,159.98438 95.01555,159.98438 L180.09555,159.98438 C166.16001,188.04492 148.38268,223.98047 132.5409,255.97656 L132.6073,256.42969 C131.08778,256.377 61.01753,255.97656 37.15427,255.97656 Z M352.00557,417.19727 C352.00557,421.32812 346.91378,429.57227 343.21657,431.42188 L256.115,475.01172 C256.115,451.10938 255.7107,380.95117 255.65406,379.40234 L256.02125,379.44922 C288.01731,363.62305 323.82392,345.85938 351.88054,331.90822 L352.00557,331.91022 L352.00557,417.19727 Z M249.92757,346.68359 C237.491166,306.202884 205.785322,274.527017 165.29287,262.12891 C217.32018,158.14258 265.06232,31.99609 410.45087,31.99609 C431.61487,31.99609 451.74771,31.99609 475.87074,36.18359 C480.13636,60.56059 480.06214,80.56836 479.98597,101.69336 C479.98594,246.66406 353.00752,295.1543 249.92753,346.68359 L249.92757,346.68359 Z M102.43357,319.9707 C54.35347,319.9707 2.03125,359.31836 0.168,480 L0,480 L0,512 L32,512 L32,511.76758 C203.617,508.42969 216.8885,396.74414 165.80065,345.40039 C150.85925,330.38477 127.22255,319.9707 102.43351,319.9707 L102.43357,319.9707 Z M155.34757,429.36914 C142.51164,460.51758 97.7109,478.79883 31.98048,479.91992 C32.04494,476.36523 30.86134,352.03125 102.43355,352.03125 C117.52924,352.03125 133.54876,358.32617 143.24406,368.07031 C156.05456,380.94336 164.6483,406.80273 155.34753,429.36914 L155.34757,429.36914 Z"/></g></g></svg>