<svg xmlns="http://www.w3.org/2000/svg" xmlns:xlink="http://www.w3.org/1999/xlink" width="640" height="448" version="1.1" viewBox="0 0 640 448"><title>bg_i_community</title><desc>Created with Sketch.</desc><g id="Page-1" fill="none" fill-rule="evenodd" stroke="none" stroke-width="1"><g id="bg_i_community" fill="#353DD0" fill-rule="nonzero"><path id="Shape" d="M544,192 C588.2,192 624,156.2 624,112 C624,67.8 588.2,32 544,32 C499.8,32 464,67.8 464,112 C464,156.2 499.8,192 544,192 Z M544,64 C570.5,64 592,85.5 592,112 C592,138.5 570.5,160 544,160 C517.5,160 496,138.5 496,112 C496,85.5 517.5,64 544,64 Z M320,224 C381.9,224 432,173.9 432,112 C432,50.1 381.9,0 320,0 C258.1,0 208,50.1 208,112 C208,173.9 258.1,224 320,224 Z M320,32 C364.1,32 400,67.9 400,112 C400,156.1 364.1,192 320,192 C275.9,192 240,156.1 240,112 C240,67.9 275.9,32 320,32 Z M564,224 L524,224 C508.8,224 494.7,228.8 482.9,236.9 C492.3,243.3 500.8,250.8 508.3,259.3 C513.2,257.2 518.5,256 524,256 L564,256 C588.2,256 608,277.5 608,304 C608,312.8 615.2,320 624,320 C632.8,320 640,312.8 640,304 C640,259.9 605.9,224 564,224 L564,224 Z M96,192 C140.2,192 176,156.2 176,112 C176,67.8 140.2,32 96,32 C51.8,32 16,67.8 16,112 C16,156.2 51.8,192 96,192 Z M96,64 C122.5,64 144,85.5 144,112 C144,138.5 122.5,160 96,160 C69.5,160 48,138.5 48,112 C48,85.5 69.5,64 96,64 Z M400.1,244 C366.7,244 358.4,256 320,256 C281.6,256 273.3,244 239.9,244 C203.6,244 168.3,260.2 147.6,290.9 C135.2,309.3 128,331.4 128,355.2 L128,400 C128,426.5 149.5,448 176,448 L464,448 C490.5,448 512,426.5 512,400 L512,355.2 C512,331.4 504.8,309.3 492.4,290.9 C471.7,260.2 436.4,244 400.1,244 L400.1,244 Z M480,400 C480,408.8 472.8,416 464,416 L176,416 C167.2,416 160,408.8 160,400 L160,355.2 C160,338.6 164.9,322.5 174.1,308.8 C187.9,288.3 212.5,276 239.8,276 C267.2,276 277,288 320,288 C363,288 372.8,276 400.1,276 C427.4,276 452,288.3 465.8,308.8 C475,322.5 479.9,338.6 479.9,355.2 L479.9,400 L480,400 Z M157.1,236.9 C145.2,228.8 131.1,224 116,224 L76,224 C34.1,224 0,259.9 0,304 C0,312.8 7.2,320 16,320 C24.8,320 32,312.8 32,304 C32,277.5 51.8,256 76,256 L116,256 C121.5,256 126.8,257.2 131.7,259.3 C139.2,250.8 147.8,243.3 157.1,236.9 L157.1,236.9 Z"/></g></g></svg>