<?xml version="1.0" encoding="UTF-8"?>
<svg width="512px" height="513px" viewBox="0 0 512 513" version="1.1" xmlns="http://www.w3.org/2000/svg" xmlns:xlink="http://www.w3.org/1999/xlink">
    <!-- Generator: Sketch 60 (88103) - https://sketch.com -->
    <title>stars-light</title>
    <desc>Created with Sketch.</desc>
    <g id="Page-1" stroke="none" stroke-width="1" fill="none" fill-rule="evenodd">
        <g id="stars-light" fill="#353DD0" fill-rule="nonzero">
            <path d="M364.3,267.9 L259.4,252.6 L212.5,157.3 C208.3,148.8 200.1,144.5 191.9,144.5 C183.7,144.5 175.6,148.7 171.4,157.3 L124.5,252.6 L19.7,267.9 C0.9,270.6 -6.6,293.9 7,307.2 L82.9,381.3 L64.9,486 C62.3,501 74.2,513 87.5,513 C91,513 94.7,512.2 98.2,510.3 L192,460.9 L285.8,510.3 C289.3,512.1 292.9,513 296.4,513 C309.7,513 321.6,501 319.1,486.1 L301.2,381.4 L377.1,307.3 C390.7,293.9 383.1,270.7 364.3,267.9 Z M278.8,358.4 L266.8,370.2 L269.6,386.8 L284.4,473.4 L206.8,432.5 L191.9,424.6 L177,432.5 L99.4,473.4 L114.2,386.8 L117,370.2 L105,358.4 L42.3,297 L129.1,284.3 L145.7,281.9 L153.1,266.8 L192,188 L230.8,266.8 L238.2,281.9 L254.8,284.3 L341.6,297 L278.8,358.4 Z M248.8,110.8 L297.4,135.1 L321.7,183.7 C324.4,189.1 329.9,192.6 336,192.6 C342.1,192.6 347.6,189.2 350.3,183.7 L374.6,135.1 L423.2,110.8 C428.6,108.1 432,102.5 432,96.5 C432,90.5 428.6,84.9 423.2,82.2 L374.6,57.9 L350.3,9.1 C344.9,-1.8 327.1,-1.8 321.7,9.1 L297.4,57.7 L248.8,82 C243.4,84.7 240,90.3 240,96.3 C240,102.3 243.4,108 248.8,110.8 Z M316.5,84 C319.6,82.5 322.1,79.9 323.7,76.8 L336,52.1 L348.3,76.8 C349.9,79.9 352.4,82.4 355.5,84 L380.2,96.4 L355.5,108.8 C352.4,110.3 349.9,112.9 348.3,116 L336,140.7 L323.7,116 C322.1,112.9 319.6,110.4 316.5,108.8 L291.8,96.4 L316.5,84 Z M480,192.6 L464,160.6 L448,192.6 L416,208.6 L448,224.6 L464,256.6 L480,224.6 L512,208.6 L480,192.6 Z" id="Shape"></path>
        </g>
    </g>
</svg>