<svg xmlns="http://www.w3.org/2000/svg" xmlns:xlink="http://www.w3.org/1999/xlink" width="496" height="496" version="1.1" viewBox="0 0 496 496"><title>life-ring-light</title><desc>Created with Sketch.</desc><g id="Page-1" fill="none" fill-rule="evenodd" stroke="none" stroke-width="1"><g id="life-ring-light" fill="#F2326C" fill-rule="nonzero"><path id="Shape" d="M248,0 C111.033,0 0,111.033 0,248 C0,384.967 111.033,496 248,496 C384.967,496 496,384.967 496,248 C496,111.033 384.967,0 248,0 Z M416.766,113.176 L353.881,176.061 C344.795671,162.719172 333.281828,151.205329 319.94,142.12 L382.825,79.235 C395.35721,89.2607105 406.740289,100.64379 416.766,113.176 Z M248,344 C195.065,344 152,300.935 152,248 C152,195.065 195.065,152 248,152 C300.935,152 344,195.065 344,248 C344,300.935 300.935,344 248,344 Z M355.952,60.853 L289.812,126.993 C262.822,117.668 233.194,117.663 206.188,126.993 L140.049,60.853 C206.765,22.329 289.279,22.354 355.952,60.853 Z M113.176,79.234 L176.061,142.119 C162.719172,151.204329 151.205329,162.718172 142.12,176.06 L79.235,113.175 C89.2607105,100.64279 100.64379,89.2597105 113.176,79.234 L113.176,79.234 Z M60.853,140.048 L126.992,206.188 C117.667,233.178 117.662,262.806 126.992,289.812 L60.853,355.952 C22.33,289.237 22.353,206.723 60.853,140.048 Z M79.234,382.824 L142.119,319.939 C151.204329,333.280828 162.718172,344.794671 176.06,353.88 L113.175,416.765 C100.643026,406.739026 89.2599738,395.355974 79.234,382.824 L79.234,382.824 Z M140.048,435.147 L206.187,369.007 C233.177,378.332 262.805,378.337 289.811,369.007 L355.951,435.147 C289.235,473.671 206.721,473.646 140.048,435.147 Z M382.824,416.766 L319.939,353.881 C333.280828,344.795671 344.794671,333.281828 353.88,319.94 L416.765,382.825 C406.739289,395.35721 395.35621,406.740289 382.824,416.766 Z M435.147,355.952 L369.007,289.812 C378.332,262.822 378.337,233.194 369.007,206.188 L435.147,140.048 C473.67,206.763 473.647,289.277 435.147,355.952 Z"/></g></g></svg>