<?xml version="1.0" encoding="UTF-8"?>
<svg width="1120px" height="316px" viewBox="0 0 1120 316" version="1.1" xmlns="http://www.w3.org/2000/svg" xmlns:xlink="http://www.w3.org/1999/xlink">
    <!-- Generator: Sketch 60 (88103) - https://sketch.com -->
    <title>Slice</title>
    <desc>Created with Sketch.</desc>
    <g id="Page-1" stroke="none" stroke-width="1" fill="none" fill-rule="evenodd">
        <g id="heart" transform="translate(566.000000, 270.500000) rotate(-9.000000) translate(-566.000000, -270.500000) translate(551.000000, 258.000000)" fill="#6F77FE" fill-rule="nonzero">
            <path d="M26.7949812,1.90545157 C23.7080381,-0.580274921 19.0917837,-0.167772896 16.2257411,2.62866941 L15.1099103,3.72153192 L13.9940795,2.63402658 C11.6831202,0.37330119 7.02155293,-0.987419778 3.4248394,1.90545157 C-0.13222532,4.77689424 -0.319141141,9.93049097 2.86409194,13.0376491 L13.824156,23.7412731 C14.1753312,24.0841319 14.6397887,24.2609185 15.1042462,24.2609185 C15.5687037,24.2609185 16.0331612,24.0894891 16.3843363,23.7412731 L27.3444004,13.0376491 C30.5389617,9.93049097 30.3520459,4.77689424 26.7949812,1.90545157 Z M26.052982,11.8483575 L15.1325668,22.5519815 L4.16683857,11.8483575 C1.9918181,9.72691855 1.53868884,5.68225583 4.60297549,3.21260085 C7.70691094,0.705445678 11.3546015,2.52152602 12.6913328,3.8286753 L15.1099103,6.1911869 L17.5284877,3.8286753 C18.8425626,2.5429547 22.5242379,0.721517185 25.6168451,3.21260085 C28.6754676,5.67689866 28.2280025,9.72156138 26.052982,11.8483575 Z" id="Shape"></path>
        </g>
        <g id="mobile-1" transform="translate(284.000000, 266.000000) rotate(-28.000000) translate(-284.000000, -266.000000) translate(274.000000, 250.000000)" fill="#6F77FE" fill-rule="nonzero">
            <path d="M12,26 C12,27.10625 11.10625,28 10,28 C8.89375,28 8,27.10625 8,26 C8,24.89375 8.89375,24 10,24 C11.10625,24 12,24.89375 12,26 Z M20,3 L20,29 C20,30.65625 18.65625,32 17,32 L3,32 C1.34375,32 0,30.65625 0,29 L0,3 C0,1.34375 1.34375,0 3,0 L17,0 C18.65625,0 20,1.34375 20,3 Z M18,3 C18,2.45 17.55,2 17,2 L3,2 C2.45,2 2,2.45 2,3 L2,29 C2,29.55 2.45,30 3,30 L17,30 C17.55,30 18,29.55 18,29 L18,3 Z" id="Shape"></path>
        </g>
        <g id="mobile-2" transform="translate(616.500000, 94.500000) rotate(10.000000) translate(-616.500000, -94.500000) translate(606.000000, 78.000000)" fill="#6F77FE" fill-rule="nonzero">
            <path d="M12.7395277,26.0227884 C12.7395277,27.1290384 11.8457777,28.0227884 10.7395277,28.0227884 C9.63327773,28.0227884 8.73952773,27.1290384 8.73952773,26.0227884 C8.73952773,24.9165384 9.63327773,24.0227884 10.7395277,24.0227884 C11.8457777,24.0227884 12.7395277,24.9165384 12.7395277,26.0227884 Z M20.7395277,3.02278837 L20.7395277,29.0227884 C20.7395277,30.6790384 19.3957777,32.0227884 17.7395277,32.0227884 L3.73952773,32.0227884 C2.08327773,32.0227884 0.739527733,30.6790384 0.739527733,29.0227884 L0.739527733,3.02278837 C0.739527733,1.36653837 2.08327773,0.0227883705 3.73952773,0.0227883705 L17.7395277,0.0227883705 C19.3957777,0.0227883705 20.7395277,1.36653837 20.7395277,3.02278837 Z M18.7395277,3.02278837 C18.7395277,2.47278837 18.2895277,2.02278837 17.7395277,2.02278837 L3.73952773,2.02278837 C3.18952773,2.02278837 2.73952773,2.47278837 2.73952773,3.02278837 L2.73952773,29.0227884 C2.73952773,29.5727884 3.18952773,30.0227884 3.73952773,30.0227884 L17.7395277,30.0227884 C18.2895277,30.0227884 18.7395277,29.5727884 18.7395277,29.0227884 L18.7395277,3.02278837 Z" id="Shape"></path>
        </g>
        <g id="pizza" transform="translate(782.000000, 42.000000) rotate(-84.000000) translate(-782.000000, -42.000000) translate(766.000000, 26.000000)" fill="#6F77FE" fill-rule="nonzero">
            <path d="M9.89346789,0.256946033 C9.82746954,0.250891392 9.76147119,0.24774354 9.69607834,0.24774354 C8.78955038,0.237936213 7.99100709,0.842234149 7.75427374,1.71732544 L0.307359287,30.0142955 C0.230100155,30.3080675 0.292962054,30.6210541 0.477660451,30.8622175 C0.662358849,31.1033809 0.948156077,31.2456436 1.25192279,31.2476259 C1.34198469,31.2476259 1.43159777,31.2349265 1.51833814,31.2106926 L29.8310237,23.3602451 C30.7828531,23.0968682 31.3744163,22.1692972 31.2611898,21.1872344 C29.9969278,10.2428654 20.907926,1.29652789 9.89346789,0.256946033 Z M2.60458617,28.8990307 L8.32706674,7.14470561 C17.3064749,7.99235535 23.3662131,13.9640478 24.3392346,22.8716356 L2.60458617,28.8990307 Z M26.2283616,22.3473037 C25.0615835,12.7428267 18.5071605,6.29100124 8.82720101,5.25323577 L9.62886901,2.20714589 C9.6475453,2.19134551 9.67168323,2.18351732 9.69607834,2.18534919 L9.71121557,2.18534919 C19.7423589,3.13168957 28.1786431,11.3962745 29.3133303,21.4929938 L26.2283616,22.3473037 Z M11.8994544,10.9040322 C10.294322,10.9040322 8.99310511,12.2051946 8.99310511,13.8102599 C8.99310511,15.4153251 10.294322,16.7164875 11.8994544,16.7164875 C13.5045867,16.7164875 14.8058036,15.4153251 14.8058036,13.8102599 C14.8041349,12.2058863 13.503895,10.9057008 11.8994544,10.9040322 L11.8994544,10.9040322 Z M11.8994544,14.7790024 C11.3644102,14.7790024 10.9306713,14.3452816 10.9306713,13.8102599 C10.9306713,13.2752381 11.3644102,12.8415173 11.8994544,12.8415173 C12.4344985,12.8415173 12.8682374,13.2752381 12.8682374,13.8102599 C12.8682374,14.3452816 12.4344985,14.7790024 11.8994544,14.7790024 Z M8.99310511,19.6227152 C7.38797274,19.6227152 6.08675586,20.9238777 6.08675586,22.5289429 C6.08675586,24.1340081 7.38797274,25.4351706 8.99310511,25.4351706 C10.5982375,25.4351706 11.8994544,24.1340081 11.8994544,22.5289429 C11.8977857,20.9245693 10.5975458,19.6243838 8.99310511,19.6227152 Z M8.99310511,23.4976854 C8.45806099,23.4976854 8.02432203,23.0639646 8.02432203,22.5289429 C8.02432203,21.9939211 8.45806099,21.5602003 8.99310511,21.5602003 C9.52814923,21.5602003 9.96188819,21.9939211 9.96188819,22.5289429 C9.96188819,23.0639646 9.52814923,23.4976854 8.99310511,23.4976854 Z M14.8058036,19.6227152 C14.8058036,21.2277804 16.1070205,22.5289429 17.7121529,22.5289429 C19.3172852,22.5289429 20.6185021,21.2277804 20.6185021,19.6227152 C20.6185021,18.01765 19.3172852,16.7164875 17.7121529,16.7164875 C16.1077122,16.7181562 14.8074723,18.0183417 14.8058036,19.6227152 L14.8058036,19.6227152 Z M18.6809359,19.6227152 C18.6809359,20.157737 18.247197,20.5914578 17.7121529,20.5914578 C17.1771087,20.5914578 16.7433698,20.157737 16.7433698,19.6227152 C16.7433698,19.0876935 17.1771087,18.6539727 17.7121529,18.6539727 C18.247197,18.6539727 18.6809359,19.0876935 18.6809359,19.6227152 Z" id="Shape"></path>
        </g>
        <g id="window" transform="translate(334.000000, 97.500000) rotate(-13.000000) translate(-334.000000, -97.500000) translate(320.000000, 85.000000)" fill="#6F77FE" fill-rule="nonzero">
            <path d="M5.58929191,7.23354956 C4.65589348,7.23354956 3.90179191,6.46747814 3.90179191,5.51926385 C3.90179191,4.57104956 4.65589348,3.80497814 5.58929191,3.80497814 C6.52269035,3.80497814 7.27679191,4.57104956 7.27679191,5.51926385 C7.27679191,6.46747814 6.52269035,7.23354956 5.58929191,7.23354956 Z M12.3392919,5.51926385 C12.3392919,4.57104956 11.5851904,3.80497814 10.6517919,3.80497814 C9.71839348,3.80497814 8.96429191,4.57104956 8.96429191,5.51926385 C8.96429191,6.46747814 9.71839348,7.23354956 10.6517919,7.23354956 C11.5851904,7.23354956 12.3392919,6.46747814 12.3392919,5.51926385 Z M17.4017919,5.51926385 C17.4017919,4.57104956 16.6476904,3.80497814 15.7142919,3.80497814 C14.7808935,3.80497814 14.0267919,4.57104956 14.0267919,5.51926385 C14.0267919,6.46747814 14.7808935,7.23354956 15.7142919,7.23354956 C16.6476904,7.23354956 17.4017919,6.46747814 17.4017919,5.51926385 Z M27.5267919,2.94783528 L27.5267919,21.8049781 C27.5267919,23.224621 26.3930029,24.3764067 24.9955419,24.3764067 L3.05804191,24.3764067 C1.66058098,24.3764067 0.526791914,23.224621 0.526791914,21.8049781 L0.526791914,2.94783528 C0.526791914,1.52819242 1.66058098,0.376406707 3.05804191,0.376406707 L24.9955419,0.376406707 C26.3930029,0.376406707 27.5267919,1.52819242 27.5267919,2.94783528 Z M25.8392919,10.662121 L2.21429191,10.662121 L2.21429191,21.8049781 C2.21429191,22.2764067 2.59397941,22.662121 3.05804191,22.662121 L24.9955419,22.662121 C25.4596044,22.662121 25.8392919,22.2764067 25.8392919,21.8049781 L25.8392919,10.662121 Z M25.8392919,8.94783528 L25.8392919,2.94783528 C25.8392919,2.47640671 25.4596044,2.09069242 24.9955419,2.09069242 L3.05804191,2.09069242 C2.59397941,2.09069242 2.21429191,2.47640671 2.21429191,2.94783528 L2.21429191,8.94783528 L25.8392919,8.94783528 Z" id="Shape"></path>
        </g>
        <g id="rocket" transform="translate(934.000000, 99.500000) rotate(-13.000000) translate(-934.000000, -99.500000) translate(917.000000, 83.000000)" fill="#6F77FE" fill-rule="nonzero">
            <path d="M33.026851,1.83234329 C32.9409662,1.4456331 32.6291104,1.14374215 32.2301434,1.06109329 C30.1281502,0.623593293 28.4831681,0.623593293 26.8439873,0.623593293 C20.1577024,0.623593293 16.1329108,4.06734329 13.1207629,8.62359329 L6.58466641,8.62359329 C5.41482053,8.62455301 4.34556551,9.26518598 3.82132855,10.2792183 L0.635787229,16.4542183 C0.396596784,16.9193153 0.422745199,17.4713223 0.704898835,17.9132013 C0.987052471,18.3550803 1.4850006,18.6238575 2.02100137,18.6235933 L7.9898627,18.6235933 L7.3072467,19.9623433 C6.91722596,20.7286284 7.07693266,21.6509545 7.70366676,22.2517183 L11.1696028,25.6092183 C11.5555475,25.9853408 12.079813,26.1973535 12.6270105,26.1985933 C12.9401237,26.1982595 13.248937,26.1278934 13.5294301,25.9929683 L14.9081984,25.3317183 L14.9081984,31.1235933 C14.9110283,31.9508812 15.6019911,32.6208494 16.4552035,32.6235933 C16.6931975,32.6235933 16.9278529,32.5692933 17.1403978,32.4654683 L23.5024563,29.3785933 C24.5500904,28.8711668 25.2115852,27.8328321 25.2106077,26.6973433 L25.2106077,20.3554683 C29.9019007,17.4317183 33.4722595,13.5142183 33.4722595,7.06109329 C33.4774162,5.46546829 33.4774162,3.87359329 33.026851,1.83234329 Z M8.72017802,16.6235933 L2.85445037,16.6235933 L5.66419837,11.1735933 C5.84040111,10.8374242 6.19575982,10.6250896 6.58466641,10.6235933 L12.0752453,10.6235933 C11.1766932,12.3779683 10.0306203,14.6235933 9.00959689,16.6235933 L8.72017802,16.6235933 Z M23.149868,26.6973433 C23.1489279,27.0756354 22.9279123,27.4210311 22.5787653,27.5898433 L16.9708719,30.3110933 L16.9708719,24.3410933 C19.0335453,23.3517183 21.3424504,22.2417183 23.149868,21.3698433 L23.149868,26.6973433 Z M24.0935412,18.6798433 C21.5474286,19.9160933 15.3355586,22.8954683 12.6257213,24.1948433 L9.15656238,20.8479683 C10.5018122,18.2085933 13.5739065,12.1860933 14.8437399,9.71171829 C18.0802034,4.81109329 21.784636,2.62359329 26.8439873,2.62359329 C28.2324244,2.62359329 29.5512462,2.62359329 31.1388602,2.89171829 C31.4186103,4.44609329 31.4134536,5.71734329 31.4082969,7.06046829 C31.4096844,11.9404683 29.153537,15.5273433 24.0935412,18.6798433 Z M24.190229,5.62359329 C21.9118628,5.62359329 20.0648821,7.41445429 20.0648821,9.62359329 C20.0648821,11.8327323 21.9118628,13.6235933 24.190229,13.6235933 C26.4685952,13.6235933 28.3155759,11.8327323 28.3155759,9.62359329 C28.3130891,7.41545382 26.4675643,5.62600449 24.190229,5.62359329 L24.190229,5.62359329 Z M24.190229,11.6235933 C23.0510459,11.6235933 22.1275555,10.7281628 22.1275555,9.62359329 C22.1275555,8.51902379 23.0510459,7.62359329 24.190229,7.62359329 C25.3294121,7.62359329 26.2529024,8.51902379 26.2529024,9.62359329 C26.2529024,10.7281628 25.3294121,11.6235933 24.190229,11.6235933 Z" id="Shape"></path>
        </g>
        <g id="pencil-1" transform="translate(473.000000, 45.000000) rotate(-1.000000) translate(-473.000000, -45.000000) translate(458.000000, 30.000000)" fill="#6F77FE" fill-rule="nonzero">
            <path d="M28.8927966,4.143519 L26.7693368,2.02006091 C25.3537157,0.604441058 23.0585212,0.604384417 21.6427869,2.02006091 L1.68164112,21.9811334 L0.963040547,28.4485898 C0.866864637,29.3143988 1.59854921,30.0460261 2.46424568,29.9497936 L8.93170745,29.2311937 L28.8928533,9.27006453 C30.3084177,7.85438804 30.3084177,5.55913885 28.8927966,4.143519 Z M23.5008285,12.0986988 L10.8099697,24.7895469 L10.8099697,22.8215674 L8.09121609,22.8215674 L8.09121609,20.102816 L6.12323494,20.102816 L18.8140937,7.4119679 L23.5008285,12.0986988 Z M8.09954227,27.4999721 L4.75802413,27.8712516 L3.0415277,26.1547566 L3.41280749,22.8132412 L4.53729532,21.6887543 L6.50527647,21.6887543 L6.50527647,24.4075057 L9.2240301,24.4075057 L9.2240301,26.3754852 L8.09954227,27.4999721 Z M27.6111308,7.98839983 L24.7824376,10.8170907 L20.0957028,6.13035984 L22.9243961,3.30166897 C23.632688,2.5933776 24.7792657,2.59326432 25.487671,3.30166897 L27.6111308,5.42512706 C28.3194795,6.13347507 28.3195361,7.27993854 27.6111308,7.98839983 L27.6111308,7.98839983 Z" id="Shape"></path>
        </g>
        <g id="database" transform="translate(442.000000, 193.500000) rotate(10.000000) translate(-442.000000, -193.500000) translate(430.000000, 180.000000)" fill="#6F77FE" fill-rule="nonzero">
            <path d="M12.4055798,2.54577203 C17.8475441,2.54577203 22.2627226,4.00573297 22.2627226,5.79577203 L22.2627226,7.42077203 C22.2627226,9.2108111 17.8475441,10.670772 12.4055798,10.670772 C6.9636155,10.670772 2.54843693,9.2108111 2.54843693,7.42077203 L2.54843693,5.79577203 C2.54843693,4.00573297 6.9636155,2.54577203 12.4055798,2.54577203 M22.2627226,10.1375689 L22.2627226,12.295772 C22.2627226,14.0858111 17.8475441,15.545772 12.4055798,15.545772 C6.9636155,15.545772 2.54843693,14.0858111 2.54843693,12.295772 L2.54843693,10.1375689 C4.66618247,11.6102252 8.54229854,12.295772 12.4055798,12.295772 C16.268861,12.295772 20.1449258,11.6102252 22.2627226,10.1375689 M22.2627226,15.0125689 L22.2627226,17.170772 C22.2627226,18.9608111 17.8475441,20.420772 12.4055798,20.420772 C6.9636155,20.420772 2.54843693,18.9608111 2.54843693,17.170772 L2.54843693,15.0125689 C4.66618247,16.4852252 8.54229854,17.170772 12.4055798,17.170772 C16.268861,17.170772 20.1449258,16.4852252 22.2627226,15.0125689 M22.2627226,19.8875689 L22.2627226,22.045772 C22.2627226,23.8358111 17.8475441,25.295772 12.4055798,25.295772 C6.9636155,25.295772 2.54843693,23.8358111 2.54843693,22.045772 L2.54843693,19.8875689 C4.66618247,21.3602252 8.54229854,22.045772 12.4055798,22.045772 C16.268861,22.045772 20.1449258,21.3602252 22.2627226,19.8875689 M12.4055798,0.920772035 C8.39382532,0.920772035 0.905579788,1.87551032 0.905579788,5.79577203 L0.905579788,22.045772 C0.905579788,25.9730923 8.40604407,26.920772 12.4055798,26.920772 C16.4173343,26.920772 23.9055798,25.9660338 23.9055798,22.045772 L23.9055798,5.79577203 C23.9055798,1.86845172 16.4051155,0.920772035 12.4055798,0.920772035 Z" id="Shape"></path>
        </g>
        <g id="branch-1" transform="translate(198.000000, 41.500000) rotate(-24.000000) translate(-198.000000, -41.500000) translate(188.000000, 28.000000)" fill="#6F77FE" fill-rule="nonzero">
            <path d="M20,7.59375 C20,5.26289062 18.1354167,3.375 15.8333333,3.375 C13.53125,3.375 11.6666667,5.26289062 11.6666667,7.59375 C11.6666667,9.6609375 13.1354167,11.3800781 15.078125,11.7439453 C15.0364583,12.6509766 14.8177083,13.3470703 14.4166667,13.8533203 C13.5052083,15.0029297 11.6510417,15.1822266 9.69270833,15.3667969 C8.22395833,15.5039062 6.703125,15.6515625 5.50520833,16.2580078 C5.328125,16.3476562 5.15625,16.4478516 5,16.5585937 L5,8.353125 C6.90104167,7.96289062 8.33333333,6.25957031 8.33333333,4.21875 C8.33333333,1.88789062 6.46875,0 4.16666667,0 C1.86458333,0 0,1.88789062 0,4.21875 C0,6.25957031 1.43229167,7.96289062 3.33333333,8.353125 L3.33333333,18.646875 C1.43229167,19.0371094 0,20.7404297 0,22.78125 C0,25.1121094 1.86458333,27 4.16666667,27 C6.46875,27 8.33333333,25.1121094 8.33333333,22.78125 C8.33333333,20.8353516 7.03645833,19.2005859 5.265625,18.7101563 C5.52604167,18.2039062 5.90625,17.9402344 6.25520833,17.7609375 C7.16666667,17.296875 8.46875,17.1703125 9.84375,17.0384766 C12.0625,16.8275391 14.359375,16.6113281 15.7135417,14.9027344 C16.359375,14.0853516 16.703125,13.0306641 16.7447917,11.7017578 C18.609375,11.2851562 20,9.60292969 20,7.59375 Z M1.66666667,4.21875 C1.66666667,2.82128906 2.78645833,1.6875 4.16666667,1.6875 C5.546875,1.6875 6.66666667,2.82128906 6.66666667,4.21875 C6.66666667,5.61621094 5.546875,6.75 4.16666667,6.75 C2.78645833,6.75 1.66666667,5.61621094 1.66666667,4.21875 Z M6.66666667,22.78125 C6.66666667,24.1787109 5.546875,25.3125 4.16666667,25.3125 C2.78645833,25.3125 1.66666667,24.1787109 1.66666667,22.78125 C1.66666667,21.3890625 2.78125,20.2552734 4.15625,20.25 L4.1875,20.25 C5.55729167,20.2605469 6.66666667,21.3943359 6.66666667,22.78125 Z M16.4479167,10.0458984 L15.8333333,10.125 C14.453125,10.125 13.3333333,8.99121094 13.3333333,7.59375 C13.3333333,6.19628906 14.453125,5.0625 15.8333333,5.0625 C17.2135417,5.0625 18.3333333,6.19628906 18.3333333,7.59375 C18.3333333,8.775 17.53125,9.76640625 16.4479167,10.0458984 Z" id="Shape"></path>
        </g>
        <g id="branch-2" transform="translate(877.000000, 257.500000) rotate(-24.000000) translate(-877.000000, -257.500000) translate(867.000000, 244.000000)" fill="#6F77FE" fill-rule="nonzero">
            <path d="M20,7.59375 C20,5.26289062 18.1354167,3.375 15.8333333,3.375 C13.53125,3.375 11.6666667,5.26289062 11.6666667,7.59375 C11.6666667,9.6609375 13.1354167,11.3800781 15.078125,11.7439453 C15.0364583,12.6509766 14.8177083,13.3470703 14.4166667,13.8533203 C13.5052083,15.0029297 11.6510417,15.1822266 9.69270833,15.3667969 C8.22395833,15.5039062 6.703125,15.6515625 5.50520833,16.2580078 C5.328125,16.3476562 5.15625,16.4478516 5,16.5585937 L5,8.353125 C6.90104167,7.96289062 8.33333333,6.25957031 8.33333333,4.21875 C8.33333333,1.88789062 6.46875,0 4.16666667,0 C1.86458333,0 0,1.88789062 0,4.21875 C0,6.25957031 1.43229167,7.96289062 3.33333333,8.353125 L3.33333333,18.646875 C1.43229167,19.0371094 0,20.7404297 0,22.78125 C0,25.1121094 1.86458333,27 4.16666667,27 C6.46875,27 8.33333333,25.1121094 8.33333333,22.78125 C8.33333333,20.8353516 7.03645833,19.2005859 5.265625,18.7101563 C5.52604167,18.2039062 5.90625,17.9402344 6.25520833,17.7609375 C7.16666667,17.296875 8.46875,17.1703125 9.84375,17.0384766 C12.0625,16.8275391 14.359375,16.6113281 15.7135417,14.9027344 C16.359375,14.0853516 16.703125,13.0306641 16.7447917,11.7017578 C18.609375,11.2851562 20,9.60292969 20,7.59375 Z M1.66666667,4.21875 C1.66666667,2.82128906 2.78645833,1.6875 4.16666667,1.6875 C5.546875,1.6875 6.66666667,2.82128906 6.66666667,4.21875 C6.66666667,5.61621094 5.546875,6.75 4.16666667,6.75 C2.78645833,6.75 1.66666667,5.61621094 1.66666667,4.21875 Z M6.66666667,22.78125 C6.66666667,24.1787109 5.546875,25.3125 4.16666667,25.3125 C2.78645833,25.3125 1.66666667,24.1787109 1.66666667,22.78125 C1.66666667,21.3890625 2.78125,20.2552734 4.15625,20.25 L4.1875,20.25 C5.55729167,20.2605469 6.66666667,21.3943359 6.66666667,22.78125 Z M16.4479167,10.0458984 L15.8333333,10.125 C14.453125,10.125 13.3333333,8.99121094 13.3333333,7.59375 C13.3333333,6.19628906 14.453125,5.0625 15.8333333,5.0625 C17.2135417,5.0625 18.3333333,6.19628906 18.3333333,7.59375 C18.3333333,8.775 17.53125,9.76640625 16.4479167,10.0458984 Z" id="Shape"></path>
        </g>
        <g id="keyboard" transform="translate(161.000000, 190.500000) rotate(9.000000) translate(-161.000000, -190.500000) translate(144.000000, 179.000000)" fill="#6F77FE" fill-rule="nonzero">
            <path d="M30.387967,0.753036643 L2.88796698,0.753036643 C1.36916489,0.753036643 0.137966976,1.98423456 0.137966976,3.50303664 L0.137966976,20.0030366 C0.137966976,21.5218387 1.36916489,22.7530366 2.88796698,22.7530366 L30.387967,22.7530366 C31.9067691,22.7530366 33.137967,21.5218387 33.137967,20.0030366 L33.137967,3.50303664 C33.137967,1.98423456 31.9067691,0.753036643 30.387967,0.753036643 Z M31.3046336,20.0030366 C31.3046336,20.508521 30.8934514,20.9197033 30.387967,20.9197033 L2.88796698,20.9197033 C2.3824826,20.9197033 1.97130031,20.508521 1.97130031,20.0030366 L1.97130031,3.50303664 C1.97130031,2.99755227 2.3824826,2.58636998 2.88796698,2.58636998 L30.387967,2.58636998 C30.8934514,2.58636998 31.3046336,2.99755227 31.3046336,3.50303664 L31.3046336,20.0030366 Z M9.76296698,12.4405366 L9.76296698,11.0655366 C9.76296698,10.6858648 9.45513885,10.3780366 9.07546698,10.3780366 L7.70046698,10.3780366 C7.3207951,10.3780366 7.01296698,10.6858648 7.01296698,11.0655366 L7.01296698,12.4405366 C7.01296698,12.8202085 7.3207951,13.1280366 7.70046698,13.1280366 L9.07546698,13.1280366 C9.45513885,13.1280366 9.76296698,12.8202085 9.76296698,12.4405366 Z M15.262967,12.4405366 L15.262967,11.0655366 C15.262967,10.6858648 14.9551389,10.3780366 14.575467,10.3780366 L13.200467,10.3780366 C12.8207951,10.3780366 12.512967,10.6858648 12.512967,11.0655366 L12.512967,12.4405366 C12.512967,12.8202085 12.8207951,13.1280366 13.200467,13.1280366 L14.575467,13.1280366 C14.9551389,13.1280366 15.262967,12.8202085 15.262967,12.4405366 Z M20.762967,12.4405366 L20.762967,11.0655366 C20.762967,10.6858648 20.4551389,10.3780366 20.075467,10.3780366 L18.700467,10.3780366 C18.3207951,10.3780366 18.012967,10.6858648 18.012967,11.0655366 L18.012967,12.4405366 C18.012967,12.8202085 18.3207951,13.1280366 18.700467,13.1280366 L20.075467,13.1280366 C20.4551389,13.1280366 20.762967,12.8202085 20.762967,12.4405366 Z M26.262967,12.4405366 L26.262967,11.0655366 C26.262967,10.6858648 25.9551389,10.3780366 25.575467,10.3780366 L24.200467,10.3780366 C23.8207951,10.3780366 23.512967,10.6858648 23.512967,11.0655366 L23.512967,12.4405366 C23.512967,12.8202085 23.8207951,13.1280366 24.200467,13.1280366 L25.575467,13.1280366 C25.9551389,13.1280366 26.262967,12.8202085 26.262967,12.4405366 Z M7.01296698,17.02387 L7.01296698,15.64887 C7.01296698,15.2691981 6.70513885,14.96137 6.32546698,14.96137 L4.95046698,14.96137 C4.5707951,14.96137 4.26296698,15.2691981 4.26296698,15.64887 L4.26296698,17.02387 C4.26296698,17.4035419 4.5707951,17.71137 4.95046698,17.71137 L6.32546698,17.71137 C6.70513885,17.71137 7.01296698,17.4035419 7.01296698,17.02387 Z M29.012967,17.02387 L29.012967,15.64887 C29.012967,15.2691981 28.7051389,14.96137 28.325467,14.96137 L26.950467,14.96137 C26.5707951,14.96137 26.262967,15.2691981 26.262967,15.64887 L26.262967,17.02387 C26.262967,17.4035419 26.5707951,17.71137 26.950467,17.71137 L28.325467,17.71137 C28.7051389,17.71137 29.012967,17.4035419 29.012967,17.02387 Z M7.01296698,7.85720331 L7.01296698,6.48220331 C7.01296698,6.10253143 6.70513885,5.79470331 6.32546698,5.79470331 L4.95046698,5.79470331 C4.5707951,5.79470331 4.26296698,6.10253143 4.26296698,6.48220331 L4.26296698,7.85720331 C4.26296698,8.23687518 4.5707951,8.54470331 4.95046698,8.54470331 L6.32546698,8.54470331 C6.70513885,8.54470331 7.01296698,8.23687518 7.01296698,7.85720331 Z M12.512967,7.85720331 L12.512967,6.48220331 C12.512967,6.10253143 12.2051389,5.79470331 11.825467,5.79470331 L10.450467,5.79470331 C10.0707951,5.79470331 9.76296698,6.10253143 9.76296698,6.48220331 L9.76296698,7.85720331 C9.76296698,8.23687518 10.0707951,8.54470331 10.450467,8.54470331 L11.825467,8.54470331 C12.2051389,8.54470331 12.512967,8.23687518 12.512967,7.85720331 Z M18.012967,7.85720331 L18.012967,6.48220331 C18.012967,6.10253143 17.7051389,5.79470331 17.325467,5.79470331 L15.950467,5.79470331 C15.5707951,5.79470331 15.262967,6.10253143 15.262967,6.48220331 L15.262967,7.85720331 C15.262967,8.23687518 15.5707951,8.54470331 15.950467,8.54470331 L17.325467,8.54470331 C17.7051389,8.54470331 18.012967,8.23687518 18.012967,7.85720331 Z M23.512967,7.85720331 L23.512967,6.48220331 C23.512967,6.10253143 23.2051389,5.79470331 22.825467,5.79470331 L21.450467,5.79470331 C21.0707951,5.79470331 20.762967,6.10253143 20.762967,6.48220331 L20.762967,7.85720331 C20.762967,8.23687518 21.0707951,8.54470331 21.450467,8.54470331 L22.825467,8.54470331 C23.2051389,8.54470331 23.512967,8.23687518 23.512967,7.85720331 Z M29.012967,7.85720331 L29.012967,6.48220331 C29.012967,6.10253143 28.7051389,5.79470331 28.325467,5.79470331 L26.950467,5.79470331 C26.5707951,5.79470331 26.262967,6.10253143 26.262967,6.48220331 L26.262967,7.85720331 C26.262967,8.23687518 26.5707951,8.54470331 26.950467,8.54470331 L28.325467,8.54470331 C28.7051389,8.54470331 29.012967,8.23687518 29.012967,7.85720331 Z M23.512967,16.5655366 L23.512967,16.1072033 C23.512967,15.7275314 23.2051389,15.4197033 22.825467,15.4197033 L10.450467,15.4197033 C10.0707951,15.4197033 9.76296698,15.7275314 9.76296698,16.1072033 L9.76296698,16.5655366 C9.76296698,16.9452085 10.0707951,17.2530366 10.450467,17.2530366 L22.825467,17.2530366 C23.2051389,17.2530366 23.512967,16.9452085 23.512967,16.5655366 Z" id="Shape"></path>
        </g>
        <g id="gamepad" transform="translate(726.000000, 191.500000) rotate(19.000000) translate(-726.000000, -191.500000) translate(706.000000, 182.000000)" fill="#6F77FE" fill-rule="nonzero">
            <path d="M30.0032039,9.78698811e-08 L10.0011718,9.78698811e-08 C5.46307377,-0.000615648183 1.49363185,2.90253692 0.33328688,7.07085435 C-0.827058089,11.2391718 1.11271615,15.6272123 5.05775809,17.7582686 C9.00280004,19.889325 13.9636669,19.2289142 17.1403356,16.1497866 L22.8596656,16.1497866 C26.0359547,19.228546 30.9960779,19.889208 34.9409753,17.7589529 C38.8858726,15.6286977 40.826386,11.2416734 39.6674593,7.07353288 C38.5085325,2.90539238 34.5407593,0.00127068333 30.0032039,9.78698811e-08 Z M29.9988294,17.0998115 C27.8490562,17.1058889 25.7886334,16.2831677 24.2888732,14.8198042 L23.6995672,14.2498117 L16.3004339,14.2498117 L15.7123778,14.8198042 C14.2123157,16.2834644 12.1513783,17.1062109 10.0011718,17.0998115 C5.59106336,17.0998115 2.00210875,13.6905066 2.00210875,9.49987454 C2.00210875,5.30924247 5.59106336,1.89997506 10.0011718,1.89997506 L29.9988294,1.89997506 C34.4114375,1.89997506 37.9978924,5.30924247 37.9978924,9.49987454 C37.9978924,13.6905066 34.4089378,17.0998115 29.9988294,17.0998115 Z M13.8869666,8.33376496 L11.228528,8.33376496 L11.228528,5.80798587 C11.2271581,5.48651426 10.9532059,5.2262326 10.6148499,5.22493108 L9.38749367,5.22493108 C9.04913765,5.2262326 8.77518543,5.48651426 8.77381555,5.80798587 L8.77381555,8.33376496 L6.11537694,8.33376496 C5.77702093,8.33506648 5.50306871,8.59534813 5.50169883,8.91681975 L5.50169883,10.0829293 C5.50306871,10.4044009 5.77702093,10.6646826 6.11537694,10.6659841 L8.77381555,10.6659841 L8.77381555,13.1917632 C8.77518543,13.5132348 9.04913765,13.7735165 9.38749367,13.774818 L10.6148499,13.774818 C10.9532059,13.7735165 11.2271581,13.5132348 11.228528,13.1917632 L11.228528,10.6659841 L13.8869666,10.6659841 C14.2253226,10.6646826 14.4992749,10.4044009 14.5006447,10.0829293 L14.5006447,8.91681975 C14.4992749,8.59534813 14.2253226,8.33506648 13.8869666,8.33376496 L13.8869666,8.33376496 Z M27.9990636,9.49987454 C26.8946235,9.49987454 25.9992979,10.3505223 25.9992979,11.3998494 C25.9992979,12.4491766 26.8946235,13.2998243 27.9990636,13.2998243 C29.1035038,13.2998243 29.9988294,12.4491766 29.9988294,11.3998494 C29.9988294,10.3505223 29.1035038,9.49987454 27.9990636,9.49987454 Z M31.9985951,5.6999248 C30.894155,5.6999248 29.9988294,6.55057252 29.9988294,7.59989967 C29.9988294,8.64922681 30.894155,9.49987454 31.9985951,9.49987454 C33.1030353,9.49987454 33.9983609,8.64922681 33.9983609,7.59989967 C33.9983609,6.55057252 33.1030353,5.6999248 31.9985951,5.6999248 Z" id="Shape"></path>
        </g>
        <g id="laptop" transform="translate(1038.500000, 195.500000) rotate(5.000000) translate(-1038.500000, -195.500000) translate(1018.000000, 180.000000)" fill="#6F77FE" fill-rule="nonzero">
            <path d="M17.523127,15.5331444 L18.230002,14.8262694 C18.425002,14.6312694 18.425002,14.3143944 18.230002,14.1193944 L15.290627,11.1800194 L18.230002,8.24064444 C18.425002,8.04564444 18.425002,7.72876944 18.230002,7.53376944 L17.523127,6.82689444 C17.328127,6.63189444 17.011252,6.63189444 16.816252,6.82689444 L12.816252,10.8268944 C12.621252,11.0218944 12.621252,11.3387694 12.816252,11.5337694 L16.816252,15.5337694 C17.011877,15.7287694 17.328127,15.7287694 17.523127,15.5331444 Z M23.523127,14.8262694 L24.230002,15.5331444 C24.425002,15.7281444 24.741877,15.7281444 24.936877,15.5331444 L28.936877,11.5331444 C29.131877,11.3381444 29.131877,11.0212694 28.936877,10.8262694 L24.936877,6.82626944 C24.741877,6.63126944 24.425002,6.63126944 24.230002,6.82626944 L23.523127,7.53314444 C23.328127,7.72814444 23.328127,8.04501944 23.523127,8.24001944 L26.463127,11.1800194 L23.523752,14.1193944 C23.4298799,14.2130215 23.3770705,14.3401204 23.3769533,14.4727024 C23.376877,14.6052844 23.4294206,14.7324766 23.523127,14.8262694 L23.523127,14.8262694 Z M39.876877,21.1800194 L36.876877,21.1800194 L36.876877,4.18001944 C36.876877,1.97376944 35.081877,0.180019438 32.876877,0.180019438 L8.87687699,0.180019438 C6.67187699,0.180019438 4.87687699,1.97376944 4.87687699,4.18001944 L4.87687699,21.1800194 L1.87687699,21.1800194 C1.32437699,21.1800194 0.87687699,21.6275194 0.87687699,22.1800194 L0.87687699,25.1800194 C0.87687699,27.9368944 3.11937699,30.1800194 5.87687699,30.1800194 L35.876877,30.1800194 C38.634377,30.1800194 40.876877,27.9368944 40.876877,25.1800194 L40.876877,22.1800194 C40.876877,21.6275194 40.429377,21.1800194 39.876877,21.1800194 Z M6.87687699,4.18001944 C6.87687699,3.07564444 7.77250199,2.18001944 8.87687699,2.18001944 L32.876877,2.18001944 C33.981252,2.18001944 34.876877,3.07564444 34.876877,4.18001944 L34.876877,21.1800194 L25.322502,21.1800194 C25.068752,21.1800194 24.883752,21.3756444 24.827502,21.6231444 C24.625627,22.5143944 23.828752,23.1800194 22.876877,23.1800194 L18.876877,23.1800194 C17.925002,23.1800194 17.128127,22.5143944 16.926252,21.6231444 C16.870002,21.3756444 16.685002,21.1800194 16.431252,21.1800194 L6.87687699,21.1800194 L6.87687699,4.18001944 Z M38.876877,25.1800194 C38.876877,26.8343944 37.531252,28.1800194 35.876877,28.1800194 L5.87687699,28.1800194 C4.22250199,28.1800194 2.87687699,26.8343944 2.87687699,25.1800194 L2.87687699,23.1800194 L15.048752,23.1800194 C15.460627,24.3437694 16.572502,25.1800194 17.876877,25.1800194 L23.876877,25.1800194 C25.181877,25.1800194 26.293127,24.3437694 26.705002,23.1800194 L38.876877,23.1800194 L38.876877,25.1800194 Z" id="Shape"></path>
        </g>
        <g id="robot" transform="translate(60.500000, 97.000000) rotate(-3.000000) translate(-60.500000, -97.000000) translate(42.000000, 81.000000)" fill="#6F77FE" fill-rule="nonzero">
            <path d="M10.2777778,26 L14.3888889,26 L14.3888889,24 L10.2777778,24 L10.2777778,26 Z M12.3333333,14 C11.1963542,14 10.2777778,14.89375 10.2777778,16 C10.2777778,17.10625 11.1963542,18 12.3333333,18 C13.4703125,18 14.3888889,17.10625 14.3888889,16 C14.3888889,14.89375 13.4703125,14 12.3333333,14 Z M24.6666667,14 C23.5296875,14 22.6111111,14.89375 22.6111111,16 C22.6111111,17.10625 23.5296875,18 24.6666667,18 C25.8036458,18 26.7222222,17.10625 26.7222222,16 C26.7222222,14.89375 25.8036458,14 24.6666667,14 Z M34.9444444,14 L32.8888889,14 L32.8888889,12 C32.8888889,8.6875 30.1267361,6 26.7222222,6 L19.5277778,6 L19.5277778,1 C19.5277778,0.45 19.0652778,0 18.5,0 C17.9347222,0 17.4722222,0.45 17.4722222,1 L17.4722222,6 L10.2777778,6 C6.87326389,6 4.11111111,8.6875 4.11111111,12 L4.11111111,14 L2.05555556,14 C0.918576389,14 0,14.89375 0,16 L0,24 C0,25.10625 0.918576389,26 2.05555556,26 L4.11111111,26 L4.11111111,28 C4.11111111,30.20625 5.9546875,32 8.22222222,32 L28.7777778,32 C31.0453125,32 32.8888889,30.20625 32.8888889,28 L32.8888889,26 L34.9444444,26 C36.0814236,26 37,25.10625 37,24 L37,16 C37,14.89375 36.0814236,14 34.9444444,14 Z M4.11111111,24 L2.05555556,24 L2.05555556,16 L4.11111111,16 L4.11111111,24 Z M30.8333333,28 C30.8333333,29.1 29.9083333,30 28.7777778,30 L8.22222222,30 C7.09166667,30 6.16666667,29.1 6.16666667,28 L6.16666667,12 C6.16666667,9.79375 8.01024306,8 10.2777778,8 L26.7222222,8 C28.9897569,8 30.8333333,9.79375 30.8333333,12 L30.8333333,28 Z M34.9444444,24 L32.8888889,24 L32.8888889,16 L34.9444444,16 L34.9444444,24 Z M22.6111111,26 L26.7222222,26 L26.7222222,24 L22.6111111,24 L22.6111111,26 Z M16.4444444,26 L20.5555556,26 L20.5555556,24 L16.4444444,24 L16.4444444,26 Z" id="Shape"></path>
        </g>
        <g id="brush" transform="translate(45.000000, 269.000000) rotate(5.000000) translate(-45.000000, -269.000000) translate(28.000000, 252.000000)" fill="#6F77FE" fill-rule="nonzero">
            <path d="M31.7785674,10.0115895 C35.5342488,5.88465593 31.3989388,0.727116866 27.2249569,0.727116866 C25.7173992,0.727116866 24.2040408,1.40000749 23.0561313,3.0377614 L12.3607862,19.0324489 C9.45201842,19.219363 6.81137549,20.3273122 5.31348577,24.2750661 C5.14268509,24.7255934 4.73340799,24.9982301 4.25581062,24.9982301 C3.45079158,24.9982301 0.9596798,22.9918044 0.250051323,22.5071169 C0.250051323,28.4793434 3.00026451,33.7271169 9.53129572,33.7271169 C18.632716,33.7271169 18.9343564,26.1835231 18.7422863,24.3498317 L18.7435753,24.3485426 L31.7785674,10.0115895 Z M15.1361361,29.6781716 C13.9489102,30.996238 12.0630129,31.6646169 9.53129572,31.6646169 C5.53004814,31.6646169 3.72085001,29.2495583 2.92034268,26.747488 C3.40696348,26.9614723 3.83235385,27.0607301 4.25581062,27.0607301 C5.59707934,27.0607301 6.76948098,26.253777 7.2419221,25.0066091 C7.68407027,23.840652 8.37823001,21.354695 12.9982272,21.0582106 L16.6649633,24.3169606 C16.8557444,26.1351833 16.4019947,28.2724489 15.1361361,29.6781716 Z M17.6755877,22.457488 L14.4619568,19.6009255 L24.7454467,4.2217653 C25.4112471,3.27108171 26.2459145,2.78961687 27.2249569,2.78961687 C28.7009326,2.78961687 30.2903457,3.86662858 30.9219859,5.29555437 C31.4337434,6.45313249 31.2088022,7.5733278 30.2523184,8.62391374 L17.6755877,22.457488 Z" id="Shape"></path>
        </g>
        <g id="key" transform="translate(1080.500000, 44.500000) rotate(-6.000000) translate(-1080.500000, -44.500000) translate(1066.000000, 30.000000)" fill="#6F77FE" fill-rule="nonzero">
            <path d="M19.2264245,2.58499015 C23.5756666,2.58499015 27.1014245,6.11074796 27.1014245,10.4599901 C27.1014245,14.8092323 23.5756666,18.3349901 19.2264245,18.3349901 C18.189112,18.3349901 17.1988307,18.1340136 16.2918385,17.7695761 L13.9764245,20.0849901 L11.3514245,20.0849901 L11.3514245,23.5849901 L7.85142446,23.5849901 L7.85142446,27.0849901 L2.60142446,27.0849901 L2.60142446,22.7099901 L11.9168385,13.3945761 C11.552401,12.4875839 11.3514245,11.4973026 11.3514245,10.4599901 C11.3514245,6.11074796 14.8771823,2.58499015 19.2264245,2.58499015 M19.2264245,0.834990148 C13.9116745,0.834990148 9.60142446,5.14266984 9.60142446,10.4599901 C9.60142446,11.2970917 9.70779165,12.1198651 9.91850259,12.9180292 L1.2358229,21.6007089 C0.989712989,21.846857 0.851424462,22.1806768 0.851424462,22.5287558 L0.851424462,27.5224901 C0.851424462,28.247373 1.43904165,28.8349901 2.16392446,28.8349901 L8.28892446,28.8349901 C9.01380727,28.8349901 9.60142446,28.247373 9.60142446,27.5224901 L9.60142446,25.3349901 L11.7889245,25.3349901 C12.5138073,25.3349901 13.1014245,24.747373 13.1014245,24.0224901 L13.1014245,21.8349901 L14.1576588,21.8349901 C14.5057448,21.8349901 14.839612,21.6966855 15.0857604,21.4505917 L16.7684401,19.767912 C17.5665495,19.978623 18.3893229,20.0849901 19.2264245,20.0849901 C24.5411745,20.0849901 28.8514245,15.7773105 28.8514245,10.4599901 C28.8514245,5.14524015 24.5437448,0.834990148 19.2264245,0.834990148 Z M21.8514245,6.74124015 C22.4545182,6.74124015 22.9451745,7.2318964 22.9451745,7.83499015 C22.9451745,8.4380839 22.4545182,8.92874015 21.8514245,8.92874015 C21.2483307,8.92874015 20.7576745,8.4380839 20.7576745,7.83499015 C20.7576745,7.2318964 21.2483307,6.74124015 21.8514245,6.74124015 M21.8514245,5.20999015 C20.4016588,5.20999015 19.2264245,6.38522452 19.2264245,7.83499015 C19.2264245,9.28475577 20.4016588,10.4599901 21.8514245,10.4599901 C23.3011901,10.4599901 24.4764245,9.28475577 24.4764245,7.83499015 C24.4764245,6.38522452 23.3011901,5.20999015 21.8514245,5.20999015 Z" id="Shape"></path>
        </g>
    </g>
</svg>