<svg xmlns="http://www.w3.org/2000/svg" xmlns:xlink="http://www.w3.org/1999/xlink" width="640" height="480" version="1.1" viewBox="0 0 640 480"><title>laptop-code-light (1)</title><desc>Created with Sketch.</desc><g id="Page-1" fill="none" fill-rule="evenodd" stroke="none" stroke-width="1"><g id="laptop-code-light-(1)" fill="#353DD0" fill-rule="nonzero"><path id="Shape" d="M266.34,245.65 L277.65,234.34 C280.77,231.22 280.77,226.15 277.65,223.03 L230.62,176 L277.65,128.97 C280.77,125.85 280.77,120.78 277.65,117.66 L266.34,106.35 C263.22,103.23 258.15,103.23 255.03,106.35 L191.03,170.35 C187.91,173.47 187.91,178.54 191.03,181.66 L255.03,245.66 C258.16,248.78 263.22,248.78 266.34,245.65 Z M362.34,234.34 L373.65,245.65 C376.77,248.77 381.84,248.77 384.96,245.65 L448.96,181.65 C452.08,178.53 452.08,173.46 448.96,170.34 L384.96,106.34 C381.84,103.22 376.77,103.22 373.65,106.34 L362.34,117.65 C359.22,120.77 359.22,125.84 362.34,128.96 L409.38,176 L362.35,223.03 C360.848046,224.528032 360.003097,226.561616 360.001221,228.682928 C360,230.804239 360.840698,232.839314 362.34,234.34 L362.34,234.34 Z M624,336 L576,336 L576,64 C576,28.7 547.28,0 512,0 L128,0 C92.72,0 64,28.7 64,64 L64,336 L16,336 C7.16,336 0,343.16 0,352 L0,400 C0,444.11 35.88,480 80,480 L560,480 C604.12,480 640,444.11 640,400 L640,352 C640,343.16 632.84,336 624,336 Z M96,64 C96,46.33 110.33,32 128,32 L512,32 C529.67,32 544,46.33 544,64 L544,336 L391.13,336 C387.07,336 384.11,339.13 383.21,343.09 C379.98,357.35 367.23,368 352,368 L288,368 C272.77,368 260.02,357.35 256.79,343.09 C255.89,339.13 252.93,336 248.87,336 L96,336 L96,64 Z M608,400 C608,426.47 586.47,448 560,448 L80,448 C53.53,448 32,426.47 32,400 L32,368 L226.75,368 C233.34,386.62 251.13,400 272,400 L368,400 C388.88,400 406.66,386.62 413.25,368 L608,368 L608,400 Z"/></g></g></svg>