<svg width="468" height="431" viewBox="0 0 468 431" fill="none" xmlns="http://www.w3.org/2000/svg">
<path d="M434.243 126.027C457.575 151.931 470.34 187.178 466.597 224.564C465.754 232.985 464.069 241.116 461.699 248.923L338.47 209.074L349.443 99.452C300.42 94.7497 256.375 129.382 249.339 177.659L249.32 177.798C249.134 179.164 248.954 180.486 248.816 181.86C243.81 231.877 279.867 276.526 329.595 282.375L330.965 282.512L329.179 285.51C284.77 352.948 207.006 385.076 132.072 374.604C128.404 373.366 124.651 371.965 120.953 370.519C116.073 368.596 111.254 366.576 106.44 364.506C96.8225 360.264 87.2303 355.769 77.8208 350.984C85.9061 357.737 94.2604 364.363 102.797 370.7C107.094 373.845 111.446 376.945 115.854 379.999C118.299 381.679 120.749 383.307 123.249 384.941C122.052 387.178 120.748 389.456 119.302 391.617C93.3253 431.03 40.3389 441.865 0.976676 415.893L104.224 259.2C29.4003 207.186 10.3826 103.887 62.4015 29.0127L130.342 76.0849L180.884 109.631L136.867 62.0847C151.915 34.0793 177.231 11.5079 209.733 0.569206L243.838 102.099C252.274 98.1791 261.01 94.8522 269.888 92.1544C296.155 84.1268 323.944 81.3751 351.464 84.386C354.305 84.6704 357.135 85.0562 359.961 85.4927C389.555 90.2997 415.384 105.079 434.243 126.027Z" fill="#3F48DE"/>
<path d="M309.84 198.727C318.889 199.633 326.959 193.032 327.865 183.983C328.771 174.933 322.169 166.863 313.12 165.957C304.071 165.052 296.001 171.653 295.095 180.702C294.189 189.751 300.79 197.822 309.84 198.727Z" fill="#3F48DE"/>
<path d="M331.122 282.476L331.223 282.486C364.911 285.807 395.447 265.347 406.245 234.764L338.104 212.726L331.122 282.476Z" fill="#3F48DE"/>
</svg>
