<?xml version="1.0" encoding="UTF-8"?>
<svg width="1146px" height="313px" viewBox="0 0 1146 313" version="1.1" xmlns="http://www.w3.org/2000/svg" xmlns:xlink="http://www.w3.org/1999/xlink">
    <!-- Generator: Sketch 60 (88103) - https://sketch.com -->
    <title>Slice</title>
    <desc>Created with Sketch.</desc>
    <g id="Page-1" stroke="none" stroke-width="1" fill="none" fill-rule="evenodd">
        <g id="bg_newsletter" transform="translate(34.000000, 23.000000)">
            <g id="cube" transform="translate(708.260066, 168.508652) rotate(15.000000) translate(-708.260066, -168.508652) translate(692.760066, 153.008652)"></g>
            <g id="comments" transform="translate(548.500000, 248.500000) rotate(-5.000000) translate(-548.500000, -248.500000) translate(531.000000, 235.000000)" fill="#43466E" fill-rule="nonzero">
                <path d="M34.6195869,24.6500781 C34.5892139,24.6259763 33.2467261,23.1919214 32.3173114,21.3421111 C33.987828,19.7092167 34.9901379,17.6605668 34.9901379,15.4251283 C34.9901379,10.6047757 30.3430645,6.62195938 24.2866827,5.91095738 C22.3792565,2.4403035 17.8779737,0 12.635589,0 C5.65586703,0 0.000409131647,4.31421558 0.000409131647,9.6407052 C0.000409131647,11.8701183 1.00271907,13.9187681 2.67323563,15.557688 C1.74382096,17.4074983 0.407407713,18.8415532 0.38310929,18.865655 C0.000409131647,19.2693595 -0.108933771,19.8598527 0.11582664,20.3720152 C0.334512444,20.8841776 0.844779322,21.2155769 1.40364305,21.2155769 C4.65355709,21.2155769 7.27778675,19.9984378 9.00904937,18.8777059 C9.56183848,19.0042401 10.1267768,19.1006472 10.709939,19.166927 C12.6234398,22.6315555 17.118648,25.071859 22.3610327,25.071859 C23.6245507,25.071859 24.8394718,24.9272484 25.9936469,24.662129 C27.7249095,25.7768355 30.3430645,27 33.5990532,27 C34.1579169,27 34.6621092,26.6686008 34.8868696,26.1564383 C35.1055554,25.6442758 35.0022871,25.0537826 34.6195869,24.6500781 L34.6195869,24.6500781 Z M9.44034637,16.9917429 L8.63849842,16.8109797 L7.94599337,17.2568623 C6.72499763,18.046195 4.8783175,18.9560366 2.61856418,19.2151306 C3.15312948,18.5342557 3.84563453,17.5521089 4.41057286,16.419326 L5.04233185,15.1660344 L4.04002191,14.1838875 C3.08023422,13.2499442 1.94428295,11.7014059 1.94428295,9.6407052 C1.94428295,5.38674403 6.74322145,1.92814104 12.635589,1.92814104 C18.5279565,1.92814104 23.326895,5.38674403 23.326895,9.6407052 C23.326895,13.8946664 18.5279565,17.3532694 12.635589,17.3532694 C11.5603838,17.3532694 10.4851785,17.2327605 9.44034637,16.9917429 Z M27.0445537,23.0412854 L26.3520486,22.5954028 L25.5502007,22.7821915 C24.5053685,23.0232091 23.4301633,23.1437179 22.3549581,23.1437179 C18.4003898,23.1437179 14.9439391,21.5831288 13.097259,19.2693595 C19.8582951,19.0765454 25.2707688,14.846686 25.2707688,9.6407052 C25.2707688,9.06828833 25.1917989,8.51394778 25.0703068,7.97165811 C29.6505595,8.84534702 33.0462641,11.852042 33.0462641,15.4251283 C33.0462641,17.4858291 31.9103128,19.0343673 30.9505251,19.9683106 L29.9482152,20.9504575 L30.5738996,22.1977237 C31.1449125,23.336532 31.8374175,24.3186789 32.3659082,24.9935282 C30.1122295,24.7404597 28.2655494,23.8245927 27.0445537,23.0412854 L27.0445537,23.0412854 Z" id="Shape"></path>
            </g>
            <g id="lock" transform="translate(763.268936, 22.933689) rotate(-11.000000) translate(-763.268936, -22.933689) translate(749.768936, 7.433689)" fill="#43466E" fill-rule="nonzero">
                <path d="M13.5,25.4297078 C12.8370536,25.4297078 12.2946429,24.8847879 12.2946429,24.2187747 L12.2946429,20.3437888 C12.2946429,19.6777756 12.8370536,19.1328557 13.5,19.1328557 C14.1629464,19.1328557 14.7053571,19.6777756 14.7053571,20.3437888 L14.7053571,24.2187747 C14.7053571,24.8847879 14.1629464,25.4297078 13.5,25.4297078 Z M27,16.4688029 L27,28.0937606 C27,29.6982469 25.7042411,31 24.1071429,31 L2.89285714,31 C1.29575893,31 0,29.6982469 0,28.0937606 L0,16.4688029 C0,14.8643166 1.29575893,13.5625635 2.89285714,13.5625635 L3.85714286,13.5625635 L3.85714286,9.68757763 C3.85714286,4.33525338 8.19642857,-0.0180510773 13.5301339,5.62835357e-05 C18.8578125,0.0182769154 23.1428571,4.42607336 23.1428571,9.77839761 L23.1428571,13.5625635 L24.1071429,13.5625635 C25.7042411,13.5625635 27,14.8643166 27,16.4688029 Z M5.78571429,13.5625635 L21.2142857,13.5625635 L21.2142857,9.68757763 C21.2142857,5.41298383 17.7549107,1.93760586 13.5,1.93760586 C9.24508929,1.93760586 5.78571429,5.41298383 5.78571429,9.68757763 L5.78571429,13.5625635 Z M25.0714286,28.0937606 L25.0714286,16.4688029 C25.0714286,15.9359924 24.6375,15.5000565 24.1071429,15.5000565 L2.89285714,15.5000565 C2.3625,15.5000565 1.92857143,15.9359924 1.92857143,16.4688029 L1.92857143,28.0937606 C1.92857143,28.6265711 2.3625,29.0625071 2.89285714,29.0625071 L24.1071429,29.0625071 C24.6375,29.0625071 25.0714286,28.6265711 25.0714286,28.0937606 Z" id="Shape"></path>
            </g>
            <g id="mobile-1" transform="translate(267.000000, 243.000000) rotate(-28.000000) translate(-267.000000, -243.000000) translate(257.000000, 227.000000)" fill="#43466E" fill-rule="nonzero">
                <path d="M12,26 C12,27.10625 11.10625,28 10,28 C8.89375,28 8,27.10625 8,26 C8,24.89375 8.89375,24 10,24 C11.10625,24 12,24.89375 12,26 Z M20,3 L20,29 C20,30.65625 18.65625,32 17,32 L3,32 C1.34375,32 0,30.65625 0,29 L0,3 C0,1.34375 1.34375,0 3,0 L17,0 C18.65625,0 20,1.34375 20,3 Z M18,3 C18,2.45 17.55,2 17,2 L3,2 C2.45,2 2,2.45 2,3 L2,29 C2,29.55 2.45,30 3,30 L17,30 C17.55,30 18,29.55 18,29 L18,3 Z" id="Shape"></path>
            </g>
            <g id="window" transform="translate(317.000000, 74.500000) rotate(-13.000000) translate(-317.000000, -74.500000) translate(303.000000, 62.000000)" fill="#43466E" fill-rule="nonzero">
                <path d="M5.58929191,7.23354956 C4.65589348,7.23354956 3.90179191,6.46747814 3.90179191,5.51926385 C3.90179191,4.57104956 4.65589348,3.80497814 5.58929191,3.80497814 C6.52269035,3.80497814 7.27679191,4.57104956 7.27679191,5.51926385 C7.27679191,6.46747814 6.52269035,7.23354956 5.58929191,7.23354956 Z M12.3392919,5.51926385 C12.3392919,4.57104956 11.5851904,3.80497814 10.6517919,3.80497814 C9.71839348,3.80497814 8.96429191,4.57104956 8.96429191,5.51926385 C8.96429191,6.46747814 9.71839348,7.23354956 10.6517919,7.23354956 C11.5851904,7.23354956 12.3392919,6.46747814 12.3392919,5.51926385 Z M17.4017919,5.51926385 C17.4017919,4.57104956 16.6476904,3.80497814 15.7142919,3.80497814 C14.7808935,3.80497814 14.0267919,4.57104956 14.0267919,5.51926385 C14.0267919,6.46747814 14.7808935,7.23354956 15.7142919,7.23354956 C16.6476904,7.23354956 17.4017919,6.46747814 17.4017919,5.51926385 Z M27.5267919,2.94783528 L27.5267919,21.8049781 C27.5267919,23.224621 26.3930029,24.3764067 24.9955419,24.3764067 L3.05804191,24.3764067 C1.66058098,24.3764067 0.526791914,23.224621 0.526791914,21.8049781 L0.526791914,2.94783528 C0.526791914,1.52819242 1.66058098,0.376406707 3.05804191,0.376406707 L24.9955419,0.376406707 C26.3930029,0.376406707 27.5267919,1.52819242 27.5267919,2.94783528 Z M25.8392919,10.662121 L2.21429191,10.662121 L2.21429191,21.8049781 C2.21429191,22.2764067 2.59397941,22.662121 3.05804191,22.662121 L24.9955419,22.662121 C25.4596044,22.662121 25.8392919,22.2764067 25.8392919,21.8049781 L25.8392919,10.662121 Z M25.8392919,8.94783528 L25.8392919,2.94783528 C25.8392919,2.47640671 25.4596044,2.09069242 24.9955419,2.09069242 L3.05804191,2.09069242 C2.59397941,2.09069242 2.21429191,2.47640671 2.21429191,2.94783528 L2.21429191,8.94783528 L25.8392919,8.94783528 Z" id="Shape"></path>
            </g>
            <g id="rocket" transform="translate(917.000000, 76.500000) rotate(-13.000000) translate(-917.000000, -76.500000) translate(900.000000, 60.000000)" fill="#43466E" fill-rule="nonzero">
                <path d="M33.026851,1.83234329 C32.9409662,1.4456331 32.6291104,1.14374215 32.2301434,1.06109329 C30.1281502,0.623593293 28.4831681,0.623593293 26.8439873,0.623593293 C20.1577024,0.623593293 16.1329108,4.06734329 13.1207629,8.62359329 L6.58466641,8.62359329 C5.41482053,8.62455301 4.34556551,9.26518598 3.82132855,10.2792183 L0.635787229,16.4542183 C0.396596784,16.9193153 0.422745199,17.4713223 0.704898835,17.9132013 C0.987052471,18.3550803 1.4850006,18.6238575 2.02100137,18.6235933 L7.9898627,18.6235933 L7.3072467,19.9623433 C6.91722596,20.7286284 7.07693266,21.6509545 7.70366676,22.2517183 L11.1696028,25.6092183 C11.5555475,25.9853408 12.079813,26.1973535 12.6270105,26.1985933 C12.9401237,26.1982595 13.248937,26.1278934 13.5294301,25.9929683 L14.9081984,25.3317183 L14.9081984,31.1235933 C14.9110283,31.9508812 15.6019911,32.6208494 16.4552035,32.6235933 C16.6931975,32.6235933 16.9278529,32.5692933 17.1403978,32.4654683 L23.5024563,29.3785933 C24.5500904,28.8711668 25.2115852,27.8328321 25.2106077,26.6973433 L25.2106077,20.3554683 C29.9019007,17.4317183 33.4722595,13.5142183 33.4722595,7.06109329 C33.4774162,5.46546829 33.4774162,3.87359329 33.026851,1.83234329 Z M8.72017802,16.6235933 L2.85445037,16.6235933 L5.66419837,11.1735933 C5.84040111,10.8374242 6.19575982,10.6250896 6.58466641,10.6235933 L12.0752453,10.6235933 C11.1766932,12.3779683 10.0306203,14.6235933 9.00959689,16.6235933 L8.72017802,16.6235933 Z M23.149868,26.6973433 C23.1489279,27.0756354 22.9279123,27.4210311 22.5787653,27.5898433 L16.9708719,30.3110933 L16.9708719,24.3410933 C19.0335453,23.3517183 21.3424504,22.2417183 23.149868,21.3698433 L23.149868,26.6973433 Z M24.0935412,18.6798433 C21.5474286,19.9160933 15.3355586,22.8954683 12.6257213,24.1948433 L9.15656238,20.8479683 C10.5018122,18.2085933 13.5739065,12.1860933 14.8437399,9.71171829 C18.0802034,4.81109329 21.784636,2.62359329 26.8439873,2.62359329 C28.2324244,2.62359329 29.5512462,2.62359329 31.1388602,2.89171829 C31.4186103,4.44609329 31.4134536,5.71734329 31.4082969,7.06046829 C31.4096844,11.9404683 29.153537,15.5273433 24.0935412,18.6798433 Z M24.190229,5.62359329 C21.9118628,5.62359329 20.0648821,7.41445429 20.0648821,9.62359329 C20.0648821,11.8327323 21.9118628,13.6235933 24.190229,13.6235933 C26.4685952,13.6235933 28.3155759,11.8327323 28.3155759,9.62359329 C28.3130891,7.41545382 26.4675643,5.62600449 24.190229,5.62359329 L24.190229,5.62359329 Z M24.190229,11.6235933 C23.0510459,11.6235933 22.1275555,10.7281628 22.1275555,9.62359329 C22.1275555,8.51902379 23.0510459,7.62359329 24.190229,7.62359329 C25.3294121,7.62359329 26.2529024,8.51902379 26.2529024,9.62359329 C26.2529024,10.7281628 25.3294121,11.6235933 24.190229,11.6235933 Z" id="Shape"></path>
            </g>
            <g id="pencil" transform="translate(456.000000, 22.000000) rotate(-1.000000) translate(-456.000000, -22.000000) translate(441.000000, 7.000000)" fill="#43466E" fill-rule="nonzero">
                <path d="M28.8927966,4.143519 L26.7693368,2.02006091 C25.3537157,0.604441058 23.0585212,0.604384417 21.6427869,2.02006091 L1.68164112,21.9811334 L0.963040547,28.4485898 C0.866864637,29.3143988 1.59854921,30.0460261 2.46424568,29.9497936 L8.93170745,29.2311937 L28.8928533,9.27006453 C30.3084177,7.85438804 30.3084177,5.55913885 28.8927966,4.143519 Z M23.5008285,12.0986988 L10.8099697,24.7895469 L10.8099697,22.8215674 L8.09121609,22.8215674 L8.09121609,20.102816 L6.12323494,20.102816 L18.8140937,7.4119679 L23.5008285,12.0986988 Z M8.09954227,27.4999721 L4.75802413,27.8712516 L3.0415277,26.1547566 L3.41280749,22.8132412 L4.53729532,21.6887543 L6.50527647,21.6887543 L6.50527647,24.4075057 L9.2240301,24.4075057 L9.2240301,26.3754852 L8.09954227,27.4999721 Z M27.6111308,7.98839983 L24.7824376,10.8170907 L20.0957028,6.13035984 L22.9243961,3.30166897 C23.632688,2.5933776 24.7792657,2.59326432 25.487671,3.30166897 L27.6111308,5.42512706 C28.3194795,6.13347507 28.3195361,7.27993854 27.6111308,7.98839983 L27.6111308,7.98839983 Z" id="Shape"></path>
            </g>
            <g id="keyboard" transform="translate(144.000000, 167.500000) rotate(9.000000) translate(-144.000000, -167.500000) translate(127.000000, 156.000000)" fill="#43466E" fill-rule="nonzero">
                <path d="M30.387967,0.753036643 L2.88796698,0.753036643 C1.36916489,0.753036643 0.137966976,1.98423456 0.137966976,3.50303664 L0.137966976,20.0030366 C0.137966976,21.5218387 1.36916489,22.7530366 2.88796698,22.7530366 L30.387967,22.7530366 C31.9067691,22.7530366 33.137967,21.5218387 33.137967,20.0030366 L33.137967,3.50303664 C33.137967,1.98423456 31.9067691,0.753036643 30.387967,0.753036643 Z M31.3046336,20.0030366 C31.3046336,20.508521 30.8934514,20.9197033 30.387967,20.9197033 L2.88796698,20.9197033 C2.3824826,20.9197033 1.97130031,20.508521 1.97130031,20.0030366 L1.97130031,3.50303664 C1.97130031,2.99755227 2.3824826,2.58636998 2.88796698,2.58636998 L30.387967,2.58636998 C30.8934514,2.58636998 31.3046336,2.99755227 31.3046336,3.50303664 L31.3046336,20.0030366 Z M9.76296698,12.4405366 L9.76296698,11.0655366 C9.76296698,10.6858648 9.45513885,10.3780366 9.07546698,10.3780366 L7.70046698,10.3780366 C7.3207951,10.3780366 7.01296698,10.6858648 7.01296698,11.0655366 L7.01296698,12.4405366 C7.01296698,12.8202085 7.3207951,13.1280366 7.70046698,13.1280366 L9.07546698,13.1280366 C9.45513885,13.1280366 9.76296698,12.8202085 9.76296698,12.4405366 Z M15.262967,12.4405366 L15.262967,11.0655366 C15.262967,10.6858648 14.9551389,10.3780366 14.575467,10.3780366 L13.200467,10.3780366 C12.8207951,10.3780366 12.512967,10.6858648 12.512967,11.0655366 L12.512967,12.4405366 C12.512967,12.8202085 12.8207951,13.1280366 13.200467,13.1280366 L14.575467,13.1280366 C14.9551389,13.1280366 15.262967,12.8202085 15.262967,12.4405366 Z M20.762967,12.4405366 L20.762967,11.0655366 C20.762967,10.6858648 20.4551389,10.3780366 20.075467,10.3780366 L18.700467,10.3780366 C18.3207951,10.3780366 18.012967,10.6858648 18.012967,11.0655366 L18.012967,12.4405366 C18.012967,12.8202085 18.3207951,13.1280366 18.700467,13.1280366 L20.075467,13.1280366 C20.4551389,13.1280366 20.762967,12.8202085 20.762967,12.4405366 Z M26.262967,12.4405366 L26.262967,11.0655366 C26.262967,10.6858648 25.9551389,10.3780366 25.575467,10.3780366 L24.200467,10.3780366 C23.8207951,10.3780366 23.512967,10.6858648 23.512967,11.0655366 L23.512967,12.4405366 C23.512967,12.8202085 23.8207951,13.1280366 24.200467,13.1280366 L25.575467,13.1280366 C25.9551389,13.1280366 26.262967,12.8202085 26.262967,12.4405366 Z M7.01296698,17.02387 L7.01296698,15.64887 C7.01296698,15.2691981 6.70513885,14.96137 6.32546698,14.96137 L4.95046698,14.96137 C4.5707951,14.96137 4.26296698,15.2691981 4.26296698,15.64887 L4.26296698,17.02387 C4.26296698,17.4035419 4.5707951,17.71137 4.95046698,17.71137 L6.32546698,17.71137 C6.70513885,17.71137 7.01296698,17.4035419 7.01296698,17.02387 Z M29.012967,17.02387 L29.012967,15.64887 C29.012967,15.2691981 28.7051389,14.96137 28.325467,14.96137 L26.950467,14.96137 C26.5707951,14.96137 26.262967,15.2691981 26.262967,15.64887 L26.262967,17.02387 C26.262967,17.4035419 26.5707951,17.71137 26.950467,17.71137 L28.325467,17.71137 C28.7051389,17.71137 29.012967,17.4035419 29.012967,17.02387 Z M7.01296698,7.85720331 L7.01296698,6.48220331 C7.01296698,6.10253143 6.70513885,5.79470331 6.32546698,5.79470331 L4.95046698,5.79470331 C4.5707951,5.79470331 4.26296698,6.10253143 4.26296698,6.48220331 L4.26296698,7.85720331 C4.26296698,8.23687518 4.5707951,8.54470331 4.95046698,8.54470331 L6.32546698,8.54470331 C6.70513885,8.54470331 7.01296698,8.23687518 7.01296698,7.85720331 Z M12.512967,7.85720331 L12.512967,6.48220331 C12.512967,6.10253143 12.2051389,5.79470331 11.825467,5.79470331 L10.450467,5.79470331 C10.0707951,5.79470331 9.76296698,6.10253143 9.76296698,6.48220331 L9.76296698,7.85720331 C9.76296698,8.23687518 10.0707951,8.54470331 10.450467,8.54470331 L11.825467,8.54470331 C12.2051389,8.54470331 12.512967,8.23687518 12.512967,7.85720331 Z M18.012967,7.85720331 L18.012967,6.48220331 C18.012967,6.10253143 17.7051389,5.79470331 17.325467,5.79470331 L15.950467,5.79470331 C15.5707951,5.79470331 15.262967,6.10253143 15.262967,6.48220331 L15.262967,7.85720331 C15.262967,8.23687518 15.5707951,8.54470331 15.950467,8.54470331 L17.325467,8.54470331 C17.7051389,8.54470331 18.012967,8.23687518 18.012967,7.85720331 Z M23.512967,7.85720331 L23.512967,6.48220331 C23.512967,6.10253143 23.2051389,5.79470331 22.825467,5.79470331 L21.450467,5.79470331 C21.0707951,5.79470331 20.762967,6.10253143 20.762967,6.48220331 L20.762967,7.85720331 C20.762967,8.23687518 21.0707951,8.54470331 21.450467,8.54470331 L22.825467,8.54470331 C23.2051389,8.54470331 23.512967,8.23687518 23.512967,7.85720331 Z M29.012967,7.85720331 L29.012967,6.48220331 C29.012967,6.10253143 28.7051389,5.79470331 28.325467,5.79470331 L26.950467,5.79470331 C26.5707951,5.79470331 26.262967,6.10253143 26.262967,6.48220331 L26.262967,7.85720331 C26.262967,8.23687518 26.5707951,8.54470331 26.950467,8.54470331 L28.325467,8.54470331 C28.7051389,8.54470331 29.012967,8.23687518 29.012967,7.85720331 Z M23.512967,16.5655366 L23.512967,16.1072033 C23.512967,15.7275314 23.2051389,15.4197033 22.825467,15.4197033 L10.450467,15.4197033 C10.0707951,15.4197033 9.76296698,15.7275314 9.76296698,16.1072033 L9.76296698,16.5655366 C9.76296698,16.9452085 10.0707951,17.2530366 10.450467,17.2530366 L22.825467,17.2530366 C23.2051389,17.2530366 23.512967,16.9452085 23.512967,16.5655366 Z" id="Shape"></path>
            </g>
            <g id="laptop" transform="translate(1021.500000, 172.500000) rotate(5.000000) translate(-1021.500000, -172.500000) translate(1001.000000, 157.000000)" fill="#43466E" fill-rule="nonzero">
                <path d="M17.523127,15.5331444 L18.230002,14.8262694 C18.425002,14.6312694 18.425002,14.3143944 18.230002,14.1193944 L15.290627,11.1800194 L18.230002,8.24064444 C18.425002,8.04564444 18.425002,7.72876944 18.230002,7.53376944 L17.523127,6.82689444 C17.328127,6.63189444 17.011252,6.63189444 16.816252,6.82689444 L12.816252,10.8268944 C12.621252,11.0218944 12.621252,11.3387694 12.816252,11.5337694 L16.816252,15.5337694 C17.011877,15.7287694 17.328127,15.7287694 17.523127,15.5331444 Z M23.523127,14.8262694 L24.230002,15.5331444 C24.425002,15.7281444 24.741877,15.7281444 24.936877,15.5331444 L28.936877,11.5331444 C29.131877,11.3381444 29.131877,11.0212694 28.936877,10.8262694 L24.936877,6.82626944 C24.741877,6.63126944 24.425002,6.63126944 24.230002,6.82626944 L23.523127,7.53314444 C23.328127,7.72814444 23.328127,8.04501944 23.523127,8.24001944 L26.463127,11.1800194 L23.523752,14.1193944 C23.4298799,14.2130215 23.3770705,14.3401204 23.3769533,14.4727024 C23.376877,14.6052844 23.4294206,14.7324766 23.523127,14.8262694 L23.523127,14.8262694 Z M39.876877,21.1800194 L36.876877,21.1800194 L36.876877,4.18001944 C36.876877,1.97376944 35.081877,0.180019438 32.876877,0.180019438 L8.87687699,0.180019438 C6.67187699,0.180019438 4.87687699,1.97376944 4.87687699,4.18001944 L4.87687699,21.1800194 L1.87687699,21.1800194 C1.32437699,21.1800194 0.87687699,21.6275194 0.87687699,22.1800194 L0.87687699,25.1800194 C0.87687699,27.9368944 3.11937699,30.1800194 5.87687699,30.1800194 L35.876877,30.1800194 C38.634377,30.1800194 40.876877,27.9368944 40.876877,25.1800194 L40.876877,22.1800194 C40.876877,21.6275194 40.429377,21.1800194 39.876877,21.1800194 Z M6.87687699,4.18001944 C6.87687699,3.07564444 7.77250199,2.18001944 8.87687699,2.18001944 L32.876877,2.18001944 C33.981252,2.18001944 34.876877,3.07564444 34.876877,4.18001944 L34.876877,21.1800194 L25.322502,21.1800194 C25.068752,21.1800194 24.883752,21.3756444 24.827502,21.6231444 C24.625627,22.5143944 23.828752,23.1800194 22.876877,23.1800194 L18.876877,23.1800194 C17.925002,23.1800194 17.128127,22.5143944 16.926252,21.6231444 C16.870002,21.3756444 16.685002,21.1800194 16.431252,21.1800194 L6.87687699,21.1800194 L6.87687699,4.18001944 Z M38.876877,25.1800194 C38.876877,26.8343944 37.531252,28.1800194 35.876877,28.1800194 L5.87687699,28.1800194 C4.22250199,28.1800194 2.87687699,26.8343944 2.87687699,25.1800194 L2.87687699,23.1800194 L15.048752,23.1800194 C15.460627,24.3437694 16.572502,25.1800194 17.876877,25.1800194 L23.876877,25.1800194 C25.181877,25.1800194 26.293127,24.3437694 26.705002,23.1800194 L38.876877,23.1800194 L38.876877,25.1800194 Z" id="Shape"></path>
            </g>
            <g id="robot" transform="translate(43.500000, 74.000000) rotate(-3.000000) translate(-43.500000, -74.000000) translate(25.000000, 58.000000)" fill="#43466E" fill-rule="nonzero">
                <path d="M10.2777778,26 L14.3888889,26 L14.3888889,24 L10.2777778,24 L10.2777778,26 Z M12.3333333,14 C11.1963542,14 10.2777778,14.89375 10.2777778,16 C10.2777778,17.10625 11.1963542,18 12.3333333,18 C13.4703125,18 14.3888889,17.10625 14.3888889,16 C14.3888889,14.89375 13.4703125,14 12.3333333,14 Z M24.6666667,14 C23.5296875,14 22.6111111,14.89375 22.6111111,16 C22.6111111,17.10625 23.5296875,18 24.6666667,18 C25.8036458,18 26.7222222,17.10625 26.7222222,16 C26.7222222,14.89375 25.8036458,14 24.6666667,14 Z M34.9444444,14 L32.8888889,14 L32.8888889,12 C32.8888889,8.6875 30.1267361,6 26.7222222,6 L19.5277778,6 L19.5277778,1 C19.5277778,0.45 19.0652778,0 18.5,0 C17.9347222,0 17.4722222,0.45 17.4722222,1 L17.4722222,6 L10.2777778,6 C6.87326389,6 4.11111111,8.6875 4.11111111,12 L4.11111111,14 L2.05555556,14 C0.918576389,14 0,14.89375 0,16 L0,24 C0,25.10625 0.918576389,26 2.05555556,26 L4.11111111,26 L4.11111111,28 C4.11111111,30.20625 5.9546875,32 8.22222222,32 L28.7777778,32 C31.0453125,32 32.8888889,30.20625 32.8888889,28 L32.8888889,26 L34.9444444,26 C36.0814236,26 37,25.10625 37,24 L37,16 C37,14.89375 36.0814236,14 34.9444444,14 Z M4.11111111,24 L2.05555556,24 L2.05555556,16 L4.11111111,16 L4.11111111,24 Z M30.8333333,28 C30.8333333,29.1 29.9083333,30 28.7777778,30 L8.22222222,30 C7.09166667,30 6.16666667,29.1 6.16666667,28 L6.16666667,12 C6.16666667,9.79375 8.01024306,8 10.2777778,8 L26.7222222,8 C28.9897569,8 30.8333333,9.79375 30.8333333,12 L30.8333333,28 Z M34.9444444,24 L32.8888889,24 L32.8888889,16 L34.9444444,16 L34.9444444,24 Z M22.6111111,26 L26.7222222,26 L26.7222222,24 L22.6111111,24 L22.6111111,26 Z M16.4444444,26 L20.5555556,26 L20.5555556,24 L16.4444444,24 L16.4444444,26 Z" id="Shape"></path>
            </g>
            <g id="globe" transform="translate(599.000000, 71.000000) rotate(13.000000) translate(-599.000000, -71.000000) translate(582.000000, 54.000000)" fill="#43466E" fill-rule="nonzero">
                <path d="M17,0 C7.6116129,0 0,7.61092742 0,17 C0,26.3890726 7.6116129,34 17,34 C26.3883871,34 34,26.3890726 34,17 C34,7.61092742 26.3883871,0 17,0 Z M30.2442339,10.4193548 L29.0302419,10.4193548 C27.838871,10.4193548 26.8709677,11.3872581 26.8709677,12.578629 L26.8901613,13.0221371 L26.0250806,13.4807258 C25.8427419,13.513629 25.4485887,13.5259677 24.9906855,13.5472177 C22.7758871,13.6514113 21.7771371,13.7302419 21.3637903,14.5487097 L21.0895968,15.2424194 L22.353629,17.1350403 C22.7531668,17.7361159 23.4271619,18.0971756 24.1489113,18.0967742 L24.6781048,18.0625 L24.6842742,18.8179032 L23.394879,20.5377823 C23.2006945,20.8013982 23.0681122,21.1052131 23.0068952,21.4268548 L22.7196774,22.9733065 C22.0081452,23.6245161 21.3747581,24.3648387 20.8366532,25.1723387 L19.9434677,26.5110887 C19.6240323,26.9895565 18.8103629,26.945 18.5533065,26.4233468 C18.2539662,25.8255573 18.0976762,25.1663703 18.0967742,24.4978226 L18.0967742,22.4495968 C18.0967742,21.2582258 17.128871,20.2903226 15.9375,20.2903226 L14.1634677,20.2903226 C13.4567339,20.2903226 12.7925,20.0147581 12.2914113,19.5150403 C11.792379,19.0146371 11.516129,18.3497177 11.516129,17.6429839 L11.516129,16.6791935 C11.516129,15.8504435 11.9123387,15.0573387 12.5745161,14.5603629 L14.4678226,13.1420968 C15.2177419,12.5752016 16.3679839,12.4278226 17.2995565,12.8925806 L18.3085887,13.3970968 C18.8227016,13.6527823 19.4074194,13.6973387 19.9578629,13.513629 L23.2008871,12.432621 C24.0827369,12.1391446 24.6774405,11.3137965 24.6767339,10.3843952 C24.6767339,9.19302419 23.7088306,8.22512097 22.5174597,8.22512097 L21.8511694,8.23608871 L21.3754435,7.7603629 C20.9682661,7.35318548 20.4267339,7.12834677 19.8502419,7.12834677 L13.7096774,7.16330645 L13.683629,6.89459677 L14.6734677,6.6471371 C15.1985484,6.51620968 15.6502823,6.19745968 15.9457258,5.75189516 L16.4708065,4.93548387 L18.1310484,4.93548387 C19.3224194,4.93548387 20.2903226,3.96758065 20.2903226,2.77620968 L20.2903226,2.57467742 C24.6595968,3.57137097 28.2899194,6.5025 30.2442339,10.4193548 L30.2442339,10.4193548 Z M17,31.8064516 C8.8358871,31.8064516 2.19354839,25.1641129 2.19354839,17 C2.19354839,8.8358871 8.8358871,2.19354839 17,2.19354839 C17.3797581,2.19354839 17.7512903,2.22233871 18.1235081,2.25044355 L18.1310484,2.74193548 L16.4708065,2.74193548 C15.7489919,2.74193548 15.0765323,3.10181452 14.6755242,3.70298387 L14.1422177,4.52008065 L13.1503226,4.76754032 C12.1885887,5.00951613 11.516129,5.87048387 11.516129,6.86100806 L11.516129,7.16330645 C11.516129,8.35467742 12.4840323,9.32258065 13.6754032,9.32258065 L19.8255645,9.3116129 L20.3012903,9.78733871 C20.7084677,10.1952016 21.25,10.4193548 21.8264919,10.4193548 L22.5078629,10.3528629 L19.2902016,11.4345565 L18.2811694,10.9300403 C16.7497984,10.1643548 14.6220565,10.2788306 13.1510081,11.3872581 L11.2597581,12.8055242 C10.0464516,13.7151613 9.32258065,15.1629032 9.32258065,16.6785081 L9.32258065,17.6422984 C9.32258065,18.935121 9.82572581,20.1504839 10.7408468,21.0656048 C11.6559677,21.9807258 12.8699597,22.483871 14.1634677,22.483871 L15.9032258,22.4495968 L15.9032258,24.4978226 C15.9032258,25.5047984 16.1410887,26.5117742 16.5907661,27.4056452 C17.1007661,28.4283871 18.1289919,29.0645161 19.272379,29.0645161 C20.2772984,29.0645161 21.208871,28.5654839 21.7682258,27.7291935 L22.6614113,26.3890726 C23.1028629,25.7282661 23.6210887,25.1229839 24.1975806,24.5951613 C24.5464919,24.2784677 24.7781855,23.8644355 24.8659274,23.3989919 L25.1552016,21.8484274 L26.4404839,20.1347177 C26.7187903,19.7631855 26.8709677,19.3039113 26.8709677,18.8398387 L26.8709677,18.0625 C26.8709677,16.871129 25.9030645,15.9032258 24.7116935,15.9032258 L24.1783871,15.9169355 L24.0947581,15.7914919 C24.4635484,15.7681855 24.8357661,15.7496774 25.0907661,15.7380242 C26.1793145,15.6879839 26.5069758,15.6660484 26.8154435,15.5118145 L27.8717742,14.9839919 C28.6086694,14.6152016 29.0652016,13.8755645 29.0652016,13.0529839 L29.0309274,12.6129032 L31.1429032,12.6129032 C31.5740726,13.9996371 31.8071371,15.4734274 31.8071371,17 C31.8064516,25.1641129 25.1641129,31.8064516 17,31.8064516 Z" id="Shape"></path>
            </g>
            <g id="heart" transform="translate(709.000000, 169.000000) rotate(-5.000000) translate(-709.000000, -169.000000) translate(692.000000, 154.000000)" fill="#43466E" fill-rule="nonzero">
                <path d="M30.700713,2.05566636 C27.0815383,-1.05149175 21.669378,-0.535864223 18.3091901,2.95968866 L17.0009747,4.32576679 L15.6927593,2.96638512 C12.9833588,0.140478384 7.51807298,-1.56042283 3.30123642,2.05566636 C-0.869115321,5.6449697 -1.08825801,12.0869656 2.64380836,15.9709133 L15.4935386,29.3504432 C15.9052613,29.7790168 16.4497976,30 16.994334,30 C17.5388704,30 18.0834068,29.7857132 18.4951294,29.3504432 L31.3448597,15.9709133 C35.0902074,12.0869656 34.8710647,5.6449697 30.700713,2.05566636 Z M29.8307829,14.4842988 L17.0275375,27.8638288 L4.17116648,14.4842988 C1.62114249,11.8325001 1.08988749,6.77667168 4.68249942,3.68960295 C8.32159616,0.555658994 12.5981989,2.82575943 14.1654011,4.45969602 L17.0009747,7.41283552 L19.8365483,4.45969602 C21.3771878,2.85254527 25.6936346,0.575748378 29.31945,3.68960295 C32.9054212,6.76997522 32.3808069,11.8258036 29.8307829,14.4842988 Z" id="Shape"></path>
            </g>
            <g id="pizza" transform="translate(411.000000, 154.000000)" fill="#43466E" fill-rule="nonzero">
                <path d="M9.30817884,0.00901948673 C9.24430947,0.00316015675 9.1804401,0.000113848469 9.11715669,0.000113848469 C8.23987157,-0.0093771127 7.46708775,0.575427341 7.23799096,1.42228988 L0.0312995491,28.8064545 C-0.0434673527,29.0907499 0.0173667425,29.3936402 0.196107127,29.6270241 C0.374847512,29.860408 0.651425475,29.9980816 0.945393264,30 C1.03254994,30 1.11927227,29.9877102 1.20321457,29.9642581 L28.6025877,22.3670508 C29.5237129,22.11217 30.0961934,21.2145206 29.9866194,20.2641373 C28.7631401,9.67281243 19.9673319,1.01506644 9.30817884,0.00901948673 Z M2.25442234,27.7271659 L7.79230676,6.67459327 C16.4820566,7.49489947 22.3463194,13.2739566 23.2879531,21.8942029 L2.25442234,27.7271659 Z M25.1161405,21.3867849 C23.9870004,12.0921298 17.6440104,5.84842775 8.27630767,4.84413859 L9.05211541,1.89630967 C9.07018924,1.88101898 9.09354853,1.87344331 9.11715669,1.87521609 L9.13180563,1.87521609 C18.8393637,2.79102936 27.0035097,10.7890148 28.101594,20.5600335 L25.1161405,21.3867849 Z M11.2494561,10.3126513 C9.69610217,10.3126513 8.43686002,11.5718407 8.43686002,13.1251297 C8.43686002,14.6784186 9.69610217,15.937608 11.2494561,15.937608 C12.80281,15.937608 14.0620521,14.6784186 14.0620521,13.1251297 C14.0604373,11.5725101 12.8021406,10.3142661 11.2494561,10.3126513 L11.2494561,10.3126513 Z M11.2494561,14.0626224 C10.7316714,14.0626224 10.3119241,13.6428926 10.3119241,13.1251297 C10.3119241,12.6073667 10.7316714,12.1876369 11.2494561,12.1876369 C11.7672407,12.1876369 12.1869881,12.6073667 12.1869881,13.1251297 C12.1869881,13.6428926 11.7672407,14.0626224 11.2494561,14.0626224 Z M8.43686002,18.7500864 C6.88350612,18.7500864 5.62426398,20.0092759 5.62426398,21.5625648 C5.62426398,23.1158538 6.88350612,24.3750432 8.43686002,24.3750432 C9.99021393,24.3750432 11.2494561,23.1158538 11.2494561,21.5625648 C11.2478412,20.0099453 9.98954454,18.7517012 8.43686002,18.7500864 Z M8.43686002,22.5000576 C7.91907539,22.5000576 7.49932801,22.0803278 7.49932801,21.5625648 C7.49932801,21.0448019 7.91907539,20.625072 8.43686002,20.625072 C8.95464466,20.625072 9.37439204,21.0448019 9.37439204,21.5625648 C9.37439204,22.0803278 8.95464466,22.5000576 8.43686002,22.5000576 Z M14.0620521,18.7500864 C14.0620521,20.3033754 15.3212943,21.5625648 16.8746482,21.5625648 C18.4280021,21.5625648 19.6872442,20.3033754 19.6872442,18.7500864 C19.6872442,17.1967975 18.4280021,15.937608 16.8746482,15.937608 C15.3219636,15.9392228 14.063667,17.1974669 14.0620521,18.7500864 L14.0620521,18.7500864 Z M17.8121802,18.7500864 C17.8121802,19.2678494 17.3924328,19.6875792 16.8746482,19.6875792 C16.3568635,19.6875792 15.9371161,19.2678494 15.9371161,18.7500864 C15.9371161,18.2323235 16.3568635,17.8125936 16.8746482,17.8125936 C17.3924328,17.8125936 17.8121802,18.2323235 17.8121802,18.7500864 Z" id="Shape"></path>
            </g>
            <g id="calendar" transform="translate(18.141364, 244.993226) rotate(-11.000000) translate(-18.141364, -244.993226) translate(3.641364, 228.493226)" fill="#43466E" fill-rule="nonzero">
                <path d="M25.8928571,4.125 L22.7857143,4.125 L22.7857143,0.7734375 C22.7857143,0.348046875 22.4361607,0 22.0089286,0 L21.4910714,0 C21.0638393,0 20.7142857,0.348046875 20.7142857,0.7734375 L20.7142857,4.125 L8.28571429,4.125 L8.28571429,0.7734375 C8.28571429,0.348046875 7.93616071,0 7.50892857,0 L6.99107143,0 C6.56383929,0 6.21428571,0.348046875 6.21428571,0.7734375 L6.21428571,4.125 L3.10714286,4.125 C1.39174107,4.125 0,5.51074219 0,7.21875 L0,29.90625 C0,31.6142578 1.39174107,33 3.10714286,33 L25.8928571,33 C27.6082589,33 29,31.6142578 29,29.90625 L29,7.21875 C29,5.51074219 27.6082589,4.125 25.8928571,4.125 Z M3.10714286,6.1875 L25.8928571,6.1875 C26.4625,6.1875 26.9285714,6.6515625 26.9285714,7.21875 L26.9285714,10.3125 L2.07142857,10.3125 L2.07142857,7.21875 C2.07142857,6.6515625 2.5375,6.1875 3.10714286,6.1875 Z M25.8928571,30.9375 L3.10714286,30.9375 C2.5375,30.9375 2.07142857,30.4734375 2.07142857,29.90625 L2.07142857,12.375 L26.9285714,12.375 L26.9285714,29.90625 C26.9285714,30.4734375 26.4625,30.9375 25.8928571,30.9375 Z M9.58035714,20.625 L6.99107143,20.625 C6.56383929,20.625 6.21428571,20.2769531 6.21428571,19.8515625 L6.21428571,17.2734375 C6.21428571,16.8480469 6.56383929,16.5 6.99107143,16.5 L9.58035714,16.5 C10.0075893,16.5 10.3571429,16.8480469 10.3571429,17.2734375 L10.3571429,19.8515625 C10.3571429,20.2769531 10.0075893,20.625 9.58035714,20.625 Z M15.7946429,20.625 L13.2053571,20.625 C12.778125,20.625 12.4285714,20.2769531 12.4285714,19.8515625 L12.4285714,17.2734375 C12.4285714,16.8480469 12.778125,16.5 13.2053571,16.5 L15.7946429,16.5 C16.221875,16.5 16.5714286,16.8480469 16.5714286,17.2734375 L16.5714286,19.8515625 C16.5714286,20.2769531 16.221875,20.625 15.7946429,20.625 Z M22.0089286,20.625 L19.4196429,20.625 C18.9924107,20.625 18.6428571,20.2769531 18.6428571,19.8515625 L18.6428571,17.2734375 C18.6428571,16.8480469 18.9924107,16.5 19.4196429,16.5 L22.0089286,16.5 C22.4361607,16.5 22.7857143,16.8480469 22.7857143,17.2734375 L22.7857143,19.8515625 C22.7857143,20.2769531 22.4361607,20.625 22.0089286,20.625 Z M15.7946429,26.8125 L13.2053571,26.8125 C12.778125,26.8125 12.4285714,26.4644531 12.4285714,26.0390625 L12.4285714,23.4609375 C12.4285714,23.0355469 12.778125,22.6875 13.2053571,22.6875 L15.7946429,22.6875 C16.221875,22.6875 16.5714286,23.0355469 16.5714286,23.4609375 L16.5714286,26.0390625 C16.5714286,26.4644531 16.221875,26.8125 15.7946429,26.8125 Z M9.58035714,26.8125 L6.99107143,26.8125 C6.56383929,26.8125 6.21428571,26.4644531 6.21428571,26.0390625 L6.21428571,23.4609375 C6.21428571,23.0355469 6.56383929,22.6875 6.99107143,22.6875 L9.58035714,22.6875 C10.0075893,22.6875 10.3571429,23.0355469 10.3571429,23.4609375 L10.3571429,26.0390625 C10.3571429,26.4644531 10.0075893,26.8125 9.58035714,26.8125 Z M22.0089286,26.8125 L19.4196429,26.8125 C18.9924107,26.8125 18.6428571,26.4644531 18.6428571,26.0390625 L18.6428571,23.4609375 C18.6428571,23.0355469 18.9924107,22.6875 19.4196429,22.6875 L22.0089286,22.6875 C22.4361607,22.6875 22.7857143,23.0355469 22.7857143,23.4609375 L22.7857143,26.0390625 C22.7857143,26.4644531 22.4361607,26.8125 22.0089286,26.8125 Z" id="Shape"></path>
            </g>
            <g id="camera" transform="translate(860.215026, 235.496020) rotate(-8.000000) translate(-860.215026, -235.496020) translate(842.215026, 219.996020)" fill="#43466E" fill-rule="nonzero">
                <path d="M18,26.0178571 C13.3453125,26.0178571 9.5625,22.2950893 9.5625,17.7142857 C9.5625,13.1334821 13.3453125,9.41071429 18,9.41071429 C22.6546875,9.41071429 26.4375,13.1334821 26.4375,17.7142857 C26.4375,22.2950893 22.6546875,26.0178571 18,26.0178571 Z M18,11.625 C14.5898438,11.625 11.8125,14.3582589 11.8125,17.7142857 C11.8125,21.0703125 14.5898438,23.8035714 18,23.8035714 C21.4101563,23.8035714 24.1875,21.0703125 24.1875,17.7142857 C24.1875,14.3582589 21.4101563,11.625 18,11.625 Z M15.75,17.7142857 C15.75,16.4964286 16.7625,15.5 18,15.5 C18.61875,15.5 19.125,15.0017857 19.125,14.3928571 C19.125,13.7839286 18.61875,13.2857143 18,13.2857143 C15.5179688,13.2857143 13.5,15.2716518 13.5,17.7142857 C13.5,18.3232143 14.00625,18.8214286 14.625,18.8214286 C15.24375,18.8214286 15.75,18.3232143 15.75,17.7142857 Z M22.8023438,2.21428571 C23.034375,2.21428571 23.2453125,2.35959821 23.3296875,2.57410714 L24.8835938,6.64285714 L32.625,6.64285714 C33.24375,6.64285714 33.75,7.14107143 33.75,7.75 L33.75,27.6785714 C33.75,28.2875 33.24375,28.7857143 32.625,28.7857143 L3.375,28.7857143 C2.75625,28.7857143 2.25,28.2875 2.25,27.6785714 L2.25,7.75 C2.25,7.14107143 2.75625,6.64285714 3.375,6.64285714 L11.1234375,6.64285714 L12.5367188,2.93392857 C12.6984375,2.50491071 13.1203125,2.21428571 13.5914063,2.21428571 L22.8023438,2.21428571 M22.8023437,0 L13.5914062,0 C12.1851562,0 10.9265625,0.858035714 10.434375,2.15200893 L9.5625,4.42857143 L3.375,4.42857143 C1.51171875,4.42857143 0,5.91629464 0,7.75 L0,27.6785714 C0,29.5122768 1.51171875,31 3.375,31 L32.625,31 C34.4882812,31 36,29.5122768 36,27.6785714 L36,7.75 C36,5.91629464 34.4882812,4.42857143 32.625,4.42857143 L26.4375,4.42857143 L25.4320312,1.79910714 C25.0242187,0.712723214 23.9765625,0 22.8023437,0 Z" id="Shape"></path>
            </g>
            <g id="envelope" transform="translate(179.251794, 18.806372) rotate(8.000000) translate(-179.251794, -18.806372) translate(163.251794, 2.806372)" fill="#43466E" fill-rule="nonzero">
                <path d="M22,15.5 L22,14.5 C22,14.22375 21.77625,14 21.5,14 L10.5,14 C10.22375,14 10,14.22375 10,14.5 L10,15.5 C10,15.77625 10.22375,16 10.5,16 L21.5,16 C21.77625,16 22,15.77625 22,15.5 Z M10.5,12 L21.5,12 C21.77625,12 22,11.77625 22,11.5 L22,10.5 C22,10.22375 21.77625,10 21.5,10 L10.5,10 C10.22375,10 10,10.22375 10,10.5 L10,11.5 C10,11.77625 10.22375,12 10.5,12 Z M30.911875,10.2825 C30.788125,10.180625 29.525,9.163125 28,7.936875 L28,6 C28,4.895625 27.104375,4 26,4 L23.095625,4 C22.8375,3.793125 22.61375,3.615 22.458125,3.49125 C21.076875,2.386875 18.715,0 16,0 C13.299375,0 10.96,2.3575 9.54125,3.49125 C9.383125,3.616875 9.16,3.795625 8.90375,4 L6,4 C4.895625,4 4,4.895625 4,6 L4,7.93625 C2.4675,9.168125 1.203125,10.186875 1.095,10.275625 C0.401936602,10.8453415 0,11.6953302 0,12.5925 L0,29 C0,30.656875 1.343125,32 3,32 L29,32 C30.656875,32 32,30.656875 32,29 L32,12.594375 C32,11.7 31.60125,10.851875 30.911875,10.2825 Z M16,2 C17.360625,2 18.79,3.045 19.94625,4 L12.05625,4 C13.214375,3.045625 14.645,2 16,2 Z M6,6 L26,6 L26,16.834375 C23.979375,18.459375 21.91875,20.111875 20.588125,21.168125 C19.535,22.0075 17.45125,24.023125 16,24 C14.549375,24.02375 12.465,22.0075 11.411875,21.1675 C10.08125,20.11125 8.021875,18.459375 6,16.83375 L6,6 Z M2,12.5925 C2,12.2925 2.133125,12.010625 2.365,11.82 C2.4425,11.75625 3.09125,11.23375 4,10.5025 L4,15.224375 C3.279375,14.644375 2.593125,14.09125 2,13.613125 L2,12.5925 L2,12.5925 Z M30,29 C30,29.55125 29.55125,30 29,30 L3,30 C2.44875,30 2,29.55125 2,29 L2,16.181875 C4.671875,18.334375 8.206875,21.176875 10.1675,22.733125 C11.448125,23.755625 13.71375,26.01625 16,25.999375 C18.278125,26.015625 20.516875,23.783125 21.831875,22.733125 C23.795,21.175 27.3275,18.33375 30,16.18125 L30,29 Z M30,13.613125 C29.39875,14.0975 28.733125,14.634375 28,15.225 L28,10.50375 C28.9025,11.23 29.55,11.751875 29.6375,11.82375 C29.868125,12.014375 30,12.295 30,12.594375 L30,13.613125 L30,13.613125 Z" id="Shape"></path>
            </g>
            <g id="star" transform="translate(1063.500000, 22.000000) rotate(11.000000) translate(-1063.500000, -22.000000) translate(1046.000000, 5.000000)" fill="#43466E" fill-rule="nonzero">
                <path d="M32.9962948,11.1005401 L23.7114515,9.7278583 L19.5615523,1.19531975 C18.8180022,-0.325585911 16.6636135,-0.344919457 15.9137083,1.19531975 L11.7638092,9.7278583 L2.47896583,11.1005401 C0.813922055,11.3454317 0.14663352,13.4270102 1.35410801,14.6192456 L8.07147927,21.2570966 L6.48269704,30.6338666 C6.19671624,32.3287742 7.95708694,33.5983438 9.43147685,32.8056684 L17.7376303,28.3782862 L26.0437838,32.8056684 C27.5181737,33.5918993 29.2785444,32.3287742 28.9925636,30.6338666 L27.4037814,21.2570966 L34.1211526,14.6192456 C35.3286271,13.4270102 34.6613386,11.3454317 32.9962948,11.1005401 L32.9962948,11.1005401 Z M25.2239722,20.5353108 L26.990698,30.975426 L17.7376303,26.0518161 L8.49091777,30.9818705 L10.2576436,20.5417553 L2.77130176,13.137007 L13.1110965,11.6161013 L17.7376303,2.11044096 L22.3641642,11.6161013 L32.7039589,13.137007 L25.2239722,20.5353108 Z" id="Shape"></path>
            </g>
        </g>
    </g>
</svg>