<?xml version="1.0" encoding="UTF-8"?>
<svg width="576px" height="384px" viewBox="0 0 576 384" version="1.1" xmlns="http://www.w3.org/2000/svg" xmlns:xlink="http://www.w3.org/1999/xlink">
    <!-- Generator: Sketch 60 (88103) - https://sketch.com -->
    <title>newspaper-light (2)</title>
    <desc>Created with Sketch.</desc>
    <g id="Page-1" stroke="none" stroke-width="1" fill="none" fill-rule="evenodd">
        <g id="newspaper-light-(2)" fill="#353DD0" fill-rule="nonzero">
            <path d="M552,0 L88,0 C74.766,0 64,10.767 64,24 L64,32 L24,32 C10.745,32 0,42.745 0,56 L0,336 C0,362.51 21.49,384 48,384 L552,384 C565.233,384 576,373.233 576,360 L576,24 C576,10.767 565.233,0 552,0 Z M32,336 L32,64 L64,64 L64,336 C64,344.822 56.822,352 48,352 C39.178,352 32,344.822 32,336 Z M544,352 L93.258,352 C95.0757125,346.86153 96.0030279,341.450499 96,336 L96,32 L544,32 L544,352 Z M140,256 L308,256 C314.627,256 320,250.627 320,244 L320,76 C320,69.373 314.627,64 308,64 L140,64 C133.373,64 128,69.373 128,76 L128,244 C128,250.627 133.373,256 140,256 Z M160,96 L288,96 L288,224 L160,224 L160,96 Z M128,308 L128,300 C128,293.373 133.373,288 140,288 L308,288 C314.627,288 320,293.373 320,300 L320,308 C320,314.627 314.627,320 308,320 L140,320 C133.373,320 128,314.627 128,308 Z M352,308 L352,300 C352,293.373 357.373,288 364,288 L500,288 C506.627,288 512,293.373 512,300 L512,308 C512,314.627 506.627,320 500,320 L364,320 C357.373,320 352,314.627 352,308 Z M352,244 L352,236 C352,229.373 357.373,224 364,224 L500,224 C506.627,224 512,229.373 512,236 L512,244 C512,250.627 506.627,256 500,256 L364,256 C357.373,256 352,250.627 352,244 Z M352,116 L352,108 C352,101.373 357.373,96 364,96 L500,96 C506.627,96 512,101.373 512,108 L512,116 C512,122.627 506.627,128 500,128 L364,128 C357.373,128 352,122.627 352,116 Z M352,180 L352,172 C352,165.373 357.373,160 364,160 L500,160 C506.627,160 512,165.373 512,172 L512,180 C512,186.627 506.627,192 500,192 L364,192 C357.373,192 352,186.627 352,180 Z" id="Shape"></path>
        </g>
    </g>
</svg>