<?xml version="1.0" encoding="UTF-8"?>
<svg width="992px" height="368px" viewBox="0 0 992 368" version="1.1" xmlns="http://www.w3.org/2000/svg" xmlns:xlink="http://www.w3.org/1999/xlink">
    <!-- Generator: Sketch 61 (89581) - https://sketch.com -->
    <title>Slice</title>
    <desc>Created with Sketch.</desc>
    <g id="Page-1" stroke="none" stroke-width="1" fill="none" fill-rule="evenodd" opacity="0.7">
        <g id="stars" transform="translate(16.000000, 3.000000)" fill="#FFFFFF">
            <circle id="Oval" cx="182.5" cy="336.5" r="1.5"></circle>
            <circle id="Oval" cx="215" cy="351" r="3"></circle>
            <circle id="Oval" cx="434" cy="297" r="2"></circle>
            <circle id="Oval" cx="472" cy="2" r="2"></circle>
            <circle id="Oval" cx="342.5" cy="267.5" r="1.5"></circle>
            <circle id="Oval" cx="331.5" cy="130.5" r="2.5"></circle>
            <circle id="Oval" cx="721.5" cy="33.5" r="1.5"></circle>
            <circle id="Oval" cx="434" cy="90" r="1"></circle>
            <circle id="Oval" cx="362.5" cy="23.5" r="1.5"></circle>
            <circle id="Oval" cx="621.5" cy="88.5" r="1.5"></circle>
            <circle id="Oval" cx="578.5" cy="125.5" r="3.5"></circle>
            <circle id="Oval" cx="886.5" cy="166.5" r="2.5"></circle>
            <circle id="Oval" cx="74.5" cy="125.5" r="1.5"></circle>
            <circle id="Oval" cx="100" cy="75" r="1"></circle>
            <circle id="Oval" cx="51" cy="206" r="1"></circle>
            <circle id="Oval" cx="211" cy="166" r="2"></circle>
            <circle id="Oval" cx="118.5" cy="1.5" r="1.5"></circle>
            <circle id="Oval" cx="216" cy="42" r="2"></circle>
            <circle id="Oval" cx="1" cy="135" r="1"></circle>
            <circle id="Oval" cx="22.5" cy="327.5" r="4.5"></circle>
            <circle id="Oval" cx="522.5" cy="335.5" r="2.5"></circle>
            <circle id="Oval" cx="937" cy="77" r="2"></circle>
            <circle id="Oval" cx="916.5" cy="241.5" r="1.5"></circle>
            <circle id="Oval" cx="863" cy="323" r="1"></circle>
            <circle id="Oval" cx="847" cy="334" r="1"></circle>
            <circle id="Oval" cx="637.5" cy="226.5" r="1.5"></circle>
            <circle id="Oval" cx="858.5" cy="5.5" r="1.5"></circle>
            <circle id="Oval" cx="769.5" cy="256.5" r="3.5"></circle>
        </g>
    </g>
</svg>