<svg width="514" height="478" viewBox="0 0 514 478" fill="none" xmlns="http://www.w3.org/2000/svg">
<path fill-rule="evenodd" clip-rule="evenodd" d="M50.8876 -0.348326C41.7221 11.4736 39.8209 28.7313 36.0187 63.2469L3.49508 358.483C-0.30719 392.999 -2.20833 410.256 4.164 423.79C7.72966 431.363 13.0369 437.984 19.6519 443.113C31.4738 452.278 48.7316 454.179 83.2471 457.982L378.483 490.505C412.999 494.307 430.257 496.209 443.79 489.836C451.363 486.271 457.984 480.963 463.113 474.348C472.278 462.526 474.18 445.269 477.982 410.753L510.505 115.517C514.308 81.0014 516.209 63.7436 509.836 50.21C506.271 42.6373 500.964 36.0159 494.349 30.8873C482.527 21.7218 465.269 19.8207 430.753 16.0184L135.517 -16.5052C101.002 -20.3074 83.7438 -22.2086 70.2103 -15.8362C62.6375 -12.2706 56.0162 -6.96331 50.8876 -0.348326ZM358.859 362.065C362.138 362.384 365.054 359.986 365.374 356.707L370.005 309.219C370.324 305.941 373.241 303.542 376.52 303.862L418.072 307.914C421.35 308.233 424.267 305.835 424.587 302.556L438.478 160.092C438.798 156.813 436.399 153.896 433.121 153.577L385.633 148.946C382.354 148.627 379.437 151.025 379.118 154.303L365.226 296.768C364.907 300.047 361.99 302.445 358.711 302.125L293.415 295.758C290.137 295.439 287.738 292.522 288.058 289.244L301.949 146.779C302.269 143.5 299.871 140.584 296.592 140.264L249.104 135.633C245.826 135.314 242.909 137.712 242.589 140.991L228.697 283.455C228.378 286.734 225.461 289.132 222.183 288.813L156.886 282.446C153.608 282.126 151.209 279.209 151.529 275.931L165.421 133.466C165.74 130.188 163.342 127.271 160.063 126.951L112.575 122.321C109.297 122.001 106.38 124.4 106.06 127.678L91.8296 273.62C91.6761 275.194 92.1543 276.765 93.159 277.987L143.593 339.319C144.598 340.541 146.047 341.313 147.621 341.467L222.33 348.752C225.609 349.072 228.526 346.673 228.845 343.395L232.078 310.237C232.594 304.949 239.246 302.924 242.621 307.028L280.122 352.632C281.126 353.854 282.575 354.626 284.15 354.78L358.859 362.065Z" fill="#3F48DE"/>
</svg>
