<svg xmlns="http://www.w3.org/2000/svg" xmlns:xlink="http://www.w3.org/1999/xlink" width="170" height="170" version="1.1" viewBox="0 0 170 170"><title>Slice</title><desc>Created with Sketch.</desc><g id="Page-1" fill="none" fill-rule="evenodd" stroke="none" stroke-width="1"><g id="icon_help" transform="translate(22.000000, 23.000000)"><path id="Shape" fill="#FCC8D1" fill-rule="nonzero" d="M63.5,7 C32.2959116,7 7,32.072054 7,63 C7,93.9279457 32.2959116,119 63.5,119 C94.704088,119 120,93.9279457 120,63 C120,48.1478766 114.047339,33.9040575 103.451533,23.4020203 C92.8557271,12.8999831 78.4847314,7 63.5,7 Z M63.4999998,93.7089435 C46.3884896,93.7089435 32.5168698,79.960081 32.5168698,63 C32.5168698,46.0399191 46.3884896,32.2910569 63.4999998,32.2910569 C80.6115104,32.2910569 94.48313,46.0399191 94.48313,63 C94.48313,71.1445181 91.2188453,78.955458 85.4083813,84.7145021 C79.5979172,90.4735462 71.7172368,93.7089435 63.4999998,93.7089435 Z"/><path id="Shape" stroke="#F74868" stroke-linecap="round" stroke-linejoin="round" stroke-width="4" d="M63.5,7 C32.2959116,7 7,32.072054 7,63 C7,93.9279457 32.2959116,119 63.5,119 C94.704088,119 120,93.9279457 120,63 C120,48.1478766 114.047339,33.9040575 103.451533,23.4020203 C92.8557271,12.8999831 78.4847314,7 63.5,7 Z M63.4999998,93.7089435 C46.3884896,93.7089435 32.5168698,79.960081 32.5168698,63 C32.5168698,46.0399191 46.3884896,32.2910569 63.4999998,32.2910569 C80.6115104,32.2910569 94.48313,46.0399191 94.48313,63 C94.48313,71.1445181 91.2188453,78.955458 85.4083813,84.7145021 C79.5979172,90.4735462 71.7172368,93.7089435 63.4999998,93.7089435 Z"/><path id="Rectangle-path" fill="#FFF" fill-rule="nonzero" stroke="#F74868" stroke-linecap="round" stroke-linejoin="round" stroke-width="4" d="M54.7781913,0 L71.2218087,0 C71.6515918,0 72,0.349154647 72,0.779858729 L72,35.2201413 C72,35.6508454 71.6515918,36 71.2218087,36 L54.7781913,36 C54.3484081,36 54,35.6508454 54,35.2201413 L54,0.779858729 C54,0.349154647 54.3484081,0 54.7781913,0 Z"/><path id="Rectangle-path" fill="#FFF" fill-rule="nonzero" stroke="#F74868" stroke-linecap="round" stroke-linejoin="round" stroke-width="4" d="M54.7781913,91 L71.2218087,91 C71.6515918,91 72,91.3491545 72,91.7798587 L72,126.220141 C72,126.650846 71.6515918,127 71.2218087,127 L54.7781913,127 C54.3484081,127 54,126.650846 54,126.220141 L54,91.7798587 C54,91.3491545 54.3484081,91 54.7781913,91 Z"/><path id="Rectangle-path" fill="#FFF" fill-rule="nonzero" stroke="#F74868" stroke-linecap="round" stroke-linejoin="round" stroke-width="4" d="M100.777211,45 L117.222789,45 C117.652031,45 118,45.3491547 118,45.7798587 L118,80.2201413 C118,80.6508448 117.652031,81 117.222789,81 L100.777211,81 C100.347969,81 100,80.6508448 100,80.2201413 L100,45.7798587 C100,45.3491547 100.347969,45 100.777211,45 Z" transform="translate(109.000000, 63.000000) rotate(90.000000) translate(-109.000000, -63.000000)"/><path id="Rectangle-path" fill="#FFF" fill-rule="nonzero" stroke="#F74868" stroke-linecap="round" stroke-linejoin="round" stroke-width="4" d="M9.77721126,45 L26.2227887,45 C26.6520307,45 27,45.3491547 27,45.7798587 L27,80.2201413 C27,80.6508448 26.6520307,81 26.2227887,81 L9.77721126,81 C9.34796937,81 9,80.6508448 9,80.2201413 L9,45.7798587 C9,45.3491547 9.34796937,45 9.77721126,45 Z" transform="translate(18.000000, 63.000000) rotate(90.000000) translate(-18.000000, -63.000000)"/><path id="Shape" stroke="#F74868" stroke-linecap="round" stroke-linejoin="round" stroke-width="4" d="M3,73 L7.08550855,103.177688 C8.87467823,116.466354 20.9241435,126.030105 34.4675968,124.911057 L54,123.416888"/><path id="Shape" stroke="#F74868" stroke-linecap="round" stroke-linejoin="round" stroke-width="4" d="M123,73 L118.935615,103.178606 C117.123532,116.465001 105.068949,126.020788 91.5182352,124.912636 L72,123.418422"/></g></g></svg>