<?xml version="1.0" encoding="UTF-8"?>
<svg width="170px" height="170px" viewBox="0 0 170 170" version="1.1" xmlns="http://www.w3.org/2000/svg" xmlns:xlink="http://www.w3.org/1999/xlink">
    <!-- Generator: Sketch 55.1 (78136) - https://sketchapp.com -->
    <title>Slice</title>
    <desc>Created with Sketch.</desc>
    <g id="Page-1" stroke="none" stroke-width="1" fill="none" fill-rule="evenodd">
        <g id="31--work-at-home-relax-3-copy" transform="translate(30.000000, 17.000000)">
            <path d="M110,87.8571429 C110,83.1291925 106.590683,79.3645963 102.142857,78.4285714 L102.142857,72.1428571 C102.142857,46.1049689 81.0378882,25 55,25 C28.9621118,25 7.85714286,46.1049689 7.85714286,72.1428571 L7.85714286,78.4285714 C3.40931677,79.3645963 0,83.1291925 0,87.8571429 C0,92.9335404 3.90124224,96.9645963 8.84782609,97.4838509 C13.2888199,118.896273 32.2621118,135 55,135 C77.7378882,135 96.7111801,118.896273 101.152174,97.4838509 C106.098758,96.9645963 110,92.9335404 110,87.8571429" id="Fill-102" fill="#FFFFFF"></path>
            <path d="M110,87.8571429 C110,83.1291925 106.590683,79.3645963 102.142857,78.4285714 L102.142857,72.1428571 C102.142857,46.1049689 81.0378882,25 55,25 C28.9621118,25 7.85714286,46.1049689 7.85714286,72.1428571 L7.85714286,78.4285714 C3.40931677,79.3645963 0,83.1291925 0,87.8571429 C0,92.9335404 3.90124224,96.9645963 8.84782609,97.4838509 C13.2888199,118.896273 32.2621118,135 55,135 C77.7378882,135 96.7111801,118.896273 101.152174,97.4838509 C106.098758,96.9645963 110,92.9335404 110,87.8571429 Z" id="Stroke-103" stroke="#3F49EA" stroke-width="4" stroke-linecap="round" stroke-linejoin="round"></path>
            <path d="M45,109 C51.96,113.879 61.0333333,113.879 68,109" id="Stroke-104" stroke="#3F49EA" stroke-width="3" stroke-linecap="round" stroke-linejoin="round"></path>
            <path d="M49,85 C49,93.2826087 41.8347826,100 33,100 C24.1652174,100 17,93.2826087 17,85 C17,76.7108696 24.1652174,70 33,70 C41.8347826,70 49,76.7108696 49,85" id="Fill-105" fill="#C5C8F8"></path>
            <path d="M94,85 C94,93.2826087 86.8347826,100 78,100 C69.1652174,100 62,93.2826087 62,85 C62,76.7108696 69.1652174,70 78,70 C86.8347826,70 94,76.7108696 94,85" id="Fill-106" fill="#C5C8F8"></path>
            <path d="M49,84 C49,80.6869565 51.9108696,78 55.5,78 C59.0891304,78 62,80.6869565 62,84" id="Stroke-107" stroke="#3F49EA" stroke-width="3" stroke-linecap="round" stroke-linejoin="round"></path>
            <path d="M49,85 C49,93.2826087 41.8347826,100 33,100 C24.1652174,100 17,93.2826087 17,85 C17,76.7108696 24.1652174,70 33,70 C41.8347826,70 49,76.7108696 49,85 Z" id="Stroke-108" stroke="#3F49EA" stroke-width="3" stroke-linecap="round" stroke-linejoin="round"></path>
            <path d="M94,85 C94,93.2826087 86.8347826,100 78,100 C69.1652174,100 62,93.2826087 62,85 C62,76.7108696 69.1652174,70 78,70 C86.8347826,70 94,76.7108696 94,85 Z" id="Stroke-109" stroke="#3F49EA" stroke-width="3" stroke-linecap="round" stroke-linejoin="round"></path>
            <path d="M81.1579359,0.0144613579 C80.545792,-0.0603090531 79.9336482,0.15720487 79.5098563,0.612624646 C79.0860644,1.06804442 78.9044393,1.70019426 79.0187958,2.31195217 C80.1421807,8.47031511 72.1170419,11.5562939 54.9501064,11.5562939 C16.2706867,11.5562939 20.1319018,42.817123 20.1319018,42.817123 C0.792191889,42.817123 8.52807584,78 8.52807584,78 L10.3645074,78 C18.0936645,76.3142671 20.2395315,71.970786 21.2821941,65.3841925 C22.0894168,60.2386287 26.9932945,56.7108248 32.0451631,57.7168267 C37.8571663,58.8723694 45.8890319,60.0211148 54.9501064,60.0211148 C63.9977272,60.0211148 72.0295928,58.8723694 77.8415961,57.7168267 C82.9001915,56.7108248 87.8040692,60.2386287 88.6112919,65.3841925 C89.6472277,71.970786 91.7930946,76.3142671 99.5289786,78 L101.358683,78 C116.070317,25.762672 99.4078952,2.30515486 81.1579359,0.0144613579" id="Fill-110" fill="#FFFFFF"></path>
            <path d="M81.1579359,0.0144613579 C80.545792,-0.0603090531 79.9336482,0.15720487 79.5098563,0.612624646 C79.0860644,1.06804442 78.9044393,1.70019426 79.0187958,2.31195217 C80.1421807,8.47031511 72.1170419,11.5562939 54.9501064,11.5562939 C16.2706867,11.5562939 20.1319018,42.817123 20.1319018,42.817123 C0.792191889,42.817123 8.52807584,78 8.52807584,78 L10.3645074,78 C18.0936645,76.3142671 20.2395315,71.970786 21.2821941,65.3841925 C22.0894168,60.2386287 26.9932945,56.7108248 32.0451631,57.7168267 C37.8571663,58.8723694 45.8890319,60.0211148 54.9501064,60.0211148 C63.9977272,60.0211148 72.0295928,58.8723694 77.8415961,57.7168267 C82.9001915,56.7108248 87.8040692,60.2386287 88.6112919,65.3841925 C89.6472277,71.970786 91.7930946,76.3142671 99.5289786,78 L101.358683,78 C116.070317,25.762672 99.4078952,2.30515486 81.1579359,0.0144613579 Z" id="Stroke-111" stroke="#3F49EA" stroke-width="4" stroke-linecap="round" stroke-linejoin="round"></path>
        </g>
    </g>
</svg>