<?xml version="1.0" encoding="UTF-8"?>
<svg width="1312px" height="849px" viewBox="0 0 1312 849" version="1.1" xmlns="http://www.w3.org/2000/svg" xmlns:xlink="http://www.w3.org/1999/xlink">
    <!-- Generator: Sketch 60 (88103) - https://sketch.com -->
    <title>chart-network-light (2)</title>
    <desc>Created with Sketch.</desc>
    <g id="Page-1" stroke="none" stroke-width="1" fill="none" fill-rule="evenodd">
        <g id="chart-network-light-(2)" transform="translate(12.000000, 12.000000)" stroke="#FFFFFF" stroke-width="24">
            <line x1="416" y1="425" x2="488" y2="369" id="Line-2" stroke-linecap="round" fill-rule="nonzero"></line>
            <line x1="397" y1="553" x2="494" y2="611" id="Line-2" stroke-linecap="round" fill-rule="nonzero"></line>
            <line x1="134.827601" y1="498" x2="169" y2="499" id="Line-2" stroke-linecap="round" fill-rule="nonzero"></line>
            <line x1="265" y1="411" x2="217" y2="308" id="Line-2" stroke-linecap="round" fill-rule="nonzero"></line>
            <line x1="604" y1="345" x2="705" y2="393" id="Line-2" stroke-linecap="round" fill-rule="nonzero"></line>
            <line x1="850" y1="349" x2="924" y2="257" id="Line-2" stroke-linecap="round" fill-rule="nonzero"></line>
            <line x1="1006" y1="233" x2="1089" y2="278" id="Line-2" stroke-linecap="round" fill-rule="nonzero"></line>
            <line x1="1130" y1="113" x2="1030" y2="163" id="Line-2" stroke-linecap="round" fill-rule="nonzero"></line>
            <line x1="870" y1="513" x2="999" y2="669" id="Line-2" stroke-linecap="round" fill-rule="nonzero"></line>
            <circle id="Oval" cx="790" cy="425" r="82"></circle>
            <circle id="Oval" cx="305" cy="498" r="96"></circle>
            <circle id="Oval" cx="545.5" cy="641.5" r="47.5"></circle>
            <circle id="Oval" cx="47.5" cy="497.5" r="47.5"></circle>
            <circle id="Oval" cx="192.5" cy="257.5" r="47.5"></circle>
            <circle id="Oval" cx="556.5" cy="318.5" r="47.5"></circle>
            <circle id="Oval" cx="955.5" cy="206.5" r="50.5"></circle>
            <circle id="Oval" cx="1139.5" cy="298.5" r="50.5"></circle>
            <circle id="Oval" cx="1223" cy="65" r="65"></circle>
            <circle id="Oval" cx="1075.5" cy="749.5" r="75.5"></circle>
        </g>
    </g>
</svg>