<?xml version="1.0" encoding="UTF-8"?>
<svg width="170px" height="170px" viewBox="0 0 170 170" version="1.1" xmlns="http://www.w3.org/2000/svg" xmlns:xlink="http://www.w3.org/1999/xlink">
    <!-- Generator: Sketch 55.1 (78136) - https://sketchapp.com -->
    <title>Slice</title>
    <desc>Created with Sketch.</desc>
    <g id="Page-1" stroke="none" stroke-width="1" fill="none" fill-rule="evenodd">
        <g id="newspaper-light" transform="translate(34.000000, 29.000000)" fill-rule="nonzero">
            <path d="M68.0416667,0 L10.8472222,0 C9.21594792,0 7.88888889,1.31783594 7.88888889,2.9375 L7.88888889,3.91666667 L2.95833333,3.91666667 C1.32447049,3.91666667 0,5.2318099 0,6.85416667 L0,88.125 C0,91.3697135 2.64894097,94 5.91666667,94 L68.0416667,94 C69.6728177,94 71,92.6821641 71,91.0625 L71,2.9375 C71,1.31783594 69.6728177,0 68.0416667,0 Z" id="Shape-Copy-2" fill="#FFFFFF"></path>
            <path d="M68.0416667,0 L10.8472222,0 C9.21594792,0 7.88888889,1.31783594 7.88888889,2.9375 L7.88888889,3.91666667 L2.95833333,3.91666667 C1.32447049,3.91666667 0,5.2318099 0,6.85416667 L0,88.125 C0,91.3697135 2.64894097,94 5.91666667,94 L68.0416667,94 C69.6728177,94 71,92.6821641 71,91.0625 L71,2.9375 C71,1.31783594 69.6728177,0 68.0416667,0 Z M3.94444444,88.125 L3.94444444,7.83333333 L7.88888889,7.83333333 L7.88888889,88.125 C7.88888889,89.204776 7.00410069,90.0833333 5.91666667,90.0833333 C4.82923264,90.0833333 3.94444444,89.204776 3.94444444,88.125 Z M67.0555556,90.0833333 L11.4953438,90.0833333 C11.7194021,89.454406 11.8337066,88.7921184 11.8333333,88.125 L11.8333333,3.91666667 L67.0555556,3.91666667 L67.0555556,90.0833333 Z M18.0458333,35.25 L38.7541667,35.25 C39.5710365,35.25 40.2333333,34.5923672 40.2333333,33.78125 L40.2333333,13.21875 C40.2333333,12.4076328 39.5710365,11.75 38.7541667,11.75 L18.0458333,11.75 C17.2289635,11.75 16.5666667,12.4076328 16.5666667,13.21875 L16.5666667,33.78125 C16.5666667,34.5923672 17.2289635,35.25 18.0458333,35.25 Z M20.5111111,15.6666667 L36.2888889,15.6666667 L36.2888889,31.3333333 L20.5111111,31.3333333 L20.5111111,15.6666667 Z M16.5666667,44.7479167 L16.5666667,43.76875 C16.5666667,42.9576328 17.206887,42.3 17.9965278,42.3 L60.8923611,42.3 C61.6820019,42.3 62.3222222,42.9576328 62.3222222,43.76875 L62.3222222,44.7479167 C62.3222222,45.5590339 61.6820019,46.2166667 60.8923611,46.2166667 L17.9965278,46.2166667 C17.206887,46.2166667 16.5666667,45.5590339 16.5666667,44.7479167 Z M16.5666667,54.1479167 L16.5666667,53.16875 C16.5666667,52.3576328 17.206887,51.7 17.9965278,51.7 L60.8923611,51.7 C61.6820019,51.7 62.3222222,52.3576328 62.3222222,53.16875 L62.3222222,54.1479167 C62.3222222,54.9590339 61.6820019,55.6166667 60.8923611,55.6166667 L17.9965278,55.6166667 C17.206887,55.6166667 16.5666667,54.9590339 16.5666667,54.1479167 Z M16.5666667,63.5479167 L16.5666667,62.56875 C16.5666667,61.7576328 17.206887,61.1 17.9965278,61.1 L60.8923611,61.1 C61.6820019,61.1 62.3222222,61.7576328 62.3222222,62.56875 L62.3222222,63.5479167 C62.3222222,64.3590339 61.6820019,65.0166667 60.8923611,65.0166667 L17.9965278,65.0166667 C17.206887,65.0166667 16.5666667,64.3590339 16.5666667,63.5479167 Z M16.5666667,72.9479167 L16.5666667,71.96875 C16.5666667,71.1576328 17.206887,70.5 17.9965278,70.5 L60.8923611,70.5 C61.6820019,70.5 62.3222222,71.1576328 62.3222222,71.96875 L62.3222222,72.9479167 C62.3222222,73.7590339 61.6820019,74.4166667 60.8923611,74.4166667 L17.9965278,74.4166667 C17.206887,74.4166667 16.5666667,73.7590339 16.5666667,72.9479167 Z M16.5666667,82.3479167 L16.5666667,81.36875 C16.5666667,80.5576328 17.206887,79.9 17.9965278,79.9 L60.8923611,79.9 C61.6820019,79.9 62.3222222,80.5576328 62.3222222,81.36875 L62.3222222,82.3479167 C62.3222222,83.1590339 61.6820019,83.8166667 60.8923611,83.8166667 L17.9965278,83.8166667 C17.206887,83.8166667 16.5666667,83.1590339 16.5666667,82.3479167 Z M44.9666667,14.1979167 L44.9666667,13.21875 C44.9666667,12.4076328 45.5494879,11.75 46.2683333,11.75 L61.0205556,11.75 C61.739401,11.75 62.3222222,12.4076328 62.3222222,13.21875 L62.3222222,14.1979167 C62.3222222,15.0090339 61.739401,15.6666667 61.0205556,15.6666667 L46.2683333,15.6666667 C45.5494879,15.6666667 44.9666667,15.0090339 44.9666667,14.1979167 Z M44.9666667,23.5979167 L44.9666667,22.61875 C44.9666667,21.8076328 45.5494879,21.15 46.2683333,21.15 L61.0205556,21.15 C61.739401,21.15 62.3222222,21.8076328 62.3222222,22.61875 L62.3222222,23.5979167 C62.3222222,24.4090339 61.739401,25.0666667 61.0205556,25.0666667 L46.2683333,25.0666667 C45.5494879,25.0666667 44.9666667,24.4090339 44.9666667,23.5979167 Z M44.9666667,32.9979167 L44.9666667,32.01875 C44.9666667,31.2076328 45.5494879,30.55 46.2683333,30.55 L61.0205556,30.55 C61.739401,30.55 62.3222222,31.2076328 62.3222222,32.01875 L62.3222222,32.9979167 C62.3222222,33.8090339 61.739401,34.4666667 61.0205556,34.4666667 L46.2683333,34.4666667 C45.5494879,34.4666667 44.9666667,33.8090339 44.9666667,32.9979167 Z" id="Shape" fill="#FFBF47"></path>
        </g>
        <g id="camera-alt-light" transform="translate(85.000000, 88.000000)" fill-rule="nonzero">
            <path d="M34.8369141,0 L20.7646484,0 C18.6162109,0 16.6933594,1.32857143 15.9414062,3.33214286 L14.609375,6.85714286 L5.15625,6.85714286 C2.30957031,6.85714286 0,9.16071429 0,12 L0,42.8571429 C0,45.6964286 2.30957031,48 5.15625,48 L49.84375,48 C52.6904297,48 55,45.6964286 55,42.8571429 L55,12 C55,9.16071429 52.6904297,6.85714286 49.84375,6.85714286 L40.390625,6.85714286 L38.8544922,2.78571429 C38.2314453,1.10357143 36.6308594,0 34.8369141,0 Z" id="Shape-Copy" fill="#FFE5B5"></path>
            <path d="M27.5,40.2857143 C20.3886719,40.2857143 14.609375,34.5214286 14.609375,27.4285714 C14.609375,20.3357143 20.3886719,14.5714286 27.5,14.5714286 C34.6113281,14.5714286 40.390625,20.3357143 40.390625,27.4285714 C40.390625,34.5214286 34.6113281,40.2857143 27.5,40.2857143 Z M27.5,18 C22.2900391,18 18.046875,22.2321429 18.046875,27.4285714 C18.046875,32.625 22.2900391,36.8571429 27.5,36.8571429 C32.7099609,36.8571429 36.953125,32.625 36.953125,27.4285714 C36.953125,22.2321429 32.7099609,18 27.5,18 Z M24.0625,27.4285714 C24.0625,25.5428571 25.609375,24 27.5,24 C28.4453125,24 29.21875,23.2285714 29.21875,22.2857143 C29.21875,21.3428571 28.4453125,20.5714286 27.5,20.5714286 C23.7080078,20.5714286 20.625,23.6464286 20.625,27.4285714 C20.625,28.3714286 21.3984375,29.1428571 22.34375,29.1428571 C23.2890625,29.1428571 24.0625,28.3714286 24.0625,27.4285714 Z M34.8369141,3.42857143 C35.1914063,3.42857143 35.5136719,3.65357143 35.6425781,3.98571429 L38.0166016,10.2857143 L49.84375,10.2857143 C50.7890625,10.2857143 51.5625,11.0571429 51.5625,12 L51.5625,42.8571429 C51.5625,43.8 50.7890625,44.5714286 49.84375,44.5714286 L5.15625,44.5714286 C4.2109375,44.5714286 3.4375,43.8 3.4375,42.8571429 L3.4375,12 C3.4375,11.0571429 4.2109375,10.2857143 5.15625,10.2857143 L16.9941406,10.2857143 L19.1533203,4.54285714 C19.4003906,3.87857143 20.0449219,3.42857143 20.7646484,3.42857143 L34.8369141,3.42857143 L34.8369141,3.42857143 Z M34.8369141,0 L20.7646484,0 C18.6162109,0 16.6933594,1.32857143 15.9414062,3.33214286 L14.609375,6.85714286 L5.15625,6.85714286 C2.30957031,6.85714286 0,9.16071429 0,12 L0,42.8571429 C0,45.6964286 2.30957031,48 5.15625,48 L49.84375,48 C52.6904297,48 55,45.6964286 55,42.8571429 L55,12 C55,9.16071429 52.6904297,6.85714286 49.84375,6.85714286 L40.390625,6.85714286 L38.8544922,2.78571429 C38.2314453,1.10357143 36.6308594,0 34.8369141,0 Z" id="Shape" fill="#FFBF47"></path>
        </g>
    </g>
</svg>