<svg xmlns="http://www.w3.org/2000/svg" xmlns:xlink="http://www.w3.org/1999/xlink" width="1312" height="849" version="1.1" viewBox="0 0 1312 849"><title>chart-network-light (2)</title><desc>Created with Sketch.</desc><g id="Page-1" fill="none" fill-rule="evenodd" stroke="none" stroke-width="1"><g id="chart-network-light-(2)" stroke="#FFF" stroke-width="24" transform="translate(12.000000, 12.000000)"><line id="Line-2" x1="416" x2="488" y1="425" y2="369" fill-rule="nonzero" stroke-linecap="round"/><line id="Line-2" x1="397" x2="494" y1="553" y2="611" fill-rule="nonzero" stroke-linecap="round"/><line id="Line-2" x1="134.828" x2="169" y1="498" y2="499" fill-rule="nonzero" stroke-linecap="round"/><line id="Line-2" x1="265" x2="217" y1="411" y2="308" fill-rule="nonzero" stroke-linecap="round"/><line id="Line-2" x1="604" x2="705" y1="345" y2="393" fill-rule="nonzero" stroke-linecap="round"/><line id="Line-2" x1="850" x2="924" y1="349" y2="257" fill-rule="nonzero" stroke-linecap="round"/><line id="Line-2" x1="1006" x2="1089" y1="233" y2="278" fill-rule="nonzero" stroke-linecap="round"/><line id="Line-2" x1="1130" x2="1030" y1="113" y2="163" fill-rule="nonzero" stroke-linecap="round"/><line id="Line-2" x1="870" x2="999" y1="513" y2="669" fill-rule="nonzero" stroke-linecap="round"/><circle id="Oval" cx="790" cy="425" r="82"/><circle id="Oval" cx="305" cy="498" r="96"/><circle id="Oval" cx="545.5" cy="641.5" r="47.5"/><circle id="Oval" cx="47.5" cy="497.5" r="47.5"/><circle id="Oval" cx="192.5" cy="257.5" r="47.5"/><circle id="Oval" cx="556.5" cy="318.5" r="47.5"/><circle id="Oval" cx="955.5" cy="206.5" r="50.5"/><circle id="Oval" cx="1139.5" cy="298.5" r="50.5"/><circle id="Oval" cx="1223" cy="65" r="65"/><circle id="Oval" cx="1075.5" cy="749.5" r="75.5"/></g></g></svg>