<svg width="48" height="48" viewBox="0 0 48 48" fill="none" xmlns="http://www.w3.org/2000/svg">
<g id="Frame">
<path id="Vector" d="M7.7973 29.516L10.0831 24.5914C10.145 24.4506 10.2456 24.3311 10.3729 24.2472C10.5002 24.1633 10.6486 24.1186 10.8003 24.1186C10.952 24.1186 11.1005 24.1633 11.2278 24.2472C11.3551 24.3311 11.4557 24.4506 11.5175 24.5914L13.8056 29.516L18.9162 30.3118C19.5718 30.4124 19.8314 31.2708 19.3562 31.7626L15.6602 35.5918L16.5314 41.0037C16.6436 41.6989 15.9594 42.2287 15.372 41.9001L10.8003 39.345L6.22868 41.9001C5.64127 42.2287 4.95706 41.6989 5.06927 41.0059L5.94048 35.5918L2.24443 31.7626C1.76703 31.2708 2.02883 30.4124 2.68444 30.3095L7.7973 29.516ZM34.1976 29.516L36.4834 24.5914C36.5453 24.4506 36.6459 24.3311 36.7732 24.2472C36.9005 24.1633 37.0489 24.1186 37.2006 24.1186C37.3524 24.1186 37.5008 24.1633 37.6281 24.2472C37.7554 24.3311 37.856 24.4506 37.9179 24.5914L40.2059 29.516L45.3165 30.3118C45.9721 30.4124 46.2317 31.2708 45.7565 31.7626L42.0605 35.5918L42.9317 41.0037C43.0439 41.6989 42.3597 42.2287 41.7723 41.9001L37.2006 39.345L32.629 41.9001C32.0416 42.2287 31.3574 41.6989 31.4696 41.0059L32.3408 35.5918L28.6447 31.7626C28.1695 31.2708 28.4291 30.4124 29.0847 30.3095L34.1976 29.516ZM20.9975 9.39736L23.2833 4.47277C23.3451 4.332 23.4458 4.21244 23.573 4.12854C23.7003 4.04465 23.8488 4 24.0005 4C24.1522 4 24.3007 4.04465 24.4279 4.12854C24.5552 4.21244 24.6559 4.332 24.7177 4.47277L27.0057 9.39736L32.1164 10.1932C32.772 10.2938 33.0316 11.1521 32.5564 11.6439L28.8603 15.4732L29.7316 20.8851C29.8438 21.5803 29.1595 22.1101 28.5721 21.7815L24.0005 19.2264L19.4288 21.7815C18.8414 22.1101 18.1572 21.5803 18.2694 20.8873L19.1406 15.4732L15.4446 11.6439C14.9672 11.1521 15.229 10.2938 15.8846 10.1909L20.9975 9.39736Z" stroke="#676DE7" stroke-width="2" stroke-linecap="round" stroke-linejoin="round"/>
</g>
</svg>
