<?xml version="1.0" encoding="UTF-8"?>
<svg width="512px" height="512px" viewBox="0 0 512 512" version="1.1" xmlns="http://www.w3.org/2000/svg" xmlns:xlink="http://www.w3.org/1999/xlink">
    <!-- Generator: Sketch 60 (88103) - https://sketch.com -->
    <title>envelope-open-text-light</title>
    <desc>Created with Sketch.</desc>
    <g id="Page-1" stroke="none" stroke-width="1" fill="none" fill-rule="evenodd">
        <g id="envelope-open-text-light" fill="#FFAE3A" fill-rule="nonzero">
            <path d="M352,248 L352,232 C352,227.58 348.42,224 344,224 L168,224 C163.58,224 160,227.58 160,232 L160,248 C160,252.42 163.58,256 168,256 L344,256 C348.42,256 352,252.42 352,248 Z M168,192 L344,192 C348.42,192 352,188.42 352,184 L352,168 C352,163.58 348.42,160 344,160 L168,160 C163.58,160 160,163.58 160,168 L160,184 C160,188.42 163.58,192 168,192 Z M494.59,164.52 C492.61,162.89 472.4,146.61 448,126.99 L448,96 C448,78.33 433.67,64 416,64 L369.53,64 C365.4,60.69 361.82,57.84 359.33,55.86 C337.23,38.19 299.44,0 256,0 C212.79,0 175.36,37.72 152.66,55.86 C150.13,57.87 146.56,60.73 142.46,64 L96,64 C78.33,64 64,78.33 64,96 L64,126.98 C39.48,146.69 19.25,162.99 17.52,164.41 C6.43098562,173.525464 0,187.125283 0,201.48 L0,464 C0,490.51 21.49,512 48,512 L464,512 C490.51,512 512,490.51 512,464 L512,201.51 C512,187.2 505.62,173.63 494.59,164.52 Z M256,32 C277.77,32 300.64,48.72 319.14,64 L192.9,64 C211.43,48.73 234.32,32 256,32 Z M96,96 L416,96 L416,269.35 C383.67,295.35 350.7,321.79 329.41,338.69 C312.56,352.12 279.22,384.37 256,384 C232.79,384.38 199.44,352.12 182.59,338.68 C161.3,321.78 128.35,295.35 96,269.34 L96,96 Z M32,201.48 C32,196.68 34.13,192.17 37.84,189.12 C39.08,188.1 49.46,179.74 64,168.04 L64,243.59 C52.47,234.31 41.49,225.46 32,217.81 L32,201.48 L32,201.48 Z M480,464 C480,472.82 472.82,480 464,480 L48,480 C39.18,480 32,472.82 32,464 L32,258.91 C74.75,293.35 131.31,338.83 162.68,363.73 C183.17,380.09 219.42,416.26 256,415.99 C292.45,416.25 328.27,380.53 349.31,363.73 C380.72,338.8 437.24,293.34 480,258.9 L480,464 Z M480,217.81 C470.38,225.56 459.73,234.15 448,243.6 L448,168.06 C462.44,179.68 472.8,188.03 474.2,189.18 C477.89,192.23 480,196.72 480,201.51 L480,217.81 L480,217.81 Z" id="Shape"></path>
        </g>
    </g>
</svg>