<?xml version="1.0" encoding="UTF-8"?>
<svg width="11501px" height="3001px" viewBox="0 0 11501 3001" version="1.1" xmlns="http://www.w3.org/2000/svg" xmlns:xlink="http://www.w3.org/1999/xlink">
    <!-- Generator: Sketch 60 (88103) - https://sketch.com -->
    <title>Slice</title>
    <desc>Created with Sketch.</desc>
    <g id="Page-1" stroke="none" stroke-width="1" fill="none" fill-rule="evenodd">
        <path d="M11635.8524,1393.29614 C10545.5064,2125.26163 8861.39852,696.314474 6930.3641,777.481587 C5043.04782,856.811097 3508.43573,1836.74249 1570.52746,2018.52867 C-775.991087,2238.64468 -1634.88057,1714.97549 -2833.44843,431.628235 C-3632.49367,-423.936599 -2839.05779,-2608.48827 -453.140803,-6122.02679 C7008.74579,-5631.66979 11407.686,-4637.83367 12743.6798,-3140.51841 C13519.2548,-2271.29254 13010.5173,-1680.15353 12974.2891,-1040.155 C12916.908,-26.4759562 12544.0346,783.619846 11635.8524,1393.29614 Z" id="Path" fill-opacity="0.08" fill="#6259E0" transform="translate(5018.660449, -2027.346797) rotate(-8.000000) translate(-5018.660449, 2027.346797) "></path>
        <path d="M11644.0148,1135.49026 C10495.7569,1841.88736 8835.59244,413.323143 6904.55802,494.490256 C5712.20603,544.608352 4930.53905,793.703733 3759.29247,1219.2626 C3076.6295,1467.30028 2093.77817,1793.87762 1082.58176,1790.60893 C-478.222994,1785.3728 -1213.36973,1447.32227 -2411.93759,163.975021 C-3210.98283,-691.589813 -2566.65259,-2881.25419 -478.946881,-6405.01812 C6982.93971,-5914.66113 11381.8799,-4920.825 12717.8737,-3423.50974 C13493.4487,-2554.28387 13160.0886,-1862.26748 13123.8603,-1222.26896 C13066.4792,-208.589909 12623.6509,532.827624 11644.0148,1135.49026 Z" id="Path" fill="#4A3798" transform="translate(5241.110507, -2307.204595) rotate(-6.000000) translate(-5241.110507, 2307.204595) "></path>
        <path d="M11695.4406,1202.27267 C10509.268,1891.49585 8322.99741,242.240418 6414.51352,412.100067 C5531.17511,490.719307 4944.30217,635.359766 4134.3379,894.200488 C3324.37363,1153.04121 3114.98778,1255.57319 2281.6728,1422.43829 C1448.35783,1589.30339 439.956823,1568.50471 -274.650412,1334.69573 C-1356.98895,980.570479 -2565.3524,-360.6439 -3763.92026,-1643.99115 C-4562.9655,-2499.55598 -3477.21604,-4154.30417 -506.671887,-6608.23571 C6955.21471,-6117.87871 11354.1549,-5124.04259 12690.1487,-3626.72733 C13465.7237,-2757.50146 13132.3636,-2065.48507 13096.1353,-1425.48655 C13038.7542,-411.807499 12673.1843,634.156677 11695.4406,1202.27267 Z" id="Path" fill="#FCFCFF" transform="translate(4590.105848, -2538.325711) rotate(-6.000000) translate(-4590.105848, 2538.325711) "></path>
    </g>
</svg>