<?xml version="1.0" encoding="UTF-8"?>
<svg width="11501px" height="4103px" viewBox="0 0 11501 4103" version="1.1" xmlns="http://www.w3.org/2000/svg" xmlns:xlink="http://www.w3.org/1999/xlink">
    <!-- Generator: Sketch 60 (88103) - https://sketch.com -->
    <title>Slice</title>
    <desc>Created with Sketch.</desc>
    <g id="Page-1" stroke="none" stroke-width="1" fill="none" fill-rule="evenodd">
        <path d="M-518.614062,952.912514 C78.4236321,1947.80579 659.427644,2522.27176 1224.39797,2676.31043 C2184.37464,2938.04722 2564.71856,2368.9976 4251.47782,2368.9976 C5938.23709,2368.9976 6089.96331,3298.60385 7739.89276,3432.71946 C8604.21315,3502.97632 10037.4135,2690.65659 12039.4937,995.760262 L11712.7982,5015.89326 L-39.7113758,5015.89326 L-518.614062,952.912514 Z" id="light" fill-opacity="0.08" fill="#6259E0" transform="translate(5760.439841, 2984.402886) rotate(10.000000) translate(-5760.439841, -2984.402886) "></path>
        <path d="M-381.547186,2256.07824 C119.516875,2653.10374 652.53407,2928.63582 1217.5044,3082.67449 C2177.48107,3344.41128 2516.52904,2556.20023 4203.2883,2556.20023 C5890.04756,2556.20023 5970.94861,3338.85838 7620.87806,3472.97399 C8485.19845,3543.23085 9814.43405,3060.26503 11608.5849,2024.07654 L11608.5849,5119.3029 L-143.924725,5119.3029 L-381.547186,2256.07824 Z" id="purple" fill="#4A3798" transform="translate(5613.518841, 3571.689721) rotate(10.000000) translate(-5613.518841, -3571.689721) "></path>
        <path d="M-416.450617,2253.02459 C105.406831,2801.06253 648.820719,3152.10083 1213.79105,3306.1395 C2173.76771,3567.87629 2517.42735,2826.722 4204.18661,2826.722 C5890.94587,2826.722 5914.91039,3443.84143 7564.83984,3577.95704 C8429.16023,3648.2139 9765.44077,3281.34493 11573.6814,2477.35015 L11573.6814,5286.24925 L-178.828156,5286.24925 L-416.450617,2253.02459 Z" id="bg-white" fill="#FCFCFF" transform="translate(5578.615409, 3769.636918) rotate(10.000000) translate(-5578.615409, -3769.636918) "></path>
    </g>
</svg>