<?xml version="1.0" encoding="UTF-8"?>
<svg width="11501px" height="2663px" viewBox="0 0 11501 2663" version="1.1" xmlns="http://www.w3.org/2000/svg" xmlns:xlink="http://www.w3.org/1999/xlink">
    <!-- Generator: Sketch 60 (88103) - https://sketch.com -->
    <title>Slice</title>
    <desc>Created with Sketch.</desc>
    <g id="Page-1" stroke="none" stroke-width="1" fill="none" fill-rule="evenodd">
        <path d="M16736.8024,-37.1128035 C16069.8601,-243.821063 15877.2807,1227.00015 14564.1576,1454.06062 C13392.33,1656.6888 12655.0751,891.389591 11585.3598,554.772213 C10845.2951,321.889068 9610.05676,198.504348 8346.0761,347.770724 C7374.0164,462.563485 6382.67614,792.085004 5600.45378,1029.71945 C3660.1397,1619.17519 2221.54587,1551.74098 1361.2366,1454.06062 C-94.9263358,1288.72645 -378.264438,1078.72558 -1024.95885,551.47667 C-1474.9876,184.568958 -2420.76614,-609.03458 -2721.93431,-505.408994 C-5007.57271,281.030756 -4654.67945,1930.0162 -1663.25454,4441.54732 L12797.371,4441.54732 C17465.7353,2088.6833 18778.8791,595.796588 16736.8024,-37.1128035 Z" id="Path-3" fill-opacity="0.08" fill="#6259E0" transform="translate(6731.028711, 1963.444675) rotate(9.000000) translate(-6731.028711, -1963.444675) "></path>
        <path d="M16682.2874,278.108498 C16015.345,71.4002387 15822.7656,1542.22145 14509.6426,1769.28192 C13337.8149,1971.9101 11608.2967,1197.83124 10638.4639,1016.32287 C9315.93682,768.806239 7295.05588,838.880042 5495.7006,1385.51335 C3555.38652,1974.96909 2167.0308,1866.96228 1306.72152,1769.28192 C-1162.77193,1488.89321 -2042.50049,-442.723959 -2776.44939,-190.187692 C-5062.08779,596.252058 -4709.19453,2245.2375 -1717.76962,4756.76863 L12742.8559,4756.76863 C17411.2202,2403.9046 18724.364,911.01789 16682.2874,278.108498 Z" id="Path-3" fill="#4A3798" transform="translate(6676.513633, 2271.938949) rotate(10.000000) translate(-6676.513633, -2271.938949) "></path>
        <path d="M16642.5219,503.629474 C15975.5795,296.921214 15783.0002,1767.74242 14469.8771,1994.8029 C13298.0495,2197.43108 11176.0297,1561.55245 10206.1969,1380.04408 C8883.66982,1132.52745 7255.29045,1064.40102 5455.93517,1611.03432 C3515.62109,2200.49007 2127.26536,2092.48326 1266.95609,1994.8029 C-1202.53736,1714.41418 -2082.26592,-217.202983 -2816.21482,35.3332837 C-5101.85322,821.773034 -4748.95996,2470.75847 -1757.53505,4982.2896 L12703.0905,4982.2896 C17371.4547,2629.42557 18684.5986,1136.53886 16642.5219,503.629474 Z" id="Path-3" fill="#FCFCFF" transform="translate(6636.748200, 2497.459925) rotate(11.000000) translate(-6636.748200, -2497.459925) "></path>
    </g>
</svg>