<svg xmlns="http://www.w3.org/2000/svg" xmlns:xlink="http://www.w3.org/1999/xlink" width="7762" height="2539" version="1.1" viewBox="0 0 7762 2539"><title>wave</title><desc>Created with Sketch.</desc><g id="Page-1" fill="none" fill-rule="evenodd" stroke="none" stroke-width="1"><g id="wave" fill="#6259E0" fill-rule="nonzero"><path d="M192,1190.14228 C312.313233,1100.46078 573.255694,1120.88012 785.80427,1168.59101 C1905.82546,1420.00279 2852.07243,1654.32662 3560.92018,1544.7975 C4657.0424,1375.42784 4755.51832,551.497991 5581.78946,175.540197 C5978.57643,-5 6675.60975,-67.5139123 7055,91.9890911 C7434.39025,251.492095 7706.42129,578.157903 7755,1000.01349 C7801.1488,1400.76789 7612.02113,2588.9098 7055,2260.94588 C6497.97887,1932.98196 5891.75033,1756.20893 5236.31436,1730.6268 C4032.26009,1683.63169 3314.97089,2586.00764 2555.26431,2536.47005 C2132.49978,2508.90318 1906.86725,2319.78998 1677.85711,2136.79738 C1495.33672,1990.95284 1288.6002,1853.31474 1138.39959,1773.10206 C862.30218,1625.65582 555.843612,1550.11699 192,1628.08245 C-171.843612,1706.04791 71.6867666,1279.82378 192,1190.14228 Z"/></g></g></svg>