<svg width="48" height="48" viewBox="0 0 48 48" fill="none" xmlns="http://www.w3.org/2000/svg">
<g id="Frame" clip-path="url(#clip0_19_80)">
<g id="Group 80">
<rect id="Rectangle 54" y="6.10352e-05" width="48" height="48" rx="12" fill="white"/>
<path id="Union" d="M36.1499 34.7714C36.154 35.1025 35.8889 35.3744 35.5577 35.3785L28.0103 35.473C27.8513 35.475 27.698 35.4137 27.5841 35.3027L23.3339 31.1575C22.9514 30.7845 22.3088 31.0601 22.3155 31.5944L22.3574 34.944C22.3615 35.2752 22.0964 35.547 21.7652 35.5512L14.2179 35.6457C14.0588 35.6477 13.9055 35.5864 13.7916 35.4753L8.07551 29.9005C7.96164 29.7895 7.89655 29.6378 7.89456 29.4787L7.71 14.7353C7.70586 14.4041 7.97098 14.1322 8.30217 14.1281L13.0996 14.068C13.4307 14.0639 13.7026 14.329 13.7067 14.6602L13.8869 29.0524C13.891 29.3836 14.1629 29.6487 14.4941 29.6445L21.0905 29.562C21.4217 29.5578 21.6868 29.286 21.6826 28.9548L21.5025 14.5626C21.4983 14.2314 21.7635 13.9596 22.0947 13.9554L26.892 13.8954C27.2232 13.8912 27.4951 14.1564 27.4992 14.4876L27.6794 28.8797C27.6835 29.2109 27.9554 29.476 28.2866 29.4719L34.883 29.3893C35.2142 29.3852 35.4793 29.1133 35.4751 28.7821L35.295 14.39C35.2908 14.0588 35.556 13.7869 35.8871 13.7828L40.6845 13.7227C41.0157 13.7186 41.2876 13.9837 41.2917 14.3149L41.4719 28.7071C41.476 29.0383 41.2109 29.3101 40.8797 29.3142L36.682 29.3668C36.3508 29.3709 36.0857 29.6428 36.0898 29.974L36.1499 34.7714Z" fill="#010101"/>
</g>
</g>
<defs>
<clipPath id="clip0_19_80">
<rect width="48" height="48" fill="white"/>
</clipPath>
</defs>
</svg>
