<svg xmlns="http://www.w3.org/2000/svg" xmlns:xlink="http://www.w3.org/1999/xlink" width="3336" height="972" version="1.1" viewBox="0 0 3336 972"><title>Slice</title><desc>Created with Sketch.</desc><g id="Page-1" fill="none" fill-rule="evenodd" stroke="none" stroke-width="1"><g id="berty_mono" fill="#FFF" fill-rule="nonzero"><g id="text" transform="translate(1057.000000, 4.000000)"><path id="Path" d="M2137.9,264.1 L2068.8,444.9 C2058.6,472.3 2049.5,500.8 2041.4,533.3 L2039.3,533.3 C2030.2,499.8 2021,470.3 2010.9,443.9 L1942.8,264.1 L1795.5,264.1 L1967.2,700.9 C1923.5,806.6 1878.9,848.2 1807.7,871.6 L1868.7,968.1 C1979.4,940.7 2054.6,846.2 2116.5,684.7 L2278,264.2 L2137.9,264.2 L2137.9,264.1 Z"/><path id="Path" d="M1618.6,120.8 L1476.4,174.6 L1476.4,264 L1422,264 L1423,385.9 L1473.4,385.9 L1473.4,573.8 C1473.4,666.2 1542.5,732.2 1644,732.2 C1673.5,732.2 1698.9,728.1 1714.1,721 L1725.3,599.1 C1712.1,604.2 1696.9,606.2 1677.6,606.2 C1644.1,606.2 1620.7,586.9 1620.7,552.4 L1620.7,386 L1751.7,386 L1762.9,264.1 L1618.6,264.1 L1618.6,120.8 L1618.6,120.8 Z"/><path id="Path" d="M1183.7,336.2 L1179.6,264.1 L1042.5,264.1 L1042.5,724.3 L1190.8,724.3 L1190.8,542.5 C1190.8,431.8 1263.9,385.1 1343.2,385.1 C1350.3,385.1 1353.4,385.1 1355.4,385.1 L1356.6,266.2 C1281.4,266 1212.1,278.3 1183.7,336.2 Z"/><path id="Shape" d="M752.7,249.8 C623.7,249.8 513,342.2 513,491.6 C513,641.9 631.9,738.5 782.2,738.5 C843.2,738.5 887.9,727.3 919.3,712.1 L932.5,589.2 C892.9,612.6 852.2,624.8 799.4,624.8 C718.1,624.8 675.5,578.1 664.3,537.4 L863.6,538 C863.6,538 946.5,538 955.7,478.1 C955.7,478.1 958.9,447.8 958.9,432.8 C958.9,338.2 880.7,249.8 752.7,249.8 Z M821.7,441.8 L659.2,441.8 C669.4,395.1 708,362.6 752.7,362.6 C795.4,362.6 822.8,395.1 822.8,431.7 C822.8,435.7 822.8,438.8 821.7,441.8 Z"/><path id="Shape" d="M200.8,249.8 C176.4,249.8 158.1,253.9 144.9,258.9 L144.9,0.9 L0.7,0.9 L0.7,689.6 C41.4,715 105.3,738.4 183.5,738.4 C341,738.4 452.7,644.9 452.7,486.5 C452.7,345.3 334.9,249.8 200.8,249.8 Z M193.7,609.4 C173.4,609.4 157.1,605.3 144.9,600.3 L144.9,391.1 C156.1,384 179.4,377.9 199.7,377.9 C256.6,377.9 309.400167,423.6 309.400167,491.7 C309.5,561.7 264.8,609.4 193.7,609.4 Z"/></g><g id="bird"><path id="Path" d="M618.9,526.7 C619,526.7 619,526.7 619.1,526.7 C685.5,526.6 741.1,480.7 756.2,418.9 L618.9,389.2 L618.9,526.7 Z"/><circle id="Oval" cx="561" cy="335.1" r="32.3"/><path id="Path" d="M872,387.2 C872,313.5 840.2,247.2 789.6,201.2 C748.7,164 695.4,140.2 636.7,136.6 C631.1,136.3 625.5,136.1 619.9,136.1 C619.6,136.1 619.2,136.1 618.9,136.1 L618.9,136.1 C619.2,136.1 619.6,136.1 619.9,136.1 C565.6,135.6 511.9,146.4 462.2,167.2 C445.4,174.2 429,182.4 413.3,191.7 L413.3,191.7 L351.6,54.9 L326.9,0.2 C265.6,27.9 220.6,76.9 196.7,134.5 L291.9,218.7 L186.7,163.1 L44.9,84.5 C-42,240.8 15.3,438.7 171.5,525.6 L0.6,851.6 C82.5,894.6 183.8,863.1 226.8,781.1 C229.2,776.6 231.3,771.9 233.2,767.3 C228,764.6 222.9,761.9 217.8,759.1 C208.6,754 199.5,748.8 190.5,743.5 C172.6,732.8 155,721.5 137.9,709.9 C157.2,717.4 176.8,724.3 196.4,730.7 C206.2,733.8 216,736.8 225.9,739.6 C233.4,741.7 241,743.7 248.4,745.4 C396.7,751.2 542.2,673.3 615.7,533 L618.6,526.8 C617.7,526.8 616.8,526.8 615.9,526.8 C517.7,525.1 438.6,445 438.6,346.4 C438.6,343.6 438.7,340.9 438.8,338.1 C443.1,242.5 522.3,166.3 618.9,165.9 C618.9,226.4 618.9,359.6 618.9,382 L867.2,435.7 C870.3,420 872,403.8 872,387.2 Z"/></g></g></g></svg>