<svg xmlns="http://www.w3.org/2000/svg" xmlns:xlink="http://www.w3.org/1999/xlink" width="904" height="512" version="1.1" viewBox="0 0 904 512"><title>chart-network-light (2)</title><desc>Created with Sketch.</desc><g id="Page-1" fill="none" fill-rule="evenodd" stroke="none" stroke-width="1"><g id="chart-network-light-(2)"><path id="Shape" fill="#3F49EA" fill-rule="nonzero" d="M574,189 C587.3,189 599.6,185 609.8,178.1 C616.6,173.5 622.5,167.6 627.1,160.8 C634,150.6 638,138.3 638,125 C638,111.7 634,99.4 627.1,89.2 C624.8,85.8 622.2,82.6 619.3,79.7 C616.4,76.8 613.2,74.2 609.8,71.9 C599.6,65 587.3,61 574,61 C560.7,61 548.4,65 538.2,71.9 C531.4,76.5 525.5,82.4 520.9,89.2 C514,99.4 510,111.7 510,125 C510,160.3 538.7,189 574,189 Z M574,93 C591.6,93 606,107.4 606,125 C606,142.6 591.6,157 574,157 C556.4,157 542,142.6 542,125 C542,107.4 556.4,93 574,93 Z M99.8,250.9 C89.6,244 77.3,240 64,240 C50.7,240 38.4,244 28.2,250.9 C21.4,255.5 15.5,261.4 10.9,268.2 C4,278.4 0,290.7 0,304 C0,339.3 28.7,368 64,368 C99.3,368 128,339.3 128,304 C128,290.7 124,278.4 117.1,268.2 C112.5,261.4 106.6,255.5 99.8,250.9 L99.8,250.9 Z M64,336 C46.4,336 32,321.6 32,304 C32,286.4 46.4,272 64,272 C81.6,272 96,286.4 96,304 C96,321.6 81.6,336 64,336 Z M162,320 L178,320 C186.836556,320 194,312.836556 194,304 C194,295.163444 186.836556,288 178,288 L162,288 C153.163444,288 146,295.163444 146,304 C146,312.836556 153.163444,320 162,320 Z M607.3,402.7 C604.4,399.8 601.2,397.2 597.8,394.9 C587.6,388 575.3,384 562,384 C548.7,384 536.4,388 526.2,394.9 C522.9,397.1 519.9,399.6 517.1,402.4 L425.3,347.3 C430.9,334 434,319.3 434,304 C434,242.1 383.9,192 322,192 C310.7,192 300.1,194.2 289.8,197.2 L250.5,113.1 C264.8,101.4 274,83.9 274,64 C274,50.7 270,38.4 263.1,28.2 C258.5,21.4 252.6,15.5 245.8,10.9 C235.6,4 223.3,0 210,0 C196.7,0 184.4,4 174.2,10.9 C167.4,15.5 161.5,21.4 156.9,28.2 C150,38.4 146,50.7 146,64 C146,99.3 174.7,128 210,128 C214,128 217.9,127.5 221.7,126.8 L260.7,210.4 C230.2,230.4 210,264.8 210,304 C210,365.9 260.1,416 322,416 C357,416 387.8,399.6 408.4,374.5 L500.8,429.9 C499.1,435.7 498.1,441.7 498.1,448 C498.1,483.3 526.8,512 562.1,512 C575.4,512 587.7,508 597.9,501.1 C604.7,496.5 610.6,490.6 615.2,483.8 C622,473.6 626,461.3 626,448 C626,434.7 622,422.4 615.1,412.2 C612.8,408.8 610.1,405.6 607.3,402.7 L607.3,402.7 Z M210,96 C192.4,96 178,81.6 178,64 C178,46.4 192.4,32 210,32 C227.6,32 242,46.4 242,64 C242,81.6 227.6,96 210,96 Z M322,384 C277.9,384 242,348.1 242,304 C242,259.9 277.9,224 322,224 C366.1,224 402,259.9 402,304 C402,348.1 366.1,384 322,384 Z M562,480 C544.4,480 530,465.6 530,448 C530,430.4 544.4,416 562,416 C579.6,416 594,430.4 594,448 C594,465.6 579.6,480 562,480 Z"/><line id="Line-2" x1="440" x2="497" y1="226" y2="183" fill-rule="nonzero" stroke="#3F49EA" stroke-linecap="round" stroke-width="32"/><line id="Line-2" x1="621" x2="722" y1="151" y2="199" fill-rule="nonzero" stroke="#3F49EA" stroke-linecap="round" stroke-width="32"/><circle id="Oval" cx="807" cy="231" r="82" stroke="#3F49EA" stroke-width="30"/></g></g></svg>