<?xml version="1.0" standalone="no"?>
<!DOCTYPE svg PUBLIC "-//W3C//DTD SVG 20010904//EN"
 "http://www.w3.org/TR/2001/REC-SVG-20010904/DTD/svg10.dtd">
<svg version="1.0" xmlns="http://www.w3.org/2000/svg"
 width="700.000000pt" height="700.000000pt" viewBox="0 0 700.000000 700.000000"
 preserveAspectRatio="xMidYMid meet">
<metadata>
Created by potrace 1.11, written by Peter Selinger 2001-2013
</metadata>
<g transform="translate(0.000000,700.000000) scale(0.100000,-0.100000)"
fill="#000000" stroke="none">
<path d="M2580 6975 c-138 -68 -285 -160 -390 -245 -239 -192 -441 -448 -565
-715 -21 -44 -39 -83 -41 -87 -2 -3 2 -12 10 -20 37 -36 119 -109 311 -278
116 -101 217 -191 226 -199 9 -9 45 -41 80 -72 132 -116 132 -115 29 -61 -206
107 -451 237 -690 365 -111 59 -270 147 -310 171 -19 11 -37 21 -40 21 -3 0
-21 10 -40 21 -19 12 -100 57 -180 101 -80 44 -167 93 -195 108 -27 15 -75 41
-105 58 -30 16 -84 47 -120 67 -36 20 -95 53 -132 74 l-67 36 -18 -32 c-34
-64 -95 -194 -115 -243 -64 -159 -132 -394 -153 -530 -6 -34 -16 -99 -20 -124
-9 -55 -18 -213 -19 -326 0 -192 15 -332 59 -560 44 -226 189 -592 311 -786
244 -391 515 -665 876 -886 l97 -60 -18 -29 c-9 -16 -55 -101 -100 -189 -46
-88 -105 -200 -131 -250 -52 -98 -133 -254 -230 -440 -35 -66 -108 -205 -163
-310 -112 -214 -174 -332 -272 -520 -37 -71 -85 -161 -105 -200 -20 -38 -75
-142 -120 -230 -46 -88 -114 -218 -152 -289 -37 -71 -70 -137 -73 -146 -4 -13
11 -24 62 -47 74 -34 168 -67 223 -79 19 -4 40 -9 45 -10 164 -43 432 -37 630
15 307 80 589 280 763 542 71 105 140 241 126 246 -11 4 -106 57 -242 135 -87
49 -205 122 -429 264 -34 21 -62 43 -63 48 0 5 6 4 13 -1 6 -5 30 -15 52 -22
22 -7 49 -16 60 -21 23 -9 123 -45 235 -84 68 -23 220 -71 260 -81 8 -2 67
-18 130 -36 l115 -31 215 6 c118 3 244 10 280 15 36 6 85 13 110 16 132 17
433 91 550 136 30 11 60 22 65 23 107 30 403 173 570 274 118 72 331 224 355
253 3 3 32 29 65 56 131 109 295 282 426 448 54 68 192 268 215 312 7 12 37
66 68 121 l56 99 88 6 c317 21 626 193 823 457 83 112 204 379 182 401 -4 4
-53 17 -108 28 -55 12 -131 28 -170 36 -38 8 -79 17 -90 19 -41 9 -205 44
-370 81 -93 20 -177 38 -185 40 -8 2 -35 8 -60 14 -25 5 -60 12 -77 16 l-33 5
-2 -552 -3 -552 -55 3 c-61 3 -122 9 -160 16 -14 3 -41 7 -60 10 -67 11 -212
56 -300 94 -403 174 -722 551 -824 975 -15 59 -18 78 -33 176 -13 83 -7 331
11 428 55 302 195 565 417 782 255 249 585 395 936 413 l73 4 0 -865 c0 -476
2 -868 5 -870 3 -3 55 -16 117 -29 62 -13 120 -26 128 -28 8 -1 90 -19 181
-39 91 -19 172 -37 180 -40 8 -3 28 -7 44 -9 17 -3 167 -35 335 -71 168 -37
368 -80 445 -97 77 -16 178 -38 225 -49 320 -71 344 -75 338 -47 -2 12 9 88
18 130 10 42 12 363 3 447 -71 650 -440 1213 -1013 1544 -54 31 -102 56 -107
56 -5 0 -20 7 -34 16 -38 25 -221 92 -325 119 -103 27 -227 50 -330 61 -126
13 -492 7 -590 -11 -14 -2 -45 -6 -70 -9 -201 -24 -577 -120 -725 -186 -11 -5
-78 -34 -150 -65 -71 -32 -148 -67 -170 -80 -22 -12 -66 -37 -98 -54 l-57 -32
-34 73 c-18 40 -75 165 -126 278 -51 113 -115 254 -142 313 -27 60 -75 168
-107 240 -33 73 -75 167 -95 210 -20 42 -36 79 -36 81 0 3 -17 42 -39 88 -21
46 -46 100 -55 120 -9 20 -26 59 -39 86 l-23 49 -44 -22z"/>
<path d="M4452 4559 c-137 -25 -226 -159 -200 -300 37 -202 287 -280 432 -135
50 51 68 91 74 166 12 172 -133 300 -306 269z"/>
</g>
</svg>
