<?xml version="1.0" encoding="UTF-8"?>
<svg width="706px" height="808px" viewBox="0 0 706 808" version="1.1" xmlns="http://www.w3.org/2000/svg" xmlns:xlink="http://www.w3.org/1999/xlink">
    <!-- Generator: Sketch 61 (89581) - https://sketch.com -->
    <title>paris_p2p</title>
    <desc>Created with Sketch.</desc>
    <g id="Page-1" stroke="none" stroke-width="1" fill="none" fill-rule="evenodd">
        <g id="paris_p2p" transform="translate(7.000000, 7.000000)">
            <path d="M335.598618,2.89586199 L10.4338959,190.704572 C3.97718475,194.43384 0,201.323725 0,208.779755 L0,584.415517 C0,591.871166 3.97678224,598.760761 10.4329736,602.490168 L335.558163,790.298168 C342.019104,794.030319 349.980896,794.030319 356.441837,790.298168 L681.567026,602.490168 C688.023218,598.760761 692,591.871166 692,584.415517 L692,208.778335 C692,201.323066 688.023621,194.433764 681.567949,190.704217 L356.482294,2.89692762 C350.021543,-0.835553701 342.05975,-0.835959967 335.598618,2.89586199 Z" id="hexagon" stroke="#FFFFFF" stroke-width="14" fill-opacity="0.6" fill="#DE3B99" fill-rule="nonzero" stroke-linejoin="round"></path>
            <path d="M155.006416,654.945982 C155.553291,654.945982 156.647041,653.852232 158.365791,651.586607 C160.162666,641.977232 161.803291,637.211607 163.443916,637.211607 L162.584541,635.570982 L162.584541,634.711607 L164.225166,632.211607 L164.225166,630.492857 L163.443916,628.774107 C166.647041,620.336607 168.600166,616.117857 169.303291,616.117857 C169.303291,615.570982 168.990791,615.336607 168.443916,615.336607 C170.162666,605.180357 173.287666,600.102232 177.740791,600.102232 L181.959541,600.961607 C181.959541,599.399107 183.365791,597.445982 186.178291,595.024107 C191.022041,594.477232 194.381416,593.070982 196.334541,590.805357 L199.693916,590.805357 L199.693916,592.524107 L201.412666,591.664732 C201.412666,591.117857 201.100166,590.805357 200.553291,590.805357 L201.412666,589.164732 C208.053291,588.617857 212.818916,587.524107 215.709541,585.805357 L215.709541,579.008482 C215.162666,579.008482 214.850166,579.320982 214.850166,579.867857 C210.475166,578.227232 207.428291,577.367857 205.631416,577.367857 L203.912666,577.367857 L202.193916,578.149107 L202.193916,577.367857 L200.553291,578.149107 L199.693916,578.149107 L199.693916,576.508482 C188.990791,579.867857 183.678291,582.055357 183.678291,583.227232 C183.131416,583.227232 182.818916,582.914732 182.818916,582.367857 C182.272041,582.367857 181.490791,582.680357 180.318916,583.227232 L179.459541,583.227232 C179.459541,582.680357 179.772041,582.367857 180.318916,582.367857 C180.318916,581.820982 180.006416,581.586607 179.459541,581.586607 C180.553291,579.320982 181.100166,577.289732 181.100166,575.649107 C181.100166,573.539732 185.631416,571.820982 194.615791,570.570982 C197.193916,568.070982 202.272041,566.117857 209.850166,564.711607 L209.850166,565.492857 C213.756416,565.102232 215.709541,564.242857 215.709541,562.992857 L215.709541,559.633482 C214.459541,556.820982 212.193916,555.414732 208.990791,555.414732 L207.272041,556.274107 C206.178291,556.274107 205.631416,555.414732 205.631416,553.695982 L203.053291,553.695982 C203.053291,555.961607 200.553291,557.055357 195.475166,557.055357 L195.475166,555.414732 L192.115791,557.055357 C192.115791,556.039732 191.568916,555.492857 190.397041,555.414732 C190.397041,556.274107 189.537666,557.367857 187.897041,558.774107 L186.178291,557.914732 L182.818916,560.492857 L178.600166,560.492857 L176.881416,559.633482 C176.490791,561.274107 174.772041,562.133482 171.881416,562.133482 L171.022041,562.133482 L166.803291,561.274107 L165.943916,562.992857 L161.725166,562.133482 L160.865791,562.133482 L158.365791,563.852232 L156.647041,562.992857 L152.428291,568.070982 L156.647041,573.149107 L156.647041,573.930357 L155.787666,575.649107 C157.506416,576.508482 158.365791,577.289732 158.365791,578.149107 L158.365791,581.586607 C158.365791,583.149107 157.818916,584.789732 156.647041,586.586607 L157.506416,588.305357 C155.240791,592.992857 154.147041,596.117857 154.147041,597.602232 C154.693916,597.602232 155.006416,597.914732 155.006416,598.461607 C152.897041,606.899107 150.943916,611.117857 149.068916,611.117857 L150.787666,614.477232 L149.068916,617.836607 L149.928291,617.836607 L147.350166,627.133482 L148.209541,627.133482 L146.568916,631.352232 C146.568916,631.977232 146.803291,632.836607 147.350166,633.852232 L146.568916,641.430357 C146.568916,647.367857 148.834541,651.899107 153.287666,654.945982 L155.006416,654.945982 Z M229.278118,640.410826 L229.278118,639.742857 C232.766399,638.40692 234.992962,637.070982 235.957805,635.735045 C245.75468,630.242857 250.653118,625.121764 250.653118,620.371764 L250.653118,619.703795 C249.762493,618.590514 249.31718,617.699889 249.31718,617.03192 L247.981243,617.03192 C247.981243,619.481139 244.418743,621.485045 237.293743,623.043639 C237.293743,622.598326 237.071087,622.37567 236.625774,622.37567 C236.625774,624.602232 234.621868,625.715514 230.614055,625.715514 C230.614055,625.270201 230.391399,625.047545 229.946087,625.047545 C230.31718,624.15692 230.762493,621.707701 231.282024,617.699889 C230.836712,617.699889 230.614055,617.477232 230.614055,617.03192 L231.282024,617.03192 C232.617962,607.235045 234.621868,602.336607 237.293743,602.336607 L238.62968,603.004576 C239.074993,602.113951 239.297649,601.445982 239.297649,601.00067 L253.324993,594.988951 C253.324993,595.434264 253.547649,595.65692 253.992962,595.65692 L254.66093,595.65692 L254.66093,594.988951 C257.332805,592.762389 259.114055,591.649107 260.00468,591.649107 L260.00468,590.981139 C260.00468,589.942076 259.782024,589.051451 259.336712,588.309264 C259.336712,587.863951 255.774212,587.195982 248.649212,586.305357 L241.301555,588.309264 C241.301555,587.863951 241.078899,587.641295 240.633587,587.641295 C239.81718,587.641295 239.371868,588.086607 239.297649,588.977232 L237.961712,588.309264 L238.62968,582.297545 C247.981243,579.62567 255.328899,576.953795 260.672649,574.28192 L264.012493,574.949889 C264.012493,573.836607 264.903118,573.168639 266.684368,572.945982 C268.242962,572.945982 269.356243,571.387389 270.024212,568.270201 C269.801555,567.008482 268.020305,566.117857 264.680462,565.598326 C263.715618,565.598326 262.824993,565.820982 262.008587,566.266295 C261.19218,565.820982 259.188274,565.37567 255.996868,564.930357 L253.324993,566.266295 L253.324993,565.598326 L243.305462,568.93817 L241.969524,568.270201 C241.969524,569.383482 240.41093,570.274107 237.293743,570.942076 C233.805462,568.715514 230.91093,567.602232 228.610149,567.602232 C226.828899,567.824889 225.938274,568.492857 225.938274,569.606139 C223.78593,570.570982 222.672649,571.684264 222.59843,572.945982 C223.043743,572.945982 223.266399,573.168639 223.266399,573.613951 C222.00468,575.395201 220.891399,579.180357 219.926555,584.96942 L220.594524,586.305357 L219.258587,586.305357 C217.996868,593.430357 216.66093,596.992857 215.250774,596.992857 C215.250774,597.735045 215.696087,598.848326 216.586712,600.332701 C215.770305,600.332701 215.324993,601.445982 215.250774,603.672545 L215.250774,605.008482 L215.918743,606.34442 L214.582805,606.34442 C214.582805,612.801451 213.69218,617.699889 211.91093,621.039732 L212.578899,621.039732 C212.059368,625.047545 211.614055,627.496764 211.242962,628.387389 C211.91093,631.28192 213.914837,634.176451 217.25468,637.070982 C217.699993,637.070982 217.922649,636.848326 217.922649,636.403014 L218.590618,636.403014 C220.81718,638.481139 224.37968,639.817076 229.278118,640.410826 Z M272.778695,645.383482 L274.114633,644.715514 C274.114633,645.160826 274.337289,645.383482 274.782602,645.383482 L275.45057,645.383482 L276.786508,644.715514 C276.786508,645.160826 277.009164,645.383482 277.454477,645.383482 L278.790414,644.715514 L278.790414,645.383482 L280.126352,644.715514 L281.462289,645.383482 L281.462289,644.715514 C284.134164,642.711607 285.470102,641.37567 285.470102,640.707701 L288.809945,640.707701 C294.079477,637.367857 297.196664,634.695982 298.161508,632.692076 C302.614633,628.758482 304.841195,626.53192 304.841195,626.012389 C308.403695,623.56317 310.184945,621.78192 310.184945,620.668639 C313.895883,617.551451 316.122445,614.211607 316.864633,610.649107 L316.196664,609.31317 C316.641977,609.31317 316.864633,609.090514 316.864633,608.645201 L315.528695,606.641295 C313.005258,602.856139 309.220102,600.40692 304.173227,599.293639 L302.837289,599.961607 C302.837289,599.516295 300.833383,599.070982 296.82557,598.62567 C296.82557,599.070982 295.712289,599.516295 293.485727,599.961607 C293.485727,599.145201 292.372445,598.477232 290.145883,597.957701 C290.145883,598.403014 289.923227,598.62567 289.477914,598.62567 L288.809945,598.62567 L287.474008,597.957701 L287.474008,597.289732 L288.809945,597.957701 L289.477914,597.957701 C289.477914,596.176451 290.813852,594.617857 293.485727,593.28192 C293.485727,593.727232 293.708383,593.949889 294.153695,593.949889 C294.153695,593.059264 294.376352,592.613951 294.821664,592.613951 C296.157602,591.797545 296.82557,590.90692 296.82557,589.942076 L300.833383,589.942076 L303.505258,587.93817 C303.505258,587.492857 303.282602,587.270201 302.837289,587.270201 L302.837289,586.602232 L304.173227,587.270201 L304.841195,587.270201 C305.73182,587.270201 306.177133,586.602232 306.177133,585.266295 C308.329477,583.930357 309.665414,583.262389 310.184945,583.262389 L310.184945,582.59442 L309.516977,581.258482 L310.184945,581.258482 C310.184945,576.731139 306.399789,573.613951 298.829477,571.90692 L296.157602,573.242857 L294.821664,572.574889 C293.931039,573.09442 293.485727,573.762389 293.485727,574.578795 C293.040414,574.578795 292.817758,574.356139 292.817758,573.910826 L292.149789,573.910826 C283.391977,579.254576 277.380258,585.043639 274.114633,591.278014 L274.782602,592.613951 C274.337289,592.613951 274.114633,592.836607 274.114633,593.28192 L274.114633,594.617857 C274.114633,595.06317 274.337289,595.285826 274.782602,595.285826 C277.23182,605.528014 280.571664,610.649107 284.802133,610.649107 L286.13807,609.981139 C286.13807,610.871764 287.251352,611.317076 289.477914,611.317076 L290.813852,610.649107 L290.813852,611.317076 C291.852914,610.50067 294.079477,609.832701 297.493539,609.31317 C297.493539,609.758482 297.716195,609.981139 298.161508,609.981139 L298.161508,610.649107 C298.161508,613.766295 294.153695,618.664732 286.13807,625.34442 C280.79432,628.832701 278.122445,630.836607 278.122445,631.356139 C277.677133,631.356139 277.454477,631.133482 277.454477,630.68817 C274.26307,632.692076 270.477914,634.25067 266.099008,635.363951 L264.76307,634.695982 L263.427133,635.363951 C263.427133,634.918639 263.204477,634.695982 262.759164,634.695982 C261.423227,635.363951 260.755258,636.03192 260.755258,636.699889 L260.755258,637.367857 C260.755258,639.965514 263.872445,642.637389 270.10682,645.383482 L272.778695,645.383482 Z M344.705054,642.043639 C345.224585,642.043639 346.11521,640.707701 347.376929,638.035826 L347.376929,637.367857 L346.70896,634.028014 C347.154273,634.028014 347.376929,633.805357 347.376929,633.360045 L346.70896,632.024107 C346.70896,629.797545 347.154273,628.684264 348.044898,628.684264 L348.044898,626.012389 C348.49021,623.340514 349.158179,622.004576 350.048804,622.004576 C350.048804,621.559264 349.826148,621.336607 349.380835,621.336607 L350.048804,617.328795 L349.380835,615.992857 L351.384741,607.309264 L350.716773,605.973326 C351.978491,602.78192 353.537085,595.65692 355.392554,584.598326 C354.947241,584.598326 354.724585,584.37567 354.724585,583.930357 C357.841773,579.477232 359.623023,577.25067 360.068335,577.25067 L359.400366,575.914732 L359.400366,574.578795 L360.736304,574.578795 L360.068335,571.238951 L360.068335,569.235045 L360.736304,569.235045 L363.408179,571.238951 L364.076148,571.238951 L364.076148,570.570982 L362.74021,568.567076 L373.42771,565.227232 L374.763648,565.895201 L378.103491,561.887389 L378.103491,557.879576 C376.99021,557.879576 375.431616,557.211607 373.42771,555.87567 L371.423804,555.87567 L370.087866,556.543639 C368.974585,554.836607 368.306616,553.50067 368.08396,552.535826 C367.119116,552.535826 366.451148,553.649107 366.080054,555.87567 L363.408179,555.87567 L363.408179,554.539732 C362.294898,554.539732 361.626929,555.430357 361.404273,557.211607 C360.95896,557.211607 360.736304,556.988951 360.736304,556.543639 C354.42771,559.660826 347.748023,562.110045 340.697241,563.891295 C328.748023,567.973326 322.513648,571.090514 321.994116,573.242857 L321.994116,575.246764 C323.330054,575.246764 323.998023,575.914732 323.998023,577.25067 C326.669898,577.621764 328.005835,578.289732 328.005835,579.254576 L330.009741,579.254576 C335.130835,577.028014 338.025366,575.914732 338.693335,575.914732 C339.58396,575.914732 340.029273,576.360045 340.029273,577.25067 L340.029273,578.586607 C339.138648,579.477232 338.693335,581.258482 338.693335,583.930357 C337.876929,586.231139 336.986304,591.129576 336.02146,598.62567 C335.501929,609.31317 334.388648,614.65692 332.681616,614.65692 L333.349585,621.336607 L332.681616,624.676451 C333.64646,625.789732 335.205054,628.90692 337.357398,634.028014 C339.361304,635.586607 340.697241,638.258482 341.36521,642.043639 L344.705054,642.043639 Z M382.268131,635.363951 C385.385319,633.137389 387.166569,632.024107 387.611881,632.024107 C387.611881,631.578795 387.389225,630.910826 386.943913,630.020201 C386.943913,625.567076 387.834538,623.340514 389.615788,623.340514 L389.615788,622.672545 L388.947819,621.336607 L389.615788,621.336607 C391.174381,615.992857 392.287663,613.320982 392.955631,613.320982 C396.072819,598.106139 398.076725,590.090514 398.96735,589.274107 C399.635319,583.930357 400.525944,581.258482 401.639225,581.258482 L401.639225,577.918639 L402.307194,576.582701 C400.080631,572.945982 397.1861,570.051451 393.6236,567.899107 C387.389225,569.606139 384.272038,571.387389 384.272038,573.242857 L377.59235,597.957701 C378.482975,597.957701 378.928288,598.403014 378.928288,599.293639 L378.928288,599.961607 C378.260319,599.961607 377.59235,600.40692 376.924381,601.297545 C376.40485,604.785826 375.736881,607.012389 374.920475,607.977232 C374.920475,608.942076 375.143131,609.832701 375.588444,610.649107 C374.772038,612.801451 373.881413,616.586607 372.916569,622.004576 C372.916569,622.672545 373.361881,623.56317 374.252506,624.676451 L374.252506,628.016295 C374.920475,628.016295 375.8111,628.684264 376.924381,630.020201 C376.924381,633.211607 378.705631,634.992857 382.268131,635.363951 Z M424.210115,638.703795 C425.174959,638.703795 428.292146,635.809264 433.561678,630.020201 C438.014803,617.551451 441.13199,610.649107 442.91324,609.31317 L442.245271,607.977232 C444.026521,605.305357 445.139803,603.96942 445.585115,603.96942 C445.585115,603.524107 445.362459,603.301451 444.917146,603.301451 C444.917146,602.18817 445.585115,600.184264 446.921053,597.289732 L446.253084,595.953795 C446.253084,595.508482 446.698396,595.285826 447.589021,595.285826 L452.264803,585.266295 L451.596834,585.266295 L454.268709,580.590514 L453.60074,579.254576 C454.268709,578.363951 454.936678,577.918639 455.604646,577.918639 C456.717928,569.012389 457.608553,564.559264 458.276521,564.559264 C458.721834,560.551451 459.835115,556.098326 461.616365,551.199889 L462.952303,551.867857 L463.620271,551.867857 L462.952303,550.53192 L462.952303,549.195982 C463.397615,549.195982 464.065584,548.973326 464.956209,548.528014 C464.28824,547.192076 463.620271,546.524107 462.952303,546.524107 L463.620271,545.18817 L463.620271,544.520201 C463.620271,543.40692 461.839021,542.738951 458.276521,542.516295 C457.460115,542.516295 456.346834,542.961607 454.936678,543.852232 L453.60074,543.184264 C452.635896,544.520201 451.967928,545.18817 451.596834,545.18817 C448.108553,552.31317 446.104646,555.87567 445.585115,555.87567 C445.585115,556.320982 445.807771,556.988951 446.253084,557.879576 C444.026521,566.711607 442.245271,572.723326 440.909334,575.914732 L441.577303,577.25067 L440.909334,577.25067 L431.557771,599.293639 L432.22574,600.629576 C430.889803,601.59442 430.221834,602.707701 430.221834,603.96942 L429.553865,603.96942 L427.549959,602.633482 L429.553865,593.28192 C429.108553,592.465514 428.885896,591.574889 428.885896,590.610045 L428.885896,583.930357 L428.217928,582.59442 L428.885896,582.59442 C428.885896,582.149107 428.66324,581.481139 428.217928,580.590514 C428.217928,579.62567 428.440584,578.735045 428.885896,577.918639 C428.885896,577.473326 428.66324,576.805357 428.217928,575.914732 C428.217928,568.715514 425.991365,564.262389 421.53824,562.555357 L418.198396,563.223326 L414.858553,562.555357 C414.858553,563.223326 413.299959,564.78192 410.182771,567.231139 L410.182771,567.899107 C412.03824,567.899107 413.151521,569.903014 413.522615,573.910826 C413.077303,573.910826 412.854646,574.133482 412.854646,574.578795 L412.854646,575.914732 L413.522615,577.25067 C413.077303,577.25067 412.63199,577.918639 412.186678,579.254576 L412.854646,580.590514 L412.186678,586.602232 C412.186678,587.047545 412.409334,587.715514 412.854646,588.606139 C412.409334,588.606139 412.186678,588.828795 412.186678,589.274107 L412.186678,595.953795 L412.854646,599.293639 L411.518709,599.961607 L412.186678,601.297545 L412.186678,603.96942 L411.518709,611.985045 C411.964021,611.985045 412.186678,612.207701 412.186678,612.653014 C411.741365,612.653014 411.518709,612.87567 411.518709,613.320982 L411.518709,617.996764 L412.186678,621.336607 C411.741365,621.336607 411.518709,622.004576 411.518709,623.340514 L412.186678,624.676451 C411.741365,624.676451 411.518709,624.899107 411.518709,625.34442 L412.186678,626.680357 L411.518709,626.680357 C412.335115,628.90692 413.671053,630.020201 415.526521,630.020201 C417.307771,632.766295 420.202303,635.660826 424.210115,638.703795 Z M503.558349,640.410826 C505.784911,638.629576 506.898193,636.62567 506.898193,634.399107 L506.230224,631.059264 C506.675536,630.242857 506.898193,629.129576 506.898193,627.71942 L506.230224,626.383482 L506.898193,626.383482 C505.562255,620.445982 504.894286,615.547545 504.894286,611.68817 C508.011474,608.570982 509.570068,606.121764 509.570068,604.340514 L509.570068,602.336607 L506.898193,602.336607 C505.488036,602.336607 503.48413,594.766295 500.886474,579.62567 L500.886474,573.613951 C499.550536,572.129576 498.659911,569.235045 498.214599,564.930357 C498.659911,564.930357 498.882568,564.707701 498.882568,564.262389 C498.437255,564.262389 498.214599,564.039732 498.214599,563.59442 L498.214599,562.258482 L498.882568,560.922545 L498.214599,560.922545 C498.214599,560.477232 498.437255,559.809264 498.882568,558.918639 L498.882568,558.25067 C496.210693,556.692076 494.874755,555.578795 494.874755,554.910826 L487.527099,554.910826 L482.183349,558.25067 C481.292724,564.485045 479.956786,569.828795 478.175536,574.28192 L478.175536,576.953795 L476.839599,576.953795 C474.835693,584.37567 471.718505,589.71942 467.488036,592.985045 L468.156005,594.320982 L468.156005,594.988951 C464.519286,599.293639 461.847411,605.082701 460.14038,612.356139 C457.023193,615.992857 455.464599,618.887389 455.464599,621.039732 C456.355224,622.449889 456.800536,623.785826 456.800536,625.047545 C459.101318,625.047545 461.995849,627.71942 465.48413,633.06317 C468.230224,633.06317 470.456786,629.50067 472.163818,622.37567 C474.835693,622.37567 479.956786,620.371764 487.527099,616.363951 C488.417724,617.774107 488.863036,620.00067 488.863036,623.043639 C488.863036,630.613951 490.644286,634.399107 494.206786,634.399107 C498.437255,638.40692 501.554443,640.410826 503.558349,640.410826 Z M479.511474,607.680357 L479.511474,605.676451 C480.847411,600.184264 481.960693,596.621764 482.851318,594.988951 L482.183349,594.988951 C483.964599,592.168639 484.855224,589.942076 484.855224,588.309264 C485.67163,588.309264 486.339599,590.31317 486.85913,594.320982 L486.191161,594.320982 C487.081786,597.660826 487.527099,599.664732 487.527099,600.332701 L486.85913,603.004576 C487.304443,603.004576 487.527099,603.227232 487.527099,603.672545 C487.081786,603.672545 486.85913,603.895201 486.85913,604.340514 C486.85913,605.453795 484.409911,606.567076 479.511474,607.680357 Z M528.133145,640.410826 C535.109707,638.703795 541.121426,634.695982 546.168301,628.387389 C548.840176,624.676451 550.176114,622.227232 550.176114,621.039732 L550.176114,619.035826 L549.508145,617.699889 C548.246426,617.699889 545.574551,618.81317 541.49252,621.039732 C538.449551,623.711607 536.445645,625.047545 535.480801,625.047545 L533.476895,623.711607 C534.812832,618.21942 536.371426,612.87567 538.152676,607.680357 C538.152676,607.235045 537.93002,606.567076 537.484707,605.676451 L538.152676,605.676451 C539.340176,599.442076 540.453457,596.324889 541.49252,596.324889 L540.824551,594.988951 L541.49252,593.653014 L540.824551,593.653014 L542.160489,590.981139 L541.49252,587.641295 C541.49252,586.824889 541.937832,585.043639 542.828457,582.297545 L542.160489,580.961607 C542.605801,580.145201 542.828457,579.254576 542.828457,578.289732 L542.828457,577.621764 L542.160489,576.285826 L542.828457,576.285826 C542.828457,574.578795 542.605801,573.465514 542.160489,572.945982 L542.828457,572.945982 L544.164395,573.613951 C544.164395,572.129576 545.277676,570.12567 547.504239,567.602232 L546.83627,566.266295 L547.504239,566.266295 L548.840176,566.934264 L548.172207,562.926451 C545.945645,561.21942 544.832364,560.106139 544.832364,559.586607 L543.496426,560.254576 L544.164395,561.590514 L543.496426,561.590514 L542.160489,560.922545 L542.828457,559.586607 L542.828457,558.918639 C542.383145,558.918639 541.715176,559.141295 540.824551,559.586607 C540.379239,559.586607 539.71127,559.363951 538.820645,558.918639 C538.820645,559.809264 538.375332,560.254576 537.484707,560.254576 L532.140957,560.254576 C532.140957,561.887389 530.359707,563.223326 526.797207,564.262389 L526.797207,566.266295 C526.797207,566.711607 526.574551,567.379576 526.129239,568.270201 C526.574551,569.012389 526.797207,569.903014 526.797207,570.942076 L526.797207,572.278014 L526.129239,575.617857 C526.574551,575.617857 526.797207,575.840514 526.797207,576.285826 C524.570645,581.926451 522.566739,589.942076 520.785489,600.332701 L521.453457,601.668639 C520.785489,601.668639 519.449551,605.453795 517.445645,613.024107 L518.781582,613.024107 L517.445645,615.028014 L517.445645,616.363951 L518.113614,617.699889 C516.777676,617.774107 515.664395,620.445982 514.77377,625.715514 C515.219082,625.715514 515.441739,625.93817 515.441739,626.383482 C514.996426,626.383482 514.77377,626.606139 514.77377,627.051451 L514.77377,628.387389 C517.965176,634.621764 521.082364,637.738951 524.125332,637.738951 L524.125332,639.742857 C524.125332,640.18817 525.46127,640.410826 528.133145,640.410826 Z" id="Festival" fill="#FFFFFF" fill-rule="nonzero" transform="translate(348.372515, 598.731139) rotate(-3.000000) translate(-348.372515, -598.731139) "></path>
            <g id="Paris-P2P" transform="translate(112.000000, 451.000000)" fill="#FFFFFF" font-family="CourierNewPS-BoldMT, Courier New" font-weight="bold">
                <text id="Paris" font-size="88">
                    <tspan x="0" y="73">Paris</tspan>
                </text>
                <text id="P" font-size="88">
                    <tspan x="297" y="73">P</tspan>
                </text>
                <text id="2" font-size="81">
                    <tspan x="350" y="73">2</tspan>
                </text>
                <text id="P" font-size="88">
                    <tspan x="397" y="73">P</tspan>
                </text>
            </g>
            <g id="lines-tower" transform="translate(244.000000, 42.000000)">
                <path d="M91,49 L91,48.1085715 C91,38.6891428 94.9521429,29.656 102,23 C109.04,29.656 113,38.6891428 113,48.1085715 L113,49 L91,49 Z" id="fill-55" fill="#CB62A3" fill-rule="nonzero"></path>
                <polygon id="fill-49" stroke="#FFBBE5" stroke-width="3" stroke-linecap="round" stroke-linejoin="round" points="77 88 87 110 117 110 127 88"></polygon>
                <path d="M82.2196429,296.9 C87.8205357,280.186571 92.2866071,263.152571 95.5666071,245.9 L109.426071,245.9 C112.706071,263.152571 117.172143,280.186571 122.773036,296.9 L82.2196429,296.9 Z M122.597321,168.460143 L112.742679,47 L92.25,47 L82.4026786,168.460143 C75.5717857,252.690286 47.2085714,333.773 0,404 L41.25625,404 C43.87,372.591286 70.26375,347.9 102.5,347.9 C134.728929,347.9 161.122679,372.591286 163.736429,404 L205,404 C157.784107,333.773 129.420893,252.690286 122.597321,168.460143 L122.597321,168.460143 Z" id="Fill-9" fill="#CB62A3" fill-rule="nonzero"></path>
                <path d="M82.2196429,296.9 C87.8205357,280.55798 92.2866071,263.902514 95.5666071,247.033333 L109.426071,247.033333 C112.706071,263.902514 117.172143,280.55798 122.773036,296.9 L82.2196429,296.9 Z M122.597321,168.460143 L112.742679,47 L92.25,47 L82.4026786,168.460143 C75.5717857,252.690286 47.2085714,333.773 0,404 L41.25625,404 C43.87,372.591286 70.26375,347.9 102.5,347.9 C134.728929,347.9 161.122679,372.591286 163.736429,404 L205,404 C157.784107,333.773 129.420893,252.690286 122.597321,168.460143 Z" id="Stroke-31" stroke="#FFBBE5" stroke-width="4" stroke-linecap="round" stroke-linejoin="round"></path>
                <path d="M174,353 C168.873737,342.821667 164.091666,332.488333 159.668434,322 L43.3315656,322 C38.9083334,332.488333 34.1262626,342.821667 29,353 L76.9012626,353 C84.4368686,349.678572 92.7487374,347.833333 101.5,347.833333 C110.251263,347.833333 118.570455,349.678572 126.098737,353 L174,353 Z" id="Stroke-35" stroke="#FFBBE5" stroke-width="4" stroke-linecap="round" stroke-linejoin="round"></path>
                <polygon id="fill-49" fill="#CB62A3" fill-rule="nonzero" points="77 88 87 110 117 110 127 88"></polygon>
                <line x1="61" y1="221.5" x2="142" y2="221.5" id="Stroke-37" stroke="#FFBBE5" stroke-width="4" stroke-linecap="round" stroke-linejoin="round"></line>
                <path d="M129.8125,248 L75.1875,248 C71.22,248 68,244.672 68,240.571428 L68,222 L137,222 L137,240.571428 C137,244.672 133.78,248 129.8125,248 Z" id="fill-41" fill="#CB62A3" fill-rule="nonzero"></path>
                <path d="M129.8125,248 L75.1875,248 C71.22,248 68,244.672 68,240.571428 L68,222 L137,222 L137,240.571428 C137,244.672 133.78,248 129.8125,248 Z" id="Stroke-41" stroke="#FFBBE5" stroke-width="4" stroke-linecap="round" stroke-linejoin="round"></path>
                <path d="M127,90 L77,90 L77,75.857143 C77,71.52 80.2,68 84.1428571,68 L119.857143,68 C123.8,68 127,71.52 127,75.857143 L127,90 Z" id="fill-45" fill="#CB62A3" fill-rule="nonzero"></path>
                <path d="M127,89 L77,89 L77,74.857143 C77,70.52 80.2,67 84.1428571,67 L119.857143,67 C123.8,67 127,70.52 127,74.857143 L127,89 Z" id="Stroke-45" stroke="#FFBBE5" stroke-width="4" stroke-linecap="round" stroke-linejoin="round"></path>
                <polygon id="Stroke-49" stroke="#FFBBE5" stroke-width="4" stroke-linecap="round" stroke-linejoin="round" points="77 88 87 110 117 110 127 88"></polygon>
                <line x1="83" y1="47.5" x2="124" y2="47.5" id="Stroke-51" stroke="#FFBBE5" stroke-width="4" stroke-linecap="round" stroke-linejoin="round"></line>
                <path d="M93,47 L93,46.2457143 C93,38.2754285 96.4132143,30.632 102.5,25 C108.58,30.632 112,38.2754285 112,46.2457143 L112,47 L93,47 Z" id="Stroke-55" stroke="#FFBBE5" stroke-width="4" stroke-linecap="round" stroke-linejoin="round"></path>
                <line x1="102.5" y1="26" x2="102.5" y2="0" id="Stroke-57" stroke="#FFBBE5" stroke-width="4" stroke-linecap="round" stroke-linejoin="round"></line>
                <line x1="36.5" y1="298" x2="36.5" y2="288" id="Stroke-59" stroke="#FFBBE5" stroke-width="4" stroke-linecap="round" stroke-linejoin="round"></line>
                <line x1="168.5" y1="298" x2="168.5" y2="288" id="Stroke-61" stroke="#FFBBE5" stroke-width="4" stroke-linecap="round" stroke-linejoin="round"></line>
                <path d="M169,297 L36,297 L36,315.571428 C36,319.672 39.2738462,323 43.3076923,323 L161.692308,323 C165.726154,323 169,319.672 169,315.571428 L169,297 Z" id="fill-65" fill="#CB62A3" fill-rule="nonzero"></path>
                <path d="M169,297 L36,297 L36,315.571428 C36,319.672 39.2738462,323 43.3076923,323 L161.692308,323 C165.726154,323 169,319.672 169,315.571428 L169,297 Z" id="Stroke-65" stroke="#FFBBE5" stroke-width="4" stroke-linecap="round" stroke-linejoin="round"></path>
                <line x1="55.5" y1="322" x2="55.5" y2="312" id="Stroke-67" stroke="#FFBBE5" stroke-width="4" stroke-linecap="round" stroke-linejoin="round"></line>
                <line x1="81.5" y1="322" x2="81.5" y2="312" id="Stroke-69" stroke="#FFBBE5" stroke-width="4" stroke-linecap="round" stroke-linejoin="round"></line>
                <line x1="123.5" y1="322" x2="123.5" y2="312" id="Stroke-71" stroke="#FFBBE5" stroke-width="4" stroke-linecap="round" stroke-linejoin="round"></line>
                <line x1="146.5" y1="322" x2="146.5" y2="312" id="Stroke-73" stroke="#FFBBE5" stroke-width="4" stroke-linecap="round" stroke-linejoin="round"></line>
                <polyline id="Stroke-75" stroke="#FFBBE5" stroke-width="4" stroke-linecap="round" stroke-linejoin="round" points="87.6690844 109 120.430643 139.309431 83.7234815 159.520531 125 189.837181 77 215"></polyline>
                <line x1="101.5" y1="323" x2="101.5" y2="348" id="Stroke-77" stroke="#FFBBE5" stroke-width="4" stroke-linecap="round" stroke-linejoin="round"></line>
                <line x1="65.5" y1="323" x2="65.5" y2="353" id="Stroke-79" stroke="#FFBBE5" stroke-width="4" stroke-linecap="round" stroke-linejoin="round"></line>
                <line x1="138.5" y1="323" x2="138.5" y2="353" id="Stroke-81" stroke="#FFBBE5" stroke-width="4" stroke-linecap="round" stroke-linejoin="round"></line>
                <polyline id="Stroke-83" stroke="#FFBBE5" stroke-width="4" stroke-linecap="round" stroke-linejoin="round" points="136.277714 253 115 272.511562 147 289"></polyline>
                <polyline id="Stroke-85" stroke="#FFBBE5" stroke-width="4" stroke-linecap="round" stroke-linejoin="round" points="68.8065099 253 90 272.493037 58 289"></polyline>
                <polyline id="Stroke-87" stroke="#FFBBE5" stroke-width="4" stroke-linecap="round" stroke-linejoin="round" points="40.772898 404 15 380.007286 65 360"></polyline>
                <polyline id="Stroke-89" stroke="#FFBBE5" stroke-width="4" stroke-linecap="round" stroke-linejoin="round" points="163.74599 404 189 380.007286 140 360"></polyline>
            </g>
            <g id="circles-tower" transform="translate(235.000000, 34.000000)" fill="#FFFFFF" fill-rule="nonzero">
                <circle id="Oval" cx="124.5" cy="75.5" r="6.5"></circle>
                <circle id="Oval" cx="126" cy="118" r="5"></circle>
                <circle id="Oval" cx="135.5" cy="96.5" r="4.5"></circle>
                <circle id="Oval" cx="128.5" cy="146.5" r="5.5"></circle>
                <circle id="Oval" cx="133" cy="198" r="7"></circle>
                <circle id="Oval" cx="122" cy="56" r="4"></circle>
                <circle id="Oval" cx="214" cy="412" r="6"></circle>
                <circle id="Oval" cx="172.5" cy="329.5" r="7.5"></circle>
                <circle id="Oval" cx="155.5" cy="295.5" r="5.5"></circle>
                <circle id="Oval" cx="130" cy="305" r="5"></circle>
                <circle id="Oval" cx="125.5" cy="279.5" r="7.5"></circle>
                <circle id="Oval" cx="145" cy="257" r="6"></circle>
                <circle id="Oval" cx="176.5" cy="305.5" r="5.5"></circle>
                <circle id="Oval" cx="146" cy="363" r="11"></circle>
                <circle id="Oval" cx="173.5" cy="410.5" r="7.5"></circle>
                <circle id="Oval" cx="183.5" cy="360.5" r="5.5"></circle>
                <circle id="Oval" cx="199" cy="388" r="6"></circle>
                <circle id="Oval" cx="147.5" cy="331.5" r="5.5"></circle>
                <circle id="Oval" cx="145" cy="229" r="6"></circle>
                <circle id="Oval" cx="99.5" cy="74.5" r="4.5"></circle>
                <circle id="Oval" cx="97" cy="117" r="7"></circle>
                <circle id="Oval" cx="86" cy="97" r="5"></circle>
                <circle id="Oval" cx="93" cy="168" r="6"></circle>
                <circle id="Oval" cx="100.5" cy="55.5" r="5.5"></circle>
                <circle id="Oval" cx="11" cy="410" r="11"></circle>
                <circle id="Oval" cx="52" cy="331" r="6"></circle>
                <circle id="Oval" cx="67" cy="296" r="5"></circle>
                <circle id="Oval" cx="98.5" cy="279.5" r="5.5"></circle>
                <circle id="Oval" cx="78" cy="258" r="7"></circle>
                <circle id="Oval" cx="104.5" cy="255.5" r="4.5"></circle>
                <circle id="Oval" cx="118.5" cy="256.5" r="3.5"></circle>
                <circle id="Oval" cx="91" cy="305" r="5"></circle>
                <circle id="Oval" cx="45" cy="306" r="7"></circle>
                <circle id="Oval" cx="77.5" cy="364.5" r="6.5"></circle>
                <circle id="Oval" cx="49.5" cy="412.5" r="5.5"></circle>
                <circle id="Oval" cx="40" cy="360" r="8"></circle>
                <circle id="Oval" cx="25.5" cy="387.5" r="5.5"></circle>
                <circle id="Oval" cx="75" cy="332" r="5"></circle>
                <circle id="Oval" cx="82" cy="228" r="9"></circle>
                <circle id="Oval" cx="110.5" cy="355.5" r="5.5"></circle>
                <circle id="Oval" cx="111" cy="330" r="7"></circle>
                <circle id="Oval" cx="111.5" cy="32.5" r="5.5"></circle>
                <circle id="Oval" cx="111.5" cy="4.5" r="4.5"></circle>
            </g>
            <g id="circles-bg" opacity="0.846679688" transform="translate(42.000000, 70.000000)" fill="#FFFFFF" fill-rule="nonzero">
                <circle id="Oval" cx="111" cy="136" r="6"></circle>
                <circle id="Oval" cx="173.5" cy="124.5" r="5.5"></circle>
                <circle id="Oval" cx="37.5" cy="232.5" r="5.5"></circle>
                <circle id="Oval" cx="191.5" cy="41.5" r="4.5"></circle>
                <circle id="Oval" cx="151.5" cy="81.5" r="4.5"></circle>
                <circle id="Oval" cx="160.5" cy="350.5" r="4.5"></circle>
                <circle id="Oval" cx="74" cy="116" r="5"></circle>
                <circle id="Oval" cx="28.5" cy="151.5" r="9.5"></circle>
                <circle id="Oval" cx="339.5" cy="620.5" r="7.5"></circle>
                <circle id="Oval" cx="66.5" cy="359.5" r="7.5"></circle>
                <circle id="Oval" cx="85" cy="271" r="11"></circle>
                <circle id="Oval" cx="203.5" cy="614.5" r="6.5"></circle>
                <circle id="Oval" cx="253.5" cy="625.5" r="4.5"></circle>
                <circle id="Oval" cx="292.5" cy="599.5" r="4.5"></circle>
                <circle id="Oval" cx="26.5" cy="511.5" r="5.5"></circle>
                <circle id="Oval" cx="4.5" cy="444.5" r="4.5"></circle>
                <circle id="Oval" cx="80.5" cy="486.5" r="9.5"></circle>
                <circle id="Oval" cx="208" cy="244" r="6"></circle>
                <circle id="Oval" cx="14" cy="210" r="5"></circle>
                <circle id="Oval" cx="16.5" cy="314.5" r="5.5"></circle>
                <circle id="Oval" cx="110" cy="333" r="8"></circle>
                <circle id="Oval" cx="16.5" cy="390.5" r="9.5"></circle>
                <circle id="Oval" cx="160.5" cy="286.5" r="4.5"></circle>
                <circle id="Oval" cx="145" cy="226" r="6"></circle>
                <circle id="Oval" cx="102.5" cy="212.5" r="7.5"></circle>
                <circle id="Oval" cx="184.5" cy="176.5" r="8.5"></circle>
                <circle id="Oval" cx="229.5" cy="127.5" r="6.5"></circle>
                <circle id="Oval" cx="221.5" cy="75.5" r="7.5"></circle>
                <circle id="Oval" cx="252.5" cy="5.5" r="5.5"></circle>
                <circle id="Oval" cx="407" cy="37" r="6"></circle>
                <circle id="Oval" cx="364" cy="37" r="4"></circle>
                <circle id="Oval" cx="386.5" cy="178.5" r="6.5"></circle>
                <circle id="Oval" cx="435" cy="175" r="11"></circle>
                <circle id="Oval" cx="465.5" cy="81.5" r="4.5"></circle>
                <circle id="Oval" cx="548.5" cy="468.5" r="8.5"></circle>
                <circle id="Oval" cx="544.5" cy="537.5" r="4.5"></circle>
                <circle id="Oval" cx="603" cy="481" r="6"></circle>
                <circle id="Oval" cx="545" cy="113" r="5"></circle>
                <circle id="Oval" cx="384.5" cy="112.5" r="7.5"></circle>
                <circle id="Oval" cx="482.5" cy="235.5" r="5.5"></circle>
                <circle id="Oval" cx="566.5" cy="316.5" r="6.5"></circle>
                <circle id="Oval" cx="480.5" cy="378.5" r="5.5"></circle>
                <circle id="Oval" cx="439" cy="351" r="6"></circle>
                <circle id="Oval" cx="564" cy="239" r="9"></circle>
                <circle id="Oval" cx="531" cy="186" r="5"></circle>
                <circle id="Oval" cx="537.5" cy="366.5" r="7.5"></circle>
                <circle id="Oval" cx="591" cy="165" r="6"></circle>
                <circle id="Oval" cx="438" cy="590" r="5"></circle>
                <circle id="Oval" cx="416" cy="248" r="6"></circle>
                <circle id="Oval" cx="507" cy="262" r="4"></circle>
                <circle id="Oval" cx="436.5" cy="281.5" r="7.5"></circle>
                <circle id="Oval" cx="490" cy="325" r="13"></circle>
                <circle id="Oval" cx="394.5" cy="625.5" r="6.5"></circle>
                <circle id="Oval" cx="475" cy="141" r="9"></circle>
                <circle id="Oval" cx="595.5" cy="281.5" r="5.5"></circle>
                <circle id="Oval" cx="591" cy="399" r="10"></circle>
                <circle id="Oval" cx="297" cy="664" r="13"></circle>
            </g>
        </g>
    </g>
</svg>