<?xml version="1.0" encoding="UTF-8"?>
<svg width="1631px" height="577px" viewBox="0 0 1631 577" version="1.1" xmlns="http://www.w3.org/2000/svg" xmlns:xlink="http://www.w3.org/1999/xlink">
    <!-- Generator: Sketch 62 (91390) - https://sketch.com -->
    <title>Slice</title>
    <desc>Created with Sketch.</desc>
    <g id="Page-1" stroke="none" stroke-width="1" fill="none" fill-rule="evenodd">
        <path d="M1294.70508,522 C1299.62695,522 1303.39648,520.753255 1306.01367,518.259766 C1308.63086,515.766276 1309.93945,512.16276 1309.93945,507.449219 C1309.93945,503.009115 1308.67643,499.565104 1306.15039,497.117188 C1303.62435,494.669271 1300.08919,493.445312 1295.54492,493.445312 L1295.54492,493.445312 L1286.7168,493.445312 L1286.7168,522 L1294.70508,522 Z M1294.70508,518.074219 L1291.38477,518.074219 L1291.38477,497.351562 L1295.42773,497.351562 C1301.82096,497.351562 1305.01758,500.769531 1305.01758,507.605469 C1305.01758,514.584635 1301.58008,518.074219 1294.70508,518.074219 L1294.70508,518.074219 Z M1317.9082,497.195312 C1318.71549,497.195312 1319.34375,496.970703 1319.79297,496.521484 C1320.24219,496.072266 1320.4668,495.457031 1320.4668,494.675781 C1320.4668,493.855469 1320.24219,493.223958 1319.79297,492.78125 C1319.34375,492.338542 1318.71549,492.117188 1317.9082,492.117188 C1317.07487,492.117188 1316.43359,492.338542 1315.98438,492.78125 C1315.53516,493.223958 1315.31055,493.855469 1315.31055,494.675781 C1315.31055,495.457031 1315.53516,496.072266 1315.98438,496.521484 C1316.43359,496.970703 1317.07487,497.195312 1317.9082,497.195312 Z M1320.17383,522 L1320.17383,500.398438 L1315.58398,500.398438 L1315.58398,522 L1320.17383,522 Z M1332.3418,522.390625 C1335.20638,522.390625 1337.4069,521.827474 1338.94336,520.701172 C1340.47982,519.57487 1341.24805,517.957031 1341.24805,515.847656 C1341.24805,514.80599 1341.05273,513.910807 1340.66211,513.162109 C1340.27148,512.413411 1339.67253,511.752604 1338.86523,511.179688 C1338.05794,510.606771 1336.76237,509.97526 1334.97852,509.285156 C1332.85612,508.464844 1331.47917,507.820312 1330.84766,507.351562 C1330.21615,506.882812 1329.90039,506.309896 1329.90039,505.632812 C1329.90039,504.252604 1331.11133,503.5625 1333.5332,503.5625 C1335.12174,503.5625 1337.08138,504.044271 1339.41211,505.007812 L1339.41211,505.007812 L1340.89648,501.550781 C1338.63086,500.522135 1336.22852,500.007812 1333.68945,500.007812 C1331.12435,500.007812 1329.09635,500.51888 1327.60547,501.541016 C1326.11458,502.563151 1325.36914,503.998698 1325.36914,505.847656 C1325.36914,507.384115 1325.80859,508.634115 1326.6875,509.597656 C1327.56641,510.561198 1329.24935,511.52474 1331.73633,512.488281 C1333.01237,512.983073 1334.00846,513.425781 1334.72461,513.816406 C1335.44076,514.207031 1335.95508,514.584635 1336.26758,514.949219 C1336.58008,515.313802 1336.73633,515.769531 1336.73633,516.316406 C1336.73633,518.022135 1335.32357,518.875 1332.49805,518.875 C1330.31055,518.875 1327.94727,518.289062 1325.4082,517.117188 L1325.4082,517.117188 L1325.4082,521.082031 C1327.15299,521.954427 1329.46419,522.390625 1332.3418,522.390625 Z M1353.16211,522.390625 C1354.02148,522.390625 1354.85156,522.315755 1355.65234,522.166016 C1356.45312,522.016276 1357.10742,521.830729 1357.61523,521.609375 L1357.61523,521.609375 L1357.61523,518.152344 C1356.49544,518.503906 1355.37565,518.679688 1354.25586,518.679688 C1353.35742,518.679688 1352.63151,518.416016 1352.07812,517.888672 C1351.52474,517.361328 1351.24805,516.544271 1351.24805,515.4375 L1351.24805,515.4375 L1351.24805,503.875 L1357.40039,503.875 L1357.40039,500.398438 L1351.24805,500.398438 L1351.24805,495.59375 L1348.41602,495.59375 L1346.85352,500.164062 L1343.68945,501.84375 L1343.68945,503.875 L1346.63867,503.875 L1346.63867,515.515625 C1346.63867,520.098958 1348.81315,522.390625 1353.16211,522.390625 Z M1366.52148,522 L1366.52148,510.710938 C1366.52148,508.796875 1367.09115,507.240885 1368.23047,506.042969 C1369.36979,504.845052 1370.85742,504.246094 1372.69336,504.246094 C1373.39648,504.246094 1374.07357,504.324219 1374.72461,504.480469 L1374.72461,504.480469 L1375.17383,500.203125 C1374.57487,500.072917 1373.81315,500.007812 1372.88867,500.007812 C1371.56055,500.007812 1370.32031,500.385417 1369.16797,501.140625 C1368.01562,501.895833 1367.08138,502.917969 1366.36523,504.207031 L1366.36523,504.207031 L1366.13086,504.207031 L1365.52539,500.398438 L1361.93164,500.398438 L1361.93164,522 L1366.52148,522 Z M1381.50195,497.195312 C1382.30924,497.195312 1382.9375,496.970703 1383.38672,496.521484 C1383.83594,496.072266 1384.06055,495.457031 1384.06055,494.675781 C1384.06055,493.855469 1383.83594,493.223958 1383.38672,492.78125 C1382.9375,492.338542 1382.30924,492.117188 1381.50195,492.117188 C1380.66862,492.117188 1380.02734,492.338542 1379.57812,492.78125 C1379.12891,493.223958 1378.9043,493.855469 1378.9043,494.675781 C1378.9043,495.457031 1379.12891,496.072266 1379.57812,496.521484 C1380.02734,496.970703 1380.66862,497.195312 1381.50195,497.195312 Z M1383.76758,522 L1383.76758,500.398438 L1379.17773,500.398438 L1379.17773,522 L1383.76758,522 Z M1401.28711,522.390625 C1403.99544,522.390625 1406.11133,521.404297 1407.63477,519.431641 C1409.1582,517.458984 1409.91992,514.701823 1409.91992,511.160156 C1409.91992,507.63151 1409.16797,504.890625 1407.66406,502.9375 C1406.16016,500.984375 1404.06055,500.007812 1401.36523,500.007812 C1398.52669,500.007812 1396.37826,501.082031 1394.91992,503.230469 L1394.91992,503.230469 L1394.72461,503.230469 C1394.75065,502.94401 1394.78971,502.273438 1394.8418,501.21875 C1394.89388,500.164062 1394.91992,499.369792 1394.91992,498.835938 L1394.91992,491.609375 L1390.33008,491.609375 L1390.33008,522 L1393.76758,522 L1394.60742,519.441406 L1394.91992,519.441406 C1396.43034,521.407552 1398.55273,522.390625 1401.28711,522.390625 Z M1400.25195,518.640625 C1398.36393,518.640625 1397.00326,518.051432 1396.16992,516.873047 C1395.33659,515.694661 1394.91992,513.790365 1394.91992,511.160156 L1394.91992,511.160156 L1394.91992,510.847656 C1394.94596,508.295573 1395.36589,506.475911 1396.17969,505.388672 C1396.99349,504.301432 1398.32487,503.757812 1400.17383,503.757812 C1403.5332,503.757812 1405.21289,506.21224 1405.21289,511.121094 C1405.21289,513.55599 1404.79297,515.417969 1403.95312,516.707031 C1403.11328,517.996094 1401.87956,518.640625 1400.25195,518.640625 Z M1422.84961,522.390625 C1424.36003,522.390625 1425.70443,522.104167 1426.88281,521.53125 C1428.0612,520.958333 1428.9694,520.170573 1429.60742,519.167969 L1429.60742,519.167969 L1429.8418,519.167969 L1430.48633,522 L1434.09961,522 L1434.09961,500.398438 L1429.49023,500.398438 L1429.49023,511.160156 C1429.49023,513.86849 1429.03776,515.798828 1428.13281,516.951172 C1427.22786,518.103516 1425.81185,518.679688 1423.88477,518.679688 C1422.43945,518.679688 1421.37826,518.266276 1420.70117,517.439453 C1420.02409,516.61263 1419.68555,515.372396 1419.68555,513.71875 L1419.68555,513.71875 L1419.68555,500.398438 L1415.05664,500.398438 L1415.05664,514.519531 C1415.05664,517.16276 1415.70117,519.135417 1416.99023,520.4375 C1418.2793,521.739583 1420.23242,522.390625 1422.84961,522.390625 Z M1447.5957,522.390625 C1448.45508,522.390625 1449.28516,522.315755 1450.08594,522.166016 C1450.88672,522.016276 1451.54102,521.830729 1452.04883,521.609375 L1452.04883,521.609375 L1452.04883,518.152344 C1450.92904,518.503906 1449.80924,518.679688 1448.68945,518.679688 C1447.79102,518.679688 1447.0651,518.416016 1446.51172,517.888672 C1445.95833,517.361328 1445.68164,516.544271 1445.68164,515.4375 L1445.68164,515.4375 L1445.68164,503.875 L1451.83398,503.875 L1451.83398,500.398438 L1445.68164,500.398438 L1445.68164,495.59375 L1442.84961,495.59375 L1441.28711,500.164062 L1438.12305,501.84375 L1438.12305,503.875 L1441.07227,503.875 L1441.07227,515.515625 C1441.07227,520.098958 1443.24674,522.390625 1447.5957,522.390625 Z M1465.79883,522.390625 C1467.27018,522.390625 1468.57878,522.279948 1469.72461,522.058594 C1470.87044,521.83724 1472.00326,521.459635 1473.12305,520.925781 L1473.12305,520.925781 L1473.12305,517.195312 C1471.86003,517.755208 1470.67839,518.155599 1469.57812,518.396484 C1468.47786,518.63737 1467.28971,518.757812 1466.01367,518.757812 C1464.07357,518.757812 1462.56966,518.194661 1461.50195,517.068359 C1460.43424,515.942057 1459.86784,514.330729 1459.80273,512.234375 L1459.80273,512.234375 L1474.19727,512.234375 L1474.19727,509.753906 C1474.19727,506.720052 1473.37044,504.33724 1471.7168,502.605469 C1470.06315,500.873698 1467.81055,500.007812 1464.95898,500.007812 C1461.88607,500.007812 1459.4707,501.016927 1457.71289,503.035156 C1455.95508,505.053385 1455.07617,507.826823 1455.07617,511.355469 C1455.07617,514.792969 1456.02344,517.491536 1457.91797,519.451172 C1459.8125,521.410807 1462.43945,522.390625 1465.79883,522.390625 Z M1469.68555,508.914062 L1459.88086,508.914062 C1460.05013,507.143229 1460.57422,505.795573 1461.45312,504.871094 C1462.33203,503.946615 1463.50065,503.484375 1464.95898,503.484375 C1466.41732,503.484375 1467.56315,503.943359 1468.39648,504.861328 C1469.22982,505.779297 1469.65951,507.130208 1469.68555,508.914062 L1469.68555,508.914062 Z M1486.69727,522.390625 C1489.53581,522.390625 1491.69076,521.316406 1493.16211,519.167969 L1493.16211,519.167969 L1493.37695,519.167969 L1494.17773,522 L1497.77148,522 L1497.77148,491.609375 L1493.16211,491.609375 L1493.16211,499.480469 C1493.16211,500.378906 1493.27279,501.602865 1493.49414,503.152344 L1493.49414,503.152344 L1493.25977,503.152344 C1491.77539,501.05599 1489.61393,500.007812 1486.77539,500.007812 C1484.06706,500.007812 1481.94792,500.994141 1480.41797,502.966797 C1478.88802,504.939453 1478.12305,507.696615 1478.12305,511.238281 C1478.12305,514.766927 1478.87826,517.507812 1480.38867,519.460938 C1481.89909,521.414062 1484.00195,522.390625 1486.69727,522.390625 Z M1487.92773,518.679688 C1486.23503,518.679688 1484.96549,518.051432 1484.11914,516.794922 C1483.27279,515.538411 1482.84961,513.71224 1482.84961,511.316406 C1482.84961,508.894531 1483.28581,507.029297 1484.1582,505.720703 C1485.0306,504.412109 1486.27409,503.757812 1487.88867,503.757812 C1489.77669,503.757812 1491.16341,504.330729 1492.04883,505.476562 C1492.93424,506.622396 1493.37695,508.55599 1493.37695,511.277344 L1493.37695,511.277344 L1493.37695,511.921875 C1493.35091,514.304688 1492.9082,516.026693 1492.04883,517.087891 C1491.18945,518.149089 1489.81576,518.679688 1487.92773,518.679688 Z" id="Distributed" fill="#454EE0" fill-rule="nonzero"></path>
        <g id="DISTRIBUTED" transform="translate(1203.000000, 56.000000)">
            <polyline id="Line-4" stroke="#7F85F4" stroke-width="5" stroke-linecap="square" points="260 13 139.866019 49 126.866019 131 27.8660194 131 14.5 291.807379 94.5 291.807379"></polyline>
            <polyline id="Line" stroke="#7F85F4" stroke-width="5" stroke-linecap="square" points="72 374.307379 94 291.307379 129 208.307379 126.866019 131 214 192 218 118 326 92"></polyline>
            <polyline id="Line-2" stroke="#7F85F4" stroke-width="5" stroke-linecap="square" points="94.5 291.807379 159.5 317.807379 72 374.307379 13 291.307379"></polyline>
            <polygon id="Line-3" stroke="#7F85F4" stroke-width="5" stroke-linecap="square" points="129 208.307379 94.5 291.807379 27.8660194 131 59 49 139.866019 49 218 118 260 13 326 92 286 213 286 320 217.866019 361.307379 159.5 320 172 253"></polygon>
            <line x1="129" y1="208.307379" x2="27.5" y2="131.5" id="Line-3" stroke="#7F85F4" stroke-width="5" stroke-linecap="square"></line>
            <line x1="172" y1="257.307379" x2="94.5" y2="291.807379" id="Line-3" stroke="#7F85F4" stroke-width="5" stroke-linecap="square"></line>
            <polyline id="Path-2" stroke="#7F85F4" stroke-width="5" stroke-linecap="square" points="59 49 127 131.5 217.866019 119.135502 286 213 214 192"></polyline>
            <polygon id="Path" stroke="#7F85F4" stroke-width="5" stroke-linecap="square" points="172 256.307379 286 320 214 192"></polygon>
            <polyline id="Path-3" stroke="#7F85F4" stroke-width="5" stroke-linecap="square" points="326 92 365 166 286 213 365 262 286 320"></polyline>
            <line x1="365" y1="166" x2="365" y2="262" id="Path-4" stroke="#7F85F4" stroke-width="5" stroke-linecap="square"></line>
            <circle id="Oval" fill="#454EE0" cx="13" cy="291.307379" r="13"></circle>
            <circle id="Oval" fill="#454EE0" cx="27.8660194" cy="131" r="13"></circle>
            <circle id="Oval" fill="#454EE0" cx="139.866019" cy="49" r="13"></circle>
            <circle id="Oval" fill="#454EE0" cx="59" cy="49" r="13"></circle>
            <circle id="Oval" fill="#454EE0" cx="217.866019" cy="118" r="13"></circle>
            <circle id="Oval" fill="#454EE0" cx="214" cy="192" r="13"></circle>
            <circle id="Oval" fill="#454EE0" cx="127" cy="131" r="13"></circle>
            <circle id="Oval" fill="#454EE0" cx="286" cy="213" r="13"></circle>
            <circle id="Oval" fill="#454EE0" cx="365" cy="166" r="13"></circle>
            <circle id="Oval" fill="#454EE0" cx="365" cy="262" r="13"></circle>
            <circle id="Oval" fill="#454EE0" cx="326" cy="92" r="13"></circle>
            <circle id="Oval" fill="#454EE0" cx="260" cy="13" r="13"></circle>
            <circle id="Oval" fill="#454EE0" cx="286" cy="320" r="13"></circle>
            <circle id="Oval" fill="#454EE0" cx="218" cy="361" r="13"></circle>
            <circle id="Oval" fill="#454EE0" cx="129" cy="208.307379" r="13"></circle>
            <circle id="Oval" fill="#454EE0" cx="172" cy="256.307379" r="13"></circle>
            <circle id="Oval" fill="#454EE0" cx="159" cy="317.307379" r="13"></circle>
            <circle id="Oval" fill="#454EE0" cx="72" cy="374.307379" r="13"></circle>
            <circle id="Oval" fill="#454EE0" cx="94" cy="291.307379" r="13"></circle>
        </g>
        <path d="M663.652344,522 C668.574219,522 672.34375,520.753255 674.960938,518.259766 C677.578125,515.766276 678.886719,512.16276 678.886719,507.449219 C678.886719,503.009115 677.623698,499.565104 675.097656,497.117188 C672.571615,494.669271 669.036458,493.445312 664.492188,493.445312 L664.492188,493.445312 L655.664062,493.445312 L655.664062,522 L663.652344,522 Z M663.652344,518.074219 L660.332031,518.074219 L660.332031,497.351562 L664.375,497.351562 C670.768229,497.351562 673.964844,500.769531 673.964844,507.605469 C673.964844,514.584635 670.527344,518.074219 663.652344,518.074219 L663.652344,518.074219 Z M693.964844,522.390625 C695.436198,522.390625 696.744792,522.279948 697.890625,522.058594 C699.036458,521.83724 700.169271,521.459635 701.289062,520.925781 L701.289062,520.925781 L701.289062,517.195312 C700.026042,517.755208 698.844401,518.155599 697.744141,518.396484 C696.64388,518.63737 695.455729,518.757812 694.179688,518.757812 C692.239583,518.757812 690.735677,518.194661 689.667969,517.068359 C688.60026,515.942057 688.033854,514.330729 687.96875,512.234375 L687.96875,512.234375 L702.363281,512.234375 L702.363281,509.753906 C702.363281,506.720052 701.536458,504.33724 699.882812,502.605469 C698.229167,500.873698 695.976562,500.007812 693.125,500.007812 C690.052083,500.007812 687.636719,501.016927 685.878906,503.035156 C684.121094,505.053385 683.242188,507.826823 683.242188,511.355469 C683.242188,514.792969 684.189453,517.491536 686.083984,519.451172 C687.978516,521.410807 690.605469,522.390625 693.964844,522.390625 Z M697.851562,508.914062 L688.046875,508.914062 C688.216146,507.143229 688.740234,505.795573 689.619141,504.871094 C690.498047,503.946615 691.666667,503.484375 693.125,503.484375 C694.583333,503.484375 695.729167,503.943359 696.5625,504.861328 C697.395833,505.779297 697.825521,507.130208 697.851562,508.914062 L697.851562,508.914062 Z M716.289062,522.390625 C717.617188,522.390625 718.746745,522.286458 719.677734,522.078125 C720.608724,521.869792 721.484375,521.52474 722.304688,521.042969 L722.304688,521.042969 L722.304688,517.039062 C720.481771,518.054688 718.548177,518.5625 716.503906,518.5625 C714.707031,518.5625 713.343099,517.953776 712.412109,516.736328 C711.48112,515.51888 711.015625,513.699219 711.015625,511.277344 C711.015625,506.316406 712.884115,503.835938 716.621094,503.835938 C717.884115,503.835938 719.485677,504.213542 721.425781,504.96875 L721.425781,504.96875 L722.8125,501.277344 C720.989583,500.43099 718.938802,500.007812 716.660156,500.007812 C713.300781,500.007812 710.732422,500.984375 708.955078,502.9375 C707.177734,504.890625 706.289062,507.683594 706.289062,511.316406 C706.289062,514.884115 707.138672,517.621745 708.837891,519.529297 C710.537109,521.436849 713.020833,522.390625 716.289062,522.390625 Z M736.816406,522.390625 C738.28776,522.390625 739.596354,522.279948 740.742188,522.058594 C741.888021,521.83724 743.020833,521.459635 744.140625,520.925781 L744.140625,520.925781 L744.140625,517.195312 C742.877604,517.755208 741.695964,518.155599 740.595703,518.396484 C739.495443,518.63737 738.307292,518.757812 737.03125,518.757812 C735.091146,518.757812 733.58724,518.194661 732.519531,517.068359 C731.451823,515.942057 730.885417,514.330729 730.820312,512.234375 L730.820312,512.234375 L745.214844,512.234375 L745.214844,509.753906 C745.214844,506.720052 744.388021,504.33724 742.734375,502.605469 C741.080729,500.873698 738.828125,500.007812 735.976562,500.007812 C732.903646,500.007812 730.488281,501.016927 728.730469,503.035156 C726.972656,505.053385 726.09375,507.826823 726.09375,511.355469 C726.09375,514.792969 727.041016,517.491536 728.935547,519.451172 C730.830078,521.410807 733.457031,522.390625 736.816406,522.390625 Z M740.703125,508.914062 L730.898438,508.914062 C731.067708,507.143229 731.591797,505.795573 732.470703,504.871094 C733.349609,503.946615 734.518229,503.484375 735.976562,503.484375 C737.434896,503.484375 738.580729,503.943359 739.414062,504.861328 C740.247396,505.779297 740.677083,507.130208 740.703125,508.914062 L740.703125,508.914062 Z M755.019531,522 L755.019531,511.238281 C755.019531,508.542969 755.46875,506.622396 756.367188,505.476562 C757.265625,504.330729 758.684896,503.757812 760.625,503.757812 C762.083333,503.757812 763.147786,504.167969 763.818359,504.988281 C764.488932,505.808594 764.824219,507.052083 764.824219,508.71875 L764.824219,508.71875 L764.824219,522 L769.433594,522 L769.433594,507.917969 C769.433594,502.644531 766.842448,500.007812 761.660156,500.007812 C760.201823,500.007812 758.873698,500.28776 757.675781,500.847656 C756.477865,501.407552 755.553385,502.201823 754.902344,503.230469 L754.902344,503.230469 L754.667969,503.230469 L754.023438,500.398438 L750.429688,500.398438 L750.429688,522 L755.019531,522 Z M782.773438,522.390625 C783.632812,522.390625 784.462891,522.315755 785.263672,522.166016 C786.064453,522.016276 786.71875,521.830729 787.226562,521.609375 L787.226562,521.609375 L787.226562,518.152344 C786.106771,518.503906 784.986979,518.679688 783.867188,518.679688 C782.96875,518.679688 782.242839,518.416016 781.689453,517.888672 C781.136068,517.361328 780.859375,516.544271 780.859375,515.4375 L780.859375,515.4375 L780.859375,503.875 L787.011719,503.875 L787.011719,500.398438 L780.859375,500.398438 L780.859375,495.59375 L778.027344,495.59375 L776.464844,500.164062 L773.300781,501.84375 L773.300781,503.875 L776.25,503.875 L776.25,515.515625 C776.25,520.098958 778.424479,522.390625 782.773438,522.390625 Z M796.132812,522 L796.132812,510.710938 C796.132812,508.796875 796.702474,507.240885 797.841797,506.042969 C798.98112,504.845052 800.46875,504.246094 802.304688,504.246094 C803.007812,504.246094 803.684896,504.324219 804.335938,504.480469 L804.335938,504.480469 L804.785156,500.203125 C804.186198,500.072917 803.424479,500.007812 802.5,500.007812 C801.171875,500.007812 799.931641,500.385417 798.779297,501.140625 C797.626953,501.895833 796.692708,502.917969 795.976562,504.207031 L795.976562,504.207031 L795.742188,504.207031 L795.136719,500.398438 L791.542969,500.398438 L791.542969,522 L796.132812,522 Z M814.023438,522.390625 C815.677083,522.390625 817.03125,522.152995 818.085938,521.677734 C819.140625,521.202474 820.188802,520.307292 821.230469,518.992188 L821.230469,518.992188 L821.386719,518.992188 L822.304688,522 L825.585938,522 L825.585938,507.449219 C825.585938,504.884115 824.886068,503.002604 823.486328,501.804688 C822.086589,500.606771 820.013021,500.007812 817.265625,500.007812 C816.028646,500.007812 814.713542,500.167318 813.320312,500.486328 C811.927083,500.805339 810.644531,501.270833 809.472656,501.882812 L809.472656,501.882812 L810.957031,505.164062 C811.894531,504.721354 812.871094,504.33724 813.886719,504.011719 C814.902344,503.686198 815.963542,503.523438 817.070312,503.523438 C818.424479,503.523438 819.423828,503.865234 820.068359,504.548828 C820.712891,505.232422 821.035156,506.264323 821.035156,507.644531 L821.035156,507.644531 L821.035156,508.796875 L817.304688,508.914062 C813.919271,509.018229 811.39974,509.636719 809.746094,510.769531 C808.092448,511.902344 807.265625,513.582031 807.265625,515.808594 C807.265625,517.904948 807.861328,519.526042 809.052734,520.671875 C810.244141,521.817708 811.901042,522.390625 814.023438,522.390625 Z M815.46875,518.875 C814.322917,518.875 813.463542,518.611328 812.890625,518.083984 C812.317708,517.556641 812.03125,516.811198 812.03125,515.847656 C812.03125,514.519531 812.522786,513.533203 813.505859,512.888672 C814.488932,512.244141 816.061198,511.882812 818.222656,511.804688 L818.222656,511.804688 L820.996094,511.6875 L820.996094,513.5625 C820.996094,515.242188 820.491536,516.547526 819.482422,517.478516 C818.473307,518.409505 817.135417,518.875 815.46875,518.875 Z M836.582031,522 L836.582031,491.609375 L831.992188,491.609375 L831.992188,522 L836.582031,522 Z M845.46875,497.195312 C846.276042,497.195312 846.904297,496.970703 847.353516,496.521484 C847.802734,496.072266 848.027344,495.457031 848.027344,494.675781 C848.027344,493.855469 847.802734,493.223958 847.353516,492.78125 C846.904297,492.338542 846.276042,492.117188 845.46875,492.117188 C844.635417,492.117188 843.994141,492.338542 843.544922,492.78125 C843.095703,493.223958 842.871094,493.855469 842.871094,494.675781 C842.871094,495.457031 843.095703,496.072266 843.544922,496.521484 C843.994141,496.970703 844.635417,497.195312 845.46875,497.195312 Z M847.734375,522 L847.734375,500.398438 L843.144531,500.398438 L843.144531,522 L847.734375,522 Z M868.730469,522 L868.730469,518.484375 L857.734375,518.484375 L868.417969,503.601562 L868.417969,500.398438 L853.007812,500.398438 L853.007812,503.914062 L863.261719,503.914062 L852.34375,519.167969 L852.34375,522 L868.730469,522 Z M882.851562,522.390625 C884.322917,522.390625 885.63151,522.279948 886.777344,522.058594 C887.923177,521.83724 889.05599,521.459635 890.175781,520.925781 L890.175781,520.925781 L890.175781,517.195312 C888.91276,517.755208 887.73112,518.155599 886.630859,518.396484 C885.530599,518.63737 884.342448,518.757812 883.066406,518.757812 C881.126302,518.757812 879.622396,518.194661 878.554688,517.068359 C877.486979,515.942057 876.920573,514.330729 876.855469,512.234375 L876.855469,512.234375 L891.25,512.234375 L891.25,509.753906 C891.25,506.720052 890.423177,504.33724 888.769531,502.605469 C887.115885,500.873698 884.863281,500.007812 882.011719,500.007812 C878.938802,500.007812 876.523438,501.016927 874.765625,503.035156 C873.007812,505.053385 872.128906,507.826823 872.128906,511.355469 C872.128906,514.792969 873.076172,517.491536 874.970703,519.451172 C876.865234,521.410807 879.492188,522.390625 882.851562,522.390625 Z M886.738281,508.914062 L876.933594,508.914062 C877.102865,507.143229 877.626953,505.795573 878.505859,504.871094 C879.384766,503.946615 880.553385,503.484375 882.011719,503.484375 C883.470052,503.484375 884.615885,503.943359 885.449219,504.861328 C886.282552,505.779297 886.71224,507.130208 886.738281,508.914062 L886.738281,508.914062 Z M903.75,522.390625 C906.588542,522.390625 908.74349,521.316406 910.214844,519.167969 L910.214844,519.167969 L910.429688,519.167969 L911.230469,522 L914.824219,522 L914.824219,491.609375 L910.214844,491.609375 L910.214844,499.480469 C910.214844,500.378906 910.325521,501.602865 910.546875,503.152344 L910.546875,503.152344 L910.3125,503.152344 C908.828125,501.05599 906.666667,500.007812 903.828125,500.007812 C901.119792,500.007812 899.000651,500.994141 897.470703,502.966797 C895.940755,504.939453 895.175781,507.696615 895.175781,511.238281 C895.175781,514.766927 895.93099,517.507812 897.441406,519.460938 C898.951823,521.414062 901.054688,522.390625 903.75,522.390625 Z M904.980469,518.679688 C903.28776,518.679688 902.018229,518.051432 901.171875,516.794922 C900.325521,515.538411 899.902344,513.71224 899.902344,511.316406 C899.902344,508.894531 900.338542,507.029297 901.210938,505.720703 C902.083333,504.412109 903.326823,503.757812 904.941406,503.757812 C906.829427,503.757812 908.216146,504.330729 909.101562,505.476562 C909.986979,506.622396 910.429688,508.55599 910.429688,511.277344 L910.429688,511.277344 L910.429688,511.921875 C910.403646,514.304688 909.960938,516.026693 909.101562,517.087891 C908.242188,518.149089 906.86849,518.679688 904.980469,518.679688 Z" id="Decentralized" fill="#454EE0" fill-rule="nonzero"></path>
        <g id="DECENTRALIZED" transform="translate(595.873596, 45.659932)">
            <line x1="206.626404" y1="308.840068" x2="286.626404" y2="308.840068" id="Line-4" stroke="#7F85F4" stroke-width="5" stroke-linecap="square"></line>
            <line x1="264.126404" y1="391.340068" x2="286.126404" y2="308.340068" id="Line" stroke="#7F85F4" stroke-width="5" stroke-linecap="square"></line>
            <line x1="286.626404" y1="308.840068" x2="351.626404" y2="334.840068" id="Line-2" stroke="#7F85F4" stroke-width="5" stroke-linecap="square"></line>
            <line x1="321.126404" y1="225.340068" x2="286.626404" y2="308.840068" id="Line-3" stroke="#7F85F4" stroke-width="5" stroke-linecap="square"></line>
            <line x1="364.126404" y1="274.340068" x2="286.626404" y2="308.840068" id="Line-3" stroke="#7F85F4" stroke-width="5" stroke-linecap="square"></line>
            <line x1="65.0460168" y1="188.713664" x2="86.5644843" y2="258.448316" id="Line" stroke="#7F85F4" stroke-width="5" stroke-linecap="square"></line>
            <line x1="85.9924229" y1="258.032689" x2="17.7253847" y2="242.521032" id="Line-2" stroke="#7F85F4" stroke-width="5" stroke-linecap="square"></line>
            <line x1="94.6264035" y1="320.840068" x2="85.9924229" y2="258.032689" id="Line-3" stroke="#7F85F4" stroke-width="5" stroke-linecap="square"></line>
            <line x1="196.126404" y1="196.340068" x2="85.9924229" y2="258.032689" id="Line-3" stroke="#7F85F4" stroke-width="5" stroke-linecap="square"></line>
            <line x1="196.626404" y1="196.840068" x2="286.626404" y2="308.840068" id="Line-3" stroke="#7F85F4" stroke-width="5" stroke-linecap="square"></line>
            <line x1="14.8435655" y1="304.231608" x2="85.9924229" y2="258.032689" id="Line-3" stroke="#7F85F4" stroke-width="5" stroke-linecap="square"></line>
            <line x1="317.954485" y1="143.141043" x2="260.329436" y2="98.3602459" id="Line" stroke="#7F85F4" stroke-width="5" stroke-linecap="square"></line>
            <line x1="261.036435" y1="98.3725866" x2="325.854639" y2="71.9226274" id="Line-2" stroke="#7F85F4" stroke-width="5" stroke-linecap="square"></line>
            <line x1="132.626404" y1="124.840068" x2="261.036435" y2="98.3725866" id="Line-3" stroke="#7F85F4" stroke-width="5" stroke-linecap="square"></line>
            <line x1="157.626404" y1="37.8400676" x2="138.626404" y2="124.840068" id="Line-3" stroke="#7F85F4" stroke-width="5" stroke-linecap="square"></line>
            <line x1="138.626404" y1="124.840068" x2="196.626404" y2="196.840068" id="Line-3" stroke="#7F85F4" stroke-width="5" stroke-linecap="square"></line>
            <line x1="57.6264035" y1="82.8400676" x2="138.626404" y2="123.840068" id="Line-3" stroke="#7F85F4" stroke-width="5" stroke-linecap="square"></line>
            <line x1="114.626404" y1="187.840068" x2="138.626404" y2="123.840068" id="Line-3" stroke="#7F85F4" stroke-width="5" stroke-linecap="square"></line>
            <line x1="196.126404" y1="196.340068" x2="261.036435" y2="98.3725866" id="Line-3" stroke="#7F85F4" stroke-width="5" stroke-linecap="square"></line>
            <line x1="292.819555" y1="19.7193398" x2="261.036435" y2="98.3725866" id="Line-3" stroke="#7F85F4" stroke-width="5" stroke-linecap="square"></line>
            <circle id="Oval" fill="#454EE0" cx="205.126404" cy="308.340068" r="13"></circle>
            <circle id="Oval" fill="#454EE0" cx="321.126404" cy="225.340068" r="13"></circle>
            <circle id="Oval" fill="#454EE0" cx="364.126404" cy="273.340068" r="13"></circle>
            <circle id="Oval" fill="#454EE0" cx="351.126404" cy="334.340068" r="13"></circle>
            <circle id="Oval" fill="#454EE0" cx="264.126404" cy="391.340068" r="13"></circle>
            <circle id="Oval" fill="#454EE0" cx="286.126404" cy="308.340068" r="13"></circle>
            <circle id="Oval" fill="#454EE0" transform="translate(94.126404, 320.340068) rotate(171.000000) translate(-94.126404, -320.340068) " cx="94.1264035" cy="320.340068" r="13"></circle>
            <circle id="Oval" fill="#454EE0" transform="translate(15.000000, 305.219296) rotate(171.000000) translate(-15.000000, -305.219296) " cx="15" cy="305.219296" r="13"></circle>
            <circle id="Oval" fill="#454EE0" transform="translate(18.297446, 242.936659) rotate(171.000000) translate(-18.297446, -242.936659) " cx="18.2974461" cy="242.936659" r="13"></circle>
            <circle id="Oval" fill="#454EE0" transform="translate(64.546017, 188.213664) rotate(171.000000) translate(-64.546017, -188.213664) " cx="64.5460168" cy="188.213664" r="13"></circle>
            <circle id="Oval" fill="#454EE0" transform="translate(196.126404, 196.340068) rotate(171.000000) translate(-196.126404, -196.340068) " cx="196.126404" cy="196.340068" r="13"></circle>
            <circle id="Oval" fill="#454EE0" transform="translate(86.564484, 258.448316) rotate(171.000000) translate(-86.564484, -258.448316) " cx="86.5644843" cy="258.448316" r="13"></circle>
            <circle id="Oval" fill="#454EE0" transform="translate(157.126404, 38.340068) rotate(316.000000) translate(-157.126404, -38.340068) " cx="157.126404" cy="38.3400676" r="13"></circle>
            <circle id="Oval" fill="#454EE0" transform="translate(138.126404, 124.340068) rotate(316.000000) translate(-138.126404, -124.340068) " cx="138.126404" cy="124.340068" r="13"></circle>
            <circle id="Oval" fill="#454EE0" transform="translate(57.126404, 82.340068) rotate(316.000000) translate(-57.126404, -82.340068) " cx="57.1264035" cy="82.3400676" r="13"></circle>
            <circle id="Oval" fill="#454EE0" transform="translate(292.124897, 19.000000) rotate(316.000000) translate(-292.124897, -19.000000) " cx="292.124897" cy="19" r="13"></circle>
            <circle id="Oval" fill="#454EE0" transform="translate(325.147640, 71.910287) rotate(316.000000) translate(-325.147640, -71.910287) " cx="325.14764" cy="71.9102866" r="13"></circle>
            <circle id="Oval" fill="#454EE0" transform="translate(114.126404, 188.340068) rotate(316.000000) translate(-114.126404, -188.340068) " cx="114.126404" cy="188.340068" r="13"></circle>
            <circle id="Oval" fill="#454EE0" transform="translate(318.650849, 143.263830) rotate(316.000000) translate(-318.650849, -143.263830) " cx="318.650849" cy="143.26383" r="13"></circle>
            <circle id="Oval" fill="#454EE0" transform="translate(260.329436, 98.360246) rotate(316.000000) translate(-260.329436, -98.360246) " cx="260.329436" cy="98.3602459" r="13"></circle>
        </g>
        <path d="M116.673828,522.390625 C119.51237,522.390625 122.051432,521.967448 124.291016,521.121094 L124.291016,521.121094 L124.291016,517.117188 C123.067057,517.494792 121.888672,517.804036 120.755859,518.044922 C119.623047,518.285807 118.451172,518.40625 117.240234,518.40625 C114.440755,518.40625 112.302083,517.507812 110.824219,515.710938 C109.346354,513.914062 108.607422,511.264323 108.607422,507.761719 C108.607422,504.415365 109.375651,501.791667 110.912109,499.890625 C112.448568,497.989583 114.557943,497.039062 117.240234,497.039062 C118.42513,497.039062 119.554688,497.211589 120.628906,497.556641 C121.703125,497.901693 122.722005,498.302083 123.685547,498.757812 L123.685547,498.757812 L125.365234,494.871094 C122.891276,493.647135 120.195964,493.035156 117.279297,493.035156 C114.505859,493.035156 112.090495,493.627604 110.033203,494.8125 C107.975911,495.997396 106.403646,497.703125 105.316406,499.929688 C104.229167,502.15625 103.685547,504.753906 103.685547,507.722656 C103.685547,512.436198 104.805339,516.059245 107.044922,518.591797 C109.284505,521.124349 112.494141,522.390625 116.673828,522.390625 Z M139.388672,522.390625 C140.860026,522.390625 142.16862,522.279948 143.314453,522.058594 C144.460286,521.83724 145.593099,521.459635 146.712891,520.925781 L146.712891,520.925781 L146.712891,517.195312 C145.44987,517.755208 144.268229,518.155599 143.167969,518.396484 C142.067708,518.63737 140.879557,518.757812 139.603516,518.757812 C137.663411,518.757812 136.159505,518.194661 135.091797,517.068359 C134.024089,515.942057 133.457682,514.330729 133.392578,512.234375 L133.392578,512.234375 L147.787109,512.234375 L147.787109,509.753906 C147.787109,506.720052 146.960286,504.33724 145.306641,502.605469 C143.652995,500.873698 141.400391,500.007812 138.548828,500.007812 C135.475911,500.007812 133.060547,501.016927 131.302734,503.035156 C129.544922,505.053385 128.666016,507.826823 128.666016,511.355469 C128.666016,514.792969 129.613281,517.491536 131.507812,519.451172 C133.402344,521.410807 136.029297,522.390625 139.388672,522.390625 Z M143.275391,508.914062 L133.470703,508.914062 C133.639974,507.143229 134.164062,505.795573 135.042969,504.871094 C135.921875,503.946615 137.090495,503.484375 138.548828,503.484375 C140.007161,503.484375 141.152995,503.943359 141.986328,504.861328 C142.819661,505.779297 143.249349,507.130208 143.275391,508.914062 L143.275391,508.914062 Z M157.591797,522 L157.591797,511.238281 C157.591797,508.542969 158.041016,506.622396 158.939453,505.476562 C159.837891,504.330729 161.257161,503.757812 163.197266,503.757812 C164.655599,503.757812 165.720052,504.167969 166.390625,504.988281 C167.061198,505.808594 167.396484,507.052083 167.396484,508.71875 L167.396484,508.71875 L167.396484,522 L172.005859,522 L172.005859,507.917969 C172.005859,502.644531 169.414714,500.007812 164.232422,500.007812 C162.774089,500.007812 161.445964,500.28776 160.248047,500.847656 C159.05013,501.407552 158.125651,502.201823 157.474609,503.230469 L157.474609,503.230469 L157.240234,503.230469 L156.595703,500.398438 L153.001953,500.398438 L153.001953,522 L157.591797,522 Z M185.345703,522.390625 C186.205078,522.390625 187.035156,522.315755 187.835938,522.166016 C188.636719,522.016276 189.291016,521.830729 189.798828,521.609375 L189.798828,521.609375 L189.798828,518.152344 C188.679036,518.503906 187.559245,518.679688 186.439453,518.679688 C185.541016,518.679688 184.815104,518.416016 184.261719,517.888672 C183.708333,517.361328 183.431641,516.544271 183.431641,515.4375 L183.431641,515.4375 L183.431641,503.875 L189.583984,503.875 L189.583984,500.398438 L183.431641,500.398438 L183.431641,495.59375 L180.599609,495.59375 L179.037109,500.164062 L175.873047,501.84375 L175.873047,503.875 L178.822266,503.875 L178.822266,515.515625 C178.822266,520.098958 180.996745,522.390625 185.345703,522.390625 Z M198.705078,522 L198.705078,510.710938 C198.705078,508.796875 199.27474,507.240885 200.414062,506.042969 C201.553385,504.845052 203.041016,504.246094 204.876953,504.246094 C205.580078,504.246094 206.257161,504.324219 206.908203,504.480469 L206.908203,504.480469 L207.357422,500.203125 C206.758464,500.072917 205.996745,500.007812 205.072266,500.007812 C203.744141,500.007812 202.503906,500.385417 201.351562,501.140625 C200.199219,501.895833 199.264974,502.917969 198.548828,504.207031 L198.548828,504.207031 L198.314453,504.207031 L197.708984,500.398438 L194.115234,500.398438 L194.115234,522 L198.705078,522 Z M216.595703,522.390625 C218.249349,522.390625 219.603516,522.152995 220.658203,521.677734 C221.712891,521.202474 222.761068,520.307292 223.802734,518.992188 L223.802734,518.992188 L223.958984,518.992188 L224.876953,522 L228.158203,522 L228.158203,507.449219 C228.158203,504.884115 227.458333,503.002604 226.058594,501.804688 C224.658854,500.606771 222.585286,500.007812 219.837891,500.007812 C218.600911,500.007812 217.285807,500.167318 215.892578,500.486328 C214.499349,500.805339 213.216797,501.270833 212.044922,501.882812 L212.044922,501.882812 L213.529297,505.164062 C214.466797,504.721354 215.443359,504.33724 216.458984,504.011719 C217.474609,503.686198 218.535807,503.523438 219.642578,503.523438 C220.996745,503.523438 221.996094,503.865234 222.640625,504.548828 C223.285156,505.232422 223.607422,506.264323 223.607422,507.644531 L223.607422,507.644531 L223.607422,508.796875 L219.876953,508.914062 C216.491536,509.018229 213.972005,509.636719 212.318359,510.769531 C210.664714,511.902344 209.837891,513.582031 209.837891,515.808594 C209.837891,517.904948 210.433594,519.526042 211.625,520.671875 C212.816406,521.817708 214.473307,522.390625 216.595703,522.390625 Z M218.041016,518.875 C216.895182,518.875 216.035807,518.611328 215.462891,518.083984 C214.889974,517.556641 214.603516,516.811198 214.603516,515.847656 C214.603516,514.519531 215.095052,513.533203 216.078125,512.888672 C217.061198,512.244141 218.633464,511.882812 220.794922,511.804688 L220.794922,511.804688 L223.568359,511.6875 L223.568359,513.5625 C223.568359,515.242188 223.063802,516.547526 222.054688,517.478516 C221.045573,518.409505 219.707682,518.875 218.041016,518.875 Z M239.154297,522 L239.154297,491.609375 L234.564453,491.609375 L234.564453,522 L239.154297,522 Z M248.041016,497.195312 C248.848307,497.195312 249.476562,496.970703 249.925781,496.521484 C250.375,496.072266 250.599609,495.457031 250.599609,494.675781 C250.599609,493.855469 250.375,493.223958 249.925781,492.78125 C249.476562,492.338542 248.848307,492.117188 248.041016,492.117188 C247.207682,492.117188 246.566406,492.338542 246.117188,492.78125 C245.667969,493.223958 245.443359,493.855469 245.443359,494.675781 C245.443359,495.457031 245.667969,496.072266 246.117188,496.521484 C246.566406,496.970703 247.207682,497.195312 248.041016,497.195312 Z M250.306641,522 L250.306641,500.398438 L245.716797,500.398438 L245.716797,522 L250.306641,522 Z M271.302734,522 L271.302734,518.484375 L260.306641,518.484375 L270.990234,503.601562 L270.990234,500.398438 L255.580078,500.398438 L255.580078,503.914062 L265.833984,503.914062 L254.916016,519.167969 L254.916016,522 L271.302734,522 Z M285.423828,522.390625 C286.895182,522.390625 288.203776,522.279948 289.349609,522.058594 C290.495443,521.83724 291.628255,521.459635 292.748047,520.925781 L292.748047,520.925781 L292.748047,517.195312 C291.485026,517.755208 290.303385,518.155599 289.203125,518.396484 C288.102865,518.63737 286.914714,518.757812 285.638672,518.757812 C283.698568,518.757812 282.194661,518.194661 281.126953,517.068359 C280.059245,515.942057 279.492839,514.330729 279.427734,512.234375 L279.427734,512.234375 L293.822266,512.234375 L293.822266,509.753906 C293.822266,506.720052 292.995443,504.33724 291.341797,502.605469 C289.688151,500.873698 287.435547,500.007812 284.583984,500.007812 C281.511068,500.007812 279.095703,501.016927 277.337891,503.035156 C275.580078,505.053385 274.701172,507.826823 274.701172,511.355469 C274.701172,514.792969 275.648438,517.491536 277.542969,519.451172 C279.4375,521.410807 282.064453,522.390625 285.423828,522.390625 Z M289.310547,508.914062 L279.505859,508.914062 C279.67513,507.143229 280.199219,505.795573 281.078125,504.871094 C281.957031,503.946615 283.125651,503.484375 284.583984,503.484375 C286.042318,503.484375 287.188151,503.943359 288.021484,504.861328 C288.854818,505.779297 289.284505,507.130208 289.310547,508.914062 L289.310547,508.914062 Z M306.322266,522.390625 C309.160807,522.390625 311.315755,521.316406 312.787109,519.167969 L312.787109,519.167969 L313.001953,519.167969 L313.802734,522 L317.396484,522 L317.396484,491.609375 L312.787109,491.609375 L312.787109,499.480469 C312.787109,500.378906 312.897786,501.602865 313.119141,503.152344 L313.119141,503.152344 L312.884766,503.152344 C311.400391,501.05599 309.238932,500.007812 306.400391,500.007812 C303.692057,500.007812 301.572917,500.994141 300.042969,502.966797 C298.513021,504.939453 297.748047,507.696615 297.748047,511.238281 C297.748047,514.766927 298.503255,517.507812 300.013672,519.460938 C301.524089,521.414062 303.626953,522.390625 306.322266,522.390625 Z M307.552734,518.679688 C305.860026,518.679688 304.590495,518.051432 303.744141,516.794922 C302.897786,515.538411 302.474609,513.71224 302.474609,511.316406 C302.474609,508.894531 302.910807,507.029297 303.783203,505.720703 C304.655599,504.412109 305.899089,503.757812 307.513672,503.757812 C309.401693,503.757812 310.788411,504.330729 311.673828,505.476562 C312.559245,506.622396 313.001953,508.55599 313.001953,511.277344 L313.001953,511.277344 L313.001953,511.921875 C312.975911,514.304688 312.533203,516.026693 311.673828,517.087891 C310.814453,518.149089 309.440755,518.679688 307.552734,518.679688 Z" id="Centralized" fill="#454EE0" fill-rule="nonzero"></path>
        <g id="CENTRALIZED" transform="translate(50.000000, 50.000000)">
            <line x1="21.5" y1="217.5" x2="144.5" y2="197.807379" id="Line-4" stroke="#7F85F4" stroke-width="5" stroke-linecap="square"></line>
            <line x1="122" y1="280.307379" x2="144" y2="197.307379" id="Line" stroke="#7F85F4" stroke-width="5" stroke-linecap="square"></line>
            <line x1="151.5" y1="387.5" x2="144" y2="197.307379" id="Line" stroke="#7F85F4" stroke-width="5" stroke-linecap="square"></line>
            <line x1="144.5" y1="197.807379" x2="271.5" y2="245.5" id="Line-2" stroke="#7F85F4" stroke-width="5" stroke-linecap="square"></line>
            <line x1="233.5" y1="185.5" x2="144.5" y2="197.807379" id="Line-3" stroke="#7F85F4" stroke-width="5" stroke-linecap="square"></line>
            <line x1="311.5" y1="94.5" x2="144.5" y2="197.807379" id="Line-3" stroke="#7F85F4" stroke-width="5" stroke-linecap="square"></line>
            <line x1="157.5" y1="94.5" x2="144.5" y2="197.807379" id="Line-3" stroke="#7F85F4" stroke-width="5" stroke-linecap="square"></line>
            <line x1="257.5" y1="13.5" x2="144.5" y2="197.807379" id="Line-3" stroke="#7F85F4" stroke-width="5" stroke-linecap="square"></line>
            <line x1="100.5" y1="69.5" x2="144.5" y2="197.807379" id="Line-3" stroke="#7F85F4" stroke-width="5" stroke-linecap="square"></line>
            <line x1="12.5" y1="42.5" x2="144.5" y2="197.807379" id="Line-3" stroke="#7F85F4" stroke-width="5" stroke-linecap="square"></line>
            <line x1="12.5" y1="138.5" x2="144.5" y2="197.807379" id="Line-3" stroke="#7F85F4" stroke-width="5" stroke-linecap="square"></line>
            <line x1="12.5" y1="299.5" x2="144.5" y2="197.807379" id="Line-3" stroke="#7F85F4" stroke-width="5" stroke-linecap="square"></line>
            <line x1="49.5" y1="361.5" x2="144.5" y2="197.807379" id="Line-3" stroke="#7F85F4" stroke-width="5" stroke-linecap="square"></line>
            <line x1="205.5" y1="346.5" x2="144.5" y2="197.807379" id="Line-3" stroke="#7F85F4" stroke-width="5" stroke-linecap="square"></line>
            <line x1="293.5" y1="329.5" x2="144.5" y2="197.807379" id="Line-3" stroke="#7F85F4" stroke-width="5" stroke-linecap="square"></line>
            <circle id="Oval" fill="#454EE0" cx="22" cy="217" r="13"></circle>
            <circle id="Oval" fill="#454EE0" cx="157" cy="94" r="13"></circle>
            <circle id="Oval" fill="#454EE0" cx="233" cy="185" r="13"></circle>
            <circle id="Oval" fill="#454EE0" cx="311" cy="94" r="13"></circle>
            <circle id="Oval" fill="#454EE0" cx="271" cy="245" r="13"></circle>
            <circle id="Oval" fill="#454EE0" cx="205" cy="346" r="13"></circle>
            <circle id="Oval" fill="#454EE0" cx="293" cy="329" r="13"></circle>
            <circle id="Oval" fill="#454EE0" cx="50" cy="361" r="13"></circle>
            <circle id="Oval" fill="#454EE0" cx="13" cy="298" r="13"></circle>
            <circle id="Oval" fill="#454EE0" cx="13" cy="138" r="13"></circle>
            <circle id="Oval" fill="#454EE0" cx="13" cy="42" r="13"></circle>
            <circle id="Oval" fill="#454EE0" cx="101" cy="69" r="13"></circle>
            <circle id="Oval" fill="#454EE0" cx="257" cy="13" r="13"></circle>
            <circle id="Oval" fill="#454EE0" cx="122" cy="280.307379" r="13"></circle>
            <circle id="Oval" fill="#454EE0" cx="152" cy="387" r="13"></circle>
            <circle id="Oval" fill="#454EE0" cx="144" cy="197.307379" r="13"></circle>
        </g>
    </g>
</svg>