<svg width="40" height="41" viewBox="0 0 40 41" fill="none" xmlns="http://www.w3.org/2000/svg">
<path d="M0 14.7734C0 9.27655 0 6.52815 1.23725 4.50915C1.92955 3.37941 2.87941 2.42955 4.00915 1.73725C6.02815 0.5 8.77655 0.5 14.2734 0.5H25.7266C31.2234 0.5 33.9719 0.5 35.9909 1.73725C37.1206 2.42955 38.0705 3.37941 38.7628 4.50915C40 6.52815 40 9.27655 40 14.7734V26.2266C40 31.7234 40 34.4719 38.7628 36.4909C38.0705 37.6206 37.1206 38.5705 35.9909 39.2628C33.9719 40.5 31.2235 40.5 25.7266 40.5H14.2734C8.77655 40.5 6.02815 40.5 4.00915 39.2628C2.87941 38.5705 1.92955 37.6206 1.23725 36.4909C0 34.4719 0 31.7235 0 26.2266V14.7734Z" fill="white"/>
<path d="M30.1249 29.4761C30.1283 29.7521 29.9074 29.9786 29.6314 29.9821L23.3419 30.0608C23.2094 30.0625 23.0816 30.0114 22.9867 29.9189L19.4449 26.4646C19.1261 26.1537 18.5906 26.3834 18.5962 26.8286L18.6311 29.62C18.6346 29.896 18.4136 30.1225 18.1377 30.126L11.8482 30.2047C11.7156 30.2064 11.5879 30.1553 11.493 30.0628L6.72955 25.4171C6.63466 25.3246 6.58042 25.1981 6.57876 25.0656L6.42497 12.7794C6.42151 12.5034 6.64245 12.2768 6.91844 12.2734L10.9163 12.2233C11.1923 12.2199 11.4188 12.4408 11.4222 12.7168L11.5724 24.7103C11.5758 24.9863 11.8024 25.2072 12.0784 25.2038L17.5754 25.1349C17.8514 25.1315 18.0723 24.905 18.0688 24.629L17.9187 12.6355C17.9153 12.3595 18.1362 12.133 18.4122 12.1295L22.41 12.0795C22.686 12.076 22.9125 12.2969 22.916 12.5729L23.0661 24.5664C23.0696 24.8424 23.2961 25.0633 23.5721 25.0599L29.0691 24.9911C29.3451 24.9876 29.566 24.7611 29.5626 24.4851L29.4125 12.4916C29.409 12.2156 29.6299 11.9891 29.9059 11.9856L33.9038 11.9356C34.1797 11.9321 34.4063 12.1531 34.4097 12.4291L34.5599 24.4225C34.5633 24.6985 34.3424 24.9251 34.0664 24.9285L30.5683 24.9723C30.2923 24.9758 30.0714 25.2023 30.0748 25.4783L30.1249 29.4761Z" fill="#525BEC"/>
</svg>
