<svg width="1440" height="2537" viewBox="0 0 1440 2537" fill="none" xmlns="http://www.w3.org/2000/svg">
<g clip-path="url(#clip0)">
<rect x="-13" y="207" width="1645" height="2330" fill="#272945"/>
<path fill-rule="evenodd" clip-rule="evenodd" d="M1979.16 2121.69C2007.29 2331.62 1325.02 2468.55 737.767 2372.99C150.518 2277.43 -118.884 1904.25 161.341 1705.41C441.567 1506.57 1951.03 1911.76 1979.16 2121.69Z" fill="#323457"/>
<path opacity="0.913528" fill-rule="evenodd" clip-rule="evenodd" d="M-116.839 1102.13C-59.1339 1460.12 568.579 1557.42 1026.11 1282.79C1483.65 1008.15 1565.85 329.127 1252.74 49.7031C939.631 -229.721 -174.543 744.14 -116.839 1102.13Z" fill="#323457"/>
<path fill-rule="evenodd" clip-rule="evenodd" d="M-101.031 1633.57C-75.1815 1583.08 -49.0542 1533.03 -17.3721 1485.83C1.29961 1458.02 21.8663 1431.63 41.6548 1404.61C39.4877 1408.12 37.4025 1411.68 35.4059 1415.28C41.7451 1407.38 51.2755 1401.09 58.2196 1393.45C65.9645 1384.93 73.0466 1375.73 79.9408 1366.53C93.3982 1348.57 106.523 1330.46 120.663 1313.01C136.419 1293.58 153.204 1274.93 169.45 1255.9C183.238 1239.74 196.921 1222.49 212.508 1207.96C221.003 1200.04 229.248 1191.21 237.721 1183.07C240.557 1180.34 268.014 1148.36 267.908 1148.33C265.596 1147.48 250.936 1160.8 248.62 1162.7C241.852 1168.24 235.611 1174.3 229.327 1180.36C230.952 1171.04 231.603 1161.57 230.647 1152.11C230.352 1149.19 228.604 1127.8 225.866 1126.8C224.498 1126.31 224.561 1165.51 225.054 1169.13C225.455 1172.07 226.748 1176.08 226.641 1179.01C226.467 1183.75 226.148 1182.43 223.629 1185.85C219.013 1192.1 211.94 1197.3 206.612 1202.98C203.725 1205.99 195.301 1217.02 189.482 1221.22C172.757 1236.81 157.331 1257.64 142.391 1275.58C144.48 1264.85 145.272 1254.06 144.913 1243.11C144.83 1240.52 145.253 1216.85 143.172 1216.09C140.831 1215.23 137.548 1252.2 137.709 1255.55C138.006 1261.78 139.66 1268.31 139.541 1274.5C139.411 1281.29 133.808 1285.41 129.252 1290.74C112.492 1310.37 96.6982 1330.61 81.4346 1351.39C48.2119 1319.6 58.9383 1265.6 70.0666 1226.94C78.0883 1199.08 92.3424 1172.93 108.5 1148.96C130.064 1116.97 157.172 1088.37 184.721 1061.37C216.821 1029.91 254.287 1005.02 295.389 986.209C316.885 976.37 339.823 969.413 362.734 963.411C373.926 960.478 384.98 958.686 396.67 959.046C401.94 959.21 407.178 959.847 412.373 960.767C416.321 961.466 425.145 960.772 427.901 962.774C450.485 978.902 465.151 997.382 471.952 1024.28C478.392 1049.74 478.125 1077.27 474.207 1102.95C469.842 1131.55 461.358 1158.89 447.038 1184.05C436.113 1203.24 422.807 1221.12 409.564 1238.79C362.461 1301.65 297.384 1363.73 215.935 1377.94C189.57 1382.54 162.711 1381.06 136.461 1375.9C130.276 1374.68 124.113 1373.42 118.069 1371.6C113.994 1370.37 101.835 1362.92 98.3186 1363.6C93.4975 1364.52 86.3396 1377.13 82.843 1381.37C56.2713 1413.61 30.9338 1446.77 6.56102 1480.67C-19.369 1516.73 -43.113 1554.03 -65.5192 1592.34C-75.0488 1608.63 -84.4859 1624.92 -93.5067 1641.5C-95.6069 1645.36 -99.6372 1658.43 -104.918 1660.59C-108.258 1661.96 -111.468 1659.73 -111.946 1656.39C-112.78 1650.59 -103.678 1638.73 -101.031 1633.57Z" fill="#4E51AC"/>
<path fill-rule="evenodd" clip-rule="evenodd" d="M108.297 1491.88C112.928 1485.67 118.26 1479.96 124.767 1475.59C126.412 1474.49 138.739 1466.97 139.727 1468.23C142.026 1471.17 109.677 1489.91 108.297 1491.88ZM42.807 1460.57C42.8749 1460.8 39.1779 1468.91 38.2 1471.38C36.1172 1476.64 34.245 1481.98 32.5162 1487.31C34.9225 1477.96 37.4894 1469.25 42.807 1460.57ZM363.963 1489.63C368.443 1490.57 373.074 1484.52 367.311 1483.76C362.649 1483.15 362.845 1482.87 360.418 1479.42C358.448 1476.62 357.045 1473.11 355.262 1470.14C351.479 1463.85 347.315 1457.9 342.395 1452.44C331.852 1440.73 319.482 1430.99 305.928 1423.1C282.274 1409.35 256.102 1397.25 229.202 1392.62C186.43 1385.26 139.077 1389.5 98.3288 1402C73.0922 1409.74 50.4652 1420.97 35.5365 1443.5C28.0747 1454.76 22.6391 1467.61 21.1105 1481.28C20.7121 1484.86 21.2639 1488.73 20.6651 1492.25C19.7447 1497.67 20.2476 1496.2 14.2001 1497.87C7.59668 1499.69 1.00172 1501.54 -5.58977 1503.4C-22.8476 1508.29 -40.1886 1513.37 -56.7972 1520.1C-62.2639 1522.32 -67.5685 1524.88 -72.7116 1527.75C-76.6019 1529.92 -92.2465 1537.09 -93.6608 1542.58C-96.0165 1551.73 -85.4436 1546.58 -82.2294 1544.31C-79.4141 1542.32 -76.507 1540.43 -73.542 1538.66C-66.0765 1534.2 -58.1957 1530.54 -50.0703 1527.42C-41.2897 1524.06 -32.2596 1521.29 -23.2655 1518.52C-14.8774 1515.94 -6.44186 1513.5 2.01219 1511.13C6.70837 1509.82 11.4112 1508.53 16.1141 1507.23C17.7207 1506.79 20.4554 1505.07 20.4606 1507.22C30.3187 1504.23 41.2295 1503.36 51.4225 1501.75C63.9073 1499.78 76.4509 1497.92 89.0877 1496.99C98.2017 1496.32 107.357 1495.96 116.523 1496.23C121.879 1496.39 127.186 1496.88 132.506 1497.66C135.429 1498.09 146.814 1498.45 148.626 1500.76C147.847 1499.77 135.569 1502.1 133.986 1502.21C127.655 1502.63 121.332 1502.67 114.976 1502.62C103.179 1502.55 91.4432 1503.09 79.7584 1504.42C80.0185 1506.47 88.392 1509.28 90.4852 1510.44C95.1787 1513.03 99.7167 1515.92 104.007 1519.16C111.567 1524.86 120.645 1531.96 126.207 1539.07C124.568 1536.97 117.339 1534.78 114.702 1533.32C110.478 1530.99 106.315 1528.46 102.338 1525.71C98.6662 1523.17 95.1953 1520.38 91.77 1517.51C88.3441 1514.64 83.4524 1508.44 79.1685 1506.74C78.9099 1506.64 77.2871 1508.22 76.2318 1507.85C75.1684 1507.48 73.6537 1505.22 73.3862 1505.15C69.4535 1504.09 62.4663 1506.65 58.5124 1507.26C48.2583 1508.81 38.0296 1510.52 27.7922 1512.16C24.6206 1512.67 21.8339 1512.23 20.8761 1514.71C19.8563 1517.35 22.9019 1523.7 23.8584 1526.36C27.408 1536.25 32.7744 1544.88 40.5421 1552.01C55.0894 1565.37 72.1504 1573.5 90.9488 1578.17C162.951 1596.03 237.797 1598.35 304.383 1564.91C331.949 1551.06 373.144 1527.16 363.963 1489.63Z" fill="#6063C1"/>
<path fill-rule="evenodd" clip-rule="evenodd" d="M812.622 2244.21C825.456 2238.41 840.365 2235.47 854.126 2232.79C927.864 2218.15 1007.46 2237.64 1066.28 2283.32C1116.34 2322.21 1139.86 2378.81 1160.41 2436.71C1162.45 2442.46 1164.03 2448.26 1165.73 2454.1C1166.1 2455.35 1166.48 2456.45 1166.86 2457.49C1170.56 2459.61 1172.88 2462.5 1171.79 2466.46C1181.82 2480 1190.88 2494.15 1199.22 2508.96C1223.76 2552.54 1248.74 2596.95 1250 2648C1242.12 2621.44 1231.75 2594.76 1220.72 2569.34C1220.09 2567.88 1219.43 2566.43 1218.76 2565C1218.69 2564.85 1218.63 2564.69 1218.56 2564.54C1214.92 2556.81 1210.77 2549.44 1206.1 2542.32C1206.05 2542.24 1206.01 2542.16 1205.96 2542.08C1205.34 2541.15 1204.7 2540.22 1204.07 2539.29C1202.76 2537.37 1201.42 2535.46 1200.04 2533.56C1199.57 2532.92 1199.11 2532.27 1198.67 2531.6C1191.99 2521.77 1187.56 2510.03 1181.26 2499.73C1179.79 2497.39 1178.27 2495.08 1176.7 2492.79C1176.61 2492.65 1176.52 2492.52 1176.43 2492.38C1172.21 2486.22 1167.71 2480.2 1163.06 2474.29C1161.01 2473.34 1159.36 2470.24 1157.2 2467.56C1156.76 2467.04 1153.46 2463.62 1152.24 2461.51C1149.54 2458.21 1146.84 2454.9 1144.13 2451.61C1144.19 2451.62 1144.25 2451.63 1144.32 2451.64C1141.63 2448.49 1138.94 2445.36 1136.27 2442.24C1135.69 2441.56 1135.09 2440.88 1134.5 2440.19C1133.55 2439.1 1132.6 2438.01 1131.65 2436.92C1122.76 2426.76 1113.53 2416.9 1104.07 2407.24C1100.69 2403.8 1093.43 2399.37 1091.32 2395.14C1091.24 2394.98 1091.2 2394.83 1091.14 2394.68C1071.16 2376.31 1049.2 2360.13 1024.6 2348.83C1027.76 2351.07 1035.22 2359.33 1037.06 2360.89C1042.69 2365.67 1048.61 2369.97 1054.57 2374.34C1065.24 2382.15 1075.77 2390.32 1085.48 2399.25C1103.24 2415.6 1119.34 2433.35 1134.88 2451.65C1135.01 2451.75 1135.15 2451.84 1135.28 2451.94C1142.35 2457.66 1148.1 2467.37 1153.81 2474.42C1136.28 2470.41 1117.6 2469.35 1099.81 2466.26C1082.08 2463.18 1064.64 2459.27 1047.47 2453.96C1024.65 2446.91 1000.76 2438.56 978.4 2428.1C953.402 2419.09 930.834 2404.16 910.246 2387.84C885.886 2368.52 863.102 2348.66 846.074 2322.53C837.708 2309.7 830.366 2296.02 824.717 2281.8C824.47 2281.18 824.181 2280.51 823.875 2279.82C820.218 2275.27 816.809 2270.55 813.746 2265.63C808.883 2257.83 799.663 2250.08 812.622 2244.21Z" fill="#42498F"/>
<path fill-rule="evenodd" clip-rule="evenodd" d="M1508.18 2272.66C1454.26 2259.02 1394.66 2270.48 1349.36 2302.19C1310.81 2329.17 1291.17 2370.3 1273.66 2412.51C1271.92 2416.7 1270.52 2420.95 1269.03 2425.22C1268.71 2426.14 1268.38 2426.94 1268.06 2427.7C1265.25 2429.13 1263.42 2431.2 1264.06 2434.17C1256.1 2443.85 1248.84 2454.01 1242.09 2464.69C1222.21 2496.12 1201.97 2528.15 1199 2566C1205.88 2546.58 1214.62 2527.17 1223.78 2508.7C1224.31 2507.64 1224.85 2506.6 1225.4 2505.56C1225.46 2505.45 1225.52 2505.34 1225.57 2505.23C1228.57 2499.62 1231.94 2494.31 1235.67 2489.19C1235.71 2489.14 1235.75 2489.08 1235.79 2489.03C1236.28 2488.35 1236.79 2487.69 1237.29 2487.03C1238.34 2485.65 1239.4 2484.28 1240.5 2482.93C1240.87 2482.46 1241.24 2482 1241.59 2481.52C1246.92 2474.47 1250.66 2465.92 1255.73 2458.51C1256.91 2456.84 1258.13 2455.17 1259.38 2453.53C1259.45 2453.44 1259.52 2453.34 1259.6 2453.24C1262.96 2448.83 1266.52 2444.53 1270.2 2440.31C1271.75 2439.68 1273.09 2437.44 1274.8 2435.54C1275.14 2435.17 1277.72 2432.76 1278.7 2431.23C1280.83 2428.88 1282.96 2426.53 1285.1 2424.19C1285.05 2424.19 1285 2424.2 1284.96 2424.2C1287.07 2421.97 1289.18 2419.75 1291.28 2417.53C1291.74 2417.05 1292.2 2416.56 1292.67 2416.07C1293.42 2415.3 1294.16 2414.53 1294.91 2413.76C1301.89 2406.54 1309.1 2399.57 1316.48 2392.76C1319.11 2390.33 1324.66 2387.32 1326.38 2384.26C1326.45 2384.14 1326.49 2384.03 1326.54 2383.92C1342.04 2371.04 1358.91 2359.85 1377.54 2352.39C1375.12 2353.93 1369.28 2359.79 1367.85 2360.88C1363.5 2364.21 1358.95 2367.18 1354.38 2370.2C1346.18 2375.6 1338.07 2381.26 1330.54 2387.53C1316.76 2398.99 1304.15 2411.57 1291.93 2424.57C1291.83 2424.63 1291.72 2424.7 1291.62 2424.77C1286.17 2428.75 1281.53 2435.74 1277.03 2440.76C1290.15 2438.44 1304 2438.36 1317.26 2436.73C1330.49 2435.12 1343.54 2432.87 1356.44 2429.58C1373.58 2425.2 1391.58 2419.9 1408.52 2412.98C1427.36 2407.23 1444.63 2397 1460.5 2385.65C1479.28 2372.23 1496.91 2358.34 1510.54 2339.59C1517.24 2330.37 1523.21 2320.49 1527.95 2310.15C1528.16 2309.7 1528.4 2309.22 1528.65 2308.71C1531.54 2305.48 1534.25 2302.1 1536.71 2298.56C1540.61 2292.96 1547.74 2287.55 1538.39 2282.71C1529.14 2277.91 1518.24 2275.17 1508.18 2272.66Z" fill="#313772"/>
<path fill-rule="evenodd" clip-rule="evenodd" d="M625.623 1888.06C644.465 1877.71 669.52 1875 692.068 1875C780.135 1875 862.913 1901.46 934.424 1940.88C973.609 1962.48 1008.66 1989.99 1039.61 2018.63C1057.47 2035.17 1073.4 2053.05 1084.68 2072.95C1092.29 2086.37 1097.51 2100.36 1101.05 2114.79C1105.36 2132.38 1108.79 2150.32 1110.34 2168.2C1110.95 2175.24 1116 2212.59 1101.55 2213.23C1101.63 2214.15 1101.65 2215.02 1101.56 2215.81C1132.95 2255.55 1152.34 2302.12 1170.32 2346.28C1185.97 2384.71 1199.91 2423.46 1208.96 2463.21C1220.88 2515.54 1228.7 2568.66 1232.42 2621.75C1233.22 2633.16 1233.77 2644.57 1234.24 2656C1234.64 2665.74 1235.05 2675.49 1235.45 2685.23C1235.89 2696.15 1238.26 2708.72 1236.12 2719.58C1234.25 2729.03 1224.14 2727.6 1223.7 2718.19C1223.16 2706.83 1223.25 2695.45 1222.63 2684.08C1221.82 2668.99 1220.97 2653.9 1220.06 2638.81C1213.71 2534.02 1189.9 2430.76 1145.95 2331.77C1128.16 2291.71 1107.78 2253.79 1081.58 2216.73C1058.55 2184.15 1030.85 2152.61 1002.53 2123.23C975.007 2094.68 946.392 2066.8 912.669 2042.61C885.302 2022.98 855.2 2005.88 824.256 1989.97C784.954 1969.76 745.727 1950.05 703.154 1934.53C681.024 1926.47 658.477 1919.25 636.174 1911.52C632.162 1910.13 627.859 1908.78 624 1907.16C611.126 1901.79 615.364 1893.69 625.623 1888.06Z" fill="#313772"/>
<path fill-rule="evenodd" clip-rule="evenodd" d="M1767.74 2135.5C1764.74 2133.32 1757.61 2132.55 1754.29 2131.89C1740.51 2129.18 1726.31 2128 1712.26 2128C1668.93 2128.06 1624.9 2132.31 1582.29 2139.66C1555.24 2144.32 1522.53 2160.02 1495.62 2151.49C1448.74 2136.64 1401.35 2137.37 1356.87 2158.58C1316.21 2177.97 1285.33 2214.79 1267.32 2254.58C1264.6 2260.59 1253.57 2282.7 1250.45 2297.6C1249.11 2300.65 1247.83 2303.72 1246.68 2306.83C1243.4 2315.67 1240.45 2324.67 1237.72 2333.68C1236.55 2337.53 1233.61 2346.02 1237.1 2347.66C1231.53 2357.93 1226.59 2368.51 1222.47 2379.43C1210.5 2411.21 1197.42 2446.06 1193.21 2479.73C1191.66 2492.2 1191.6 2504.74 1193.04 2517.24C1193.76 2523.41 1193.46 2535.83 1197.66 2540.52C1206.56 2550.49 1211.13 2536.54 1210.12 2529.9C1202.46 2479.27 1217.26 2431.72 1234.79 2384.13C1246.13 2353.35 1264.76 2325.2 1285.64 2299.7C1302.53 2279.06 1320.65 2262.81 1343.8 2249.12C1372.12 2232.39 1402.39 2218.86 1432.38 2205.29C1452.11 2196.36 1471.86 2187.67 1492.14 2179.98C1496.65 2178.27 1503.74 2173.88 1508.74 2173.86C1519.32 2173.83 1534.3 2181.61 1544.51 2184.51C1578.1 2194.04 1612.12 2206.25 1646.84 2211.11C1669.1 2214.24 1689.97 2210.72 1710.79 2203.32C1712.92 2202.56 1716.49 2200.62 1720.86 2197.84C1736.32 2191.91 1750.94 2184.43 1763.68 2173.66C1771.01 2167.45 1777.67 2159.42 1783.74 2152.07C1785.56 2149.88 1786.36 2147.36 1786.39 2144.97C1787.77 2144.25 1788.68 2143.41 1788.89 2142.43C1790.4 2135.2 1776.59 2135.07 1767.74 2135.5Z" fill="#42498F"/>
<path fill-rule="evenodd" clip-rule="evenodd" d="M22.164 1947.15C65.6734 2020.01 116.348 2090.57 146.78 2170.23C145.554 2160.84 144.253 2151.46 142.798 2142.09C135.076 2092.44 125.479 2043.15 115.395 1993.91C110.259 1968.85 104.827 1943.87 99.2566 1918.9C96.2604 1905.49 93.3009 1892.06 90.243 1878.66C89.5023 1875.41 88.8659 1869.75 87.9385 1864C117.514 1960.88 146.034 2057.83 166.895 2157.04C169.632 2170.06 171.963 2183.06 173.872 2196.03C174.525 2193.07 175.167 2190.11 175.87 2187.16C184.311 2151.77 196.973 2116.67 212.049 2083.59C219.256 2067.77 227.535 2052.29 237.282 2037.87C243.36 2028.88 257.694 2018.2 263.239 2008.99C232.915 2064.51 221.965 2133.98 204.456 2194.34C200.182 2209.07 195.882 2223.77 191.669 2238.51C218.073 2185.65 259.041 2142.22 316 2123.39C247.053 2168.87 205.698 2248.51 177.83 2329.96C177.738 2330.92 177.629 2331.89 177.535 2332.86C185.735 2317.32 196.065 2303.27 210.065 2293.43C240.029 2272.36 273.268 2278.5 302.334 2296.57C279.522 2282.09 238.295 2295.28 219.101 2309.99C205.36 2320.52 193.617 2334.65 183.419 2348.43C180.976 2351.74 177.642 2355.59 174.12 2359.71C169.182 2391.7 161.136 2423.48 149.744 2455C151.624 2445.95 150.265 2431.48 150.786 2424.74C150.843 2424.01 150.889 2423.28 150.945 2422.55C149.213 2429.45 147.54 2436.27 145.929 2442.99C149.132 2430.18 150.872 2416.8 152.23 2403.29C152.58 2397.48 152.922 2391.68 153.282 2385.87C153.168 2374.85 152.713 2363.79 151.944 2352.71C149.217 2341.94 146.164 2331.78 143.646 2323.33C134.561 2292.85 121.241 2263.65 104.847 2236.4C89.8897 2211.54 71.9855 2189.02 51.3162 2168.65C40.1735 2157.68 28.5122 2147.23 17.0151 2136.63C12.8577 2132.8 5.42675 2123.37 -1 2118.46C45.8053 2144.22 93.9808 2172.09 128.125 2213.59C124.122 2198.25 119.774 2183.12 115.175 2168.29C91.8417 2093.08 62.3798 2015.13 22.164 1947.15Z" fill="#4A50A0"/>
<path fill-rule="evenodd" clip-rule="evenodd" d="M1083.47 1699.08C1128.78 1759.86 1180.2 1817.91 1214.57 1885.95C1212.61 1877.71 1210.58 1869.49 1208.42 1861.29C1196.95 1817.83 1183.85 1774.88 1170.32 1732.02C1163.43 1710.2 1156.29 1688.48 1149.03 1666.78C1145.13 1655.13 1141.25 1643.47 1137.29 1631.83C1136.34 1629.01 1135.24 1624.03 1133.88 1619C1169.11 1702.43 1203.4 1786.03 1231.14 1872.34C1234.77 1883.67 1238.05 1895.02 1240.95 1906.38C1241.25 1903.69 1241.55 1900.99 1241.89 1898.3C1246.05 1866.04 1253.97 1833.64 1264.21 1802.8C1269.11 1788.06 1274.99 1773.52 1282.26 1759.79C1286.8 1751.23 1298.48 1740.39 1302.52 1731.69C1280.89 1783.89 1277.7 1846.71 1267.85 1902.03C1265.45 1915.53 1263.02 1929.02 1260.67 1942.51C1279.09 1893.03 1311.27 1850.59 1359.9 1828.55C1303.15 1875.42 1274.02 1950.11 1256.98 2025.15C1256.99 2026.02 1256.98 2026.89 1256.99 2027.76C1262.79 2013.18 1270.62 1999.72 1282.08 1989.66C1306.62 1968.13 1336.6 1970.5 1364 1983.88C1342.47 1973.12 1307.23 1988.68 1291.62 2003.55C1280.45 2014.2 1271.38 2027.86 1263.65 2041.07C1261.8 2044.24 1259.21 2047.97 1256.48 2051.96C1255.1 2080.88 1250.96 2109.9 1243.83 2139C1244.64 2130.78 1242.09 2118.03 1241.92 2111.98C1241.9 2111.33 1241.87 2110.67 1241.85 2110.02C1240.97 2116.32 1240.13 2122.55 1239.33 2128.67C1240.96 2116.97 1241.25 2104.91 1241.19 2092.77C1240.96 2087.57 1240.72 2082.37 1240.49 2077.17C1239.36 2067.38 1237.92 2057.58 1236.21 2047.8C1232.79 2038.47 1229.14 2029.72 1226.12 2022.44C1215.23 1996.16 1200.72 1971.42 1183.67 1948.71C1168.11 1927.99 1150.16 1909.62 1129.98 1893.42C1119.09 1884.69 1107.8 1876.48 1096.64 1868.12C1092.6 1865.1 1085.14 1857.41 1079 1853.64C1122.82 1872.2 1168.04 1892.51 1202.13 1926.26C1197.15 1912.98 1191.89 1899.92 1186.43 1887.16C1158.76 1822.42 1125.41 1755.82 1083.47 1699.08Z" fill="#4A50A0"/>
<path fill-rule="evenodd" clip-rule="evenodd" d="M152.984 2334.53C152.918 2325.71 153.403 2316.82 154.726 2307.81C156.989 2292.37 160.444 2277.01 163.691 2261.68C166.025 2250.66 165.878 2230.87 174.735 2222.09C177.163 2220.19 177.748 2223.91 177.748 2225.53C177.778 2225.87 177.741 2218.93 175.384 2220.14C161.371 2227.43 156.831 2250.34 152.345 2261.81C145.8 2278.56 140.231 2295.67 137.938 2313.09C137.358 2317.49 137.043 2321.89 136.97 2326.28C136.494 2325.11 136.046 2323.93 135.552 2322.75C127.464 2303.66 116.55 2285.02 102.937 2267.84C99.5868 2263.61 57.4566 2221.88 54.1586 2228.27C54.484 2229.2 55.1653 2229.96 56.2042 2230.58C56.2652 2230.65 56.2669 2230.61 56.2313 2230.5C58.7056 2234.53 65.7406 2240.74 67.932 2244.27C73.4467 2253.14 77.7328 2262.56 82.0884 2271.8C91.2909 2291.32 99.8275 2311.04 108.103 2330.8C110.03 2335.4 112.038 2339.98 114.087 2344.54C92.9654 2313.86 64.7882 2286.02 26 2270.07C39.248 2276.86 47.9337 2289.63 56.8804 2299.4C67.671 2311.19 79.0361 2322.67 89.847 2334.45C102.598 2348.34 117.602 2362.97 129.867 2378.35C141.748 2403.46 153.292 2428.6 160.419 2455C157.499 2445.88 160.19 2433.27 159.69 2423.7C159.294 2416.08 158.409 2408.53 157.197 2400.98C158.695 2404.39 159.987 2407.79 160.571 2410.96C160.038 2405.65 159.422 2400.37 158.761 2395.12C160.458 2390.2 162.124 2385.61 163.249 2381.84C169.016 2362.45 175.884 2343.4 185.235 2324.84C193.889 2307.66 203.815 2290.71 214.631 2274.27C219.676 2266.6 224.791 2258.97 229.874 2251.32C233.201 2246.31 236.368 2238.29 241 2233.5C211.06 2261.06 178.35 2288.82 159.355 2321.89C156.977 2326.03 154.857 2330.25 152.984 2334.53Z" fill="#6369C8"/>
<path fill-rule="evenodd" clip-rule="evenodd" d="M1252.35 1992.89C1249.98 1997.03 1247.86 2001.25 1245.98 2005.53C1245.92 1996.71 1246.4 1987.82 1247.73 1978.81C1249.99 1963.37 1253.44 1948.01 1256.69 1932.68C1259.03 1921.66 1258.88 1901.87 1267.73 1893.09C1270.16 1891.19 1270.75 1894.91 1270.75 1896.53C1270.78 1896.87 1270.74 1889.93 1268.38 1891.14C1254.37 1898.43 1249.83 1921.34 1245.34 1932.81C1238.8 1949.56 1233.23 1966.67 1230.94 1984.09C1230.36 1988.49 1230.04 1992.89 1229.97 1997.28C1229.49 1996.11 1229.05 1994.93 1228.55 1993.75C1220.46 1974.66 1209.55 1956.02 1195.94 1938.84C1192.59 1934.61 1150.46 1892.88 1147.16 1899.27C1147.48 1900.2 1148.17 1900.96 1149.2 1901.58C1149.27 1901.65 1149.27 1901.61 1149.23 1901.5C1151.71 1905.53 1158.74 1911.74 1160.93 1915.27C1166.45 1924.14 1170.73 1933.56 1175.09 1942.8C1184.29 1962.32 1192.83 1982.04 1201.1 2001.8C1203.03 2006.4 1205.04 2010.98 1207.09 2015.54C1185.97 1984.86 1157.79 1957.02 1119 1941.07C1132.25 1947.86 1140.93 1960.63 1149.88 1970.4C1160.67 1982.19 1172.04 1993.67 1182.85 2005.45C1195.6 2019.34 1210.6 2033.97 1222.87 2049.35C1234.75 2074.46 1246.29 2099.6 1253.42 2126C1250.5 2116.88 1253.19 2104.27 1252.69 2094.7C1252.29 2087.08 1251.41 2079.53 1250.2 2071.98C1251.7 2075.39 1252.99 2078.79 1253.57 2081.96C1253.04 2076.65 1252.42 2071.37 1251.76 2066.12C1253.46 2061.2 1255.12 2056.61 1256.25 2052.84C1262.02 2033.45 1268.88 2014.4 1278.24 1995.84C1286.89 1978.66 1296.82 1961.71 1307.63 1945.27C1312.68 1937.6 1317.79 1929.97 1322.87 1922.32C1326.2 1917.31 1329.37 1909.29 1334 1904.5C1304.06 1932.06 1271.35 1959.82 1252.35 1992.89Z" fill="#6369C8"/>
<path fill-rule="evenodd" clip-rule="evenodd" d="M659.681 1784.3C669.454 1770.42 687.59 1735.18 701.345 1730.22C710.205 1727.02 707.621 1760.06 707.731 1766.36C708.157 1790.74 705.774 1814.96 702.832 1839.13C697.531 1882.72 680.198 1921.54 656.423 1958.64C644.19 1977.73 629.84 1997.06 609.966 2008.97C600.818 2014.45 589.811 2015.37 580.776 2020.1C570.254 2025.6 575.985 2021.15 571.243 2032.07C564.658 2047.23 562.551 2066.79 559.505 2082.97C545.515 2157.23 511.647 2549.8 517.519 2625.34C518.04 2632.04 508.666 2633.64 508.198 2625.47C505.711 2582.13 527.234 2282 538.092 2183.85C548.95 2085.7 559.939 1998.99 570.957 1965.03C584.323 1923.84 608.463 1874.29 628.558 1835.88C637.893 1818.03 648.067 1800.8 659.681 1784.3Z" fill="#585CD0"/>
<path fill-rule="evenodd" clip-rule="evenodd" d="M731.725 2245.27C756.96 2226.69 784.274 2261.76 761.439 2280.35C748.816 2290.62 735.619 2286.97 728.189 2278.41C723.366 2284.3 718.852 2290.47 714.514 2295.68C701.299 2311.55 688.808 2327.8 676.87 2344.43C652.072 2378.98 630.821 2415.47 608.601 2451.3C586.672 2486.66 564.92 2522.21 545.044 2558.46C528.207 2589.18 505.765 2625.32 500 2659C508.746 2587.58 541.935 2518.93 581.457 2455.96C620.657 2393.51 665.644 2325.31 726.341 2276.03C720.163 2266.92 719.992 2253.91 731.725 2245.27Z" fill="#585CD0"/>
<path fill-rule="evenodd" clip-rule="evenodd" d="M250.436 2067.07C264.624 2069.85 287.807 2101.95 299.502 2114.18C313.401 2128.72 326.011 2144.21 337.897 2160.45C363.485 2195.39 386.37 2232.54 405.829 2271.28C437.553 2334.43 462.968 2399.26 481.413 2468.04C492.704 2510.13 500.014 2553.77 504.347 2597.1C505.165 2605.27 513.73 2668.27 501.388 2669.97C490.289 2671.49 493.717 2622.13 493.181 2615.41C487.128 2539.65 468.995 2465.94 443.772 2394.54C438.278 2378.98 433.174 2359.93 424.388 2345.93C418.06 2335.85 424.342 2339.36 413.223 2335.55C403.675 2332.27 392.797 2333.07 383.02 2329.06C361.78 2320.35 344.773 2303.43 329.865 2286.42C300.894 2253.35 277.936 2217.58 265.969 2175.22C259.331 2151.73 253.23 2128.1 249.845 2103.88C248.969 2097.62 241.298 2065.28 250.436 2067.07Z" fill="#585CD0"/>
<path fill-rule="evenodd" clip-rule="evenodd" d="M298.827 1543.91C354.277 1639.83 399.844 1745.2 429.267 1851.92C447.093 1916.59 459.56 1982.94 471.947 2048.81C491.125 2150.81 509.266 2252.8 514.426 2356.6C519.618 2461.01 529.884 2581.44 495.609 2682C512.729 2579.9 496.429 2471.23 493.543 2368.49C492.164 2319.45 488.167 2270.89 482.925 2222.13C477.837 2174.83 469.525 2127.76 461.785 2080.84C458.015 2057.99 454.055 2035.17 450.024 2012.36C448.82 2005.56 448.312 1985.37 443.985 1980.72C439.629 1976.04 417.409 1974.13 410.433 1970.7C396.385 1963.78 383.171 1953.96 371.477 1943.59C349.058 1923.69 329.555 1897.7 314.162 1872.07C278.546 1812.78 264.306 1740.42 265.026 1671.76C265.164 1658.43 286.659 1514.86 278.026 1512.89C278.546 1512.28 279.038 1511.65 279.501 1511C286.037 1521.92 292.451 1532.9 298.827 1543.91Z" fill="#363AAC"/>
<path fill-rule="evenodd" clip-rule="evenodd" d="M882.365 1869.02C883.19 1867.83 888.559 1859.55 885.855 1860.08C891.36 1859 878.284 1869.21 892 1862.95C885.487 1869.1 889.246 1877.09 889.333 1885.37C889.475 1898.82 887.226 1912.15 884.695 1925.31C880.695 1946.1 874.736 1966.32 866.087 1985.66C847.237 2027.81 815.227 2068.39 777.226 2094.74C758.466 2107.75 740.08 2112.18 718.684 2118.17C705.17 2121.96 704.098 2128.95 696.924 2142.07C681.989 2169.39 667.321 2196.61 654.149 2224.86C638.422 2258.59 623.155 2292.35 608.753 2326.67C560.237 2442.28 520.749 2562.05 500.011 2686C499.503 2612.96 516.396 2537.73 537.704 2468.1C553.226 2417.38 573.432 2368.48 594.984 2320.08C600.207 2308.35 608.121 2293.27 610.339 2280.32C611.892 2271.25 607.144 2262.53 604.97 2252.97C596.496 2215.76 597.102 2174.07 604.544 2136.66C612.75 2095.41 636.479 2076.27 676.621 2070.42C691.301 2068.29 709.961 2069.07 723.422 2062.81C738.088 2055.99 744.138 2033.58 752.477 2019.19C774.877 1980.54 801.491 1943.48 832.052 1910.92C840.514 1901.9 849.614 1893.58 859.268 1885.87C865.356 1881.01 878.216 1875.01 882.365 1869.02Z" fill="#363AAC"/>
<path fill-rule="evenodd" clip-rule="evenodd" d="M1356.68 312.217C1366.45 298.616 1384.59 264.073 1398.34 259.213C1407.2 256.082 1404.62 288.464 1404.73 294.638C1405.16 318.526 1402.77 342.263 1399.83 365.951C1394.53 408.671 1377.2 446.717 1353.42 483.076C1341.19 501.785 1326.84 520.721 1306.97 532.395C1297.82 537.771 1286.81 538.671 1277.78 543.303C1267.25 548.695 1272.98 544.336 1268.24 555.038C1261.66 569.896 1259.55 589.064 1256.5 604.918C1242.52 677.698 1208.65 1062.43 1214.52 1136.46C1215.04 1143.02 1205.67 1144.59 1205.2 1136.58C1202.71 1094.1 1224.23 799.973 1235.09 703.784C1245.95 607.595 1256.94 522.616 1267.96 489.338C1281.32 448.964 1305.46 400.411 1325.56 362.761C1334.89 345.27 1345.07 328.381 1356.68 312.217Z" fill="#585CD0"/>
<path fill-rule="evenodd" clip-rule="evenodd" d="M1537.72 777.172C1562.96 758.943 1590.27 793.347 1567.44 811.579C1554.82 821.657 1541.62 818.072 1534.19 809.674C1529.37 815.459 1524.85 821.507 1520.51 826.616C1507.3 842.184 1494.81 858.124 1482.87 874.435C1458.07 908.322 1436.82 944.122 1414.6 979.268C1392.67 1013.95 1370.92 1048.82 1351.04 1084.38C1334.21 1114.52 1311.76 1149.97 1306 1183C1314.75 1112.94 1347.94 1045.6 1387.46 983.837C1426.66 922.581 1471.64 855.682 1532.34 807.341C1526.16 798.402 1525.99 785.642 1537.72 777.172Z" fill="#585CD0"/>
<path fill-rule="evenodd" clip-rule="evenodd" d="M1026.44 659.07C1040.62 661.79 1063.81 693.256 1075.5 705.244C1089.4 719.491 1102.01 734.676 1113.9 750.586C1139.49 784.832 1162.37 821.243 1181.83 859.212C1213.55 921.111 1238.97 984.651 1257.41 1052.06C1268.7 1093.32 1276.01 1136.08 1280.35 1178.55C1281.16 1186.55 1289.73 1248.3 1277.39 1249.97C1266.29 1251.46 1269.72 1203.08 1269.18 1196.5C1263.13 1122.25 1244.99 1050 1219.77 980.018C1214.28 964.772 1209.17 946.099 1200.39 932.38C1194.06 922.498 1200.34 925.944 1189.22 922.204C1179.68 918.991 1168.8 919.776 1159.02 915.843C1137.78 907.303 1120.77 890.726 1105.87 874.051C1076.89 841.645 1053.94 806.586 1041.97 765.063C1035.33 742.039 1029.23 718.882 1025.84 695.146C1024.97 689.011 1017.3 657.318 1026.44 659.07Z" fill="#585CD0"/>
<path fill-rule="evenodd" clip-rule="evenodd" d="M966.766 144.17C1020.48 235.014 1064.61 334.803 1093.11 435.874C1110.38 497.112 1122.46 559.951 1134.45 622.336C1153.03 718.932 1170.6 815.521 1175.6 913.832C1180.63 1012.71 1190.57 1126.76 1157.37 1222C1173.96 1125.31 1158.17 1022.39 1155.37 925.092C1154.04 878.646 1150.17 832.654 1145.09 786.479C1140.16 741.687 1132.11 697.109 1124.61 652.669C1120.96 631.026 1117.12 609.415 1113.22 587.817C1112.05 581.373 1111.56 562.251 1107.37 557.849C1103.15 553.418 1081.63 551.612 1074.87 548.36C1061.26 541.812 1048.46 532.51 1037.14 522.682C1015.42 503.841 996.53 479.223 981.619 454.955C947.121 398.803 933.328 330.278 934.025 265.247C934.159 252.621 954.98 116.659 946.618 114.786C947.121 114.211 947.597 113.618 948.046 113C954.377 123.337 960.589 133.745 966.766 144.17Z" fill="#363AAC"/>
<path fill-rule="evenodd" clip-rule="evenodd" d="M1611.37 415.845C1612.19 414.677 1617.56 406.56 1614.86 407.079C1620.36 406.023 1607.28 416.031 1621 409.89C1614.49 415.923 1618.25 423.761 1618.33 431.881C1618.47 445.065 1616.23 458.14 1613.69 471.041C1609.69 491.433 1603.74 511.26 1595.09 530.227C1576.24 571.561 1544.23 611.352 1506.23 637.194C1487.47 649.953 1469.08 654.297 1447.68 660.171C1434.17 663.882 1433.1 670.739 1425.92 683.603C1410.99 710.397 1396.32 737.094 1383.15 764.791C1367.42 797.865 1352.15 830.975 1337.75 864.631C1289.24 977.999 1249.75 1095.45 1229.01 1217C1228.5 1145.37 1245.4 1071.6 1266.7 1003.32C1282.23 953.581 1302.43 905.63 1323.98 858.164C1329.21 846.665 1337.12 831.873 1339.34 819.178C1340.89 810.283 1336.14 801.728 1333.97 792.358C1325.5 755.868 1326.1 714.988 1333.54 678.303C1341.75 637.851 1365.48 619.076 1405.62 613.347C1420.3 611.251 1438.96 612.019 1452.42 605.879C1467.09 599.192 1473.14 577.214 1481.48 563.106C1503.88 525.209 1530.49 488.863 1561.05 456.931C1569.51 448.088 1578.61 439.931 1588.27 432.37C1594.36 427.599 1607.22 421.721 1611.37 415.845Z" fill="#363AAC"/>
<path fill-rule="evenodd" clip-rule="evenodd" d="M1120.5 1255.05C1123.37 1251.05 1126.07 1247.3 1127.32 1246.27C1136.08 1239.08 1147.24 1234.96 1158.53 1232.63C1171.17 1230.03 1184.61 1235.73 1187.21 1245.35C1187.31 1245.14 1187.42 1244.92 1187.52 1244.71C1187.52 1244.71 1187.55 1244.65 1187.6 1244.53L1187.61 1244.51L1187.61 1244.51C1188.23 1243.15 1191.83 1235.22 1192.51 1233.88C1192.2 1234.81 1191.99 1235.99 1191.79 1237.31C1190.65 1239.1 1189.67 1241.01 1188.9 1243.06C1188.39 1244.02 1187.88 1244.98 1187.36 1245.95C1187.45 1246.36 1187.52 1246.77 1187.57 1247.19C1187.96 1245.78 1188.39 1244.39 1188.9 1243.06C1189.87 1241.23 1190.81 1239.4 1191.75 1237.56C1191.66 1238.16 1191.58 1238.78 1191.5 1239.42L1191.5 1239.42L1191.49 1239.43C1190.88 1244.03 1190.15 1249.51 1187.18 1252.45C1186.52 1254.97 1185.18 1257.64 1183.02 1260.4C1168.11 1279.48 1131.53 1271.47 1111 1266.38C1112.21 1266.6 1116.52 1260.59 1120.5 1255.05ZM1219.38 1464.6C1215.9 1464.04 1212.4 1463.6 1208.9 1463.19C1208.51 1463.79 1208.12 1464.38 1207.74 1464.97C1207.41 1465.47 1207.08 1465.97 1206.75 1466.47C1210.97 1465.65 1215.19 1464.98 1219.38 1464.6ZM1229.72 1415.58C1228.38 1413.4 1226.43 1410.55 1224.35 1407.7C1224.22 1407.31 1224.12 1406.98 1224.05 1406.75L1224.04 1406.75L1224.04 1406.74L1224.04 1406.72L1223.97 1406.51C1223.95 1406.45 1223.94 1406.41 1223.93 1406.39L1224.34 1406.9C1226.38 1409.47 1228.45 1412.07 1230.67 1414.56C1230.52 1414.72 1230.38 1414.87 1230.23 1415.03L1230.23 1415.03L1230.23 1415.03L1230.23 1415.03L1230.23 1415.03L1230.23 1415.03L1230.23 1415.03L1230.23 1415.03L1230.23 1415.03C1230.06 1415.22 1229.89 1415.4 1229.72 1415.58ZM1223.92 1406.38L1223.93 1406.39C1223.91 1406.35 1223.91 1406.34 1223.92 1406.38ZM1260.33 1491.98C1260.17 1491.8 1260.01 1491.63 1259.86 1491.46C1260.81 1493.38 1261.21 1494.79 1261.18 1495.79C1261.76 1495.54 1262.34 1495.28 1262.91 1495.03L1263.37 1494.83C1262.14 1493.98 1261.17 1492.91 1260.34 1491.98L1260.34 1491.98L1260.33 1491.98ZM1340.55 1639.89L1341.01 1639.6C1339 1634.82 1337.28 1629.94 1336.03 1624.92C1331.9 1608.44 1330.08 1583.25 1352.12 1579.16C1376.1 1574.71 1380.26 1603.69 1376.73 1619.59C1375.06 1627.08 1371.97 1633.98 1368.88 1640.91C1367.43 1644.15 1365.98 1647.39 1364.67 1650.7C1364.33 1651.55 1363.98 1653.24 1363.58 1655.13L1363.58 1655.13C1362.45 1660.49 1360.97 1667.53 1358.6 1661.93C1358.27 1664.38 1357.9 1666.12 1357.5 1667.33C1363.32 1664.21 1369.11 1661.03 1374.87 1657.82C1374.78 1657.22 1374.75 1656.59 1374.88 1655.9C1375.72 1651.11 1381.05 1650.41 1384.17 1652.58C1391.81 1648.23 1399.4 1643.78 1406.91 1639.2C1422.82 1629.48 1439 1619.44 1455.16 1609.11C1453.99 1607.56 1453.91 1606.01 1453.84 1604.45C1453.77 1602.97 1453.7 1601.48 1452.7 1599.97C1451.57 1598.27 1449.6 1596.73 1447.62 1595.18C1445.98 1593.9 1444.34 1592.62 1443.17 1591.24C1436.71 1583.6 1432.2 1573.59 1429.46 1564.13C1424.93 1548.49 1421.68 1517.13 1445.85 1515.71C1470.76 1514.24 1476.09 1544.94 1473.53 1562.78C1473.03 1566.24 1463.32 1596.18 1458.74 1606.81C1488.66 1587.58 1518.4 1567.33 1546.01 1546.12C1539.5 1544.56 1524.01 1527.33 1521.09 1522.93C1513.97 1512.2 1503.89 1489.78 1522.24 1483.35C1538.56 1477.65 1553.09 1494.65 1556.24 1508.66C1556.76 1510.97 1555.79 1531.11 1554.05 1539.85C1565.54 1530.8 1576.64 1521.6 1587.15 1512.22C1594.15 1505.99 1600.86 1499.49 1607.28 1492.74C1606.31 1491.88 1605.51 1490.57 1604.84 1489.02C1582.01 1479.67 1560.1 1436.79 1590.89 1430.67C1605.55 1427.77 1617.09 1443.35 1621.26 1454.89C1622.05 1457.1 1621.89 1466.69 1621.75 1474.92C1621.74 1475.5 1621.74 1476.07 1621.73 1476.64C1641 1453.85 1657.5 1428.82 1671.73 1402.55C1669.78 1401.58 1668.39 1399.65 1668.77 1396.96C1658.73 1387.94 1650.86 1380.54 1645.67 1366.43C1642.44 1357.67 1637.48 1338.21 1653.15 1337.35C1673.54 1336.23 1678.96 1367.31 1677.28 1381.63C1677.09 1383.29 1675.98 1388 1674.92 1392.3C1675.6 1392.36 1676.27 1392.53 1676.9 1392.79C1685.33 1376.43 1692.92 1359.65 1699.8 1342.67C1690.13 1337.02 1700.68 1283.44 1709.39 1277.46C1728.85 1264.07 1734.11 1291.07 1730.28 1303.82C1725.75 1318.86 1715.4 1331.1 1704.05 1341.48C1703.89 1341.62 1703.76 1341.74 1703.65 1341.85C1703.36 1342.11 1703.22 1342.24 1703.17 1342.21C1703.11 1342.19 1703.13 1342 1703.19 1341.62C1703.22 1341.39 1703.26 1341.08 1703.3 1340.7C1702.96 1341.57 1702.5 1342.16 1701.92 1342.53C1701.56 1344.59 1701.22 1346.67 1700.89 1348.73C1699.9 1354.84 1698.91 1360.86 1697.37 1366.1C1691.47 1386.18 1684.27 1406.1 1676.05 1425.37C1674.05 1430.06 1671.93 1434.68 1669.71 1439.23C1679.7 1434.22 1692.44 1430.66 1697.31 1429.75C1709.95 1427.39 1728.9 1426.05 1738.34 1437.13C1746.16 1446.31 1743.74 1458.81 1734.06 1465.42C1722.53 1473.3 1705.82 1469.08 1693.5 1465.23C1687.93 1463.49 1658.18 1454.19 1666.48 1451.03C1665.88 1451.1 1664.61 1451.33 1663.22 1451.71C1662.01 1453.92 1660.77 1456.1 1659.5 1458.27C1659.52 1458.3 1659.55 1458.33 1659.58 1458.35C1659.61 1458.38 1659.64 1458.41 1659.67 1458.44L1659.69 1458.46C1659.77 1458.54 1659.85 1458.62 1659.95 1458.7C1659.83 1458.62 1659.74 1458.54 1659.65 1458.46C1659.6 1458.41 1659.54 1458.36 1659.48 1458.31C1646.76 1480 1631.22 1499.86 1612.8 1517.56C1618.34 1516.78 1623.94 1516.52 1629.43 1517.09C1645.68 1518.77 1676.16 1538.32 1653.73 1554.69C1638.54 1565.77 1623.35 1555.52 1609.2 1545.97C1603.31 1542.01 1597.61 1538.16 1592.16 1536.01C1567.62 1557.01 1541.42 1576.51 1514.41 1594.98C1515.64 1595.69 1516.61 1596.79 1516.97 1598.24C1519.82 1597.57 1522.74 1596.74 1525.66 1595.92C1532.6 1593.96 1539.52 1592 1545.43 1592.13C1557.53 1592.4 1581.55 1596.39 1587.95 1608.43C1595.82 1623.23 1581.98 1630.61 1568.74 1630.07C1550.76 1629.33 1530.26 1616.78 1514.32 1607.01C1513.24 1606.36 1512.19 1605.71 1511.16 1605.08C1509.06 1604.97 1506.98 1603.89 1506.03 1602.01C1505.66 1601.8 1505.3 1601.59 1504.95 1601.38C1477.7 1619.67 1449.79 1637 1422.14 1653.87C1422.26 1653.89 1422.38 1653.91 1422.5 1653.93C1422.59 1653.95 1422.68 1653.96 1422.77 1653.98L1422.87 1654C1429.62 1651.61 1436.64 1649.98 1443.85 1649.94C1460.52 1649.83 1479.13 1654.07 1489.38 1668.12C1499.59 1682.1 1499.62 1702.47 1483.51 1711.85C1461.2 1724.84 1441.97 1697.43 1427.99 1677.52C1421.78 1668.66 1416.6 1661.28 1412.66 1659.61C1384.61 1676.52 1355.59 1691.67 1326.28 1706.32C1329.26 1706.13 1332.27 1706.18 1335.29 1706.59C1359.93 1709.88 1409.86 1751.55 1373.7 1772.99C1349.74 1787.2 1333.11 1759.27 1319.07 1735.69C1314.64 1728.26 1310.47 1721.27 1306.42 1716.16C1302.15 1718.26 1297.88 1720.36 1293.61 1722.46L1293.56 1722.49C1270.26 1733.95 1246.96 1745.41 1224 1757.5C1237.09 1757.15 1249.14 1759.42 1261.48 1766.34C1274.24 1773.5 1294.01 1788.61 1281.18 1804.58C1268.13 1820.82 1243.51 1806.42 1231.03 1797.45C1228.44 1795.59 1225.01 1792.4 1221.08 1788.74L1221.08 1788.74C1214.67 1782.77 1206.93 1775.56 1199.35 1770.89C1155.52 1795.71 1115.74 1825 1082.06 1862.53C1061.03 1885.96 1043.14 1912.04 1028.39 1939.68C1027.26 1941.8 1026.02 1944.08 1024.71 1946.5L1024.7 1946.5C1015.03 1964.29 1001.26 1989.61 998 2011.55C999.903 1960.4 1030.72 1905.5 1059.37 1865.96C1085.71 1829.6 1119.35 1800.09 1156.51 1775.1C1155.7 1767.15 1148.82 1756.65 1141.69 1745.77C1127.73 1724.48 1112.84 1701.77 1140.84 1694.07C1163.3 1687.93 1179.61 1710.4 1179.6 1730.22C1179.59 1743.85 1171.24 1759.06 1163.48 1770.5C1175.1 1762.95 1187.02 1755.8 1199.16 1749.03C1215.94 1739.67 1232.97 1730.74 1250.09 1722.01C1231.48 1695.06 1223.44 1628.37 1257.45 1625.57C1303.85 1621.78 1271.46 1688.81 1260.82 1710.82L1260.82 1710.83C1259.95 1712.63 1259.22 1714.13 1258.7 1715.26C1257.76 1715.1 1257.1 1714.67 1256.71 1713.96C1256.63 1715.46 1256.58 1717.07 1256.59 1718.71C1266.72 1713.58 1276.88 1708.5 1287.04 1703.41L1287.04 1703.41L1287.05 1703.41C1309.73 1692.06 1332.41 1680.71 1354.77 1668.79C1353.56 1667.42 1352.25 1664.18 1350.92 1660.88L1350.92 1660.88C1350.02 1658.67 1349.12 1656.43 1348.23 1654.73C1345.66 1649.81 1343.19 1644.81 1341.04 1639.69C1340.88 1639.76 1340.72 1639.82 1340.55 1639.89ZM1326.04 1651.34L1326.05 1651.35C1326.31 1651.54 1326.57 1651.74 1326.83 1651.93L1326.89 1651.94L1326.95 1651.94L1327.03 1651.94C1327.09 1651.95 1327.15 1651.95 1327.22 1651.96C1326.39 1651.48 1325.62 1651.02 1324.98 1650.54C1325.34 1650.81 1325.69 1651.07 1326.04 1651.34ZM1420.59 1735.43C1422.62 1733.58 1424.65 1731.73 1426.68 1729.87C1428.66 1731.45 1430.73 1733.5 1432.82 1735.81C1431.79 1736.2 1430.78 1737.24 1429.91 1738.64C1428.01 1737.8 1425.99 1737.17 1424 1736.55L1424 1736.55L1424 1736.55L1424 1736.55L1424 1736.55L1424 1736.55L1424 1736.55C1422.84 1736.18 1421.69 1735.82 1420.59 1735.43ZM1573.55 1807.34C1571.33 1804.23 1569.15 1801.11 1567 1797.98C1570.23 1800.76 1572.53 1804.25 1573.55 1807.34ZM1620.96 2142C1620.26 2135.25 1620.14 2128.37 1620.49 2121.42C1619.37 2128.84 1619.34 2135.85 1620.96 2142Z" fill="#4044C1"/>
<path fill-rule="evenodd" clip-rule="evenodd" d="M359.76 287.014C347.698 279.958 331.244 287.419 320.75 293.747C316.707 296.187 306.526 303.652 299.263 311.539C299.748 306.631 300.112 301.695 300.35 296.734C301.328 276.339 301.192 255.696 299.843 235.322C299.491 230.007 298.381 224.158 297.257 218.232L297.257 218.23C296.876 216.223 296.494 214.207 296.139 212.2C296.482 211.726 296.693 211.122 296.747 210.353C296.764 210.307 296.78 210.26 296.796 210.213C296.869 210.51 296.921 210.754 296.963 210.946C297.041 211.31 297.08 211.493 297.141 211.5C297.202 211.508 297.285 211.339 297.452 211.001C297.516 210.87 297.593 210.713 297.687 210.531C304.389 197.277 309.585 182.632 308.669 167.346C307.891 154.382 294.309 131.34 281.363 150.035C275.57 158.385 283.805 211.025 294.291 213.026C293.747 230.871 292.505 248.771 290.38 266.555C289.73 266.521 289.08 266.59 288.449 266.756C287.983 262.457 287.414 257.773 287.04 256.185C283.825 242.499 268.755 215.761 250.942 223.498C237.254 229.444 248.084 245.674 253.848 252.652C263.126 263.886 272.576 268.084 284.501 273.054C285.046 275.646 286.926 276.961 288.985 277.211C284.945 306.005 278.477 334.399 268.797 361.657C268.619 361.135 268.439 360.604 268.256 360.067C265.669 352.471 262.653 343.615 261.215 341.854C253.698 332.635 238.275 322.141 226.162 329.63C200.721 345.373 234.38 377.513 257.816 378.581C258.932 379.78 260.072 380.715 261.221 381.19C257.712 389.49 253.877 397.667 249.683 405.689C243.399 417.752 236.538 429.85 229.272 441.932C227.947 433.341 222.175 414.542 220.954 412.596C213.528 400.779 194.975 389.96 182.303 400.558C168.054 412.502 184.423 429.758 194.309 437.264C198.36 440.341 217.848 451.048 224.17 450.331C206.535 478.883 186.685 507.255 166.337 534.751C166.92 523.489 165.721 492.818 165.025 489.483C161.438 472.268 146.57 445.855 124.841 455.404C103.758 464.657 116.99 492.368 126.175 505.224C131.737 513.005 139.053 520.706 147.334 525.592C148.827 526.472 150.714 527.109 152.597 527.745L152.597 527.745C154.868 528.511 157.134 529.276 158.7 530.464C160.095 531.523 160.648 532.869 161.197 534.202C161.777 535.611 162.351 537.007 163.907 538.04C152.903 552.842 141.777 567.378 130.789 581.532C125.605 588.212 120.299 594.79 114.925 601.302C111.428 600.333 106.905 602.728 107.73 607.401C107.85 608.08 108.08 608.65 108.36 609.164C104.277 614.01 100.16 618.83 96.0011 623.608C95.9574 622.371 95.7142 620.647 95.2066 618.288C99.1596 622.655 98.1638 615.71 97.4047 610.417C97.1365 608.546 96.8979 606.882 96.9175 605.995C96.9936 602.524 97.2188 599.069 97.4437 595.619C97.9242 588.248 98.4031 580.902 97.4223 573.477C95.338 557.718 82.0804 532.498 62.17 544.48C43.8602 555.481 53.7787 578 62.8855 591.764C68.6502 600.473 75.9967 607.98 83.5854 615.098C84.939 616.369 86.4834 618.125 88.0126 619.864C90.2828 622.445 92.5193 624.987 94.048 625.849C78.0407 644.15 61.5521 662.03 45.0624 679.911C37.6762 687.921 30.2898 695.93 22.9463 703.978C22.399 702.477 21.9156 700.981 21.4854 699.58C22.0701 700.095 22.8015 700.28 23.6911 700.117C23.7845 698.903 23.9369 697.287 24.12 695.346L24.1201 695.346C26.3555 671.648 33.1643 599.469 -6.96698 618.224C-36.3665 631.993 -7.23248 690.537 18.2397 709.14C5.84496 722.795 -6.39979 736.586 -18.2789 750.699C-26.8746 760.911 -35.1456 771.397 -43.0203 782.149C-39.8657 769.091 -37.4334 752.389 -41.9116 739.884C-48.4304 721.686 -70.3762 706.442 -88.3764 719.463C-110.809 735.752 -90.0553 751.688 -70.5937 766.633C-60.6564 774.264 -51.0559 781.636 -47.7136 788.664C-72.6253 823.823 -92.895 861.974 -104.407 904.012C-116.928 949.727 -126.332 1010.24 -111.181 1057.81C-115.503 1036.61 -111.561 1008.83 -108.793 989.33L-108.793 989.326C-108.416 986.672 -108.061 984.17 -107.751 981.86C-103.704 951.64 -96.3445 921.817 -85.3105 893.395C-67.6357 847.872 -41.8139 807.901 -10.9045 770.694C-2.60603 772.486 6.66751 776.552 14.3481 779.92L14.3487 779.92C19.0595 781.986 23.171 783.789 26.0906 784.643C40.1716 788.764 66.8621 793.87 73.1534 774.675C79.3386 755.8 56.7308 748.444 42.9887 746.071C29.7085 743.783 18.2209 745.667 6.66354 750.297C23.1523 731.644 40.1563 713.455 57.1572 695.27C60.284 691.925 63.4108 688.58 66.5341 685.233C71.8348 688.586 77.8546 693.634 84.2464 698.994C104.532 716.005 128.565 736.159 145.249 715.234C170.427 683.656 112.179 661.854 89.1287 666.944C86.2988 667.567 83.6027 668.51 81.0023 669.662C102.311 646.576 123.202 623.12 142.643 598.372C146.707 598.608 153.751 603.672 162.213 609.756L162.213 609.756C181.231 623.428 207.412 642.25 223.025 622.982C234.297 609.074 227.559 590.394 213.85 580.923C200.087 571.411 182.1 573.637 167.267 579.232C160.854 581.642 155.131 585.442 149.903 589.859C149.782 589.881 149.663 589.902 149.545 589.923L149.541 589.924C149.427 589.945 149.315 589.965 149.202 589.985C168.305 565.403 187.481 540.313 205.755 514.559C205.955 514.597 206.158 514.636 206.363 514.675C206.549 514.711 206.737 514.747 206.924 514.784C208.393 516.19 210.601 516.499 212.517 515.913C213.641 516.15 214.791 516.395 215.964 516.644C233.399 520.358 255.809 525.13 272.089 519.886C284.071 516.027 293.981 504.696 282.088 493.705C272.419 484.766 249.684 489.011 238.802 492.746C233.491 494.57 227.966 498.644 222.423 502.731C220.094 504.448 217.761 506.168 215.44 507.724C214.639 506.508 213.415 505.814 212.088 505.572C230.084 479.736 247.026 453.213 261.989 425.871C267.555 426.045 273.908 427.698 280.46 429.403L280.46 429.403C296.227 433.505 313.149 437.908 323.043 422.737C337.648 400.335 304.036 392.433 288.987 396.239C283.905 397.523 278.995 399.609 274.318 402.142C284.911 379.843 292.226 356.499 296.421 332.411C296.493 332.437 296.56 332.465 296.628 332.493L296.628 332.493C296.734 332.536 296.841 332.58 296.969 332.618C296.897 332.59 296.83 332.56 296.764 332.529C296.727 332.512 296.691 332.494 296.655 332.477C296.581 332.441 296.506 332.405 296.428 332.372C296.846 329.962 297.234 327.545 297.589 325.124C298.701 324.313 299.757 323.688 300.267 323.421C293.909 329.057 323.497 327.8 329.038 327.564C341.288 327.042 357.584 325.408 365.265 314.389C371.716 305.133 369.767 292.868 359.76 287.014ZM-110.845 1058.83C-109.362 1066.18 -106.992 1072.78 -103.362 1078C-106.329 1071.9 -108.8 1065.49 -110.845 1058.83Z" fill="#4044C1"/>
<path fill-rule="evenodd" clip-rule="evenodd" d="M447.81 769.12C440.485 761.239 426.642 763.01 417.459 765.29C413.921 766.169 404.713 769.353 397.567 773.501C399.032 770.013 400.413 766.478 401.707 762.896C407.026 748.168 411.578 733.008 415.173 717.773C416.11 713.8 416.608 709.263 417.113 704.668C417.284 703.111 417.455 701.547 417.645 699.996C418.05 699.693 418.368 699.232 418.585 698.57C418.571 698.857 418.552 699.087 418.537 699.262C418.513 699.546 418.5 699.689 418.544 699.708C418.587 699.728 418.686 699.623 418.886 699.412C418.963 699.331 419.055 699.233 419.166 699.121C427.106 690.913 434.248 681.347 437.016 669.938C439.362 660.263 434.515 640.324 420.733 651.116C414.569 655.935 408.793 696.364 416.094 700.186C411.67 713.142 406.718 725.982 401.139 738.537C400.666 738.366 400.17 738.271 399.666 738.251C400.291 734.996 400.926 731.435 401.008 730.187C401.715 719.434 396.602 696.453 381.692 698.121C370.234 699.403 374.582 713.731 377.27 720.14C381.596 730.458 387.635 735.658 395.329 741.98C395.148 744.002 396.241 745.388 397.707 746.034C388.231 766.229 377.051 785.585 363.754 803.387C363.74 802.964 363.726 802.534 363.712 802.099C363.512 795.951 363.278 788.784 362.612 787.17C359.134 778.725 350.099 767.569 339.458 770.335C317.105 776.157 334.741 807.274 351.824 813.323C352.378 814.453 353.01 815.394 353.752 816C349.288 821.295 344.61 826.426 339.703 831.362C332.339 838.791 324.541 846.116 316.448 853.338C317.404 846.745 317.375 831.67 316.911 829.97C314.085 819.641 302.81 807.543 291.055 812.463C277.831 818.015 286.041 834.34 291.657 842.061C293.958 845.227 305.949 857.453 310.784 858.348C291.315 875.311 270.249 891.644 249.012 907.223C251.981 899.1 258.007 876.353 258.243 873.752C259.472 860.33 254.435 837.632 236.222 839.748C218.553 841.793 222.089 865.074 225.98 876.56C228.338 883.512 232.01 890.8 237.03 896.242C237.935 897.222 239.186 898.112 240.435 899.001L240.435 899.001C241.941 900.073 243.443 901.143 244.333 902.365C245.125 903.455 245.231 904.566 245.336 905.666C245.447 906.829 245.557 907.981 246.474 909.088C235.005 917.464 223.506 925.617 212.194 933.521C206.857 937.252 201.452 940.881 196.012 944.446C193.646 942.95 189.764 943.689 189.32 947.299C189.256 947.824 189.298 948.293 189.389 948.733C185.278 951.367 181.149 953.974 176.998 956.542C177.245 955.625 177.453 954.307 177.61 952.465C179.548 956.553 180.377 951.24 181.009 947.189C181.232 945.758 181.431 944.485 181.645 943.839C182.483 941.313 183.428 938.831 184.372 936.353C186.388 931.06 188.398 925.783 189.346 920.121C191.357 908.103 187.242 886.641 169.825 890.949C153.812 894.897 156.068 913.63 159.697 925.763C161.996 933.441 165.734 940.593 169.739 947.515C170.453 948.751 171.199 950.385 171.937 952.002L171.937 952.003C173.034 954.404 174.114 956.77 175.05 957.745C159.094 967.561 142.878 976.959 126.661 986.359L126.659 986.36L126.651 986.365C119.389 990.574 112.127 994.783 104.888 999.03C104.821 997.807 104.801 996.602 104.799 995.478C105.115 995.987 105.614 996.287 106.308 996.367C106.651 995.498 107.128 994.348 107.701 992.967C114.693 976.101 135.993 924.732 102.103 929.46C77.2694 932.946 85.6101 982.398 100.245 1001.75C88.0066 1008.98 75.848 1016.33 63.887 1024.01C55.2321 1029.56 46.7554 1035.39 38.5117 1041.5C43.7863 1032.64 49.3481 1020.94 48.8563 1010.77C48.139 995.97 35.3531 979.867 19.114 985.365C-1.1378 992.263 10.6107 1008.61 21.6278 1023.93C27.2532 1031.76 32.688 1039.32 33.5745 1045.22C7.2375 1065.39 -16.3426 1088.79 -34.3255 1117.02C-53.8829 1147.71 -74.4712 1189.94 -73.9918 1228.21C-72.4088 1211.7 -63.2364 1192.23 -56.7948 1178.56C-55.9176 1176.7 -55.091 1174.94 -54.3412 1173.32C-44.5394 1152.08 -32.3787 1131.88 -17.8175 1113.53C5.50579 1084.13 33.6001 1060.64 64.8317 1040.32C70.5618 1043.5 76.5001 1048.56 81.4182 1052.75L81.4186 1052.75C84.4349 1055.33 87.0674 1057.57 89.0329 1058.85C98.5122 1065.04 117.09 1074.78 126.066 1062.12C134.891 1049.68 119.838 1039.21 110.216 1034.38C100.915 1029.72 91.9999 1028.52 82.4137 1029.32C98.8052 1019.35 115.473 1009.84 132.138 1000.33L132.159 1000.32C135.217 998.577 138.274 996.832 141.33 995.085C144.492 998.733 147.804 1003.79 151.321 1009.15C162.481 1026.17 175.703 1046.34 192.751 1034.76C218.478 1017.27 180.337 988.206 162.152 986.758C159.92 986.579 157.715 986.664 155.533 986.924C176.486 974.792 197.213 962.296 217.161 948.527C220.112 949.613 224.177 954.907 229.061 961.266C240.037 975.56 255.146 995.236 271.029 984.623C282.495 976.962 281.724 961.758 273.726 951.737C265.697 941.674 251.9 939.264 239.675 940.032C234.392 940.357 229.305 941.856 224.445 943.919L224.284 943.899L224.166 943.885C224.077 943.875 223.988 943.864 223.899 943.853C243.559 930.13 263.387 916.051 282.698 901.281L282.948 901.412C283.134 901.51 283.323 901.609 283.512 901.709C284.281 903.07 285.843 903.792 287.391 903.793C288.169 904.219 288.964 904.657 289.774 905.104C301.824 911.742 317.313 920.275 330.528 920.09C340.254 919.954 350.133 913.876 343.819 903.149C338.687 894.425 320.926 892.428 312.04 892.72C307.704 892.864 302.703 894.608 297.684 896.358L297.684 896.358L297.683 896.358C295.575 897.093 293.463 897.83 291.397 898.449C291.079 897.377 290.331 896.594 289.405 896.118C308.529 881.227 327.029 865.595 344.25 848.918C348.325 850.297 352.648 852.936 357.107 855.657C367.837 862.206 379.352 869.235 390.084 860.339C405.928 847.203 382.865 833.86 370.884 833.268C366.838 833.067 362.739 833.492 358.711 834.298C371.566 820.336 382.234 804.871 390.763 788.16C390.782 788.175 390.801 788.189 390.82 788.204C390.847 788.225 390.872 788.245 390.898 788.266C390.966 788.322 391.035 788.378 391.121 788.435C390.994 788.334 390.895 788.232 390.777 788.132C391.629 786.46 392.46 784.776 393.268 783.082C394.273 782.738 395.195 782.516 395.631 782.435C389.662 785.137 411.815 790.864 415.964 791.936C425.136 794.306 437.55 796.77 445.71 790.42C452.564 785.086 453.888 775.659 447.81 769.12ZM-73.4585 1226.5C-73.8251 1230.99 -73.1521 1235.24 -70.9288 1239C-72.299 1234.89 -73.1134 1230.72 -73.4585 1226.5Z" fill="#363990"/>
<path fill-rule="evenodd" clip-rule="evenodd" d="M817.602 769.244C810.374 736.935 807.34 704.209 798.368 672.164C791.196 646.552 779.745 622.525 765.411 600.149C751.627 578.632 726.483 561.955 717.555 538.26C711.866 523.162 711.276 501.017 714.597 485.163C718.637 465.887 715.457 467.76 700.943 453.774C672.501 426.364 646.421 397.879 626.217 363.46C597.116 313.886 574.721 254.518 576.057 196.196C576.228 188.79 574.275 162.525 584.024 159.481C594.912 156.08 591.545 171.649 591.545 176.545C591.553 207.786 591.504 235.101 599.933 265.801C632.454 384.251 728.394 453.189 797.109 548.697C800.843 553.599 808.903 565.373 814.452 573.112C823.212 585.332 833.469 609.366 844.339 617.892C864.812 633.955 843.528 599.234 839.113 592.649C833.529 584.319 827.428 575.486 821.869 568.268C796.377 534.777 768.033 498.283 741.713 463.765C833.052 430.768 913.251 536.184 947.681 607.725C976.049 666.666 1018.65 807.37 922.46 824.463C881.507 831.648 827.552 813.71 817.602 769.244Z" fill="#4A50A0"/>
<path fill-rule="evenodd" clip-rule="evenodd" d="M575.825 648.38C575.429 624.228 581.528 601.401 584.486 577.607C588.937 541.808 584.004 512.145 566.364 480.29C560.9 470.425 557.539 460.982 555.996 451.505C550.445 440.82 546.27 429.371 544.594 416.419C542.451 399.878 545.926 381.877 557.975 369.715C561.215 366.446 568.715 360.186 575.095 358.25C568.189 310.074 571.43 260.609 586.775 214.901C596.038 187.31 605.924 159.896 616.021 132.596C618.734 125.267 624.941 113.69 624.763 127.317C624.602 139.781 614.904 156.466 610.854 168.303C591.124 225.967 573.288 278.428 580.631 340.168C581.401 346.639 582.338 353.111 583.399 359.571C583.533 359.716 583.65 359.876 583.769 360.034C583.9 359.985 584.024 359.926 584.154 359.878C584.235 360.249 584.363 360.699 584.518 361.207C585.063 362.271 585.442 363.522 585.749 364.883C586.976 368.48 588.325 372.677 587.758 374.577C587.753 374.591 587.738 374.612 587.734 374.626C595.176 403.389 605.189 431.476 615.704 459.226C615.623 459.023 626.707 490.64 628.144 475.464C628.837 468.15 618.88 450.783 615.471 441.772C607.957 421.748 599.594 396.729 593.5 373.144C592.149 371.703 591.248 366.379 590.627 362.429C590.236 360.404 589.911 358.384 589.532 356.595C637.052 355.526 661.839 394.449 674.513 434.79C674.529 434.837 674.541 434.886 674.555 434.933C678.698 446.276 683.031 457.605 689.714 467.611C700.864 484.307 716.136 491.312 731.84 502.647C774.667 533.555 776.043 601.646 768.434 649.536C759.851 703.564 699.876 772.128 639.218 748.034C596.036 731.024 576.557 693.198 575.825 648.38Z" fill="#585DD6"/>
<path fill-rule="evenodd" clip-rule="evenodd" d="M499.907 324.531C491.426 340.953 490.745 359.568 491.209 377.676C492.111 412.927 491.217 433.318 472.56 465.564C461.587 484.528 449.801 504.471 451.098 527.184C452.041 543.722 460.533 565.064 477.805 570.578C506.175 577.195 532.322 559.756 549.599 538.204C571.012 511.493 574.183 485.32 560.961 455.067C553.51 438.023 551.77 423.36 556.345 405.168C560.002 390.619 568.172 375.875 569.608 360.868C571.754 338.435 564.572 320.595 546.989 307.66C535.613 348.652 526.448 392.27 525.134 434.776C524.859 438.911 527.789 458.59 521.76 460.26C515.121 462.098 518.965 434.792 518.954 434.969C519.616 422.325 521.14 409.681 522.83 397.064C522.851 397.07 522.87 397.081 522.893 397.088C524.609 384.123 526.476 371.089 528.542 358.06C529.517 352.647 530.591 347.249 531.837 341.855C533.665 333.94 542.61 315.109 540.666 307.275C540.25 305.599 539.633 304.291 538.87 303.26C540.832 294.505 542.926 285.794 545.243 277.171C551.296 254.652 559.287 232.423 572.078 212.76C575.811 207.021 593.921 189.562 593.998 182.888C594.143 170.682 584.044 184.688 580.823 188.749C554.162 222.386 539.899 259.218 530.94 300.509C519.835 302.196 503.345 317.878 499.907 324.531Z" fill="#434998"/>
<path fill-rule="evenodd" clip-rule="evenodd" d="M1357.92 1265.68C1354.69 1270.46 1351.57 1275.3 1348.6 1280.24C1346.33 1284.01 1341.83 1289.07 1342 1293.67C1342.18 1298.44 1347.11 1301.45 1350.82 1303.23C1370.46 1312.63 1390.64 1316.87 1412.38 1311.9C1445.87 1304.27 1471.83 1287.12 1495.24 1261.9C1511.68 1244.18 1519.71 1222.99 1515.58 1199C1542.35 1201.56 1569.47 1208.11 1594.08 1218.82C1606.22 1224.1 1617.29 1230.69 1628.05 1238.46C1634.93 1243.44 1641.69 1248.57 1648.18 1254.06C1651.01 1256.45 1654.56 1261.13 1658.25 1261.86C1662.58 1262.73 1666.11 1258.19 1664.67 1254.11C1663.48 1250.71 1658.55 1247.86 1655.96 1245.58C1651.65 1241.79 1647.31 1238.05 1642.85 1234.45C1635.62 1228.62 1628.26 1222.95 1620.54 1217.8C1603.2 1206.21 1583.23 1198.38 1563.25 1192.61C1524.9 1181.54 1485.79 1179.18 1446.52 1190.05C1422.37 1196.74 1404.72 1211.13 1387.96 1229.67C1377.52 1241.2 1366.64 1252.74 1357.92 1265.68Z" fill="#313772"/>
<path fill-rule="evenodd" clip-rule="evenodd" d="M1469.71 1380.58C1469.32 1385.07 1469.02 1389.56 1468.86 1394.07C1468.74 1397.5 1467.57 1402.67 1469.45 1405.75C1471.41 1408.95 1475.97 1409.14 1479.22 1408.95C1496.42 1407.95 1512 1403.21 1525.14 1391.58C1545.36 1373.68 1556.73 1352.12 1563.24 1326.01C1567.81 1307.66 1565.23 1290.13 1553.16 1275.28C1572.66 1266.9 1593.94 1261.12 1615.07 1259.13C1625.5 1258.14 1635.69 1258.46 1646.11 1259.7C1652.78 1260.5 1659.43 1261.45 1666.03 1262.75C1668.89 1263.31 1673.15 1265.17 1675.98 1264.27C1679.31 1263.23 1680.01 1258.78 1677.45 1256.54C1675.32 1254.67 1670.81 1254.58 1668.14 1254C1663.71 1253.04 1659.27 1252.12 1654.8 1251.35C1647.57 1250.1 1640.3 1249.01 1632.98 1248.41C1616.54 1247.05 1599.72 1249.25 1583.68 1252.87C1552.91 1259.81 1524.94 1273 1501.96 1295.31C1487.82 1309.02 1481.14 1325.55 1476.66 1344.57C1473.87 1356.42 1470.77 1368.43 1469.71 1380.58L1413 1319.25Z" fill="#2B316A"/>
<path fill-rule="evenodd" clip-rule="evenodd" d="M1212.07 1125.67C1205.23 1131.2 1198.52 1136.86 1191.97 1142.74C1186.98 1147.22 1178.15 1152.59 1176.35 1159.38C1174.49 1166.44 1180.37 1173.04 1185.01 1177.3C1209.55 1199.85 1237.19 1215.1 1271.21 1217.62C1323.59 1221.51 1369.19 1208.13 1414.65 1181.83C1446.58 1163.35 1467.74 1136.03 1472.37 1099.14C1510.39 1114.91 1547.15 1136.65 1578.39 1163.34C1593.81 1176.51 1607.08 1191.1 1619.36 1207.28C1627.22 1217.64 1634.83 1228.16 1641.89 1239.1C1644.96 1243.85 1648.08 1252.27 1653.14 1255.01C1659.09 1258.22 1666.28 1253.18 1665.99 1246.57C1665.75 1241.07 1659.8 1234.7 1657.03 1230.2C1652.41 1222.74 1647.73 1215.32 1642.8 1208.07C1634.81 1196.32 1626.56 1184.73 1617.57 1173.73C1597.35 1149.03 1571.61 1128.62 1544.94 1111.22C1493.76 1077.84 1437.59 1056.82 1375.3 1055.06C1337.01 1053.98 1304.78 1067.06 1272.03 1086.59C1251.63 1098.74 1230.58 1110.7 1212.07 1125.67Z" fill="#383F85"/>
<path fill-rule="evenodd" clip-rule="evenodd" d="M708.923 916.74C721.077 915.244 734.049 915.772 745.352 920.605C769.386 930.884 776.218 959.491 775.888 982.742C775.533 1007.77 770.258 1035.1 789.143 1055.27C797.825 1064.54 808.623 1071.63 817.148 1081.07C826.256 1091.16 833.403 1102.7 838.695 1115.1C848.411 1137.87 853.18 1164.64 844.295 1188.53C836.472 1209.56 816.79 1228.54 821.043 1252.45C825.479 1277.39 850.44 1296.46 866.047 1315.04C883.708 1336.07 899.97 1362.94 902.642 1390.51C905.203 1416.94 893.786 1443.66 876.265 1463.64C841.257 1503.55 788.634 1523.12 735.575 1523C713.047 1522.95 687.542 1521.92 668.101 1509.73C662.092 1505.96 658.923 1501.73 655.351 1495.85C652.148 1490.57 647.918 1487.14 643.021 1483.41C632.263 1475.22 624.493 1464.18 619.535 1451.81C600.282 1403.8 615.67 1344.4 642.621 1301.76C649.007 1291.65 654.236 1281.93 651.133 1269.89C647.896 1257.32 639.939 1245.99 632.901 1235.18C625.946 1224.5 618.007 1214.32 612.571 1202.77C606.878 1190.68 605.275 1178.01 606.281 1164.77C608.172 1139.91 618.825 1116.97 633.908 1096.97C648.436 1077.71 665.494 1059.28 665.532 1034.04C665.574 1007.29 647.825 983.5 655.386 956.306C658.517 945.045 664.806 933.491 674.94 926.74C684.659 920.265 697.492 918.147 708.923 916.74Z" fill="#4549BD"/>
<path fill-rule="evenodd" clip-rule="evenodd" d="M700.86 960.025C701.087 956.435 705.301 954.282 708.618 955.219C712.985 956.453 712.901 960.575 712.786 964.248C712.432 975.538 714.049 986.509 716.735 997.463C722.317 1020.24 732.634 1041.22 740.808 1063.1C748.974 1084.96 752.807 1107.53 748.017 1130.65C743.5 1152.46 736.405 1173.71 731.783 1195.54C727.71 1214.79 723.375 1235.08 729.579 1254.28C735.548 1272.76 748.747 1287.8 758.25 1304.5C777.924 1339.07 786.653 1377.42 787.82 1416.88C788.361 1435.2 787.874 1453.7 783.666 1471.67C781.245 1482.02 777.991 1496.01 769.214 1503.15C765.166 1506.45 758.244 1507.59 754.838 1502.71C751.64 1498.13 754.445 1491.05 755.461 1486.17C759.858 1465.05 760.742 1443.47 759.69 1422.03C758.671 1401.27 756.242 1380.53 749.774 1360.7C743.77 1342.29 734.649 1325.76 723.914 1309.66C712.975 1293.25 701.603 1276.81 697.083 1257.36C692.491 1237.62 696.222 1217.52 701.21 1198.15C706.486 1177.67 713.396 1157.77 720.54 1137.83C727.502 1118.41 729.97 1100.03 726.126 1079.71C718.534 1039.54 698.212 1001.85 700.86 960.025Z" fill="#5F64E0"/>
<path fill-rule="evenodd" clip-rule="evenodd" d="M1031.29 965.747C1046.36 970.336 1061.32 977.741 1072.06 989.353C1094.9 1014.04 1087.89 1051.36 1075.28 1078.62C1061.71 1107.96 1041.15 1137.45 1052.74 1171.11C1058.07 1186.58 1067.03 1200.6 1072.08 1216.19C1077.48 1232.85 1079.81 1250.21 1079.52 1267.6C1078.97 1299.54 1070.5 1333.62 1047.51 1357.15C1027.27 1377.86 994.169 1389.96 986.6 1420.4C978.703 1452.14 998.009 1487.69 1006.58 1517.77C1016.28 1551.81 1021.26 1592.01 1009.91 1625.93C999.036 1658.45 971.578 1684.01 940.495 1698.41C878.389 1727.19 806.282 1722.76 744.007 1694.88C717.568 1683.04 688.14 1668.5 671.709 1643.94C666.631 1636.36 665.13 1629.71 664.023 1620.91C663.031 1613.01 659.863 1606.75 656.07 1599.79C647.737 1584.5 644.413 1567.41 645.084 1550.24C647.697 1483.52 696.993 1421.49 751.064 1385.28C763.876 1376.71 775.127 1367.97 777.81 1352.14C780.612 1335.62 777.221 1318.09 774.63 1301.66C772.071 1285.43 768.096 1269.26 767.777 1252.8C767.445 1235.56 772.217 1219.78 780.355 1204.69C795.642 1176.35 820.217 1154.85 848.446 1139.14C875.636 1124.02 905.362 1111.19 918.669 1081.44C932.775 1049.91 924.426 1012.56 947.601 984.432C957.197 972.785 970.657 962.443 986.112 959.777C1000.93 957.22 1017.12 961.43 1031.29 965.747Z" fill="#363AAC"/>
<path fill-rule="evenodd" clip-rule="evenodd" d="M1000.75 1017.46C1002.89 1013.33 1008.97 1013.02 1012.39 1015.88C1016.89 1019.65 1014.64 1024.49 1012.58 1028.77C1006.28 1041.95 1002.46 1055.79 999.905 1070.17C994.594 1100.08 995.789 1130.38 993.995 1160.59C992.203 1190.79 984.941 1219.53 967.237 1244.36C950.545 1267.78 931.114 1289.17 914.284 1312.57C899.45 1333.19 883.761 1354.91 881.048 1380.92C878.434 1405.94 886.116 1430.74 888.59 1455.53C893.711 1506.86 883.978 1556.86 864.765 1604.19C855.842 1626.16 845.621 1647.79 831.294 1666.83C823.045 1677.8 811.919 1692.63 797.863 1696.44C791.381 1698.2 782.64 1695.88 781.177 1688.31C779.8 1681.2 786.798 1674.3 790.538 1669.06C806.727 1646.4 819.025 1621.33 828.971 1595.4C838.606 1570.28 846.564 1544.45 849.298 1517.56C851.834 1492.59 849.725 1468.2 845.491 1443.46C841.177 1418.25 836.373 1392.77 841.196 1367.37C846.093 1341.57 860.965 1319.76 876.941 1299.48C893.837 1278.02 912.35 1258.13 931.156 1238.32C949.481 1219.02 961.972 1198.57 968.054 1172.48C980.07 1120.93 975.819 1065.56 1000.75 1017.46Z" fill="#494DC3"/>
<path fill-rule="evenodd" clip-rule="evenodd" d="M564.43 1155C589.428 1155 611.405 1168.28 626.548 1187.14C644.275 1209.2 647.855 1236.15 655.053 1262.46C658.635 1275.54 664.796 1288.54 675.592 1297.43C685.411 1305.52 697.877 1307.14 709.63 1311.09C733.12 1318.99 752.087 1338.01 759.578 1361.22C768.717 1389.53 759.037 1418.08 760.704 1446.78C762.234 1473.13 788.148 1489.57 808.997 1502.2C829.556 1514.66 848.077 1526.32 854.269 1550.58C860.835 1576.32 863.038 1605.04 853.944 1630.47C838.802 1672.8 794.488 1691.44 751.669 1694.33C712.81 1696.95 663.948 1692.83 634.765 1664.55C617.303 1647.63 610.978 1623.96 611.763 1600.42C612.251 1585.77 615.144 1571.26 618.884 1557.11C621.535 1547.09 625.117 1537.1 626.138 1526.74C628.85 1499.16 603.433 1493.87 581.797 1486.3C554.304 1476.68 535.057 1458.5 521.673 1433.19C509.209 1409.61 503.979 1383.15 511.451 1357.2C515.267 1343.95 522.189 1331.92 531.576 1321.7C535.708 1317.2 541.532 1313.44 545.261 1308.71C548.743 1304.3 547.985 1298.57 546.785 1293.4C541.238 1269.51 523.954 1249.72 517.773 1225.87C512.193 1204.35 515.492 1177.55 535.123 1163.66C543.604 1157.66 554.064 1155.07 564.43 1155Z" fill="#4557BD"/>
<path fill-rule="evenodd" clip-rule="evenodd" d="M598.185 1216.73C624.736 1245.07 631.953 1283.53 634.071 1320.8C635.258 1341.7 634.023 1363.74 640.15 1384.01C645.393 1401.36 657.684 1414.63 670.353 1427.16C695.855 1452.4 724.296 1478.05 731.755 1514.57C736.132 1536 733.177 1558.14 739.225 1579.33C744.724 1598.6 754.406 1617.53 766.183 1633.8C775.665 1646.9 788.018 1656.93 798.383 1669.14C801.545 1672.87 806.075 1678.36 804.77 1683.62C803.243 1689.78 795.408 1691.73 789.85 1690.76C776.89 1688.51 765.981 1676.11 757.507 1667.09C745.117 1653.91 734.587 1639.73 726.029 1623.82C716.529 1606.16 708.879 1587.42 705.61 1567.6C702.218 1547.04 703.907 1525.62 696.161 1505.89C683.128 1472.69 651.516 1453.1 628.66 1427.22C600.183 1394.98 604.43 1354.85 607.347 1315.19C608.949 1293.39 610.542 1268.78 599.551 1248.88C595.356 1241.28 586.002 1234.2 584.198 1225.56C582.546 1217.65 591.564 1209.66 598.185 1216.73Z" fill="#5B6CCA"/>
</g>
<defs>
<clipPath id="clip0">
<rect width="2099" height="2726" fill="white" transform="translate(-119)"/>
</clipPath>
</defs>
</svg>
