<svg width="36" height="36" viewBox="0 0 36 36" fill="none" xmlns="http://www.w3.org/2000/svg">
<path fill-rule="evenodd" clip-rule="evenodd" d="M0 18C0 8.0749 8.0749 0 18 0C27.9251 0 36 8.0749 36 18C36 27.9251 27.9251 36 18 36C8.0749 36 0 27.9251 0 18ZM16.9853 25.6738L28.4517 14.2024C29.1827 13.4711 29.1827 12.2808 28.4521 11.5491C28.0981 11.195 27.6272 11 27.1264 11C26.6253 11 26.1544 11.1953 25.8004 11.5495L15.6833 21.6706L11.2237 17.0464C10.867 16.6766 10.3875 16.4731 9.87397 16.4731C9.38601 16.4731 8.92367 16.6596 8.57235 16.999C7.82819 17.7174 7.80684 18.907 8.52499 19.6515L14.3098 25.6501C14.6569 26.0101 15.1425 26.219 15.6425 26.2233L15.6592 27V26.2233C16.1526 26.2233 16.6363 26.0229 16.9853 25.6738Z" fill="#27CC3C"/>
</svg>
