<svg width="1601" height="835" viewBox="0 0 1601 835" fill="none" xmlns="http://www.w3.org/2000/svg">
<path fill-rule="evenodd" clip-rule="evenodd" d="M1505.62 621.52C1404.64 699.285 1234.42 581.372 1053.66 608.087C942.047 624.583 871.013 655.728 765.093 707.316C703.357 737.384 614.173 777.802 519.063 787.481C372.259 802.42 299.797 777.9 174.42 669.079C49.0434 560.258 291.251 32.3335 291.251 32.3335C291.251 32.3335 1350.92 -9.11972 1561.53 182.252C1643.05 256.315 1618.54 324.676 1621.46 385.209C1626.08 481.087 1591.77 555.174 1505.62 621.52Z" fill="#3F49EA"/>
<path fill-rule="evenodd" clip-rule="evenodd" d="M1513.06 620.737C1420.61 703.612 1244.14 591.99 1064.42 624.997C888.772 657.257 757.992 769.192 578.953 811.709C362.164 863.192 274.863 825.466 145.765 721.087C16.6666 616.708 282.383 76.202 282.383 76.202C282.383 76.202 1339.95 -2.20773 1557.12 181.697C1641.17 252.87 1601.32 314.908 1606.35 375.302C1614.32 470.96 1590.07 551.709 1513.06 620.737Z" fill="#6259E0" fill-opacity="0.08"/>
<path fill-rule="evenodd" clip-rule="evenodd" d="M1526.03 620.796C1420.38 697.276 1196.56 563.892 1017.22 598.702C934.21 614.814 879.983 634.202 805.732 666.524C731.482 698.846 712.642 710.548 635.26 734.458C557.878 758.368 462.017 766.373 391.9 751.461C285.702 728.874 157.708 614.778 31.2205 506.023C-95.2671 397.267 290.701 7.37606 290.701 7.37606C290.701 7.37606 1359.75 -34.0521 1572.24 157.204C1654.47 231.223 1629.75 299.542 1632.7 360.039C1637.36 455.858 1613.11 557.755 1526.03 620.796Z" fill="#fcfcff"/>
</svg>
