<svg width="93" height="93" viewBox="0 0 93 93" fill="none" xmlns="http://www.w3.org/2000/svg">
<path d="M39.354 44.7705C39.354 48.2861 38.6134 50.9106 37.1323 52.644C35.6512 54.3774 33.4092 55.2441 30.4062 55.2441C29.3483 55.2441 28.5467 55.1872 28.0015 55.0732V52.0459C28.6851 52.2168 29.4012 52.3022 30.1499 52.3022C31.4113 52.3022 32.4489 52.1191 33.2627 51.7529C34.0765 51.3786 34.6991 50.7967 35.1304 50.0073C35.5617 49.2098 35.8099 48.1152 35.875 46.7236H35.7285C35.2565 47.4886 34.7113 48.0257 34.0928 48.335C33.4743 48.6442 32.7012 48.7988 31.7734 48.7988C30.2191 48.7988 28.9943 48.3024 28.0991 47.3096C27.2039 46.3086 26.7563 44.9211 26.7563 43.147C26.7563 41.2345 27.2975 39.7249 28.3799 38.6182C29.4704 37.5033 30.9515 36.9458 32.8232 36.9458C34.1416 36.9458 35.2931 37.255 36.2778 37.8735C37.2707 38.492 38.0316 39.3913 38.5605 40.5713C39.0895 41.7432 39.354 43.1429 39.354 44.7705ZM32.8965 39.9731C32.1152 39.9731 31.5049 40.2417 31.0654 40.7788C30.626 41.3159 30.4062 42.089 30.4062 43.0981C30.4062 43.9608 30.6056 44.6444 31.0044 45.1489C31.4032 45.6535 32.0094 45.9058 32.8232 45.9058C33.5882 45.9058 34.2433 45.6576 34.7886 45.1611C35.3338 44.6566 35.6064 44.0788 35.6064 43.4277C35.6064 42.4593 35.3501 41.6414 34.8374 40.9741C34.3328 40.3068 33.6859 39.9731 32.8965 39.9731ZM53.6118 46.0767C53.6118 49.1935 53.0991 51.5007 52.0737 52.998C51.0565 54.4954 49.4858 55.2441 47.3618 55.2441C45.3029 55.2441 43.7485 54.471 42.6987 52.9248C41.6571 51.3786 41.1362 49.0959 41.1362 46.0767C41.1362 42.9272 41.6449 40.6079 42.6621 39.1187C43.6794 37.6213 45.2459 36.8726 47.3618 36.8726C49.4207 36.8726 50.9751 37.6538 52.0249 39.2163C53.0828 40.7788 53.6118 43.0656 53.6118 46.0767ZM44.8838 46.0767C44.8838 48.2658 45.071 49.8364 45.4453 50.7886C45.8278 51.7326 46.4666 52.2046 47.3618 52.2046C48.2407 52.2046 48.8755 51.7244 49.2661 50.7642C49.6567 49.8039 49.8521 48.2414 49.8521 46.0767C49.8521 43.8875 49.6527 42.3169 49.2539 41.3647C48.8633 40.4045 48.2326 39.9243 47.3618 39.9243C46.4748 39.9243 45.84 40.4045 45.4575 41.3647C45.075 42.3169 44.8838 43.8875 44.8838 46.0767ZM58.3604 42.5C58.3604 43.5335 58.4499 44.3066 58.6289 44.8193C58.8161 45.3239 59.1131 45.5762 59.52 45.5762C60.3013 45.5762 60.6919 44.5508 60.6919 42.5C60.6919 40.4655 60.3013 39.4482 59.52 39.4482C59.1131 39.4482 58.8161 39.7005 58.6289 40.2051C58.4499 40.7015 58.3604 41.4665 58.3604 42.5ZM63.7681 42.4756C63.7681 44.3473 63.4059 45.7552 62.6816 46.6992C61.9574 47.6351 60.8953 48.103 59.4956 48.103C58.1528 48.103 57.1152 47.6229 56.3828 46.6626C55.6504 45.6942 55.2842 44.2985 55.2842 42.4756C55.2842 38.7565 56.688 36.897 59.4956 36.897C60.8709 36.897 61.9248 37.3812 62.6572 38.3496C63.3978 39.3099 63.7681 40.6852 63.7681 42.4756ZM72.1665 37.1533L62.2666 55H59.3369L69.2368 37.1533H72.1665ZM70.8604 49.6289C70.8604 50.6624 70.9499 51.4355 71.1289 51.9482C71.3161 52.4528 71.6131 52.7051 72.02 52.7051C72.8013 52.7051 73.1919 51.6797 73.1919 49.6289C73.1919 47.5944 72.8013 46.5771 72.02 46.5771C71.6131 46.5771 71.3161 46.8294 71.1289 47.334C70.9499 47.8304 70.8604 48.5954 70.8604 49.6289ZM76.2681 49.6045C76.2681 51.4681 75.9059 52.8719 75.1816 53.8159C74.4574 54.7518 73.3953 55.2197 71.9956 55.2197C70.6528 55.2197 69.6152 54.7396 68.8828 53.7793C68.1504 52.8109 67.7842 51.4193 67.7842 49.6045C67.7842 45.8854 69.188 44.0259 71.9956 44.0259C73.3709 44.0259 74.4248 44.5101 75.1572 45.4785C75.8978 46.4388 76.2681 47.8141 76.2681 49.6045Z" fill="#272FCC"/>
<circle cx="46.1268" cy="46.1497" r="38.1497" stroke="#9B9DC6" stroke-width="7.722"/>
<path d="M23.7637 77.0405C30.0782 81.6025 37.8597 84.2994 46.2973 84.2994C67.1984 84.2994 84.277 67.2192 84.277 46.3163C84.277 25.0802 67.1984 8 46.2973 8" stroke="#363AAC" stroke-width="7.722" stroke-linecap="round" stroke-linejoin="round"/>
<path d="M17.3203 20.6998C12.2253 26.5927 8.86051 34.1095 8.12512 42.515C6.30347 63.3365 21.8302 81.8388 42.6536 83.6606C63.8088 85.5115 82.3126 69.9864 84.1342 49.165" stroke="#363AAC" stroke-width="7.722" stroke-linecap="round" stroke-linejoin="round"/>
<mask id="mask0" style="mask-type:alpha" maskUnits="userSpaceOnUse" x="2" y="15" width="91" height="77">
<path fill-rule="evenodd" clip-rule="evenodd" d="M19.3203 20.6998C14.2253 26.5927 10.8605 34.1095 10.1251 42.515C8.30347 63.3365 23.8302 81.8388 44.6536 83.6606C65.8088 85.5115 84.3126 69.9864 86.1342 49.165" fill="white"/>
<path d="M19.3203 20.6998C14.2253 26.5927 10.8605 34.1095 10.1251 42.515C8.30347 63.3365 23.8302 81.8388 44.6536 83.6606C65.8088 85.5115 84.3126 69.9864 86.1342 49.165" stroke="white" stroke-width="7.722" stroke-linecap="round" stroke-linejoin="round"/>
</mask>
<g mask="url(#mask0)">
</g>
</svg>
