<svg width="100" height="93" viewBox="0 0 100 93" fill="none" xmlns="http://www.w3.org/2000/svg">
<path fill-rule="evenodd" clip-rule="evenodd" d="M0 76.6886H6.46349V35H31.1444C29.8558 37.3372 28.4883 39.6459 27.0926 41.9194H13.7803V76.6886H86.2197V41.9194H73.9196C72.416 39.6497 70.9024 37.355 69.5363 35H93.5365V76.6886H100V93H0V76.6886ZM41.8285 26.5604C42.5638 20.3472 41.8285 12.4819 41.8285 6H60.2132C60.0036 13.9672 58.5721 25.2544 61.6103 32.5337C63.2732 36.4862 66.7835 40.2068 68 44.0088C58.9405 44.0088 49.882 44.0365 40.823 43.9629C38.2824 43.9423 38.4935 44.2626 37.1559 46.3259C33.2812 52.3034 27.6917 58.9822 33.0536 66C24.1713 65.0807 25.0539 59.2279 28.2562 52.9191C32.7477 44.0719 40.7349 36.7697 41.8285 26.5604ZM25.1141 51.3092C20.4987 58.6484 20.0185 69.3864 30.6069 70.6545C37.3855 71.5965 45.0779 70.3134 52.0026 70.3134C63.2248 70.3134 69.4608 70.2114 70.7117 70.0072C80.8069 68.3511 81.943 60.2721 77.607 52.4501C73.7065 45.4472 65.7519 35.7677 64.2384 28.7116C62.747 21.8829 61.8361 10.7626 65.1176 4.30932C67.9848 -1.32919 54.7401 0.156154 52.149 0.231631C47.9892 0.352587 44.2679 -0.0514079 39.8685 0.273724C37.8292 0.424678 35.3568 0.496768 36.4035 3.56036C36.9389 4.75057 37.7356 6.29446 37.9925 7.54516C38.888 12.8411 38.888 19.4308 37.9925 27.2983C37.3466 32.335 28.8686 45.631 25.1141 51.3092Z" fill="#272FCC"/>
</svg>
