<svg width="61" height="90" viewBox="0 0 61 90"
  xmlns="http://www.w3.org/2000/svg">
  <path fill-rule="evenodd" clip-rule="evenodd" d="M60.557 23.557C60.557 23.557 60.5532 23.5631 60.5456 23.5746L60.557 23.557ZM51.711 24.866C58.2015 26.8316 60.3725 23.8333 60.5456 23.5746C60.3337 23.899 57.2012 28.6307 53.134 31.134C54.286 31.698 55.425 32.471 56.481 33.529C53.146 36.475 48.438 36.119 45.536 34.549V82.782C45.536 86.633 42.403 89.768 38.548 89.768H8.45398C4.60298 89.768 1.46598 86.634 1.46598 82.782V29.467H1.17198C0.916984 29.467 0.708984 29.258 0.708984 29.005V26.635C0.708984 26.377 0.916984 26.17 1.17198 26.17H1.46598V22.384H1.17198C0.916984 22.384 0.708984 22.175 0.708984 21.922V19.549C0.708984 19.293 0.916984 19.087 1.17198 19.087H1.46598V12.939H1.17198C0.916984 12.939 0.708984 12.733 0.708984 12.474V8.927C0.708984 8.67 0.916984 8.463 1.17198 8.463H1.46598V7.63C1.46598 3.777 4.60198 0.643 8.45398 0.643H29.402V0.464C29.402 0.212 29.609 0 29.864 0H36.956C37.211 0 37.42 0.212 37.42 0.464V0.642H38.548C42.403 0.642 45.536 3.776 45.536 7.629V26.075C46.849 24.829 48.816 23.989 51.711 24.866ZM26.413 7.528H19.998C19.515 7.528 19.123 7.868 19.123 8.289C19.123 8.71 19.516 9.051 19.998 9.051H26.413C26.895 9.051 27.288 8.709 27.288 8.289C27.288 7.869 26.895 7.528 26.413 7.528ZM16.663 7.553C17.072 7.553 17.401 7.883 17.401 8.289C17.401 8.696 17.074 9.026 16.663 9.026C16.257 9.026 15.926 8.696 15.926 8.289C15.926 7.882 16.26 7.553 16.663 7.553ZM18.878 81.403C18.878 83.795 20.819 85.731 23.207 85.731C25.598 85.731 27.535 83.795 27.536 81.403C27.536 79.014 25.598 77.075 23.207 77.075C20.819 77.075 18.878 79.014 18.878 81.403ZM42.882 73.535H3.53398V36.988H42.882V73.535ZM13.155 26.266C12.54 26.846 12.151 27.662 12.151 28.575C12.151 30.329 13.574 31.75 15.328 31.75C17.075 31.75 18.49 30.342 18.504 28.599L13.155 26.266ZM27.538 28.6L32.885 26.267C33.499 26.846 33.888 27.663 33.888 28.575C33.888 30.329 32.466 31.751 30.713 31.751C28.968 31.75 27.552 30.342 27.538 28.6ZM3.53398 22.314H42.882V14.511H3.53398V22.314Z" />
</svg>
