<svg width="103" height="88" viewBox="0 0 103 88"
  xmlns="http://www.w3.org/2000/svg">
  <path fill-rule="evenodd" clip-rule="evenodd" d="M44.1429 7.33333H0V5.5C0 2.46243 2.47043 0 5.51786 0H38.625C41.6724 0 44.1429 2.46243 44.1429 5.5V7.33333ZM23.9107 1.83333H20.2321V5.5H23.9107V1.83333Z" />
  <path d="M51.5 33.1484V40.0473L55.8867 36.6464L51.5 33.1484Z"/>
  <path d="M51.5 47.9526V54.8515L55.8867 51.3535L51.5 47.9526Z"/>
  <path fill-rule="evenodd" clip-rule="evenodd" d="M51.4999 20.1666C60.6421 20.1666 68.0534 27.5539 68.0534 36.6666V51.3333C68.0534 60.446 60.6421 67.8333 51.4999 67.8333C42.3576 67.8333 34.9463 60.446 34.9463 51.3333V36.6666C34.9463 27.5539 42.3576 20.1666 51.4999 20.1666ZM41.1741 48.0516L43.4328 50.9483L47.8213 47.5456V62.4818L61.8274 51.3131L52.3938 44L61.8274 36.6868L47.8213 25.5181V40.4543L43.4328 37.0516L41.1741 39.9483L46.4032 44L41.1741 48.0516Z" />
  <path fill-rule="evenodd" clip-rule="evenodd" d="M58.8569 80.6666H103V82.5C103 85.5375 100.529 88 97.4819 88H64.3748C61.3274 88 58.8569 85.5375 58.8569 82.5V80.6666ZM71.7319 86.1666H75.4105V82.5H71.7319V86.1666ZM82.7676 86.1666H79.0891V82.5H82.7676V86.1666ZM86.4462 86.1666H90.1248V82.5H86.4462V86.1666Z"/>
  <path fill-rule="evenodd" clip-rule="evenodd" d="M0 80.6666H44.1429V82.5C44.1429 85.5375 41.6724 88 38.625 88H5.51786C2.47043 88 0 85.5375 0 82.5V80.6666ZM12.875 86.1666H16.5536V82.5H12.875V86.1666ZM23.9107 86.1666H20.2321V82.5H23.9107V86.1666ZM27.5893 86.1666H31.2679V82.5H27.5893V86.1666Z" />
  <path fill-rule="evenodd" clip-rule="evenodd" d="M31.2679 51.3333C31.2813 59.632 36.3891 67.0768 44.1429 70.0993V77H0V11H44.1429V17.9007C36.3891 20.9232 31.2813 28.368 31.2679 36.6667V51.3333ZM14.8577 60.8942C15.6004 61.5844 16.7638 61.5442 17.4567 60.8043C18.1492 60.0641 18.1088 58.9045 17.3665 58.2138C13.3358 54.5806 11.036 49.4168 11.036 44C11.036 38.5832 13.3358 33.4194 17.3665 29.7862C18.0817 29.0902 18.1084 27.9522 17.4265 27.2237C16.7446 26.4952 15.6039 26.4429 14.8577 27.1058C10.081 31.4322 7.35759 37.5667 7.35759 44C7.35759 50.4333 10.081 56.5678 14.8577 60.8942ZM23.0371 55.6197C22.3442 56.3596 21.1808 56.3998 20.4381 55.7095C17.129 52.71 15.2425 48.4584 15.2425 44C15.2425 39.5416 17.129 35.29 20.4381 32.2905C21.1843 31.6275 22.325 31.6799 23.0069 32.4084C23.6887 33.1369 23.6621 34.2748 22.9469 34.9708C20.3838 37.2773 18.9209 40.5581 18.9209 44C18.9209 47.4419 20.3838 50.7227 22.9469 53.0292C23.6892 53.7198 23.7296 54.8794 23.0371 55.6197ZM29.0986 49.6179C29.2439 48.9689 29.0253 48.2924 28.5273 47.85C27.4301 46.869 26.8032 45.4692 26.8032 44C26.8032 42.5308 27.4301 41.131 28.5273 40.15C29.0525 39.7149 29.2926 39.0256 29.1509 38.3598C29.0093 37.6939 28.5092 37.1611 27.8521 36.9759C27.195 36.7907 26.489 36.9837 26.0185 37.477C24.1778 39.151 23.1289 41.52 23.1289 44.0037C23.1289 46.4874 24.1778 48.8563 26.0185 50.5303C26.4958 50.9948 27.188 51.1653 27.8275 50.9759C28.4669 50.7865 28.9533 50.2668 29.0986 49.6179Z" />
  <path fill-rule="evenodd" clip-rule="evenodd" d="M97.4819 0C100.529 0 103 2.46243 103 5.5V7.33333H58.8569V5.5C58.8569 2.46243 61.3274 0 64.3748 0H97.4819ZM79.0891 5.5H82.7676V1.83333H79.0891V5.5Z" />
  <path fill-rule="evenodd" clip-rule="evenodd" d="M58.8569 11H103V77H58.8569V70.0993C66.6107 67.0768 71.7185 59.632 71.7319 51.3333V36.6667C71.7185 28.368 66.6107 20.9232 58.8569 17.9007V11ZM74.0205 49.8592C74.297 50.558 74.9732 51.0179 75.7269 51.0198C76.1931 51.0187 76.6414 50.8411 76.9813 50.523C78.822 48.849 79.8709 46.48 79.8709 43.9963C79.8709 41.5126 78.822 39.1437 76.9813 37.4697C76.504 37.0052 75.8118 36.8347 75.1723 37.0241C74.5329 37.2135 74.0465 37.7332 73.9012 38.3821C73.7559 39.0311 73.9745 39.7076 74.4725 40.15C75.5697 41.131 76.1966 42.5308 76.1966 44C76.1966 45.4692 75.5697 46.869 74.4725 47.85C73.9231 48.3642 73.744 49.1604 74.0205 49.8592ZM81.3073 56.2027C80.5519 56.2024 79.8736 55.7418 79.5967 55.0414C79.3198 54.3409 79.5007 53.5429 80.0529 53.0292C82.616 50.7227 84.0789 47.4419 84.0789 44C84.0789 40.5581 82.616 37.2773 80.0529 34.9708C79.5549 34.5284 79.3363 33.8519 79.4816 33.203C79.6269 32.554 80.1133 32.0344 80.7527 31.8449C81.3922 31.6555 82.0843 31.826 82.5616 32.2905C85.8708 35.29 87.7573 39.5416 87.7573 44C87.7573 48.4584 85.8708 52.71 82.5616 55.7095C82.2212 56.0262 81.7729 56.2025 81.3073 56.2027ZM85.5733 60.7763C86.2552 61.5048 87.3959 61.5571 88.142 60.8942C92.9188 56.5678 95.6422 50.4333 95.6422 44C95.6422 37.5668 92.9188 31.4322 88.142 27.1058C87.6647 26.6413 86.9725 26.4708 86.3331 26.6603C85.6937 26.8497 85.2073 27.3694 85.062 28.0183C84.9167 28.6672 85.1353 29.3437 85.6333 29.7862C89.664 33.4194 91.9638 38.5832 91.9638 44C91.9638 49.4168 89.664 54.5806 85.6333 58.2138C84.9181 58.9099 84.8914 60.0478 85.5733 60.7763Z" />
</svg>
