<svg width="81" height="104" viewBox="0 0 81 104"
  xmlns="http://www.w3.org/2000/svg">
  <path fill-rule="evenodd" clip-rule="evenodd" d="M79.1012 99.4089C80.3169 100.626 81 102.277 81 104H42.1409C42.1409 100.417 45.037 97.5133 48.6095 97.5133H55.1729V81.2373C55.0969 77.7051 54.1788 74.2426 52.4954 71.139C50.3708 70.5633 48.509 69.2711 47.2234 67.4799C35.0397 73.1644 20.8778 72.652 9.13428 66.1018L23.351 51.7742L29.8434 45.2994L44.3918 30.7579L50.8605 24.2832L65.9658 9.18335C74.2078 23.8919 72.8052 42.1303 62.4116 55.3977C64.6384 57.9719 65.3739 61.5203 64.3545 64.7712C68.1101 72.3865 68.0272 78.0296 68.0272 78.0296V97.5133H74.5195C76.2372 97.5101 77.8855 98.1921 79.1012 99.4089ZM55.1018 58.5459C53.309 58.5459 51.8556 60.0033 51.8556 61.8011C51.8529 62.74 52.265 63.6318 52.9811 64.2366C53.9306 65.0742 55.282 65.2749 56.4329 64.7492C57.5837 64.2235 58.3196 63.0693 58.3124 61.8011C58.3238 61.2618 58.193 60.7291 57.9333 60.2567C57.3792 59.2037 56.2891 58.545 55.1018 58.5459Z"/>
  <path d="M13.0322 22.1568C12.6871 22.1532 12.3427 22.1254 12.0015 22.0736L17.9251 37.6011L24.4174 31.1264L20.4604 20.7905L30.5188 24.9962L37.0111 18.5095L22.0006 12.2605C22.0252 12.5332 22.0252 12.8075 22.0006 13.0802C22.0073 18.0634 18.0014 22.1176 13.0322 22.1568Z"/>
  <path d="M10.8874 19.2342C11.5614 19.4709 12.2704 19.5914 12.9844 19.5907C16.3631 19.602 19.1858 17.0128 19.4747 13.6371C19.7637 10.2613 17.4224 7.22763 14.0911 6.66144C10.7599 6.09525 7.55243 8.18585 6.71597 11.4685C5.87951 14.7512 7.69367 18.1285 10.8874 19.2342Z"/>
  <path d="M28.8719 42.6859L41.8328 29.7126L48.3014 23.2022L64.5796 6.89056C63.8093 5.64497 62.9543 4.45412 62.0206 3.32648C61.098 2.16144 60.1091 1.05077 59.0588 0L39.5818 19.5668L33.0895 26.0535L25.4243 33.74L18.9557 40.2148L0 59.2232C0.533129 59.7578 1.06626 60.2687 1.63493 60.7558C2.03882 61.1496 2.4661 61.5186 2.91444 61.8606C3.26986 62.1695 3.62527 62.4784 4.00439 62.7635L5.0351 63.5239C5.61562 63.9634 6.21983 64.3793 6.82405 64.7119L22.3796 49.1606L28.8719 42.6859Z"/>
</svg>
