<svg width="64" height="123" viewBox="0 0 64 123"
  xmlns="http://www.w3.org/2000/svg">
  <path fill-rule="evenodd" clip-rule="evenodd" d="M16.2227 49.5687C20.8806 45.2847 26.2581 42.8027 31.9965 42.8027C49.6701 42.8027 63.9954 65.9991 64 94.6152C64 105.101 62.0633 114.844 58.7544 123H5.24791C1.93673 114.844 0 105.101 0 94.6152C0 79.8804 3.81561 66.6144 9.91504 57.1767V10.777C8.293 9.73841 7.21009 7.9272 7.21009 5.85692C7.21009 2.62312 9.83405 0 13.0689 0C16.3037 0 18.9277 2.62312 18.9277 5.85692C18.9277 7.92489 17.8471 9.73841 16.2227 10.777V49.5687ZM45.8266 65.1734C44.2643 63.6089 41.7346 63.6089 40.17 65.1734C38.61 66.7334 38.61 69.2654 40.17 70.83C41.7322 72.39 44.262 72.39 45.8266 70.83C47.3911 69.2654 47.3911 66.7334 45.8266 65.1734ZM32 60C34.2071 60 36 61.7894 36 63.9977C36 66.2106 34.2094 68 32 68C29.7906 68 28 66.2106 28 63.9977C28 61.7894 29.7929 60 32 60ZM24.8297 65.1734C23.267 63.6089 20.7365 63.6089 19.1738 65.1734C17.6087 66.738 17.6087 69.2654 19.1738 70.83C20.7342 72.39 23.2647 72.39 24.8297 70.83C26.3901 69.2654 26.3901 66.738 24.8297 65.1734ZM13 79C13 76.7904 14.7888 75 17.0012 75C19.2089 75 21 76.7904 21 79C21 81.2096 19.2112 83 17.0012 83C14.7888 83 13 81.2096 13 79ZM19.1733 91.83C20.733 93.39 23.2624 93.39 24.8267 91.83C26.3911 90.2654 26.3911 87.7357 24.8267 86.1734C23.2647 84.6089 20.7353 84.6089 19.1733 86.1734C17.6089 87.7357 17.6089 90.2654 19.1733 91.83ZM32 98C29.7929 98 28 96.2106 28 94.0023C28 91.7894 29.7906 90 32 90C34.2094 90 36 91.7894 36 94.0023C36 96.2106 34.2071 98 32 98ZM32 88C33.2659 88 34.3493 87.369 35.0793 86.4492C36.2505 86.5878 37.4633 86.2643 38.3642 85.3675C39.2605 84.4661 39.5816 83.2573 39.443 82.0901C40.3694 81.3552 41 80.2712 41 79.0023C41 77.7334 40.367 76.6495 39.4476 75.9191C39.5816 74.7473 39.2651 73.5339 38.3642 72.6371C37.4633 71.7381 36.2551 71.4168 35.0839 71.5532C34.3493 70.6287 33.2728 70 32 70C30.7272 70 29.6484 70.6287 28.9184 71.5532C27.7472 71.4168 26.539 71.7381 25.6381 72.6371C24.7372 73.5339 24.4161 74.7473 24.5547 75.9191C23.6283 76.6495 23 77.7334 23 79.0023C23 80.2712 23.6306 81.3552 24.5547 82.0855C24.423 83.2573 24.7372 84.4661 25.6381 85.3675C26.539 86.2643 27.7472 86.5832 28.9184 86.4468C29.6484 87.3713 30.7272 88 32 88ZM45.8268 91.828C44.2626 93.3907 41.7334 93.3907 40.1715 91.828C38.6095 90.2631 38.6095 87.7328 40.1715 86.1702C41.7357 84.6099 44.2649 84.6099 45.8268 86.1702C47.3911 87.7328 47.3911 90.2631 45.8268 91.828ZM43 79C43 81.2096 44.7911 83 46.9988 83C49.2112 83 51 81.2096 51 79C51 76.7904 49.2112 75 46.9988 75C44.7888 75 43 76.7904 43 79Z"/>
</svg>
