<svg width="65" height="120" viewBox="0 0 65 120"
  xmlns="http://www.w3.org/2000/svg">
  <path fill-rule="evenodd" clip-rule="evenodd" d="M48.75 24H52.8125C59.5156 24 65 29.4 65 36V108C65 113.72 60.8969 118.52 55.4531 119.72L52.325 112L48.4656 102.52C47.8563 101 46.3531 100 44.6875 100H20.3125C18.6469 100 17.1437 101 16.5344 102.52L12.675 112L9.54688 119.72C4.10313 118.52 0 113.72 0 108V36C0 30.8 3.4125 26.36 8.125 24.72V10C8.125 4.48 12.675 0 18.2812 0C23.8875 0 28.4375 4.48 28.4375 10V24H40.625V20C40.625 17.7892 42.4422 16 44.6875 16C46.9328 16 48.75 17.7892 48.75 20V24ZM20.3125 92H24.375C26.6094 92 28.4375 90.2 28.4375 88C28.4375 85.8 26.6094 84 24.375 84H20.3125C18.0781 84 16.25 85.8 16.25 88C16.25 90.2 18.0781 92 20.3125 92ZM24.375 80H20.3125C18.0781 80 16.25 78.2 16.25 76C16.25 73.8 18.0781 72 20.3125 72H24.375C26.6094 72 28.4375 73.8 28.4375 76C28.4375 78.2 26.6094 80 24.375 80ZM40.625 92H44.6875C46.9219 92 48.75 90.2 48.75 88C48.75 85.8 46.9219 84 44.6875 84H40.625C38.3906 84 36.5625 85.8 36.5625 88C36.5625 90.2 38.3906 92 40.625 92ZM44.6875 80H40.625C38.3906 80 36.5625 78.2 36.5625 76C36.5625 73.8 38.3906 72 40.625 72H44.6875C46.9219 72 48.75 73.8 48.75 76C48.75 78.2 46.9219 80 44.6875 80ZM16.25 64H48.75C50.9844 64 52.8125 62.2 52.8125 60V40C52.8125 37.8 50.9844 36 48.75 36H16.25C14.0156 36 12.1875 37.8 12.1875 40V60C12.1875 62.2 14.0156 64 16.25 64Z" />
</svg>
