<svg width="105" height="105" viewBox="0 0 105 105"
  xmlns="http://www.w3.org/2000/svg">
  <path fill-rule="evenodd" clip-rule="evenodd" d="M20.585 86.1126C12.3971 88.0989 3.7427 85.0814 0.903278 77.1662C-1.93415 69.253 2.12876 60.5169 10.0703 57.2912C10.3747 51.2101 13.6326 45.8719 18.5125 42.6062L22.7857 48.2187C24.0192 49.8405 26.2158 50.3071 28.002 49.3259C29.7881 48.3468 30.5771 46.2444 29.8722 44.3322L27.8017 38.7096C29.3756 37.0017 31.4081 35.6481 33.803 34.8452C37.988 33.4435 42.3893 34.0262 45.9076 36.0786C47.3954 34.6309 49.2396 33.4796 51.3702 32.7668C56.7166 30.9767 62.4095 32.4244 66.17 36.0325C66.4964 35.8964 66.8328 35.7702 67.1752 35.6561C71.4764 34.2144 76.0059 34.8692 79.5682 37.0637L77.2214 43.4391C76.5165 45.3513 77.3035 47.4538 79.0896 48.4349C80.8758 49.414 83.0724 48.9475 84.3059 47.3276L86.4745 44.4803C90.7397 46.0842 94.2759 49.4201 95.8919 53.9253C96.5627 55.7954 96.843 57.7077 96.777 59.5738C107.149 66.0733 106.294 84.3726 101.927 90.0051C99.4242 93.2368 99.0457 98.8133 98.1266 102.898C97.3897 106.18 84.1157 106.76 82.5478 96.0901C75.4853 96.7709 69.6222 95.7878 65.6634 89.4965C57.2813 96.4646 46.6625 91.3266 44.4238 87.374C36.3641 94.3081 26.2699 93.5512 20.585 86.1126ZM94.1909 0L78 22.712L88.7096 24.8216L81.4046 45L101 18.8282L89.4585 17.7312L94.1909 0ZM12.8071 1L29 23.712L18.2884 25.8216L25.5954 46L6 19.8282L17.5415 18.7292L12.8071 1ZM54.1579 46H57H59.8401L60.9261 51.6855C62.3925 52.212 63.7288 53.0234 64.8758 54.058L70.1579 52.1915L71.579 54.7505L73 57.3074L68.8039 61.1285C68.9458 61.8968 69.0207 62.6897 69.0207 63.499C69.0207 64.3103 68.9458 65.1032 68.8039 65.8715L73 69.6926L71.579 72.2515L70.1579 74.8085L64.8758 72.942C63.7288 73.9766 62.3925 74.788 60.9261 75.3145L59.8401 81H56.998H54.1579L53.0719 75.3145C51.6075 74.788 50.2693 73.9766 49.1222 72.942L43.8401 74.8085L42.4191 72.2495L41 69.6926L45.1941 65.8715C45.0522 65.1032 44.9773 64.3103 44.9773 63.499C44.9773 62.6897 45.0522 61.8968 45.1941 61.1285L41 57.3074L42.4191 54.7485L43.8401 52.1915L49.1222 54.058C50.2693 53.0234 51.6075 52.212 53.0719 51.6855L54.1579 46ZM56.001 57C59.3128 57 62 59.6872 62 62.999C62 66.3128 59.3128 69 56.001 69C52.6872 69 50 66.3128 50 62.999C50 59.6872 52.6872 57 56.001 57Z" />
</svg>
