<svg width="118" height="84" viewBox="0 0 118 84" fill="none" xmlns="http://www.w3.org/2000/svg">
<path d="M116.314 8.4H82.6C81.6729 8.4 80.9143 9.156 80.9143 10.08V18.48H75.8571V3.36C75.8571 1.512 74.34 0 72.4857 0H45.5143C43.66 0 42.1429 1.512 42.1429 3.36V18.48H37.0857V10.08C37.0857 9.156 36.3271 8.4 35.4 8.4H1.68571C0.758571 8.4 0 9.156 0 10.08V36.96C0 37.884 0.758571 38.64 1.68571 38.64H35.4C36.3271 38.64 37.0857 37.884 37.0857 36.96V28.56H42.1429V48.72C42.1429 50.568 43.66 52.08 45.5143 52.08H48.0597C44.6377 55.5072 42.9014 60.0096 42.9014 65.52C42.9014 66.444 43.66 67.2 44.5871 67.2H57.3143V74.2056C57.112 74.2728 56.9266 74.3568 56.7411 74.4576C55.0217 75.3144 53.9429 77.0448 53.9429 78.96C53.9429 81.732 56.2186 84 59 84C61.7814 84 64.0571 81.732 64.0571 78.96C64.0571 77.0448 62.9783 75.3144 61.2757 74.4576C61.0903 74.3568 60.888 74.2728 60.6857 74.2056V67.2H73.4129C74.34 67.2 75.0986 66.444 75.0986 65.52C75.0986 60.0096 73.3623 55.5072 69.9403 52.08H72.4857C74.34 52.08 75.8571 50.568 75.8571 48.72V28.56H80.9143V36.96C80.9143 37.884 81.6729 38.64 82.6 38.64H116.314C117.241 38.64 118 37.884 118 36.96V10.08C118 9.156 117.241 8.4 116.314 8.4Z" fill="#D5D5D5"/>
</svg>
