<svg width="112" height="102" viewBox="0 0 112 102" fill="none" xmlns="http://www.w3.org/2000/svg">
<g clip-path="url(#clip0_44_1023)">
<path d="M55.9707 78.9941C55.5624 78.9946 55.2014 78.7525 55.08 78.3969C54.9586 78.0412 55.1052 77.6548 55.4416 77.4437L63.419 72.444L51.954 78.4841C51.5233 78.7018 50.9814 78.5759 50.717 78.197C50.4526 77.818 50.5571 77.3167 50.9555 77.0527L66.9681 66.8255L46.9481 77.3723C46.5119 77.5986 45.9576 77.469 45.6945 77.0791C45.4314 76.6892 45.5541 76.1792 45.9719 75.9256L57.0866 69.2871L43.8238 76.2724C43.3909 76.4765 42.8588 76.3416 42.6033 75.963C42.3477 75.5845 42.4551 75.0902 42.8495 74.8291L59.6613 64.6716L40.6213 74.7016C40.1847 74.9207 39.6364 74.7875 39.3771 74.3993C39.1177 74.011 39.2391 73.5053 39.6526 73.2515L51.0933 66.5586L38.4043 73.243C37.9666 73.4627 37.4169 73.3281 37.1584 72.938C36.8999 72.5479 37.0246 72.0412 37.4412 71.7895L43.6133 68.2382L36.6196 71.9221C36.1835 72.1528 35.6255 72.0252 35.3602 71.6341C35.095 71.243 35.2188 70.7303 35.6396 70.4771L58.0051 56.9757L34.0933 69.5693C33.6561 69.8014 33.0958 69.6726 32.8312 69.2792C32.5666 68.8859 32.6943 68.3717 33.119 68.1209L53.1985 56.1886L32.044 67.3355C31.608 67.5485 31.0656 67.4135 30.8086 67.028C30.5515 66.6425 30.6694 66.1409 31.0771 65.8854L46.7618 56.7292L30.6821 65.2003C30.2434 65.4247 29.6887 65.2907 29.429 64.8976C29.1694 64.5046 29.2985 63.9944 29.7208 63.7451L39.6097 58.0501L29.5494 63.3507C29.1096 63.5944 28.5365 63.4665 28.2695 63.0651C28.0025 62.6638 28.1427 62.1409 28.5825 61.8972L43.0358 53.4754L28.5546 61.1033C28.1265 61.2924 27.6111 61.1568 27.359 60.7888C27.1069 60.4208 27.199 59.9386 27.5728 59.6702L51.3746 45.2032L27.3865 57.8291C27.1026 57.9876 26.7476 57.9959 26.4552 57.8509C26.1628 57.7058 25.9775 57.4294 25.969 57.1258C25.9605 56.8222 26.1301 56.5376 26.414 56.379L43.0768 46.519L26.9654 55.0054C26.5286 55.2215 25.9828 55.0866 25.7251 54.6989C25.4675 54.3113 25.5886 53.8073 26.0004 53.5536L33.7133 49.086L26.6916 52.7852C26.4087 52.9453 26.0537 52.9554 25.7604 52.8119C25.4671 52.6684 25.28 52.393 25.2695 52.0894C25.2591 51.7859 25.4269 51.5003 25.7098 51.3402L44.5672 39.8057L26.8481 49.1387C26.4134 49.3546 25.8696 49.2226 25.6099 48.8382C25.3502 48.4538 25.4652 47.9511 25.8718 47.6937L36.7816 41.1759L27.2523 46.196C26.8219 46.4167 26.2775 46.2925 26.0114 45.913C25.7453 45.5335 25.85 45.0304 26.25 44.7663L42.5495 34.2722L28.8079 41.5108C28.3737 41.7329 27.8248 41.6043 27.5617 41.2187C27.2986 40.833 27.4142 40.3268 27.8243 40.0692L32.6681 37.101L30.7008 38.138C30.2829 38.3596 29.7487 38.2527 29.4707 37.892C29.1928 37.5312 29.2634 37.0364 29.6333 36.7525L37.1263 30.9725C36.7442 31.0289 36.3638 30.8637 36.1706 30.5577C35.924 30.1534 36.0772 29.6434 36.5152 29.4102L44.9826 24.9494C45.3995 24.736 45.9257 24.8452 46.2006 25.202C46.4754 25.5589 46.4096 26.0477 46.0483 26.3332L38.8161 31.9109L55.4938 23.1202C55.9272 22.9012 56.4727 23.03 56.7352 23.4135C56.9976 23.797 56.8852 24.3008 56.4793 24.5601L51.6541 27.5181L59.3763 23.45C59.8068 23.2294 60.3511 23.3535 60.6172 23.733C60.8833 24.1126 60.7786 24.6156 60.3786 24.8797L44.0772 35.3755L64.6467 24.5346C65.0814 24.3188 65.6252 24.4508 65.8849 24.8352C66.1446 25.2196 66.0296 25.7222 65.623 25.9796L54.6852 32.5144L67.7263 25.6447C68.1612 25.4147 68.7177 25.5411 68.9837 25.9303C69.2498 26.3194 69.1295 26.831 68.7118 27.0863L49.8749 38.6089L71.2623 27.3413C71.7009 27.1126 72.2594 27.2446 72.5212 27.6389C72.783 28.0331 72.6526 28.546 72.2274 28.7948L64.4791 33.2811L73.2669 28.652C73.7057 28.4065 74.2796 28.5321 74.5487 28.9325C74.8177 29.333 74.6801 29.8566 74.2413 30.1021L57.5747 39.9621L75.646 30.4421C76.0811 30.2163 76.634 30.3446 76.898 30.7327C77.162 31.1208 77.0426 31.6298 76.6278 31.8854L52.8259 46.3541L78.3101 32.9241C78.5946 32.7665 78.9497 32.7594 79.2416 32.9055C79.5334 33.0515 79.7177 33.3285 79.725 33.6322C79.7323 33.9359 79.5615 34.22 79.277 34.3776L64.833 42.7994L79.8303 34.8978C80.2691 34.6735 80.8238 34.8075 81.0834 35.2005C81.3431 35.5936 81.2139 36.1037 80.7916 36.353L70.899 42.048L81.168 36.6386C81.6046 36.4195 82.1528 36.5527 82.4122 36.941C82.6716 37.3292 82.5502 37.835 82.1367 38.0887L66.4408 47.2602L82.323 38.8928C82.7603 38.6608 83.3205 38.7896 83.5852 39.1829C83.8498 39.5763 83.722 40.0905 83.2974 40.3412L63.2234 52.2616L83.5507 41.5516C83.9868 41.3209 84.5449 41.4486 84.8101 41.8397C85.0753 42.2308 84.9515 42.7435 84.5307 42.9966L62.1596 56.5031L84.5009 44.734C84.9413 44.4913 85.5139 44.6203 85.7798 45.0222C86.0458 45.424 85.9044 45.9465 85.4641 46.1892L79.2938 49.7354L84.84 46.8148C85.2785 46.5803 85.8422 46.7099 86.1066 47.1061C86.3709 47.5023 86.2384 48.0187 85.8087 48.2666L74.3642 54.9612L85.0859 49.3138C85.5203 49.095 86.0666 49.2253 86.3279 49.6103C86.5893 49.9952 86.474 50.4996 86.0658 50.7571L69.2503 60.9146L84.9536 52.6492C85.3877 52.4387 85.9265 52.5723 86.1841 52.9544C86.4418 53.3365 86.3296 53.8355 85.928 54.0942L74.83 60.7242L84.5624 55.5902C84.9936 55.367 85.5408 55.4911 85.8074 55.8725C86.074 56.2539 85.9665 56.759 85.5628 57.0216L69.5409 67.2522L83.1204 60.0986C83.5521 59.8817 84.0942 60.0091 84.3574 60.3893C84.6205 60.7695 84.5136 61.271 84.1134 61.5334L76.1415 66.5365L81.1493 63.8981C81.571 63.6826 82.1033 63.7971 82.375 64.1619C82.6467 64.5267 82.5675 65.0205 82.1926 65.2989L75.2752 70.2969L75.551 70.1524C75.9933 69.9413 76.5394 70.0859 76.7892 70.4802C77.039 70.8746 76.9038 71.3786 76.4825 71.6229L65.1814 77.5729C64.7597 77.7885 64.2274 77.6739 63.9557 77.3091C63.6841 76.9444 63.7633 76.4506 64.1381 76.1721L71.0481 71.1809L56.4346 78.8802C56.2939 78.9554 56.1337 78.9947 55.9707 78.9941Z" fill="#F3F2D6"/>
<path d="M16.5381 12.3168C16.1663 12.3149 15.8315 12.1114 15.6861 11.7992C15.5408 11.487 15.6127 11.1258 15.8692 10.8803L18.28 8.61933L14.7179 10.4876C14.307 10.7054 13.7824 10.606 13.5004 10.2571C13.2184 9.90818 13.2694 9.42149 13.6187 9.12763L15.532 7.50073L13.7566 8.43573C13.3753 8.63522 12.893 8.56436 12.5996 8.26573C12.3052 7.96805 12.2788 7.52308 12.5363 7.19813L14.6191 4.59033C14.1712 4.72364 13.6847 4.53074 13.4858 4.14097C13.287 3.7512 13.4384 3.28731 13.8385 3.06033L17.4472 1.14613C17.8273 0.947488 18.3077 1.01733 18.6013 1.3139C18.895 1.61048 18.9225 2.05367 18.6675 2.37863L16.6088 4.97453L21.7023 2.29193C22.1134 2.07088 22.641 2.16897 22.9245 2.51915C23.208 2.86933 23.1557 3.35837 22.8034 3.65193L20.89 5.27033L23.1667 4.08033C23.5695 3.86825 24.0821 3.95981 24.3675 4.29486C24.653 4.6299 24.6239 5.10574 24.2994 5.40973L21.8868 7.66903L23.5635 6.78673C23.8522 6.61923 24.2184 6.60967 24.5172 6.76182C24.8159 6.91398 24.9993 7.20336 24.9946 7.51556C24.99 7.82776 24.7982 8.1125 24.495 8.25723L17.0019 12.2029C16.8613 12.2782 16.7011 12.3175 16.5381 12.3168Z" fill="#72F9D8"/>
<path d="M92.0983 12.4971C91.7252 12.4978 91.3876 12.2954 91.2404 11.9826C91.0931 11.6698 91.1646 11.307 91.422 11.0606L93.3018 9.2569L89.7788 11.1116C89.3856 11.3163 88.8881 11.2335 88.5995 10.9152C88.3109 10.5969 88.3149 10.1354 88.6089 9.8213L92.1486 6.0813L88.2009 8.1604C87.8165 8.36339 87.3286 8.29057 87.0351 7.98642C86.7416 7.68228 86.7243 7.23139 86.9936 6.9092L88.9181 4.6142C88.5532 4.64848 88.2001 4.48409 88.0164 4.1943C87.7592 3.78776 87.9118 3.26793 88.3573 3.0332L91.8971 1.1632C92.2797 0.954773 92.7709 1.02638 93.0633 1.3332C93.357 1.63755 93.3741 2.08881 93.1043 2.411L91.3102 4.5513L95.9678 2.0948C96.3655 1.86137 96.8919 1.93697 97.1918 2.27062C97.4918 2.60428 97.4701 3.09008 97.1414 3.4004L93.6017 7.1404L97.9444 4.8556C98.345 4.64667 98.8529 4.73686 99.1384 5.06763C99.4239 5.3984 99.401 5.87006 99.0846 6.1765L97.2085 7.9785L97.8717 7.6283C98.3169 7.39736 98.8828 7.53757 99.1389 7.94221C99.3949 8.34685 99.245 8.8642 98.8033 9.1005L92.564 12.3815C92.4229 12.4572 92.262 12.4971 92.0983 12.4971Z" fill="#8FB7F4"/>
<path d="M17.6223 100.914C17.2388 100.914 16.8943 100.7 16.7543 100.374C16.6143 100.049 16.7074 99.6779 16.9889 99.4402L17.3168 99.1648L15.8636 99.9281C15.4537 100.131 14.9423 100.027 14.667 99.683C14.3917 99.3394 14.4373 98.8629 14.7737 98.5681L16.1114 97.4665L14.3527 98.393C13.9541 98.6017 13.4483 98.514 13.1614 98.1865C12.8745 97.8589 12.8923 97.3894 13.2032 97.0806L16.1207 94.2042L13.6597 95.5013C13.2582 95.7104 12.7494 95.6193 12.4645 95.2872C12.1795 94.9551 12.2045 94.4825 12.5232 94.177L13.8404 92.9241C13.5522 92.7723 13.3747 92.4917 13.3747 92.188C13.3747 91.8844 13.5522 91.6038 13.8404 91.4519L17.449 89.5513C17.8505 89.3422 18.3592 89.4334 18.6442 89.7655C18.9292 90.0976 18.9042 90.5701 18.5855 90.8756L18.4234 91.0286L20.5286 89.9219C20.927 89.7156 21.4307 89.8043 21.7164 90.1311C22.0021 90.4578 21.9851 90.9256 21.6762 91.2343L18.7569 94.1107L22.8331 91.9653C23.243 91.7621 23.7544 91.8669 24.0297 92.2105C24.3051 92.5541 24.2595 93.0305 23.923 93.3253L22.5835 94.4286L23.5932 93.8965C24.0039 93.6819 24.5257 93.7825 24.8062 94.1302C25.0868 94.4779 25.0371 94.9624 24.6906 95.2565L23.8988 95.9246C24.3137 95.9377 24.669 96.1997 24.7701 96.5671C24.8712 96.9346 24.6937 97.3187 24.3347 97.509L18.0862 100.8C17.9455 100.875 17.7853 100.915 17.6223 100.914Z" fill="#F4D88F"/>
<path d="M92.8435 101.04C92.4622 101.04 92.119 100.829 91.9769 100.506C91.8349 100.183 91.9228 99.8143 92.1989 99.5743L92.4634 99.3448L90.8295 100.195C90.4343 100.401 89.9333 100.317 89.6452 99.9949C89.3571 99.673 89.3663 99.2082 89.667 98.896L92.9608 95.496L88.5548 97.8165C88.1403 98.0358 87.611 97.9324 87.3313 97.5774C87.0516 97.2224 87.1126 96.7317 87.4724 96.4429L88.2437 95.8224L88.0872 95.904C87.6914 96.1128 87.1881 96.0287 86.8991 95.7054C86.6102 95.3821 86.621 94.9153 86.9247 94.6035L88.525 92.9562C88.3101 92.8912 88.1291 92.7562 88.0164 92.5771C87.7592 92.1706 87.9118 91.6507 88.3573 91.416L91.8971 89.546C92.2923 89.3395 92.7933 89.4241 93.0814 89.746C93.3695 90.0678 93.3603 90.5326 93.0596 90.8448L92.1281 91.8104L95.3641 90.1104C95.7779 89.8952 96.303 89.9995 96.5813 90.3523C96.8596 90.705 96.8015 91.1925 96.4465 91.4823L95.6734 92.1045L96.9999 91.4058C97.3957 91.1946 97.9012 91.2778 98.1913 91.6018C98.4814 91.9259 98.47 92.3944 98.1642 92.7063L94.8704 96.1063L98.2052 94.3502C98.6139 94.122 99.1457 94.2139 99.4346 94.5628C99.7235 94.9116 99.6752 95.4035 99.323 95.7L98.2779 96.6146C98.6466 96.6976 98.9232 96.9767 98.9769 97.3198C99.0305 97.6629 98.8505 98.0014 98.5219 98.1752L93.3241 100.914C93.1799 100.996 93.0134 101.039 92.8435 101.04Z" fill="#8F95F4"/>
<path d="M8.25319 73.7463C7.88516 73.7462 7.5517 73.5483 7.40227 73.2414C7.25283 72.9345 7.31543 72.5761 7.56201 72.3268L8.30722 71.5805L5.35621 73.136C4.95231 73.3385 4.44684 73.2411 4.1672 72.9068C3.88757 72.5725 3.91784 72.1019 4.2384 71.7998L6.63796 69.6L3.29571 71.3527C2.89875 71.5614 2.39442 71.4757 2.10637 71.1506C1.81831 70.8256 1.83206 70.3576 2.13878 70.0471L5.21648 66.9378L2.45549 68.3896C2.05529 68.5985 1.54786 68.5088 1.26208 68.1786C0.976297 67.8485 0.998147 67.3773 1.31347 67.0704L2.69396 65.7376C2.39149 65.595 2.19833 65.3133 2.19018 65.0027C2.18203 64.6922 2.36019 64.4023 2.65484 64.2467L6.26349 62.3461C6.6637 62.1372 7.17113 62.2269 7.45691 62.5571C7.74269 62.8872 7.72084 63.3584 7.40552 63.6653L7.04969 64.0053L9.41385 62.7609C9.81081 62.5522 10.3151 62.6379 10.6032 62.963C10.8912 63.288 10.8775 63.756 10.5708 64.0665L7.49681 67.1775L11.7631 64.9284C12.167 64.7259 12.6725 64.8233 12.9521 65.1576C13.2317 65.4919 13.2015 65.9625 12.8809 66.2646L10.4795 68.4746L12.4841 67.4189C12.8811 67.2102 13.3854 67.2959 13.6734 67.621C13.9615 67.946 13.9478 68.414 13.641 68.7245L12.1189 70.2545C12.4524 70.3751 12.6804 70.6597 12.705 70.9863C12.7297 71.3128 12.5467 71.6233 12.2345 71.7845L8.71895 73.6324C8.57734 73.707 8.41671 73.7463 8.25319 73.7463Z" fill="#89DC88"/>
<path d="M8.25311 39.7463C7.90492 39.743 7.5878 39.5628 7.43098 39.2791C7.27417 38.9954 7.30384 38.6556 7.5079 38.3982L9.50133 35.8703L4.40226 38.5563C3.98673 38.7771 3.45526 38.673 3.17562 38.3161C2.89598 37.9591 2.96008 37.4666 3.32357 37.1793L4.17311 36.4993L3.09069 37.0688C2.68198 37.297 2.15018 37.2051 1.86129 36.8562C1.5724 36.5074 1.62067 36.0154 1.97289 35.719L3.99612 33.951L2.3902 34.801C1.99534 35.0076 1.49469 34.9235 1.20626 34.6022C0.917831 34.2809 0.926102 33.8165 1.22582 33.5039L2.86713 31.8039C2.50698 31.7108 2.24283 31.4301 2.19651 31.0912C2.15018 30.7523 2.33067 30.421 2.65475 30.2501L6.26341 28.3495C6.65827 28.1429 7.15892 28.2269 7.44735 28.5482C7.73578 28.8695 7.72751 29.334 7.42779 29.6466L6.36401 30.7499L9.73234 28.9768C10.1411 28.7485 10.6729 28.8405 10.9617 29.1893C11.2506 29.5382 11.2024 30.0301 10.8501 30.3266L8.82692 32.0895L11.5767 30.6411C11.9923 30.4202 12.5237 30.5243 12.8034 30.8813C13.083 31.2382 13.0189 31.7308 12.6554 32.0181L11.8077 32.6981L12.3555 32.4108C12.7356 32.2121 13.216 32.282 13.5096 32.5785C13.8032 32.8751 13.8308 33.3183 13.5757 33.6433L11.5264 36.229C11.9357 36.121 12.3727 36.2834 12.5828 36.6217C12.84 37.0282 12.6873 37.548 12.2418 37.7828L8.71886 39.6324C8.57726 39.707 8.41662 39.7463 8.25311 39.7463Z" fill="#F57A7A"/>
<path d="M102.06 73.4606C101.692 73.4605 101.358 73.2626 101.209 72.9557C101.059 72.6488 101.122 72.2904 101.369 72.0411L104.422 68.9522L100.113 71.22C99.7033 71.4206 99.1943 71.3148 98.9202 70.9722C98.646 70.6295 98.6908 70.1549 99.025 69.86L100.307 68.8111L99.3752 69.3041C98.9892 69.5101 98.4972 69.4368 98.2032 69.1294C97.9091 68.822 97.8959 68.3673 98.1717 68.0461L100.063 65.8242C99.71 65.8474 99.3745 65.6824 99.202 65.4009C98.9447 64.9944 99.0974 64.4745 99.5429 64.2398L103.083 62.3698C103.468 62.1656 103.958 62.2392 104.252 62.5455C104.545 62.8518 104.559 63.3048 104.286 63.6261L102.555 65.6661L107.096 63.2759C107.505 63.0753 108.014 63.1811 108.288 63.5237C108.562 63.8664 108.518 64.341 108.184 64.6359L106.9 65.6882L108.601 64.7923C108.998 64.5836 109.502 64.6693 109.79 64.9944C110.078 65.3194 110.065 65.7874 109.758 66.0979L106.699 69.1902L109.272 67.8302C109.56 67.6759 109.917 67.6745 110.207 67.8264C110.496 67.9783 110.675 68.2603 110.674 68.5654C110.673 68.8704 110.494 69.1516 110.203 69.3024L102.526 73.3484C102.384 73.4224 102.223 73.4611 102.06 73.4606Z" fill="#F4A18F"/>
<path d="M105.057 39.7682C104.686 39.7691 104.349 39.5687 104.201 39.2581C104.052 38.9476 104.12 38.5863 104.373 38.3385L104.891 37.8285L102.3 39.1885C101.896 39.391 101.391 39.2935 101.111 38.9593C100.831 38.625 100.862 38.1544 101.182 37.8523L103.604 35.6168L100.23 37.4001C99.834 37.6088 99.3303 37.5241 99.0417 37.2003C98.753 36.8764 98.7648 36.4093 99.0695 36.0979L102.192 32.9155L99.3191 34.4285C98.9195 34.6423 98.4084 34.5556 98.1196 34.225C97.8308 33.8945 97.8522 33.4205 98.1697 33.1127L99.5855 31.7255C99.2779 31.5863 99.0791 31.304 99.0681 30.9909C99.0572 30.6777 99.236 30.3844 99.5334 30.2278L103.073 28.3578C103.472 28.149 103.978 28.2373 104.265 28.5654C104.551 28.8936 104.533 29.3636 104.221 29.6719L103.768 30.1156L106.307 28.7794C106.703 28.5729 107.204 28.658 107.492 28.9805C107.78 29.303 107.77 29.7681 107.468 30.0799L104.344 33.264L108.722 30.9588C109.126 30.7461 109.64 30.8391 109.925 31.1763C110.21 31.5134 110.177 31.9908 109.849 32.2933L107.416 34.5271L109.337 33.5173C109.736 33.3061 110.244 33.3933 110.532 33.7223C110.82 34.0513 110.8 34.523 110.486 34.8314L109.044 36.2441C109.359 36.3783 109.565 36.661 109.58 36.9776C109.595 37.2941 109.416 37.5919 109.115 37.7503L105.523 39.6424C105.383 39.7217 105.222 39.7651 105.057 39.7682Z" fill="#E68FF4"/>
<path d="M24.7205 51.1142C24.9056 66.6159 38.7599 79.0788 55.749 79.0265C72.7854 78.8659 86.6253 66.4279 87.0606 50.8864C86.3415 35.4606 73.401 22.8857 56.0321 22.9741C38.968 23.0735 25.0893 35.5465 24.7205 51.1142ZM57.9753 24.7285C73.1774 25.9185 83.7109 37.6757 84.3369 51.1142C83.6476 65.9314 70.8841 78.6032 53.8058 77.2721C38.934 75.8916 27.5792 64.5264 27.4442 50.8864C27.4703 36.008 41.3963 23.4382 57.9753 24.7285Z" fill="#262626"/>
<path d="M86.3433 94.4047H81.9149C79.5153 94.4047 75.9048 95.0439 73.6021 94.4047C71.2994 93.7655 72.1527 90.3757 72.1527 88.6128V82.469C76.4073 80.6351 80.2843 78.1468 83.6139 75.1131C84.7858 74.0472 82.1682 73.7718 81.3783 74.4875C78.1575 77.4322 74.3727 79.8135 70.2114 81.5136C70.1947 81.5136 70.1872 81.5289 70.1704 81.5374C70.0169 81.5972 69.8743 81.678 69.7475 81.7771C69.7311 81.7898 69.7156 81.8034 69.701 81.8179C69.6209 81.8887 69.5575 81.9738 69.5147 82.0678C69.5074 82.0837 69.5018 82.1002 69.4979 82.1171C69.4681 82.1704 69.448 82.2278 69.4383 82.2871V90.0357C69.4383 92.0757 68.7098 95.1799 71.4876 95.8837C73.9603 96.2066 76.4677 96.2448 78.9508 95.9976H86.2985C86.7365 99.0606 89.6479 101.322 93.0315 101.227C96.7966 101.223 99.9034 98.5372 100.111 95.1068C100.206 87.4602 87.7629 87.6302 86.3433 94.4047ZM93.4376 99.35C90.9337 99.2671 88.9463 97.3981 88.931 95.1119C88.8683 94.0312 89.3051 92.976 90.1352 92.203C90.9652 91.43 92.1125 91.0101 93.2979 91.0455C95.6184 91.3515 97.3477 93.1561 97.3704 95.2955C97.4797 97.396 95.7358 99.1939 93.4376 99.35Z" fill="#262626"/>
<path d="M14.2299 68.8398H23.1593C23.7312 68.8398 24.6963 68.697 24.9236 68.1088C24.9718 67.9839 24.9834 67.8497 24.9571 67.7195C24.9571 67.7042 24.9739 67.6855 24.9571 67.6702C22.9825 64.4873 21.5532 61.0475 20.7187 57.4701C20.5809 56.887 17.8665 57.4837 18.0192 58.1297C18.7623 61.2727 19.9654 64.3101 21.5962 67.1602H14.3044C13.2741 60.0083 0.501316 60.95 0.518083 68.2295C0.519946 75.6823 12.7171 75.2828 14.2299 68.8398ZM7.05912 72.2398C4.79963 71.7435 3.21782 69.8858 3.24926 67.7654C3.15073 66.6006 3.65595 65.461 4.61426 64.6864C5.57257 63.9118 6.87326 63.5916 8.12849 63.8214C10.2188 64.426 11.6467 66.1878 11.6682 68.1887C11.5136 70.3987 9.84619 72.76 7.05912 72.25V72.2398Z" fill="#262626"/>
<path d="M0.517988 34.255C0.465823 41.616 12.771 41.0142 14.2242 34.7106H23.1201C23.6885 34.6566 24.2203 34.429 24.6291 34.0646C24.7586 34.0038 24.8699 33.9151 24.9533 33.8062C27.4362 29.9685 30.7064 26.6035 34.5851 23.8952C35.7141 23.1064 33.0332 23.3138 32.4836 23.6997C28.6999 26.3533 25.4642 29.6006 22.9282 33.2894H14.3248C13.4361 26.1137 0.558974 27.1609 0.517988 34.255ZM8.40227 29.8044C10.3749 30.5649 11.6645 32.3214 11.6849 34.2754C11.4986 36.5653 9.72314 39.1714 6.77399 38.2925C4.6518 37.6209 3.23027 35.7947 3.23426 33.745C3.2324 31.2698 5.45311 28.7725 8.40227 29.8044Z" fill="#262626"/>
<path d="M97.5977 67.1687H89.8606C91.6476 64.1651 92.955 60.9439 93.7431 57.6027C93.8996 56.9346 91.2281 57.3188 91.0678 57.9971C90.286 61.3156 88.9913 64.5158 87.2226 67.5018C87.0549 67.593 86.9241 67.7314 86.85 67.8962C86.7467 68.1221 86.7843 68.3811 86.9485 68.5746C87.1127 68.768 87.3782 68.866 87.6436 68.8312H97.4673C98.4938 75.8675 111.309 74.681 111.254 67.6701C111.222 60.406 99.3191 61.1336 97.5977 67.1687ZM103.211 72.1445C101.308 71.3306 100.09 69.5881 100.083 67.6701C100.243 64.9705 102.76 62.4103 105.879 64.0355C107.546 64.9304 108.568 66.5649 108.563 68.3297C108.556 70.8899 106.114 73.2886 103.211 72.1445Z" fill="#262626"/>
<path d="M97.4786 33.4901H89.3075C88.5399 33.0294 86.4626 33.7451 86.8166 34.3248C90.0101 39.5219 91.7242 45.3669 91.802 51.3248C91.802 51.7855 92.8975 51.7668 93.6893 51.4557H109.031C109.555 51.4557 112.06 50.5343 110.805 50.5343H94.4941C94.3916 44.9437 92.8464 39.4539 89.9837 34.5101H97.4358C98.3486 41.9187 111.177 41.4648 111.276 33.9066C111.386 26.1801 98.6095 26.4964 97.4786 33.4901ZM104.627 38.1804C102.11 38.0782 100.123 36.195 100.105 33.8964C100.037 32.8132 100.47 31.7535 101.3 30.976C102.129 30.1985 103.278 29.7747 104.467 29.8079C106.795 30.1308 108.524 31.9449 108.552 34.0936C108.68 36.2043 106.937 38.0215 104.627 38.1855V38.1804Z" fill="#262626"/>
<path d="M19.1406 40.5063C18.0627 43.6254 17.4523 46.8632 17.326 50.1317H1.99152C0.476894 50.1317 -0.102503 51.8691 1.73443 51.8691H18.5016C19.0344 51.8876 19.5329 51.6295 19.7889 51.2027C19.8965 51.1104 19.9628 50.9851 19.9752 50.8508C20.0123 47.2381 20.6403 43.6506 21.8382 40.2071C22.1456 39.335 19.4368 39.658 19.1406 40.5063Z" fill="#262626"/>
<path d="M63.5941 83.8645C61.4541 84.2273 59.2835 84.419 57.1071 84.4374C56.6574 84.2563 56.1464 84.2495 55.6912 84.4187C53.6282 84.3773 51.5723 84.1846 49.5432 83.8424C48.9098 83.7336 46.5904 84.6703 47.3262 84.7978C49.7057 85.1986 52.1185 85.4119 54.538 85.4353V100.63C54.538 101.381 57.2356 100.922 57.2356 99.9703V85.3724C59.1988 85.2948 61.1538 85.0955 63.0873 84.7757C64.1604 84.5921 65.4906 83.5398 63.5941 83.8645Z" fill="#262626"/>
<path d="M40.3212 6.06234C37.8292 5.70272 35.295 5.65582 32.789 5.92294H25.4748C24.4055 -1.10316 11.7239 -0.0576594 11.6885 7.04664C11.6569 14.3906 23.7776 13.9044 25.378 7.67564H35.3209C36.3896 7.53452 37.4751 7.53452 38.5439 7.67564C40.3678 8.31484 39.617 11.8355 39.617 13.3638V19.9394C39.617 21.1668 42.1879 20.8234 42.3239 19.8153C44.22 19.1002 46.1828 18.5426 48.1887 18.1493C48.5073 18.0881 49.7387 17.8773 49.7667 17.4693C49.7946 17.0613 48.9618 17.1582 48.6805 17.2126C46.5274 17.6249 44.4103 18.1805 42.3463 18.8752V11.7046C42.3519 9.70884 42.9928 6.81034 40.3212 6.06234ZM18.2575 11.1385C15.9765 10.591 14.3936 8.7007 14.4141 6.54854C14.4141 4.14474 16.5603 1.68654 19.42 2.59264C21.4645 3.28546 22.8292 5.05671 22.8517 7.04664C22.6915 9.24134 21.0837 11.7182 18.2575 11.1385Z" fill="#262626"/>
<path d="M72.8681 7.71148C73.9746 7.54397 75.1038 7.54397 76.2103 7.71148H86.3116C87.4182 14.6985 100.059 13.6615 100.089 6.55378C100.118 -0.774923 88.0367 -0.315924 86.4047 5.88908H79.5693C77.1958 5.88908 73.9933 5.35188 71.6832 6.08118C68.9315 6.94818 69.4271 9.52028 69.4271 11.6249V19.9311C69.4271 20.5074 69.9692 20.742 70.5691 20.742C74.5232 22.4738 78.127 24.8046 81.2274 27.6355C81.7621 28.1217 84.266 27.2224 83.7611 26.7634C80.4042 23.7099 76.4744 21.2306 72.1583 19.4432V12.8727C72.162 11.5841 71.5248 8.38808 72.8681 7.71148ZM93.5233 2.46528C95.801 3.01159 97.3826 4.89786 97.3648 7.04678C97.3648 9.47948 95.2205 11.8595 92.3589 11.001C90.3094 10.3151 88.9402 8.54223 88.9216 6.55038C89.0893 4.36078 90.699 1.88898 93.5233 2.46528Z" fill="#262626"/>
<path d="M42.3353 82.0063C42.3873 81.8896 42.3495 81.7556 42.2421 81.6765C42.2204 81.6562 42.196 81.6385 42.1695 81.6238C42.1266 81.5949 42.1117 81.5609 42.0484 81.5354C36.9841 79.4624 32.4717 76.4136 28.821 72.5985C28.141 71.8913 25.557 72.8042 26.3264 73.6032C30.0113 77.4495 34.5473 80.5399 39.6358 82.671V88.7672C39.6358 89.998 40.1947 94.0253 39.2166 94.5693C38.6335 94.894 36.6717 94.5693 35.9955 94.5693H25.5235C24.7224 87.2457 11.7167 88.2079 11.698 95.4414C11.6757 102.901 24.1038 102.337 25.4359 95.8307H32.1148C34.5218 95.8307 37.6628 96.3237 40.0102 95.6046C42.7656 94.7546 42.3409 92.5616 42.3409 90.4094L42.3353 82.0063ZM18.2577 99.5129C15.9829 98.9814 14.4 97.1011 14.4236 94.9586C14.292 93.763 14.8077 92.584 15.8053 91.7997C16.8028 91.0153 18.1569 90.7242 19.4333 91.0197C21.4747 91.6953 22.8404 93.4581 22.8575 95.4397C22.6917 97.6497 21.069 100.052 18.2577 99.5129Z" fill="#262626"/>
<path d="M54.5342 1.82939V17.1294C54.5348 17.3036 54.6243 17.4677 54.7764 17.5731C55.0247 17.8431 55.4012 17.9863 55.7861 17.9573C58.1717 17.9772 60.55 18.2008 62.8898 18.6254C64.2871 18.8736 65.5893 17.0563 63.7952 16.735C61.6343 16.3652 59.4446 16.1531 57.2467 16.1009V1.57099C57.2467 0.430292 54.5342 0.894391 54.5342 1.82939Z" fill="#262626"/>
<path d="M45.7212 41.1277L43.592 40.0806C40.3185 45.444 42.4515 52.211 48.3393 55.193L49.473 53.1795C44.7929 50.6821 43.162 45.4338 45.7212 41.1277Z" fill="#FFBF47"/>
<path d="M57.4698 43.7608L55.1458 39.0649C52.9189 39.9801 51.439 41.7844 50.9822 43.8093L54.7002 45.6815C55.5444 44.9376 56.4764 44.2952 57.4698 43.7608Z" fill="#3442D9"/>
<path d="M50.982 43.8092C51.4398 41.7843 52.9187 39.98 55.1456 39.0649L54.2166 37.188C51.5308 38.2912 49.6769 40.3822 48.9329 42.7767L50.982 43.8092Z" fill="#FFBF47"/>
<path d="M58.3574 49.0293C58.3574 48.9343 58.3594 48.8393 58.3645 48.7452C58.5266 45.4583 61.5689 42.8393 65.2023 42.8319C65.2064 42.2179 65.1309 41.8192 65.1309 41.8052C65.1442 41.8052 65.0466 41.778 65.0588 41.778C63.0174 41.7602 61.1113 42.1564 59.2451 42.872C58.6132 43.1142 57.9997 43.3956 57.4075 43.7151C56.6635 44.1167 55.9552 44.5778 55.2917 45.0986C55.0705 45.2719 54.8544 45.4517 54.6435 45.6381L50.9367 43.7626L48.8942 42.7303L45.7215 41.127C43.1205 45.4033 44.8011 50.7957 49.4731 53.178L44.8817 61.1922C46.8191 62.1192 48.8759 62.6148 50.9234 62.7238C56.5962 63.0266 62.2509 60.1273 65.0588 55.2267C61.3304 55.169 58.3574 52.4168 58.3574 49.0293Z" fill="url(#paint0_linear_44_1023)"/>
<path d="M60.1227 52.632C59.0912 51.596 58.4379 50.2395 58.3646 48.7451C58.3595 48.8392 58.3574 48.9342 58.3574 49.0293C58.3574 52.4168 61.3294 55.1699 65.0209 55.2267C65.0606 55.2276 65.0994 55.2276 65.1391 55.2276V54.6584C63.1517 54.6593 61.363 53.8776 60.1227 52.632Z" fill="#FFC14B"/>
<path d="M65.1228 42.831C61.4893 42.8385 58.5276 45.4583 58.3645 48.7452C58.4379 50.2396 59.0912 51.5961 60.1226 52.6321C61.363 53.8777 63.1506 54.6594 65.1391 54.6594V42.8301C65.134 42.8301 65.1289 42.8301 65.1228 42.831Z" fill="white"/>
<path d="M65.0491 50.333C65.0478 53.5977 65.0478 55.2301 65.0491 55.2301C67.6082 55.2273 69.7513 53.5375 70.2613 51.3441L65.0491 50.333Z" fill="#FFAE3A"/>
<path d="M71.4807 44.0126C69.9385 42.7371 67.9323 41.9206 65.7207 41.794C65.5102 41.7838 65.2997 41.7773 65.0891 41.7754C65.0758 41.7754 65.0626 41.7763 65.0503 41.7763C65.0503 41.808 65.0503 50.333 65.0503 50.333L74.3893 52.1429C74.5171 51.5787 74.5856 50.995 74.5856 50.3963C74.5835 47.8659 73.3868 45.5896 71.4807 44.0126Z" fill="#FFC14B"/>
<path d="M41.918 66.3409C45.0044 67.8165 48.8195 66.7337 50.4394 63.9222C50.6704 63.5209 50.8335 63.145 50.952 62.7242C48.8978 62.6153 46.8234 62.1163 44.8826 61.1909L41.918 66.3409Z" fill="#F74868"/>
<path d="M63.0346 49.7947C63.7074 49.7947 64.2529 49.2978 64.2529 48.6849C64.2529 48.072 63.7074 47.5752 63.0346 47.5752C62.3618 47.5752 61.8164 48.072 61.8164 48.6849C61.8164 49.2978 62.3618 49.7947 63.0346 49.7947Z" fill="#383B62"/>
</g>
<defs>
<linearGradient id="paint0_linear_44_1023" x1="54.85" y1="41.127" x2="54.85" y2="62.7454" gradientUnits="userSpaceOnUse">
<stop stop-color="#4E53FF"/>
<stop offset="1" stop-color="#3442D9"/>
</linearGradient>
<clipPath id="clip0_44_1023">
<rect width="111.781" height="102" fill="white"/>
</clipPath>
</defs>
</svg>
