<svg width="93" height="84" viewBox="0 0 93 84" fill="none" xmlns="http://www.w3.org/2000/svg">
<g clip-path="url(#clip0_44_571)">
<path d="M38.3823 16.1001C38.0483 16.1001 37.7527 15.9028 37.6514 15.6124C37.55 15.3219 37.6663 15.0051 37.9389 14.8289L44.8568 10.3489L35.7066 15.1691C35.3493 15.3583 34.892 15.2554 34.6721 14.9363C34.4522 14.6172 34.5487 14.1965 34.8904 13.9847L39.1233 11.3471L35.6759 13.1601C35.3286 13.3434 34.8852 13.2515 34.6587 12.9494C34.4321 12.6472 34.499 12.2368 34.8121 12.0079L42.1504 6.64448L32.971 11.4801C32.6267 11.6602 32.1886 11.5708 31.961 11.2741C31.7335 10.9773 31.7916 10.5712 32.095 10.3377L37.6965 6.05368L32.6473 8.71368C32.3155 8.88833 31.8934 8.81292 31.6583 8.53701C31.4232 8.26109 31.4472 7.86922 31.7145 7.61888L34.9625 4.57248L32.6473 5.79188C32.3335 5.95803 31.9351 5.90092 31.6923 5.65499C31.4495 5.40907 31.4287 5.04156 31.6424 4.77408L32.6734 3.47628C32.3352 3.45818 32.05 3.23979 31.9719 2.93899C31.8937 2.63818 32.041 2.32621 32.3343 2.17148L34.8382 0.851276C35.1519 0.685127 35.5504 0.742232 35.7932 0.988158C36.036 1.23408 36.0568 1.60159 35.8431 1.86908L34.9947 2.93868L38.9853 0.840077C39.3167 0.665547 39.7384 0.740565 39.9737 1.01591C40.209 1.29126 40.1859 1.68272 39.9196 1.93348L36.6686 4.97708L44.5316 0.840077C44.8768 0.652209 45.3224 0.739349 45.5529 1.03981C45.7834 1.34027 45.7207 1.75215 45.4092 1.98388L39.8046 6.26648L50.1147 0.840077C50.462 0.656781 50.9054 0.748633 51.1319 1.05079C51.3584 1.35295 51.2916 1.76335 50.9785 1.99228L43.6432 7.35008L56.0093 0.840077C56.3665 0.650877 56.8238 0.753786 57.0437 1.07287C57.2636 1.39195 57.1671 1.81262 56.8255 2.02448L52.5802 4.66208L58.3536 1.61988C58.7108 1.4115 59.1854 1.50677 59.4138 1.83268C59.6421 2.15858 59.5377 2.5917 59.1806 2.80008L52.2596 7.28008L59.3846 3.52668C59.7372 3.33774 60.1901 3.43429 60.4145 3.74619C60.6388 4.0581 60.5556 4.47573 60.2254 4.69568L54.3722 8.64648L59.4076 5.98648C59.7556 5.80455 60.1985 5.89792 60.4237 6.20072C60.6489 6.50351 60.5806 6.91352 60.2668 7.14148L56.2778 10.0297L59.4015 8.38328C59.7341 8.2165 60.1504 8.29675 60.3807 8.57202C60.611 8.8473 60.586 9.23487 60.322 9.48368L56.9053 12.6393C57.0176 12.6648 57.1224 12.7126 57.2121 12.7793C57.4591 12.9627 57.5562 13.2664 57.4561 13.5423L57.1615 14.3627C57.2692 14.4237 57.3583 14.5084 57.4208 14.6091C57.6326 14.9439 57.5069 15.372 57.14 15.5653L56.3729 15.9671C56.0975 16.1121 55.7525 16.0871 55.5057 15.9041C55.2589 15.7211 55.1614 15.4182 55.2606 15.1425L55.368 14.8471L53.2292 15.9741C52.8966 16.1408 52.4803 16.0606 52.25 15.7853C52.0197 15.51 52.0447 15.1225 52.3087 14.8737L55.1869 12.2305L48.0665 15.9825C47.7185 16.1644 47.2757 16.071 47.0504 15.7682C46.8252 15.4654 46.8935 15.0554 47.2073 14.8275L51.1963 11.9365L43.5006 15.9965C43.148 16.1854 42.695 16.0889 42.4707 15.777C42.2464 15.4651 42.3295 15.0474 42.6598 14.8275L48.5129 10.8725L38.7674 16.0063C38.6503 16.068 38.5175 16.1003 38.3823 16.1001Z" fill="#CAD0D7"/>
<path d="M36.5152 74.8999C36.1769 74.8993 35.8789 74.6967 35.7817 74.401C35.6845 74.1053 35.8111 73.7864 36.0932 73.6161L36.9632 73.0911L35.7097 73.7505C35.3583 73.929 34.9156 73.8297 34.695 73.5228C34.4745 73.216 34.551 72.8058 34.8704 72.5829L43.1661 66.9731L34.3181 71.6323C33.9713 71.8089 33.5341 71.7148 33.3104 71.4153C33.0867 71.1158 33.1505 70.7101 33.4574 70.4801L40.2602 65.5311L32.7424 69.4931C32.3891 69.6812 31.9362 69.5832 31.713 69.2704C31.4898 68.9576 31.5749 68.54 31.9063 68.3213L33.2626 67.4183L32.6489 67.7389C32.311 67.9107 31.8857 67.8261 31.6569 67.5416C31.4281 67.257 31.4672 66.8614 31.7483 66.6189L34.806 64.0709L32.6489 65.2049C32.3431 65.3691 31.9539 65.3205 31.7076 65.0875C31.4613 64.8545 31.4223 64.4977 31.6132 64.2249L32.9664 62.2425C32.62 62.3491 32.2393 62.2179 32.0566 61.9289C31.8456 61.5948 31.9705 61.1678 32.3359 60.9741L34.8398 59.6539C35.1455 59.4897 35.5348 59.5383 35.781 59.7713C36.0273 60.0043 36.0663 60.361 35.8754 60.6339L34.5375 62.5939L40.1421 59.6399C40.48 59.468 40.9052 59.5526 41.1341 59.8372C41.3629 60.1218 41.3237 60.5173 41.0427 60.7599L37.985 63.3121L44.9535 59.6399C45.3068 59.4518 45.7597 59.5498 45.9829 59.8626C46.2061 60.1753 46.1211 60.5929 45.7897 60.8117L44.438 61.7091L48.3718 59.6399C48.7189 59.4601 49.159 59.5531 49.3841 59.8539C49.6092 60.1546 49.5439 60.5626 49.2341 60.7921L42.4251 65.7439L54.0148 59.6399C54.3664 59.4575 54.8129 59.5555 55.035 59.864C55.2571 60.1725 55.1786 60.5854 54.8555 60.8075L46.5706 66.4145L58.2063 60.2853C58.5637 60.1097 59.0091 60.2184 59.2225 60.5334C59.436 60.8484 59.3436 61.2606 59.0118 61.4739L58.1296 62.0059L59.1361 61.4767C59.4935 61.2908 59.948 61.3953 60.1662 61.7135C60.3844 62.0318 60.2887 62.4504 59.9492 62.6625L58.3014 63.6677L59.4015 63.0881C59.7524 62.9046 60.1991 63.0013 60.4224 63.3089C60.6457 63.6166 60.5689 64.0297 60.2469 64.2529L54.8402 67.9951L59.403 65.5927C59.7449 65.4166 60.1773 65.5043 60.405 65.7961C60.6328 66.0879 60.5824 66.4894 60.2883 66.7267L56.2839 69.8879L59.3125 68.2933C59.6238 68.1295 60.0179 68.1848 60.2609 68.4263C60.5038 68.6678 60.5305 69.0309 60.3251 69.2999L57.3809 73.1765C57.3978 73.1975 57.4147 73.2213 57.43 73.2451C57.6418 73.5799 57.5161 74.008 57.1492 74.2013L56.0753 74.7613C55.7644 74.9239 55.3715 74.8684 55.129 74.6277C54.8865 74.387 54.859 74.0251 55.0627 73.7561L57.1124 71.0709L50.081 74.7725C49.7391 74.9486 49.3067 74.8608 49.079 74.5691C48.8512 74.2773 48.9016 73.8757 49.1957 73.6385L53.1939 70.4801L45.021 74.7879C44.6706 74.9699 44.2256 74.8733 44.0025 74.5669C43.7795 74.2604 43.8544 73.8487 44.1741 73.6245L49.5885 69.8767L40.248 74.7963C39.8905 74.9822 39.4361 74.8777 39.2178 74.5594C38.9996 74.2412 39.0953 73.8225 39.4348 73.6105L41.0719 72.6011L36.8926 74.8033C36.7782 74.8651 36.6481 74.8984 36.5152 74.8999Z" fill="#CAD0D7"/>
<path d="M67.6066 45.5002C67.2765 45.5002 66.9833 45.3074 66.8789 45.0215C66.7745 44.7357 66.8822 44.421 67.1464 44.2402L76.9349 37.5916L66.3731 43.1552C66.0158 43.3444 65.5586 43.2415 65.3387 42.9224C65.1188 42.6033 65.2152 42.1826 65.5569 41.9708L67.398 40.8242L64.8205 42.1822C64.4736 42.3644 64.0316 42.2727 63.8051 41.9716C63.5787 41.6705 63.644 41.2611 63.9551 41.0314L70.85 35.9578L63.3645 39.9002C63.0224 40.0791 62.5875 39.9923 62.3585 39.6995C62.1295 39.4067 62.181 39.0031 62.4777 38.7662L67.1326 35.0674L63.3338 37.0694C62.9922 37.253 62.5536 37.1689 62.3219 36.8754C62.0902 36.5819 62.1418 36.1756 62.4408 35.9382L63.7235 34.9008L63.3338 35.1066C63.0189 35.2717 62.6202 35.2127 62.3787 34.9652C62.1371 34.7177 62.1189 34.3495 62.335 34.0832L63.3184 32.8708C62.9901 32.8362 62.7229 32.6137 62.6553 32.3185C62.5878 32.0232 62.735 31.7217 63.0208 31.5702L65.5247 30.25C65.8396 30.0848 66.2382 30.1439 66.4798 30.3914C66.7213 30.6389 66.7396 31.007 66.5235 31.2734L65.7656 32.2072L69.5106 30.2402C69.8516 30.0602 70.2866 30.1451 70.517 30.4366C70.7474 30.7282 70.6984 31.1316 70.4036 31.37L69.1179 32.4102L73.2373 30.2402C73.5794 30.0613 74.0143 30.148 74.2433 30.4409C74.4723 30.7337 74.4208 31.1372 74.1241 31.3742L69.4708 35.0702L78.6425 30.2402C78.9891 30.0613 79.428 30.1542 79.653 30.4539C79.878 30.7537 79.8143 31.1607 79.5063 31.391L72.6129 36.4646L84.4266 30.2402C84.7839 30.051 85.2412 30.1539 85.4611 30.473C85.6809 30.7921 85.5845 31.2127 85.2428 31.4246L83.4017 32.5698L87.5825 30.369C87.9337 30.1881 88.3784 30.2861 88.6003 30.5933C88.8222 30.9005 88.7455 31.3121 88.4248 31.5352L78.6333 38.1866L89.8732 32.2646C90.2279 32.0746 90.6837 32.1737 90.9064 32.4893C91.1291 32.8048 91.0395 33.2244 90.7032 33.4406L85.1799 37.0554L90.1002 34.464C90.4468 34.2851 90.8858 34.378 91.1108 34.6777C91.3358 34.9775 91.272 35.3845 90.964 35.6148L85.453 39.6748L90.1002 37.2262C90.439 37.0382 90.879 37.1168 91.1151 37.4074C91.3512 37.6981 91.3057 38.1051 91.01 38.3462L87.7037 41.2008L89.2748 40.3734C89.5875 40.2095 89.9831 40.2666 90.2253 40.5104C90.4674 40.7543 90.4907 41.1191 90.2813 41.387L88.1594 44.0946C88.3124 44.4206 88.174 44.7995 87.8372 44.9766L87.0701 45.3812C86.7574 45.545 86.3618 45.488 86.1196 45.2441C85.8775 45.0003 85.8542 44.6355 86.0636 44.3676L86.9765 43.2028L82.834 45.3882C82.4951 45.5795 82.0522 45.5021 81.8146 45.2102C81.577 44.9182 81.624 44.5089 81.9227 44.2682L85.2275 41.415L77.6744 45.3938C77.3278 45.5726 76.8888 45.4798 76.6638 45.18C76.4388 44.8803 76.5026 44.4732 76.8106 44.243L82.3247 40.183L72.418 45.4008C72.0643 45.5832 71.6161 45.4823 71.3959 45.1707C71.1757 44.8591 71.26 44.4449 71.588 44.2262L77.1113 40.6142L68.0071 45.4106C67.8853 45.4738 67.7467 45.5049 67.6066 45.5002Z" fill="#CAD0D7"/>
<path d="M6.84583 45.4998C6.51059 45.5003 6.21381 45.3021 6.11298 45.0103C6.01214 44.7186 6.1306 44.4009 6.40551 44.2258L12.9122 40.0734L5.01855 44.2314C4.66503 44.4165 4.21457 44.3171 3.99292 44.0049C3.77128 43.6928 3.85583 43.277 4.18545 43.0582L11.5069 38.2086L3.80036 42.2798C3.44724 42.4711 2.99162 42.3748 2.76676 42.0612C2.5419 41.7476 2.62758 41.328 2.96112 41.1094L7.95356 37.7494L2.2477 40.7552C1.9049 40.941 1.46325 40.8562 1.23157 40.5601C0.999897 40.264 1.05544 39.8553 1.35937 39.6198L7.12814 35.0096L1.96233 37.734C1.61619 37.9177 1.17345 37.8275 0.945723 37.527C0.717992 37.2265 0.781875 36.8167 1.09241 36.586L2.29373 35.683L1.96233 35.858C1.65657 36.0222 1.26733 35.9736 1.02108 35.7406C0.774824 35.5076 0.7358 35.1508 0.926712 34.878L2.30753 32.8242C1.93297 32.9584 1.5084 32.8057 1.33492 32.4744C1.16144 32.1431 1.29803 31.7458 1.64781 31.5642L4.1517 30.244C4.45752 30.0784 4.84798 30.1263 5.09502 30.3597C5.34206 30.5931 5.3809 30.9509 5.18885 31.224L3.8157 33.2652L9.56605 30.2398C9.91174 30.0571 10.3532 30.1471 10.5809 30.4466C10.8085 30.7462 10.7462 31.155 10.4375 31.3864L9.23159 32.2922L13.1286 30.2398C13.4702 30.0615 13.9043 30.148 14.1333 30.44C14.3624 30.732 14.3121 31.1349 14.0169 31.3724L8.24967 35.9798L19.1428 30.2398C19.4959 30.0485 19.9516 30.1448 20.1764 30.4584C20.4013 30.772 20.3156 31.1916 19.9821 31.4102L14.9958 34.759L23.5799 30.2398C23.9334 30.0547 24.3838 30.1541 24.6055 30.4663C24.8271 30.7784 24.7426 31.1942 24.413 31.413L17.0808 36.2598L27.4293 30.7998C27.7855 30.6068 28.2454 30.7067 28.468 31.0256C28.6905 31.3445 28.5955 31.767 28.2532 31.98L21.7464 36.1338L28.5846 32.5302C28.9391 32.3366 29.398 32.434 29.6225 32.7505C29.847 33.067 29.7565 33.489 29.4177 33.7048L23.8652 37.3798L28.7227 34.8206C29.077 34.6225 29.5399 34.718 29.7664 35.0359C29.993 35.3538 29.901 35.7785 29.5588 35.9938L27.1562 37.5856L28.7257 36.7596C29.0608 36.5808 29.4895 36.6587 29.724 36.9409C29.9586 37.2231 29.9252 37.6207 29.6463 37.867L25.7079 41.3754L28.2455 40.0398C28.5597 39.8757 28.9569 39.9345 29.1983 40.1807C29.4396 40.427 29.4594 40.7937 29.2458 41.0604L26.791 44.1068C26.9278 44.429 26.7864 44.7941 26.4581 44.9664L25.691 45.3682C25.3767 45.5322 24.9796 45.4735 24.7382 45.2273C24.4969 44.981 24.477 44.6143 24.6907 44.3476L25.8383 42.9224L21.1834 45.3738C20.8488 45.5499 20.4228 45.4715 20.1892 45.1908C19.9556 44.9101 19.9871 44.5147 20.2628 44.2678L24.2012 40.758L15.4177 45.385C15.0644 45.5731 14.6115 45.4751 14.3883 45.1623C14.1651 44.8495 14.2501 44.432 14.5815 44.2132L16.9918 42.6116L11.7125 45.392C11.3589 45.5771 10.9085 45.4776 10.6868 45.1655C10.4652 44.8534 10.5498 44.4376 10.8794 44.2188L16.4272 40.5564L7.22172 45.4018C7.10806 45.4641 6.9784 45.4979 6.84583 45.4998Z" fill="#CAD0D7"/>
<path d="M45.7208 52.3797C45.3959 52.38 45.106 52.1936 44.9971 51.9143C44.8881 51.635 44.9838 51.3234 45.2359 51.1365L47.2305 49.6609L43.9671 51.3801C43.6221 51.5586 43.1848 51.4677 42.9585 51.1704C42.7323 50.8731 42.7917 50.4675 43.0957 50.2349L47.5619 46.872L41.5077 50.0613C41.1618 50.2475 40.717 50.1588 40.4878 49.8578C40.2587 49.5568 40.3227 49.1455 40.6347 48.9146L47.6033 43.6674L38.5098 48.4596C38.1587 48.6406 37.714 48.5426 37.4921 48.2353C37.2702 47.9281 37.3468 47.5165 37.6675 47.2934L43.6403 43.2194L37.2625 46.5794C36.9142 46.759 36.4733 46.6643 36.2494 46.3618C36.0255 46.0594 36.0938 45.6508 36.4063 45.423L43.0941 40.6266L37.2532 43.7066C36.8993 43.8972 36.4437 43.7995 36.2199 43.4849C35.9962 43.1704 36.0838 42.7509 36.4186 42.5334L38.0894 41.4246L37.2532 41.8642C36.9018 42.0493 36.4532 41.9527 36.2296 41.6437C36.0061 41.3347 36.0848 40.9203 36.4094 40.698L37.8731 39.697L37.2594 40.0232C36.9155 40.2026 36.4784 40.1135 36.2509 39.8176C36.0233 39.5217 36.08 39.1164 36.3818 38.8822L39.0391 36.8396L37.7427 37.52C37.3761 37.7102 36.91 37.5948 36.6992 37.2615C36.4883 36.9283 36.6118 36.5022 36.9755 36.3076L45.7775 31.6694C46.1215 31.4901 46.5585 31.5792 46.786 31.8751C47.0136 32.171 46.9569 32.5763 46.6551 32.8104L43.9917 34.86L48.1541 32.6662C48.5055 32.4812 48.9541 32.5778 49.1777 32.8868C49.4013 33.1958 49.3225 33.6102 48.9979 33.8324L47.5327 34.8348L49.8908 33.593C50.2448 33.4025 50.7004 33.5002 50.9241 33.8148C51.1479 34.1293 51.0603 34.5488 50.7255 34.7662L49.0485 35.8862L51.6276 34.5268C51.9768 34.3382 52.4266 34.4304 52.6539 34.7372C52.8812 35.044 52.8073 35.4593 52.4853 35.6846L45.8021 40.46L54.1131 36.0822C54.4639 35.905 54.9051 36.0043 55.1255 36.3099C55.3459 36.6156 55.2711 37.0246 54.9539 37.2484L48.978 41.3238L54.8081 38.255C55.1538 38.0724 55.5953 38.1623 55.8229 38.4619C56.0506 38.7614 55.9882 39.1702 55.6796 39.4016L48.7049 44.66L54.805 41.44C55.1507 41.2574 55.5922 41.3473 55.8199 41.6469C56.0475 41.9464 55.9852 42.3552 55.6765 42.5866L51.2149 45.9396L54.805 44.0497C55.1507 43.8725 55.5874 43.9649 55.8123 44.2628C56.0373 44.5607 55.9764 44.966 55.6719 45.1976L53.6774 46.6747L54.555 46.214C54.9192 46.0402 55.369 46.1592 55.5747 46.484C55.7804 46.8088 55.669 47.2238 55.3221 47.4251L46.0967 52.2859C45.9825 52.3467 45.8529 52.379 45.7208 52.3797Z" fill="#FFBA6E"/>
<path d="M46.0689 50.8605C45.752 50.8604 45.4679 50.6824 45.3537 50.4127C45.2396 50.143 45.3189 49.837 45.5534 49.6425L49.389 46.4701L46.454 48.0101C46.1096 48.1902 45.6716 48.1009 45.444 47.8041C45.2164 47.5074 45.2745 47.1013 45.5779 46.8677L47.9729 45.0365L46.4509 45.8373C46.1126 46.0166 45.6805 45.9348 45.4483 45.6475C45.216 45.3601 45.258 44.9593 45.5457 44.7173L49.5348 41.3573L46.4478 42.9855C46.0805 43.1788 45.611 43.0638 45.3992 42.7286C45.1874 42.3934 45.3134 41.965 45.6807 41.7717L54.7144 37.0117C55.0527 36.8324 55.4848 36.9142 55.717 37.2016C55.9493 37.4889 55.9073 37.8897 55.6196 38.1317L51.6305 41.4917L54.8141 39.8117C55.1591 39.6275 55.6013 39.7159 55.8303 40.0149C56.0593 40.3139 55.9983 40.7232 55.6901 40.9555L53.2967 42.7853L54.8141 41.9873C55.1518 41.8178 55.575 41.9032 55.8027 42.187C56.0305 42.4707 55.9922 42.8647 55.7132 43.1073L51.8868 46.2769L54.8141 44.7369C55.1784 44.563 55.6281 44.6821 55.8338 45.0069C56.0396 45.3317 55.9282 45.7467 55.5812 45.9479L46.4617 50.7527C46.3442 50.8213 46.2082 50.8586 46.0689 50.8605Z" fill="#F2A149"/>
<path d="M44.8462 52.1386C44.6043 52.1384 44.3767 52.0341 44.232 51.8572C44.0873 51.6802 44.0426 51.4514 44.1113 51.2398L44.725 49.3344L42.4236 50.5482C42.1072 50.7189 41.7026 50.6608 41.4589 50.4098C41.2152 50.1587 41.2009 49.7851 41.4248 49.5192L43.0787 47.534L39.9013 49.214C39.5647 49.4019 39.1268 49.3262 38.8889 49.0389C38.651 48.7516 38.6907 48.3465 38.9808 48.1024L40.8664 46.456L37.9375 47.996C37.6127 48.1643 37.2023 48.0948 36.9654 47.8312C36.7286 47.5677 36.7341 47.1868 36.9786 46.9292L40.1744 43.6154L37.2394 45.1554C36.9175 45.3246 36.5089 45.259 36.2696 44.9997C36.0303 44.7404 36.0291 44.3618 36.2667 44.1012L38.0541 42.1412L37.2379 42.571C36.9426 42.726 36.5706 42.6848 36.3246 42.4697C36.0786 42.2546 36.0175 41.9172 36.1746 41.6414L37.0783 40.0594C36.8413 40.1234 36.585 40.0808 36.3879 39.9446C36.1415 39.7718 36.0337 39.4805 36.1148 39.2068L36.4017 38.2268C36.3493 38.1796 36.304 38.1264 36.2667 38.0686C36.0562 37.7337 36.1825 37.3066 36.549 37.1138L37.0384 36.8562C37.3073 36.7144 37.6433 36.7344 37.8896 36.9071C38.1359 37.0797 38.2438 37.3708 38.163 37.6444L38.0771 37.9328L38.5757 37.671C38.8711 37.5147 39.2441 37.5554 39.4908 37.7708C39.7375 37.9862 39.7985 38.3244 39.6405 38.6006L38.7537 40.1532L41.0121 38.9632C41.334 38.7939 41.7426 38.8595 41.9819 39.1188C42.2212 39.3782 42.2224 39.7567 41.9848 40.0174L40.2005 41.9774L43.4546 40.2624C43.7798 40.0922 44.1921 40.1615 44.4297 40.4261C44.6672 40.6907 44.6604 41.0732 44.4135 41.3306L41.23 44.6458L45.6041 42.3414C45.9401 42.1666 46.366 42.2474 46.5979 42.5297C46.8298 42.8121 46.7951 43.2078 46.517 43.453L44.6345 45.1008L45.6164 44.5842C45.9326 44.4168 46.3344 44.4763 46.5764 44.7263C46.8183 44.9764 46.8333 45.3476 46.6121 45.6132L44.9536 47.5998L45.6302 47.2442C45.9021 47.1004 46.2426 47.1225 46.4895 47.2999C46.7364 47.4774 46.8397 47.7743 46.7502 48.0492L46.0751 50.1156C46.4133 50.1337 46.6985 50.3521 46.7767 50.6529C46.8548 50.9537 46.7075 51.2656 46.4142 51.4204L45.2267 52.0448C45.111 52.1057 44.9798 52.1381 44.8462 52.1386Z" fill="#FAB153"/>
<path d="M38.4146 83.2595C38.0803 83.2591 37.7847 83.0612 37.684 82.7702C37.5833 82.4793 37.7008 82.1624 37.9743 81.9869L41.0596 80.0129L35.2663 83.0635C34.9152 83.2444 34.4705 83.1464 34.2486 82.8391C34.0267 82.5319 34.1034 82.1204 34.424 81.8973L40.3033 77.8737L33.034 81.7013C32.681 81.8638 32.2505 81.7548 32.0396 81.4497C31.8287 81.1445 31.9065 80.7431 32.2193 80.5225L32.5538 80.3083C32.1986 80.4346 31.7956 80.3039 31.6077 80.0013C31.4197 79.6986 31.5038 79.316 31.8051 79.1029L34.2875 77.3627L32.6535 78.2223C32.3053 78.4018 31.8644 78.3071 31.6405 78.0047C31.4166 77.7023 31.4849 77.2936 31.7974 77.0659L32.3206 76.6921C32.0986 76.7071 31.8806 76.6318 31.7253 76.4863C31.4799 76.2596 31.4332 75.9103 31.6118 75.6365L33.0631 73.4049C32.6906 73.5828 32.2304 73.4539 32.0315 73.1158C31.8326 72.7777 31.969 72.3565 32.3375 72.1715L34.8337 70.8555C35.1358 70.6964 35.5174 70.7434 35.7626 70.9697C36.0078 71.1961 36.0548 71.5449 35.877 71.8187L34.4271 74.0503L40.5273 70.8303C40.8757 70.6472 41.32 70.7407 41.5454 71.0446C41.7708 71.3484 41.7007 71.7596 41.3849 71.9867L41.3036 72.0441L43.605 70.8303C43.9546 70.6471 44.4 70.7422 44.6243 71.048C44.8486 71.3537 44.7753 71.7657 44.4565 71.9909L41.9725 73.7311L47.4805 70.8303C47.8348 70.6551 48.2773 70.7599 48.4934 71.0703C48.7096 71.3807 48.6256 71.7908 48.3013 72.0091L48.0558 72.1673L50.595 70.8303C50.9461 70.6494 51.3908 70.7474 51.6127 71.0546C51.8346 71.3618 51.7579 71.7734 51.4373 71.9965L45.5519 76.0299L55.4125 70.8359C55.7666 70.6584 56.2109 70.762 56.4284 71.0727C56.6458 71.3834 56.5618 71.7948 56.2364 72.0133L53.1556 73.9859L58.0944 71.3833C58.4426 71.1976 58.889 71.2897 59.1158 71.594C59.3426 71.8984 59.2724 72.311 58.9551 72.5383L52.5634 77.1499L59.3939 73.5519C59.7438 73.3712 60.1872 73.4677 60.4101 73.773C60.633 74.0783 60.5598 74.4888 60.2423 74.7139L57.72 76.4681L59.4077 75.5791C59.7381 75.4049 60.1585 75.4787 60.3945 75.7524C60.6304 76.026 60.61 76.4163 60.3466 76.6683L57.3641 79.5327L59.4077 78.4561C59.7247 78.291 60.1253 78.3526 60.3655 78.6034C60.6057 78.8542 60.619 79.2247 60.3973 79.4893L59.5028 80.5491C59.7108 80.5916 59.8896 80.712 59.9953 80.8809C60.2074 81.2153 60.0824 81.6433 59.7161 81.8371L57.2398 83.1419C56.9247 83.3135 56.5201 83.2545 56.2794 83.0019C56.0376 82.7503 56.0248 82.3778 56.2487 82.1129L56.8148 81.4437L53.5453 83.1601C53.2153 83.3342 52.7952 83.2608 52.5591 82.9876C52.3229 82.7145 52.3424 82.3246 52.6048 82.0723L55.5874 79.2093L48.0773 83.1601C47.7274 83.3407 47.284 83.2442 47.0611 82.939C46.8382 82.6337 46.9114 82.2231 47.2288 81.9981L49.7557 80.2411L44.2125 83.1601C43.8645 83.342 43.4217 83.2486 43.1964 82.9458C42.9712 82.643 43.0396 82.233 43.3533 82.0051L49.745 77.3935L38.7982 83.1601C38.6824 83.2239 38.5499 83.2582 38.4146 83.2595Z" fill="#A9B0BB"/>
<path d="M36.9065 24.4594C36.5718 24.4587 36.2763 24.2601 36.1763 23.9686C36.0762 23.6772 36.1948 23.3602 36.4693 23.1854L38.8703 21.6636L34.3581 24.0436C34.0072 24.2271 33.5605 24.1304 33.3372 23.8228C33.1139 23.5151 33.1907 23.102 33.5128 22.8788L39.1711 18.991L32.8607 22.316C32.5082 22.505 32.0552 22.4084 31.8309 22.0965C31.6065 21.7846 31.6897 21.367 32.0199 21.147L34.5867 19.4138L32.6474 20.4358C32.3128 20.6119 31.8869 20.5335 31.6533 20.2528C31.4197 19.9721 31.4512 19.5767 31.7269 19.3298L35.429 16.0188L32.6459 17.4846C32.3404 17.6432 31.956 17.5921 31.7128 17.3606C31.4696 17.1291 31.4299 16.7764 31.6164 16.5046L32.9083 14.6608C32.537 14.748 32.1522 14.5716 32.0071 14.2479C31.862 13.9241 32.0011 13.5522 32.3329 13.377L34.8368 12.0568C35.1423 11.8982 35.5268 11.9493 35.77 12.1808C36.0132 12.4123 36.0529 12.765 35.8663 13.0368L34.6082 14.84L39.9182 12.04C40.2529 11.8639 40.6788 11.9423 40.9124 12.223C41.146 12.5037 41.1145 12.8991 40.8388 13.146L37.129 16.4514L45.5198 12.04C45.8723 11.8511 46.3253 11.9476 46.5496 12.2595C46.7739 12.5714 46.6908 12.9891 46.3605 13.209L43.7968 14.9394L49.3002 12.04C49.6519 11.8501 50.1051 11.9452 50.3306 12.2563C50.5561 12.5674 50.4747 12.9851 50.1455 13.2062L44.4934 17.0884L54.0793 12.04C54.4346 11.8589 54.8831 11.9624 55.1012 12.276C55.3193 12.5896 55.2311 13.004 54.9002 13.2202L52.496 14.7434L57.2276 12.2444C57.5791 12.0593 58.0277 12.156 58.2512 12.465C58.4748 12.774 58.396 13.1884 58.0714 13.4106L52.4484 17.2466L59.0902 13.7466C59.4472 13.5484 59.9125 13.6474 60.1365 13.9693C60.3606 14.2913 60.261 14.7176 59.9125 14.9282L59.5673 15.148C59.9136 15.0542 60.2847 15.1934 60.4584 15.4824C60.6321 15.7714 60.5613 16.1318 60.2884 16.3478L56.3193 19.4838L59.4047 17.8598C59.7436 17.6685 60.1866 17.7459 60.4242 18.0378C60.6617 18.3298 60.6147 18.7391 60.316 18.9798L58.8754 20.2398L59.4047 19.9598C59.7273 19.7908 60.1362 19.8573 60.3749 20.1175C60.6137 20.3778 60.6134 20.7568 60.3744 21.0168L59.6471 21.8022C59.9082 21.9114 60.0807 22.1445 60.0939 22.4063C60.1071 22.6681 59.959 22.9148 59.71 23.0454L57.2261 24.3544C56.9031 24.5251 56.4924 24.459 56.253 24.1977C56.0136 23.9364 56.0151 23.5558 56.2564 23.296L56.3684 23.1756L54.0931 24.374C53.7567 24.5515 53.3279 24.4713 53.0951 24.1874C52.8622 23.9035 52.8988 23.5055 53.1803 23.261L54.6225 22.001L50.1287 24.36C49.7862 24.5396 49.3504 24.4525 49.1214 24.1589C48.8924 23.8652 48.9452 23.461 49.2434 23.2246L53.211 20.09L45.1071 24.36C44.7513 24.5463 44.2979 24.4443 44.0779 24.1285C43.8578 23.8127 43.9489 23.3947 44.2847 23.1798L44.4381 23.0846L42.0079 24.36C41.6555 24.5523 41.1998 24.4573 40.9738 24.1446C40.7478 23.8319 40.8316 23.4122 41.164 23.1924L46.7947 19.362L37.2901 24.36C37.1742 24.4238 37.0418 24.4581 36.9065 24.4594Z" fill="#A9B0BB"/>
<path d="M6.59741 53.8596C6.26273 53.8588 5.96719 53.6602 5.86716 53.3688C5.76713 53.0773 5.88571 52.7604 6.16015 52.5856L8.66251 50.998L3.90634 53.4984C3.55738 53.6828 3.11155 53.5891 2.886 53.2841C2.66046 52.9791 2.73222 52.5668 3.05023 52.3406L9.56925 47.7066L2.14809 51.6168C1.79848 51.7939 1.35841 51.6962 1.13697 51.3924C0.915525 51.0886 0.987 50.6805 1.30119 50.4548L4.64892 48.1238L1.96245 49.5392C1.61875 49.7208 1.17992 49.6331 0.951014 49.3369C0.722112 49.0406 0.778853 48.634 1.08179 48.3996L3.53659 46.5012L1.96245 47.3202C1.66309 47.4709 1.29053 47.4227 1.04894 47.2019C0.807338 46.9811 0.755038 46.6411 0.920697 46.3682L2.4396 43.9742L2.42119 43.984C2.05461 44.1742 1.58854 44.0587 1.37769 43.7255C1.16684 43.3922 1.29029 42.9662 1.65407 42.7716L4.15796 41.4514C4.45897 41.2921 4.83978 41.3376 5.08565 41.5623C5.33152 41.787 5.38086 42.1345 5.20585 42.409L3.68234 44.8002L10.074 41.4402C10.4179 41.2552 10.8598 41.3418 11.0901 41.6394C11.3204 41.9369 11.2622 42.3458 10.9562 42.5798L8.50141 44.4796L14.2778 41.4402C14.6282 41.2582 15.0732 41.3548 15.2963 41.6612C15.5194 41.9677 15.4444 42.3794 15.1248 42.6036L11.777 44.9276L18.4111 41.4402C18.7608 41.2499 19.2126 41.3421 19.4402 41.6502C19.6677 41.9583 19.5918 42.375 19.2672 42.5994L12.7344 47.2278L23.738 41.4402C24.0933 41.259 24.5418 41.3626 24.7599 41.6762C24.978 41.9897 24.8898 42.4041 24.5588 42.6204L22.0565 44.208L26.7958 41.7118C27.1495 41.5294 27.5977 41.6303 27.8179 41.9418C28.0381 42.2534 27.9538 42.6676 27.6258 42.8864L23.8899 45.321L28.3546 42.969C28.7065 42.7821 29.1572 42.8787 29.3811 43.1891C29.605 43.4995 29.5241 43.9154 29.1969 44.1366L25.6389 46.5502L28.7212 44.9262C29.0573 44.7415 29.492 44.818 29.7287 45.1035C29.9654 45.389 29.9279 45.7914 29.6418 46.0364L25.484 49.6862L28.7228 47.9796C29.0539 47.8052 29.4751 47.8798 29.7106 48.1546C29.9461 48.4293 29.924 48.8204 29.6587 49.0716L28.5847 50.088L28.6369 50.0614C28.8747 49.9234 29.1762 49.9156 29.4223 50.0409C29.6683 50.1662 29.8193 50.4045 29.8155 50.6616C29.8116 50.9187 29.6537 51.1532 29.404 51.2724L24.68 53.7602C24.3494 53.9324 23.9305 53.8573 23.6958 53.5838C23.4611 53.3103 23.4817 52.9211 23.7442 52.6696L24.8181 51.6546L20.8168 53.7546C20.4807 53.9392 20.0461 53.8627 19.8094 53.5772C19.5727 53.2918 19.6102 52.8893 19.8963 52.6444L24.0495 49.0002L15.0112 53.7602C14.6592 53.9471 14.2086 53.8504 13.9847 53.54C13.7607 53.2296 13.8416 52.8137 14.1689 52.5926L17.7345 50.172L10.9194 53.7602C10.5647 53.9501 10.1089 53.851 9.88617 53.5355C9.66347 53.2199 9.7531 52.8003 10.0894 52.5842L13.8237 50.1566L6.9733 53.7602C6.85953 53.8224 6.73002 53.8566 6.59741 53.8596Z" fill="#A9B0BB"/>
<path d="M71.0481 53.8592C70.7179 53.8592 70.4247 53.6664 70.3203 53.3805C70.2159 53.0947 70.3237 52.7799 70.5878 52.5992L76.1955 48.8192L66.789 53.7598C66.4368 53.9439 65.9884 53.8457 65.766 53.5359C65.5436 53.2261 65.6242 52.8119 65.9498 52.5908L71.4056 48.9242L64.1409 52.7518C63.7845 52.941 63.3279 52.8393 63.1072 52.5215C62.8864 52.2037 62.9804 51.7835 63.3201 51.5702L63.8448 51.2398L63.4643 51.4386C63.1173 51.6184 62.6771 51.5253 62.452 51.2246C62.227 50.9239 62.2922 50.5159 62.6021 50.2864L66.766 47.2428L63.3324 49.0502C62.9945 49.222 62.5692 49.1374 62.3404 48.8528C62.1116 48.5682 62.1507 48.1727 62.4318 47.9302L64.9172 45.8582L63.3324 46.6982C63.0235 46.8615 62.632 46.8087 62.3879 46.571C62.1439 46.3333 62.1118 45.9734 62.3106 45.7028L63.5103 44.0676C63.2069 44.0918 62.9144 43.958 62.754 43.7218C62.5421 43.387 62.6678 42.9589 63.0347 42.7656L65.5125 41.4538C65.8214 41.2905 66.2129 41.3432 66.457 41.5809C66.701 41.8186 66.7331 42.1786 66.5343 42.4492L65.4128 43.9794L70.2472 41.4398C70.5851 41.2679 71.0103 41.3525 71.2392 41.6371C71.468 41.9217 71.4288 42.3172 71.1478 42.5598L68.6654 44.6304L74.7287 41.4398C75.076 41.2565 75.5195 41.3483 75.746 41.6505C75.9725 41.9526 75.9056 42.363 75.5925 42.592L71.4301 45.6356L79.3944 41.4356C79.7503 41.2522 80.2013 41.3556 80.4198 41.6708C80.6384 41.986 80.5477 42.4022 80.2137 42.6172L79.6951 42.9462L82.5611 41.4398C82.9138 41.2538 83.3643 41.3519 83.5871 41.6631C83.8098 41.9743 83.7272 42.3902 83.3988 42.6102L77.9399 46.274L87.104 41.4398C87.4565 41.2508 87.9095 41.3474 88.1338 41.6593C88.3581 41.9712 88.275 42.3888 87.9447 42.6088L82.3355 46.3986L89.4943 42.627C89.84 42.4498 90.2767 42.5422 90.5016 42.8401C90.7266 43.138 90.6657 43.5433 90.3612 43.775L84.4298 48.1948L90.0911 45.2128C90.4405 45.0333 90.8824 45.1297 91.1052 45.4338C91.328 45.738 91.2565 46.1474 90.9411 46.3734L89.7137 47.2386L90.0973 47.037C90.4324 46.8601 90.8594 46.9387 91.093 47.2204C91.3266 47.5029 91.2924 47.9 91.0132 48.1458L89.235 49.7152L90.0973 49.263C90.4182 49.095 90.8247 49.16 91.064 49.4175C91.3032 49.6749 91.307 50.0515 91.0731 50.313L90.2952 51.1768C90.5713 51.2736 90.7617 51.5067 90.7847 51.7758C90.8076 52.0449 90.6589 52.3021 90.4026 52.4368L87.9187 53.7458C87.5977 53.9154 87.1896 53.8512 86.9495 53.5932C86.7093 53.3352 86.7059 52.9573 86.9413 52.6958L87.2068 52.4018L84.617 53.764C84.2814 53.9456 83.8498 53.8684 83.6142 53.5846C83.3786 53.3008 83.414 52.9008 83.6964 52.6552L85.47 51.0886L80.3947 53.7598C80.0453 53.9392 79.6034 53.8428 79.3807 53.5387C79.1579 53.2345 79.2294 52.8251 79.5447 52.5992L80.7721 51.7326L76.9258 53.7598C76.5799 53.94 76.1403 53.8487 75.914 53.5496C75.6877 53.2504 75.75 52.843 76.0574 52.6118L81.9919 48.1976L71.4316 53.7598C71.3156 53.8232 71.1833 53.8575 71.0481 53.8592Z" fill="#A9B0BB"/>
<path d="M89.0324 41.8096C91.188 40.9248 91.6314 39.3204 91.6314 36.5932C91.6314 33.5006 91.8892 30.9806 87.9094 30.4178C83.9295 29.855 79.3283 30.4178 75.3071 30.4178C72.362 30.2652 69.4097 30.2694 66.4652 30.4304C65.2399 30.4067 64.0555 30.8327 63.1772 31.6127C62.299 32.3928 61.8005 33.4617 61.7934 34.58C61.4497 36.9894 61.2764 39.7124 62.8674 41.2538H56.4818C56.4251 40.1338 56.3484 39.004 56.3484 37.9428C56.3484 37.919 56.3315 37.905 56.3284 37.8826C56.3254 37.8602 56.3514 37.8182 56.3438 37.7818C56.298 37.5964 56.2343 37.4151 56.1535 37.24C56.2015 37.0883 56.1266 36.9266 55.974 36.8522C55.0535 35.2632 52.8012 34.5072 51.1304 33.6168C49.9105 32.8163 48.5609 32.1946 47.1306 31.7744V24.409H56.3361C56.4207 24.4047 56.5046 24.3921 56.5862 24.3712C56.6978 24.3726 56.8093 24.3641 56.9191 24.346C62.2997 23.3548 62.8474 14.9226 58.5838 12.5664C62.8674 10.0184 62.292 1.50639 56.8961 0.740588C52.907 0.180588 48.3166 0.740588 44.2953 0.740588C41.3373 0.527782 38.3655 0.527782 35.4074 0.740588C29.9179 1.57499 29.0142 10.3754 33.462 12.74C29.3548 15.351 29.5865 23.5466 34.9349 24.4132C38.2546 24.6991 41.5962 24.7029 44.9167 24.4244V31.8808C42.854 32.6643 40.8976 33.6631 39.0866 34.8572C38.005 35.3094 37.058 35.9916 36.3249 36.8466C35.9659 37.0566 35.7649 37.3352 35.9475 37.5802C35.8319 37.8809 35.7522 38.1921 35.7097 38.5084C35.5896 39.4651 35.5226 40.4267 35.5087 41.3896H28.7227C30.0253 40.3592 30.257 38.78 30.257 36.5974C30.257 33.4446 30.5178 30.9134 26.452 30.2722C22.8005 29.6954 18.4095 30.2722 14.7104 30.2722C11.4443 30.0951 8.16935 30.0979 4.90354 30.2806C-0.926597 30.9456 -1.65383 39.9406 2.90902 42.119C1.3934 42.8171 0.433663 44.2308 0.42354 45.78C-0.0367342 49.0448 -0.203967 52.92 3.95231 53.62C7.26168 54.18 11.2523 53.62 14.6215 53.62H25.2645C25.47 53.6409 25.6779 53.6276 25.8782 53.5808C29.6678 52.8808 30.2646 51.1238 30.2646 47.8002C30.2646 45.647 30.3828 43.7626 29.1094 42.6202H35.4995C35.5092 43.6994 35.5794 44.7774 35.7097 45.85C35.9812 47.95 37.382 48.51 39.2384 49.49C40.8279 50.337 42.9314 51.9624 44.9259 52.3404V59.7604C44.8231 59.7604 44.7172 59.7604 44.6191 59.7604C41.6732 59.6064 38.72 59.6064 35.7741 59.7604C34.5369 59.7392 33.343 60.1757 32.4641 60.9705C31.5852 61.7654 31.0962 62.8509 31.1085 63.98C30.6973 66.899 30.5301 70.3052 33.4712 71.5008C29.3456 74.109 29.588 82.362 34.9426 83.237C38.2657 83.7802 42.2348 83.237 45.6132 83.237H56.353C56.4245 83.2322 56.4953 83.2214 56.5647 83.2048C56.6891 83.2078 56.8136 83.1989 56.936 83.1782C62.3964 82.173 62.8643 73.4846 58.4058 71.2544C60.5353 70.336 60.9465 68.6672 60.9465 65.9946C60.9465 62.9062 61.192 60.3484 57.2091 59.7688C53.8622 59.4523 50.4896 59.4317 47.1383 59.7072V52.1892C48.7257 51.5486 50.2392 50.7654 51.6566 49.8512C53.6864 48.769 55.9372 48.0606 56.3484 45.7478C56.502 44.7547 56.5605 43.7513 56.5233 42.749H63.5179C60.0597 45.689 60.655 52.9046 65.5416 53.669C72.1879 54.7064 79.8929 53.704 86.682 53.669C86.8762 53.6917 87.0734 53.6813 87.2634 53.6382C91.0806 52.9382 91.6299 51.0412 91.6299 47.7918C91.6314 44.9862 91.8355 42.7126 89.0324 41.8096ZM56.7764 81.9644H42.2486C40.5011 81.9644 37.4234 82.537 35.7726 81.9644C32.7762 80.9256 32.3405 75.082 34.1401 73.0632C34.6477 72.496 35.3676 72.1204 36.1608 72.009C37.5223 72.0953 38.8885 72.1023 40.2511 72.03H40.4413H50.2958C51.1243 72.03 52.301 71.89 53.4548 71.827H55.1256C55.5195 71.8465 55.9086 71.9148 56.2824 72.03C58.9244 72.9484 60.5307 80.9998 56.7764 81.9644ZM58.6083 62.727C59.3509 64.2782 59.222 69.8908 57.3303 70.8694C57.1891 70.8372 57.0618 70.7854 56.913 70.7644C52.9239 70.2044 48.335 70.7644 44.3122 70.7644C41.4051 70.5698 38.4863 70.5698 35.5793 70.7644C34.7457 70.5766 34.0281 70.0941 33.5847 69.4232C32.6642 67.9014 32.8713 62.2678 34.1125 61.1912C35.4642 60.0208 38.8242 60.6312 40.6423 60.6312H45.2128C45.3828 60.6523 45.5552 60.6523 45.7252 60.6312H50.9601C53.6864 60.6326 57.249 59.899 58.6083 62.727ZM34.1447 3.07999C35.6284 1.42799 38.1108 2.06079 40.449 2.06079H50.3019C51.8944 2.06079 54.7727 1.53719 56.2855 2.06079C58.9412 2.97639 60.5138 10.9942 56.7457 11.942H56.4205C53.1624 11.7026 49.8885 11.7026 46.6304 11.942H42.4143C40.2344 11.7782 38.0431 11.7862 35.8646 11.9658C35.834 11.956 35.7956 11.9518 35.7649 11.942C32.7762 10.906 32.342 5.08759 34.1447 3.07999ZM35.7803 23.1924C32.7762 22.148 32.3389 16.2778 34.134 14.2478C34.5068 13.8247 35.0054 13.5087 35.5701 13.3378C38.9182 13.5089 42.2749 13.4832 45.6194 13.2608H56.3683C58.9397 14.3304 60.497 22.2208 56.7979 23.2008H42.2563C40.5042 23.191 37.4357 23.7636 35.7803 23.191V23.1924ZM41.8083 34.86C44.0805 33.6476 45.0931 32.5514 47.485 33.6504C49.1144 34.398 52.2304 35.5824 53.5422 37.191L46.2269 41.0844L38.6478 37.0454C39.5165 36.1178 40.5946 35.3723 41.8083 34.86ZM3.4368 32.4268C4.88206 30.6866 7.32765 31.332 9.72721 31.332H20.068C21.857 31.332 25.7447 30.6978 27.2161 32.004C28.7795 33.3886 28.6844 40.4446 26.5119 41.384H26.5027C26.3549 41.3891 26.2091 41.417 26.0715 41.4666H25.4256C22.9231 41.2976 20.4103 41.2976 17.9078 41.4666H10.6171C10.3931 41.4666 10.1568 41.4666 9.90518 41.4848C8.5569 41.4374 7.20678 41.4575 5.86091 41.545C5.31446 41.4938 4.78296 41.3515 4.29291 41.125C1.93324 39.9574 1.94091 34.2272 3.4368 32.4268ZM26.3983 52.787H10.8932C8.64403 52.787 4.26529 53.5206 2.88754 51.2176C1.96699 49.6916 2.17105 44.0552 3.41225 42.9716C3.65369 42.7772 3.93616 42.63 4.24228 42.539C7.55472 43.064 11.5453 42.532 14.8976 42.532H25.1894C25.3335 42.5921 25.4913 42.6199 25.6496 42.6132C26.6847 42.9061 27.52 43.6091 27.9234 44.527C28.6905 46.1342 28.5233 52.1864 26.3983 52.787ZM38.1675 46.347C37.6734 44.9113 37.5423 43.392 37.784 41.9034C37.8837 41.7634 37.9052 41.6346 37.8131 41.5394C37.8745 40.7974 37.9374 40.0848 37.9374 39.4744C37.9396 39.2295 37.9585 38.9849 37.9942 38.7422L44.8983 42.4242V50.4896C44.7847 50.4434 44.6804 50.4154 44.5607 50.358C42.6813 49.4536 39.0482 48.1488 38.1675 46.34V46.347ZM50.2467 49.147C49.2814 49.7698 48.2435 50.2934 47.1521 50.708V42.21L54.1176 38.4972V44.527C54.1176 47.2094 52.6247 47.88 50.2467 49.14V49.147ZM64.2574 40.0176C63.3077 38.4132 63.5639 33.642 64.664 32.2546C66.0663 30.4864 68.8509 31.1822 71.2996 31.1822H81.622C84.3944 31.1822 87.9324 30.4402 89.2932 33.327C89.9499 34.7186 89.976 40.6406 87.9784 41.559C87.9339 41.5506 87.8971 41.5408 87.8511 41.5338C84.1811 40.9738 79.8223 41.5338 76.1095 41.5338C73.1192 41.5338 69.8804 41.2468 66.8764 41.5114C66.6626 41.3232 66.3699 41.2287 66.074 41.2524H65.7671C65.1251 41.0088 64.5928 40.5734 64.2574 40.0176ZM87.7099 52.7338H72.0053C69.7822 52.7338 67.1894 53.2336 65.382 51.9764C63.3415 50.5554 63.3092 45.458 64.7975 43.5932C65.0815 43.2347 65.4562 42.9441 65.8898 42.7462C66.1451 42.7459 66.3942 42.6741 66.6033 42.5404C68.8087 42.6587 71.0205 42.6339 73.222 42.4662H81.4195C81.978 42.4662 82.6638 42.4186 83.3971 42.3822H85.7184C87.0954 42.3297 88.4027 42.9362 89.1674 43.9824C90.0941 45.556 89.8149 52.1976 87.7099 52.7338Z" fill="#262626"/>
<path d="M40.3261 65.2401H38.7919C38.2357 65.2058 37.6936 65.4085 37.3236 65.7888C37.0643 66.1878 37.5445 66.3656 37.9204 66.3656H39.4547C40.0108 66.3998 40.5529 66.1972 40.9229 65.8168C41.1822 65.4151 40.702 65.2401 40.3261 65.2401Z" fill="#262626"/>
<path d="M44.9029 65.8799C44.84 66.409 45.4951 66.5322 45.9262 66.5322H47.4605C47.9361 66.5322 48.6311 66.1963 48.6879 65.7203C48.7508 65.1911 48.0957 65.0679 47.6645 65.0679H46.1303C45.6531 65.0679 44.9535 65.4039 44.9029 65.8799Z" fill="#262626"/>
<path d="M40.2909 76.3184H38.7567C38.1894 76.2624 37.6334 76.4912 37.3038 76.9162C37.0828 77.3362 37.4955 77.682 37.9558 77.682H39.4901C40.0574 77.738 40.6134 77.5092 40.943 77.0842C41.1639 76.667 40.7512 76.3184 40.2909 76.3184Z" fill="#262626"/>
<path d="M48.0219 76.5436H46.4877C45.9406 76.5267 45.4085 76.7079 45.0071 77.0476C44.7356 77.4199 45.2434 77.4563 45.5549 77.4563H47.0891C47.6362 77.4732 48.1684 77.292 48.5697 76.9524C48.8474 76.58 48.3395 76.5436 48.0219 76.5436Z" fill="#262626"/>
<path d="M37.9345 7.61315H39.4687C40.0299 7.65593 40.5779 7.44259 40.9324 7.04335C41.1748 6.63455 40.7252 6.38675 40.3187 6.38675H38.7844C38.2233 6.34397 37.6753 6.5573 37.3208 6.95655C37.0722 7.36535 37.5217 7.61315 37.9345 7.61315Z" fill="#262626"/>
<path d="M45.5841 7.53886H47.1184C47.6723 7.56814 48.2117 7.37054 48.5897 6.99986C48.8582 6.60646 48.3611 6.46086 48.0052 6.46086H46.4709C45.917 6.43157 45.3776 6.62917 44.9996 6.99986C44.7311 7.39326 45.2282 7.53886 45.5841 7.53886Z" fill="#262626"/>
<path d="M40.3124 17.5912H38.7781C38.2178 17.5491 37.6708 17.7617 37.316 18.1596C37.072 18.567 37.5231 18.8092 37.9297 18.8092H39.4639C40.0242 18.8514 40.5712 18.6387 40.9261 18.2408C41.1746 17.8334 40.7235 17.5912 40.3124 17.5912Z" fill="#262626"/>
<path d="M47.9866 17.5995H46.4524C45.8937 17.5578 45.3478 17.7667 44.9887 18.1595C44.7417 18.5669 45.1989 18.7965 45.6024 18.7965H47.1367C47.6953 18.8382 48.2413 18.6293 48.6003 18.2365C48.8474 17.8291 48.3902 17.5995 47.9866 17.5995Z" fill="#262626"/>
<path d="M7.56079 37.0998H9.09504C9.55531 37.0998 10.2687 36.7736 10.3224 36.3074C10.3899 35.7866 9.71948 35.6914 9.30983 35.6914H7.77559C7.31531 35.6914 6.60189 36.0176 6.54819 36.4838C6.48068 37.0088 7.15115 37.0998 7.56079 37.0998Z" fill="#262626"/>
<path d="M14.6153 36.7933H16.1496C16.7024 36.7993 17.2464 36.6666 17.7222 36.4097C18.0459 36.2137 18.0582 36.0065 17.604 36.0065H16.0698C15.517 36.0006 14.973 36.1332 14.4972 36.3901C14.1734 36.5861 14.1612 36.7933 14.6153 36.7933Z" fill="#262626"/>
<path d="M9.63219 47.0064H8.09794C7.53908 46.9661 6.99333 47.1747 6.63273 47.5664C6.38418 47.971 6.84446 48.1922 7.24643 48.1922H8.78068C9.33954 48.2324 9.88529 48.0238 10.2459 47.6322C10.4929 47.2276 10.0326 47.0064 9.63219 47.0064Z" fill="#262626"/>
<path d="M17.2911 46.963H15.7569C15.1938 46.9152 14.6431 47.134 14.2978 47.5426C14.0631 47.9556 14.4988 48.2426 14.9284 48.2426H16.4626C17.0257 48.2905 17.5764 48.0717 17.9217 47.663C18.1564 47.2444 17.7207 46.963 17.2911 46.963Z" fill="#262626"/>
<path d="M68.9506 37.1685H70.4848C71.0534 37.175 71.5546 36.8294 71.703 36.3285C71.7598 35.7923 71.1216 35.6285 70.6659 35.6285H69.1316C68.5631 35.622 68.0619 35.9676 67.9135 36.4685C67.8567 37.0061 68.4949 37.1685 68.9506 37.1685Z" fill="#262626"/>
<path d="M76.2599 36.9055H77.7942C78.3456 36.9302 78.8824 36.7393 79.2701 36.3805C79.5309 35.9941 79.0446 35.8947 78.6993 35.8947H77.1651C76.6137 35.87 76.0768 36.061 75.6892 36.4197C75.4284 36.8061 75.9147 36.9055 76.2599 36.9055Z" fill="#262626"/>
<path d="M70.9913 46.9657H69.4571C68.8941 46.9189 68.3437 47.1368 67.9965 47.5439C67.7602 47.9555 68.199 48.2341 68.6255 48.2341H70.1598C70.7228 48.2809 71.2732 48.063 71.6204 47.6559C71.8566 47.2429 71.4179 46.9657 70.9913 46.9657Z" fill="#262626"/>
<path d="M78.6608 46.963H77.1266C76.5631 46.9154 76.0121 47.1341 75.666 47.5426C75.4328 47.9542 75.8685 48.2426 76.2981 48.2426H77.8323C78.3958 48.2901 78.9468 48.0714 79.2929 47.663C79.5261 47.2458 79.0904 46.963 78.6608 46.963Z" fill="#262626"/>
</g>
<defs>
<clipPath id="clip0_44_571">
<rect width="92.0548" height="84" fill="white"/>
</clipPath>
</defs>
</svg>
