<?xml version="1.0" encoding="UTF-8"?>
<svg width="88px" height="88px" viewBox="0 0 88 88" version="1.1" xmlns="http://www.w3.org/2000/svg" xmlns:xlink="http://www.w3.org/1999/xlink">
    <!-- Generator: Sketch 60 (88103) - https://sketch.com -->
    <title>Slice</title>
    <desc>Created with Sketch.</desc>
    <g id="Page-1" stroke="none" stroke-width="1" fill="none" fill-rule="evenodd">
        <g id="01-eiffel-tower" transform="translate(0.000000, 2.000000)">
            <g id="Background" transform="translate(0.000000, 4.000000)">
                <path d="M84.5600164,40 C84.5584701,23.6646106 74.6240168,8.97150733 59.4650828,2.88449909 C44.3061489,-3.20250915 26.9690288,0.539804837 15.6706656,12.3377681 C4.37230241,24.1357314 1.38318178,41.6184602 8.12,56.5 L81,56.5 C83.3512625,51.3173067 84.5651574,45.6911087 84.5600164,40 L84.5600164,40 Z" id="Path" fill="#EDEEFF" fill-rule="nonzero"></path>
                <line x1="5.06" y1="56.48" x2="83.06" y2="56.48" id="Path" stroke="#4550E5" stroke-linecap="round" stroke-linejoin="round"></line>
                <line x1="0.56" y1="56.48" x2="3.06" y2="56.48" id="Path" stroke="#4550E5" stroke-linecap="round" stroke-linejoin="round"></line>
                <line x1="85.06" y1="56.48" x2="87.56" y2="56.48" id="Path" stroke="#4550E5" stroke-linecap="round" stroke-linejoin="round"></line>
            </g>
        </g>
        <g id="22--team-leader-leadership-2" transform="translate(0.000000, 6.000000)">
            <g id="_Group_" transform="translate(65.271803, 33.255462) rotate(13.000000) translate(-65.271803, -33.255462) translate(52.271803, 18.255462)">
                <path d="M25.5357143,13.7709524 C25.2973165,20.4853538 19.7850609,25.8053677 13.0664286,25.8053677 C6.34779628,25.8053677 0.835540655,20.4853538 0.597142857,13.7709524 C0.597142857,6.87238095 4.11714286,1.45095238 7.7,0.42952381 C8.30367916,0.260567564 8.95159482,0.428545697 9.39714286,0.86952381 C13.2785714,4.76666667 25.5357143,-0.089047619 25.5357143,13.7709524 Z" id="Path" fill="#FFFFFF" fill-rule="nonzero"></path>
                <path d="M25.5357143,13.7709524 C25.2973165,20.4853538 19.7850609,25.8053677 13.0664286,25.8053677 C6.34779628,25.8053677 0.835540655,20.4853538 0.597142857,13.7709524 C0.597142857,6.87238095 4.11714286,1.45095238 7.7,0.42952381 C8.30367916,0.260567564 8.95159482,0.428545697 9.39714286,0.86952381 C13.2785714,4.76666667 25.5357143,-0.089047619 25.5357143,13.7709524 Z" id="Path" stroke="#4550E5" stroke-linecap="round" stroke-linejoin="round"></path>
                <path d="M23.4771429,16.882381 L21.3714286,17.9195238 L19.8,12.6395238 C19.515079,11.5827543 18.4479132,10.938297 17.38,11.1780952 C14.5008944,11.8485211 11.5062484,11.8485211 8.62714286,11.1780952 C7.55535924,10.9373413 6.4833674,11.5805364 6.19142857,12.6395238 L4.62,17.9195238 L2.56142857,16.882381 C-0.408571429,16.882381 -0.204285714,22.0838095 3.08,22.0838095 L3.08,22.0838095 C4.41203363,26.4171645 8.41510926,29.3745868 12.9485714,29.3745868 C17.4820336,29.3745868 21.4851092,26.4171645 22.8171429,22.0838095 L22.8171429,22.0838095 C26.2428571,22.0838095 26.4314286,16.882381 23.4771429,16.882381 Z" id="Path" stroke="#4550E5" fill="#FFFFFF" fill-rule="nonzero" stroke-linecap="round" stroke-linejoin="round"></path>
                <path d="M9.71142857,15.8452381 C8.99109146,15.8452381 8.40714286,16.4291867 8.40714286,17.1495238 C8.40714286,17.8698609 8.99109146,18.4538095 9.71142857,18.4538095 C10.4317657,18.4538095 11.0157143,17.8698609 11.0157143,17.1495238 C11.0157143,16.4291867 10.4317657,15.8452381 9.71142857,15.8452381 Z" id="Path" fill="#4550E5" fill-rule="nonzero"></path>
                <path d="M16.4685714,15.8452381 C15.9396537,15.8388651 15.4592622,16.1525716 15.252423,16.6394105 C15.0455837,17.1262494 15.1532606,17.6898037 15.5250154,18.0660921 C15.8967702,18.4423804 16.458978,18.5568801 16.9482881,18.355957 C17.4375983,18.1550338 17.7571045,17.6784799 17.7571429,17.1495238 C17.7571947,16.4352792 17.1827642,15.8538435 16.4685714,15.8452381 Z" id="Path" fill="#4550E5" fill-rule="nonzero"></path>
                <circle id="Oval" fill="#D6DAFF" fill-rule="nonzero" cx="6.85142857" cy="20.0095238" r="1.03714286"></circle>
                <circle id="Oval" fill="#D6DAFF" fill-rule="nonzero" cx="19.3285714" cy="20.0095238" r="1.03714286"></circle>
                <path d="M10.4971429,23.372381 C12.0704532,24.4084888 14.1095468,24.4084888 15.6828571,23.372381" id="Path" stroke="#4550E5" stroke-linecap="round" stroke-linejoin="round"></path>
            </g>
            <g id="Group" transform="translate(24.636015, 33.127156) rotate(-13.000000) translate(-24.636015, -33.127156) translate(11.636015, 18.127156)">
                <path d="M25.1818286,19.0467249 C25.1726686,18.0156327 24.4234464,17.1404351 23.406091,16.9724392 L23.406091,15.589582 C23.5542617,11.7794048 21.6060304,8.19349755 18.3288038,6.24434621 C15.0515773,4.29519488 10.9706048,4.29519488 7.69337824,6.24434621 C4.41615167,8.19349755 2.46792035,11.7794048 2.61609104,15.589582 L2.61609104,16.9724392 C1.57811487,17.1743901 0.847355195,18.1099145 0.902725407,19.1659035 C0.958095619,20.2218925 1.78268648,21.0758629 2.83609104,21.1681535 C3.74607678,26.0936527 8.04152294,29.6682075 13.0503768,29.6682075 C18.0592306,29.6682075 22.3546767,26.0936527 23.2646625,21.1681535 C24.3558603,21.0625965 25.186899,20.1430045 25.1818286,19.0467249 Z" id="Path" stroke="#4550E5" fill="#FFFFFF" fill-rule="nonzero" stroke-linecap="round" stroke-linejoin="round"></path>
                <path d="M25.1818286,19.0467249 C25.1726686,18.0156327 24.4234464,17.1404351 23.406091,16.9724392 L23.406091,15.589582 C23.5542617,11.7794048 21.6060304,8.19349755 18.3288038,6.24434621 C15.0515773,4.29519488 10.9706048,4.29519488 7.69337824,6.24434621 C4.41615167,8.19349755 2.46792035,11.7794048 2.61609104,15.589582 L2.61609104,16.9724392 C1.57811487,17.1743901 0.847355195,18.1099145 0.902725407,19.1659035 C0.958095619,20.2218925 1.78268648,21.0758629 2.83609104,21.1681535 C3.74607678,26.0936527 8.04152294,29.6682075 13.0503768,29.6682075 C18.0592306,29.6682075 22.3546767,26.0936527 23.2646625,21.1681535 C24.3558603,21.0625965 25.186899,20.1430045 25.1818286,19.0467249 Z" id="Path" stroke="#4550E5" stroke-linecap="round" stroke-linejoin="round"></path>
                <path d="M9.16894818,15.589582 C8.64003048,15.5832091 8.15963896,15.8969156 7.95279972,16.3837544 C7.74596048,16.8705933 7.85363738,17.4341476 8.22539216,17.810436 C8.59714693,18.1867244 9.15935473,18.3012241 9.64866489,18.1003009 C10.137975,17.8993777 10.4574812,17.4228238 10.4575196,16.8938677 C10.4575715,16.1796231 9.883141,15.5981874 9.16894818,15.589582 L9.16894818,15.589582 Z" id="Path" fill="#4550E5" fill-rule="nonzero"></path>
                <path d="M16.9632339,15.589582 C16.4343162,15.5832091 15.9539247,15.8969156 15.7470854,16.3837544 C15.5402462,16.8705933 15.6479231,17.4341476 16.0196779,17.810436 C16.3914326,18.1867244 16.9536404,18.3012241 17.4429506,18.1003009 C17.9322608,17.8993777 18.2517669,17.4228238 18.2518053,16.8938677 C18.2518572,16.1796231 17.6774267,15.5981874 16.9632339,15.589582 Z" id="Path" fill="#4550E5" fill-rule="nonzero"></path>
                <circle id="Oval" fill="#D6DAFF" fill-rule="nonzero" cx="7.42466247" cy="20.3510106" r="1.30428571"></circle>
                <circle id="Oval" fill="#D6DAFF" fill-rule="nonzero" cx="18.6918053" cy="20.3510106" r="1.30428571"></circle>
                <path d="M10.4575196,23.4624392 C12.0344643,24.5054612 14.0820035,24.5054612 15.6589482,23.4624392" id="Path" stroke="#4550E5" stroke-linecap="round" stroke-linejoin="round"></path>
                <path d="M1.79894818,7.79529631 L1.79894818,15.6524392 C1.79894818,16.129771 2.18590208,16.5167249 2.6632339,16.5167249 L3.52751961,16.5167249 L7.00037676,7.85815346 L1.79894818,7.79529631 Z" id="Path" stroke="#4550E5" fill="#FFFFFF" fill-rule="nonzero" stroke-linecap="round" stroke-linejoin="round"></path>
                <path d="M24.3175375,8.65958203 C24.3217045,6.82035203 23.5929255,5.0552469 22.2923901,3.75471153 C20.9918547,2.45417616 19.2267496,1.72539719 17.3875196,1.72958203 L9.53037676,1.72958203 C8.85622895,1.72618635 8.24439323,1.33461149 7.95894818,0.723867742 C7.7791637,0.311899397 7.38583,0.0335401624 6.93751961,0.00101059876 L5.46037676,0.00101059876 C2.70810479,-0.0519596435 0.360785117,1.98328863 0.0232338987,4.71529631 C-0.24282469,7.54147826 1.8061945,10.0590445 4.62751961,10.3724392 C5.1170395,12.2648301 6.72359251,13.658843 8.66609104,13.8767249 L10.3946625,13.8767249 C10.5398762,13.8758624 10.6674604,13.7801743 10.7089482,13.6410106 C10.7399806,13.5035763 10.6757566,13.3622835 10.5518053,13.2952963 C9.77596368,12.8151459 9.21360135,12.0559567 8.98037676,11.1738677 C8.92595573,10.9939495 8.95942643,10.7989083 9.07071828,10.6474277 C9.18201012,10.4959471 9.35813135,10.4057104 9.54609104,10.4038677 L16.6332339,10.4038677 C17.0910526,10.4086973 17.5296472,10.5886336 17.8589482,10.9067249 L22.5732339,15.6210106 L23.406091,15.6210106 C23.8834229,15.6210106 24.2703768,15.2340567 24.2703768,14.7567249 L24.3175375,8.65958203 Z" id="Path" fill="#FFFFFF" fill-rule="nonzero"></path>
                <path d="M24.3175375,8.65958203 C24.3217045,6.82035203 23.5929255,5.0552469 22.2923901,3.75471153 C20.9918547,2.45417616 19.2267496,1.72539719 17.3875196,1.72958203 L9.53037676,1.72958203 C8.85622895,1.72618635 8.24439323,1.33461149 7.95894818,0.723867742 C7.7791637,0.311899397 7.38583,0.0335401624 6.93751961,0.00101059876 L5.46037676,0.00101059876 C2.70810479,-0.0519596435 0.360785117,1.98328863 0.0232338987,4.71529631 C-0.24282469,7.54147826 1.8061945,10.0590445 4.62751961,10.3724392 C5.1170395,12.2648301 6.72359251,13.658843 8.66609104,13.8767249 L10.3946625,13.8767249 C10.5398762,13.8758624 10.6674604,13.7801743 10.7089482,13.6410106 C10.7399806,13.5035763 10.6757566,13.3622835 10.5518053,13.2952963 C9.77596368,12.8151459 9.21360135,12.0559567 8.98037676,11.1738677 C8.92595573,10.9939495 8.95942643,10.7989083 9.07071828,10.6474277 C9.18201012,10.4959471 9.35813135,10.4057104 9.54609104,10.4038677 L16.6332339,10.4038677 C17.0910526,10.4086973 17.5296472,10.5886336 17.8589482,10.9067249 L22.5732339,15.6210106 L23.406091,15.6210106 C23.8834229,15.6210106 24.2703768,15.2340567 24.2703768,14.7567249 L24.3175375,8.65958203 Z" id="Path" stroke="#4550E5" stroke-linecap="round" stroke-linejoin="round"></path>
            </g>
            <g id="Group-2" transform="translate(33.000000, 11.000000)">
                <path d="M24.1128101,22.8384375 C24.1002622,21.805137 23.3743027,20.9245677 22.3784351,20.7346875 L22.3784351,19.3321875 C22.5257639,15.4678885 20.5886021,11.831045 17.3299961,9.85420686 C14.0713901,7.87736871 10.013605,7.87736871 6.75499906,9.85420686 C3.49639309,11.831045 1.55923127,15.4678885 1.70656008,19.3321875 L1.70656008,20.7346875 C0.674481497,20.9395071 -0.0521261308,21.8883201 0.00292947771,22.959309 C0.0579850862,24.0302979 0.877890767,24.8963985 1.92531008,24.99 C2.83012544,29.9854637 7.10116566,33.6107935 12.0815601,33.6107935 C17.0619545,33.6107935 21.3329947,29.9854637 22.2378101,24.99 C23.303454,24.8540979 24.1054291,23.9338314 24.1128101,22.8384375 L24.1128101,22.8384375 Z" id="Path" stroke="#4550E5" fill="#FFFFFF" fill-rule="nonzero" stroke-linecap="round" stroke-linejoin="round"></path>
                <ellipse id="Oval" fill="#D6DAFF" fill-rule="nonzero" cx="6.45656008" cy="24.16125" rx="1.296875" ry="1.3228125"></ellipse>
                <ellipse id="Oval" fill="#D6DAFF" fill-rule="nonzero" cx="17.6440601" cy="24.16125" rx="1.296875" ry="1.3228125"></ellipse>
                <path d="M9.45656008,27.316875 C11.0245449,28.3747127 13.0604503,28.3747127 14.6284351,27.316875" id="Path" stroke="#4550E5" stroke-linecap="round" stroke-linejoin="round"></path>
                <path d="M23.2378101,16.6865625 C23.0128588,10.5458174 18.0670372,5.68605673 12.0424976,5.68605673 C6.01795801,5.68605673 1.07213641,10.5458174 0.84718508,16.6865625 L0.84718508,19.3321875 C0.84718508,19.8162996 1.23194037,20.20875 1.70656008,20.20875 L3.44093508,20.20875 C3.91555479,20.20875 4.30031008,19.8162996 4.30031008,19.3321875 C4.29438418,17.216708 5.13528338,15.1904232 6.62843508,13.7221875 C7.01391101,13.3406103 7.54872215,13.1587745 8.08156008,13.228125 C9.16552272,13.3763147 10.170924,13.8862675 10.9409351,14.6784375 C12.1754283,15.9630613 13.8648733,16.6868195 15.6284351,16.6865625 C16.784821,16.6771731 17.9177062,16.3525206 18.9096851,15.74625 C19.3437966,16.6023114 19.6242565,17.5306864 19.7378101,18.4875 C19.7854434,18.963113 20.1753786,19.3265595 20.6440601,19.3321875 L22.3628101,19.3321875 C22.5934637,19.3322264 22.8144508,19.23769 22.9760717,19.0698394 C23.1376925,18.9019888 23.2263788,18.6749153 23.2221851,18.4396875 L23.2378101,16.6865625 Z" id="Path" stroke="#4550E5" fill="#FFFFFF" fill-rule="nonzero" stroke-linecap="round" stroke-linejoin="round"></path>
                <path d="M23.2378101,16.6865625 C23.0128588,10.5458174 18.0670372,5.68605673 12.0424976,5.68605673 C6.01795801,5.68605673 1.07213641,10.5458174 0.84718508,16.6865625 L0.84718508,19.3321875 C0.84718508,19.8162996 1.23194037,20.20875 1.70656008,20.20875 L3.44093508,20.20875 C3.91555479,20.20875 4.30031008,19.8162996 4.30031008,19.3321875 C4.29438418,17.216708 5.13528338,15.1904232 6.62843508,13.7221875 C7.01391101,13.3406103 7.54872215,13.1587745 8.08156008,13.228125 C9.16552272,13.3763147 10.170924,13.8862675 10.9409351,14.6784375 C12.1754283,15.9630613 13.8648733,16.6868195 15.6284351,16.6865625 C16.784821,16.6771731 17.9177062,16.3525206 18.9096851,15.74625 C19.3437966,16.6023114 19.6242565,17.5306864 19.7378101,18.4875 C19.7854434,18.963113 20.1753786,19.3265595 20.6440601,19.3321875 L22.3628101,19.3321875 C22.5934637,19.3322264 22.8144508,19.23769 22.9760717,19.0698394 C23.1376925,18.9019888 23.2263788,18.6749153 23.2221851,18.4396875 L23.2378101,16.6865625 Z" id="Path" stroke="#4550E5" stroke-linecap="round" stroke-linejoin="round"></path>
                <path d="M18.9253101,15.74625 C19.1138205,15.6376971 19.2189018,15.4233312 19.1909351,15.204375 C19.1603203,14.9891464 19.0065159,14.8134403 18.8003101,14.758125 C17.4463816,14.365197 16.2727613,13.4956107 15.4878101,12.30375" id="Path" stroke="#4550E5" stroke-linecap="round" stroke-linejoin="round"></path>
                <path d="M8.17531008,19.3321875 C7.6479827,19.3257452 7.16934324,19.6456526 6.96461528,20.1413773 C6.75988732,20.637102 6.86984548,21.2099132 7.24274899,21.5902748 C7.61565249,21.9706364 8.17723209,22.0827937 8.66323674,21.8739712 C9.14924139,21.6651487 9.46287605,21.1769364 9.45656008,20.6390625 C9.44812694,19.9208885 8.87940221,19.3407893 8.17531008,19.3321875 L8.17531008,19.3321875 Z" id="Path" fill="#4550E5" fill-rule="nonzero"></path>
                <path d="M15.9253101,19.3321875 C15.3993594,19.3322264 14.9255132,19.6562711 14.7257317,20.1525316 C14.5259501,20.6487922 14.6397992,21.2189859 15.0139496,21.5960213 C15.3881,21.9730567 15.9484523,22.0822631 16.432525,21.8724858 C16.9165977,21.6627085 17.2285218,21.1754932 17.2221851,20.6390625 C17.2136286,19.9147249 16.6354965,19.3321349 15.9253101,19.3321875 L15.9253101,19.3321875 Z" id="Path" fill="#4550E5" fill-rule="nonzero"></path>
                <path d="M12.0815601,5.2753125 C15.0107828,5.29444942 17.8158022,6.48467527 19.8940601,8.5903125 C20.3472489,7.86049914 20.5908357,7.01574017 20.5971851,6.151875 C20.5971851,2.7571875 16.7378101,7.10542736e-15 11.9878101,7.10542736e-15 C7.23781008,7.10542736e-15 3.37843508,2.7571875 3.37843508,6.151875 C3.3847845,7.01574017 3.62837129,7.86049914 4.08156008,8.5903125 C6.20584814,6.43783855 9.08741946,5.24378743 12.0815601,5.2753125 Z" id="Path" stroke="#4550E5" fill="#FFFFFF" fill-rule="nonzero" stroke-linecap="round" stroke-linejoin="round"></path>
            </g>
        </g>
    </g>
</svg>