<svg xmlns="http://www.w3.org/2000/svg" xmlns:xlink="http://www.w3.org/1999/xlink" width="88" height="88" version="1.1" viewBox="0 0 88 88"><title>Slice</title><desc>Created with Sketch.</desc><defs><path id="path-1" d="M39.5,79.488106 C61.31585,79.488106 79,61.7975084 79,39.9759109 C79,18.1533255 61.31585,0.463715748 39.5,0.463715748 C17.68415,0.463715748 0,18.1533255 0,39.9759109 C0,61.7975084 17.68415,79.488106 39.5,79.488106 Z"/></defs><g id="Page-1" fill="none" fill-rule="evenodd" stroke="none" stroke-width="1"><g id="01-eiffel-tower" transform="translate(0.000000, 2.000000)"><g id="Background" transform="translate(0.000000, 4.000000)"><path id="Path" fill="#EDEEFF" fill-rule="nonzero" d="M84.5600164,40 C84.5584701,23.6646106 74.6240168,8.97150733 59.4650828,2.88449909 C44.3061489,-3.20250915 26.9690288,0.539804837 15.6706656,12.3377681 C4.37230241,24.1357314 1.38318178,41.6184602 8.12,56.5 L81,56.5 C83.3512625,51.3173067 84.5651574,45.6911087 84.5600164,40 L84.5600164,40 Z"/><line id="Path" x1="5.06" x2="83.06" y1="56.48" y2="56.48" stroke="#4550E5" stroke-linecap="round" stroke-linejoin="round"/><line id="Path" x1=".56" x2="3.06" y1="56.48" y2="56.48" stroke="#4550E5" stroke-linecap="round" stroke-linejoin="round"/><line id="Path" x1="85.06" x2="87.56" y1="56.48" y2="56.48" stroke="#4550E5" stroke-linecap="round" stroke-linejoin="round"/></g></g><g id="52--star-trek-space-colony-male-caucasian-2" transform="translate(2.000000, -8.000000)"><g id="Group-124" transform="translate(7.000000, 0.000000)"><mask id="mask-2" fill="#fff"><use xlink:href="#path-1"/></mask><polygon id="Fill-120" fill="#D6DAFF" points="39.329 80.171 56.933 80.171 56.933 72.288 39.329 72.288" mask="url(#mask-2)"/><line id="Stroke-122" x1="48.131" x2="48.131" y1="75.07" y2="80.171" stroke="#4550E5" stroke-linecap="round" stroke-linejoin="round" mask="url(#mask-2)"/><polygon id="Stroke-123" stroke="#4550E5" stroke-linecap="round" stroke-linejoin="round" points="39.329 80.171 56.933 80.171 56.933 72.288 39.329 72.288" mask="url(#mask-2)"/></g><g id="Group-119" transform="translate(0.000000, 12.000000)"><path id="Fill-9" fill="#F0F2FF" d="M10.6477273,62.3363713 C10.6477273,63.1024093 17.1136136,63.7224473 25.0909091,63.7224473 C33.0682045,63.7224473 39.5340909,63.1024093 39.5340909,62.3363713 C39.5340909,61.5703333 33.0682045,60.9502954 25.0909091,60.9502954 C17.1136136,60.9502954 10.6477273,61.5703333 10.6477273,62.3363713"/><path id="Fill-11" fill="#FFF" d="M64.0340909,45.8227848 C64.0340909,49.9052405 67.3718636,53.2151899 71.4886364,53.2151899 C75.6054091,53.2151899 78.9431818,49.9052405 78.9431818,45.8227848 L78.9431818,42.1265823 C78.9431818,41.6165063 78.5266591,41.2025316 78.0113636,41.2025316 L74.2840909,41.2025316 C73.7697273,41.2025316 73.3522727,41.6165063 73.3522727,42.1265823 L73.3522727,45.8227848 C73.3522727,46.8429367 72.5173636,47.6708861 71.4886364,47.6708861 C70.4599091,47.6708861 69.625,46.8429367 69.625,45.8227848 C69.625,37.9129114 63.1591136,31.5 55.1818182,31.5 C47.2045227,31.5 40.7386364,37.9129114 40.7386364,45.8227848 L40.7386364,62.4556962 L46.3295455,62.4556962 L46.3295455,61.9936709 L64.0340909,61.9936709 L64.0340909,45.8227848 Z"/><path id="Stroke-13" stroke="#4550E6" stroke-linecap="round" stroke-linejoin="round" d="M64.0340909,45.8227848 C64.0340909,49.9052405 67.3718636,53.2151899 71.4886364,53.2151899 C75.6054091,53.2151899 78.9431818,49.9052405 78.9431818,45.8227848 L78.9431818,42.1265823 C78.9431818,41.6165063 78.5266591,41.2025316 78.0113636,41.2025316 L74.2840909,41.2025316 C73.7697273,41.2025316 73.3522727,41.6165063 73.3522727,42.1265823 L73.3522727,45.8227848 C73.3522727,46.8429367 72.5173636,47.6708861 71.4886364,47.6708861 C70.4599091,47.6708861 69.625,46.8429367 69.625,45.8227848 C69.625,37.9129114 63.1591136,31.5 55.1818182,31.5 C47.2045227,31.5 40.7386364,37.9129114 40.7386364,45.8227848 L40.7386364,62.4556962 L46.3295455,62.4556962 L46.3295455,61.9936709 L64.0340909,61.9936709 L64.0340909,45.8227848 Z"/><line id="Stroke-15" x1="46.33" x2="46.33" y1="61.994" y2="44.437" stroke="#4550E6" stroke-linecap="round" stroke-linejoin="round"/><line id="Stroke-17" x1="64.034" x2="64.034" y1="45.823" y2="44.437" stroke="#4550E6" stroke-linecap="round" stroke-linejoin="round"/><path id="Fill-19" fill="#FFF" d="M62.1723182,45.3607595 C61.10725,44.8331266 59.8129545,45.1741013 59.1532273,46.1563671 L58.4450455,47.2088608 C58.4115,44.840519 58.9109545,42.1265823 60.3086818,41.2025316 C61.9375,41.810557 62.1723182,44.8987342 62.1723182,45.3607595"/><path id="Stroke-21" stroke="#4550E6" stroke-linecap="round" stroke-linejoin="round" d="M62.1723182,45.3607595 C61.10725,44.8331266 59.8129545,45.1741013 59.1532273,46.1563671 L58.4450455,47.2088608 C58.4115,44.840519 58.9109545,42.1265823 60.3086818,41.2025316 C61.9375,41.810557 62.1723182,44.8987342 62.1723182,45.3607595 Z"/><path id="Fill-23" fill="#D6DAFF" d="M58.4431818,31.8668481 L58.4431818,32.4240506 C57.5421136,33.3176076 56.3624318,33.8101266 55.1818182,33.8101266 C54.0002727,33.8101266 52.8215227,33.3176076 51.9204545,32.4240506 L51.9204545,31.8668481 C50.7836364,32.1265063 49.6980682,32.5210759 48.6814545,33.0293038 C50.3568636,34.876481 55.1818182,38.8924051 55.1818182,38.8924051 C55.1818182,38.8924051 60.0067727,34.876481 61.6821818,33.0293038 C60.6655682,32.5210759 59.58,32.1265063 58.4431818,31.8668481"/><path id="Stroke-25" stroke="#4550E6" stroke-linecap="round" stroke-linejoin="round" d="M58.4431818,31.8668481 L58.4431818,32.4240506 C57.5421136,33.3176076 56.3624318,33.8101266 55.1818182,33.8101266 C54.0002727,33.8101266 52.8215227,33.3176076 51.9204545,32.4240506 L51.9204545,31.8668481 C50.7836364,32.1265063 49.6980682,32.5210759 48.6814545,33.0293038 C50.3568636,34.876481 55.1818182,38.8924051 55.1818182,38.8924051 C55.1818182,38.8924051 60.0067727,34.876481 61.6821818,33.0293038 C60.6655682,32.5210759 59.58,32.1265063 58.4431818,31.8668481 Z"/><path id="Fill-27" fill="#FFF" d="M51.9204545,28.7278481 L51.9204545,32.4240506 C52.8215227,33.3166835 54.0012045,33.8101266 55.1818182,33.8101266 C56.3624318,33.8101266 57.5421136,33.3176076 58.4431818,32.4240506 L58.4431818,28.7278481 L51.9204545,28.7278481 Z"/><path id="Stroke-29" stroke="#4550E6" stroke-linecap="round" stroke-linejoin="round" d="M51.9204545,28.7278481 L51.9204545,32.4240506 C52.8215227,33.3166835 54.0012045,33.8101266 55.1818182,33.8101266 C56.3624318,33.8101266 57.5421136,33.3176076 58.4431818,32.4240506 L58.4431818,28.7278481 L51.9204545,28.7278481 Z"/><path id="Fill-31" fill="#FFF" d="M71.5423091,35.6040785 C71.74265,35.6761544 71.9662864,35.6456608 72.1414682,35.5246101 C72.3157182,35.4026354 72.41915,35.2039646 72.41915,34.992357 L72.41915,30.576319 C72.41915,30.065319 72.8366045,29.6522684 73.3509682,29.6522684 C73.8653318,29.6522684 74.2827864,30.065319 74.2827864,30.576319 L74.2827864,29.6522684 C74.2827864,29.1412684 74.7002409,28.7282177 75.2146045,28.7282177 C75.7289682,28.7282177 76.1464227,29.1412684 76.1464227,29.6522684 L76.1464227,33.5166481 C76.1464227,33.679281 76.2796727,33.8104962 76.4427409,33.8104962 C76.5582864,33.8104962 76.66265,33.7439646 76.7111045,33.6413949 L78.3809227,30.1161418 C78.5989682,29.6541165 79.1543318,29.4545215 79.6202409,29.6716734 C80.08615,29.8879013 80.2874227,30.4377114 80.0684455,30.8997367 L79.7777182,31.5142304 C80.0004227,31.0623696 80.5464682,30.868319 81.0067864,31.0826987 C81.4726955,31.2989266 81.6739682,31.8496608 81.4559227,32.3116861 L79.8736955,35.6585975 L79.8736955,36.2620025 C79.8736955,37.6979772 79.3751727,39.0822051 78.4759682,40.1984582 L78.4759682,41.2029013 L73.8168773,41.2029013 L73.8168773,40.3204329 C72.9829,39.8195975 72.41915,38.9186481 72.41915,37.8809392 L69.1577864,36.7184835 C69.5053545,35.7583949 70.5732182,35.2584835 71.5423091,35.6040785"/><path id="Stroke-33" stroke="#4550E6" stroke-linecap="round" stroke-linejoin="round" d="M71.5423091,35.6040785 C71.74265,35.6761544 71.9662864,35.6456608 72.1414682,35.5246101 C72.3157182,35.4026354 72.41915,35.2039646 72.41915,34.992357 L72.41915,30.576319 C72.41915,30.065319 72.8366045,29.6522684 73.3509682,29.6522684 C73.8653318,29.6522684 74.2827864,30.065319 74.2827864,30.576319 L74.2827864,29.6522684 C74.2827864,29.1412684 74.7002409,28.7282177 75.2146045,28.7282177 C75.7289682,28.7282177 76.1464227,29.1412684 76.1464227,29.6522684 L76.1464227,33.5166481 C76.1464227,33.679281 76.2796727,33.8104962 76.4427409,33.8104962 C76.5582864,33.8104962 76.66265,33.7439646 76.7111045,33.6413949 L78.3809227,30.1161418 C78.5989682,29.6541165 79.1543318,29.4545215 79.6202409,29.6716734 C80.08615,29.8879013 80.2874227,30.4377114 80.0684455,30.8997367 L79.7777182,31.5142304 C80.0004227,31.0623696 80.5464682,30.868319 81.0067864,31.0826987 C81.4726955,31.2989266 81.6739682,31.8496608 81.4559227,32.3116861 L79.8736955,35.6585975 L79.8736955,36.2620025 C79.8736955,37.6979772 79.3751727,39.0822051 78.4759682,40.1984582 L78.4759682,41.2029013 L73.8168773,41.2029013 L73.8168773,40.3204329 C72.9829,39.8195975 72.41915,38.9186481 72.41915,37.8809392 L69.1577864,36.7184835 C69.5053545,35.7583949 70.5732182,35.2584835 71.5423091,35.6040785 Z"/><line id="Stroke-35" x1="78.186" x2="79.768" y1="34.874" y2="31.527" stroke="#4550E6" stroke-linecap="round" stroke-linejoin="round"/><line id="Stroke-37" x1="74.283" x2="74.283" y1="30.576" y2="33.81" stroke="#4550E6" stroke-linecap="round" stroke-linejoin="round"/><path id="Fill-39" fill="#FFF" d="M67.2954545,19.4873418 C65.8977273,16.2531646 67.7613636,13.4810127 65.4318182,13.4810127 C65.4318182,15.3817848 64.7748864,15.9796456 64.5,17.0617089 L64.5,16.7151899 C64.5,11.6116582 60.3273182,7.47468354 55.1818182,7.47468354 C50.0363182,7.47468354 45.8636364,11.6116582 45.8636364,16.7151899 L45.8636364,17.0617089 C45.58875,15.9796456 44.9318182,15.3817848 44.9318182,13.4810127 C42.6022727,13.4810127 44.4659091,16.2531646 43.0681818,19.4873418 C42.1317045,21.6523924 44.7398636,22.7667975 45.97825,22.7141266 C46.6510227,27.1615823 50.50875,30.5759494 55.1818182,30.5759494 C59.8548864,30.5759494 63.7116818,27.1615823 64.3853864,22.7141266 C65.6237727,22.7667975 68.231,21.6523924 67.2954545,19.4873418"/><path id="Stroke-41" stroke="#4550E6" stroke-linecap="round" stroke-linejoin="round" d="M67.2954545,19.4873418 C65.8977273,16.2531646 67.7613636,13.4810127 65.4318182,13.4810127 C65.4318182,15.3817848 64.7748864,15.9796456 64.5,17.0617089 L64.5,16.7151899 C64.5,11.6116582 60.3273182,7.47468354 55.1818182,7.47468354 C50.0363182,7.47468354 45.8636364,11.6116582 45.8636364,16.7151899 L45.8636364,17.0617089 C45.58875,15.9796456 44.9318182,15.3817848 44.9318182,13.4810127 C42.6022727,13.4810127 44.4659091,16.2531646 43.0681818,19.4873418 C42.1317045,21.6523924 44.7398636,22.7667975 45.97825,22.7141266 C46.6510227,27.1615823 50.50875,30.5759494 55.1818182,30.5759494 C59.8548864,30.5759494 63.7116818,27.1615823 64.3853864,22.7141266 C65.6237727,22.7667975 68.231,21.6523924 67.2954545,19.4873418 Z"/><polyline id="Stroke-43" stroke="#4550E6" stroke-linecap="round" stroke-linejoin="round" points="57.52 17.64 60.773 16.715 61.238 15.791"/><polyline id="Stroke-45" stroke="#4550E6" stroke-linecap="round" stroke-linejoin="round" points="52.852 17.639 49.599 16.713 49.133 15.79"/><path id="Fill-47" fill="#D6DAFF" d="M59.375,22.9525316 C59.375,23.5901266 59.8968182,24.1075949 60.5397727,24.1075949 C61.1827273,24.1075949 61.7045455,23.5901266 61.7045455,22.9525316 C61.7045455,22.3149367 61.1827273,21.7974684 60.5397727,21.7974684 C59.8968182,21.7974684 59.375,22.3149367 59.375,22.9525316"/><path id="Fill-49" fill="#D6DAFF" d="M50.9886364,22.9525316 C50.9886364,23.5901266 50.4668182,24.1075949 49.8238636,24.1075949 C49.1809091,24.1075949 48.6590909,23.5901266 48.6590909,22.9525316 C48.6590909,22.3149367 49.1809091,21.7974684 49.8238636,21.7974684 C50.4668182,21.7974684 50.9886364,22.3149367 50.9886364,22.9525316"/><path id="Stroke-51" stroke="#4550E6" stroke-linecap="round" stroke-linejoin="round" d="M57.9845409,25.2992506 C56.2877,26.7814278 54.0764955,26.7814278 52.3777909,25.2992506"/><path id="Stroke-53" stroke="#4550E6" stroke-linecap="round" stroke-linejoin="round" d="M50.0486182,19.9493671 C50.3374818,19.4060253 50.8443909,19.0225443 51.4510045,19.0225443 C52.0566864,19.0225443 52.5635955,19.4060253 52.8524591,19.9493671"/><path id="Stroke-55" stroke="#4550E6" stroke-linecap="round" stroke-linejoin="round" d="M57.5077295,19.9520468 C57.7965932,19.407781 58.3035023,19.0252241 58.9091841,19.0252241 C59.5148659,19.0252241 60.021775,19.407781 60.3106386,19.9520468"/><path id="Fill-57" fill="#FFF" d="M46.3295455,65.2278481 C46.3295455,66.759 45.0781136,68 43.5340909,68 C41.9900682,68 40.7386364,66.759 40.7386364,65.2278481 L40.7386364,62.4556962 L46.3295455,62.4556962 L46.3295455,65.2278481 Z"/><path id="Stroke-59" stroke="#4550E6" stroke-linecap="round" stroke-linejoin="round" d="M46.3295455,65.2278481 C46.3295455,66.759 45.0781136,68 43.5340909,68 C41.9900682,68 40.7386364,66.759 40.7386364,65.2278481 L40.7386364,62.4556962 L46.3295455,62.4556962 L46.3295455,65.2278481 Z"/><path id="Fill-73" fill="#FFF" d="M65.8969131,13.5292481 C65.9228864,8.23721013 61.6076364,4.24069114 56.2804318,4.24069114 L54.0832045,4.24069114 C48.7550682,4.24069114 44.44075,8.23721013 44.4667232,13.5292481 C44.6000909,13.4978304 44.7538409,13.4811975 44.9318182,13.4811975 C44.9318182,16.2533494 46.3295455,16.2533494 45.9009091,19.0255013 C45.9009091,19.0255013 47.2613636,19.4875266 47.2613636,17.6394253 L47.2613636,13.9432228 C47.2613636,13.9432228 50.0568182,14.8672734 55.1818182,14.8672734 C60.3068182,14.8672734 63.1022727,13.9432228 63.1022727,13.9432228 L63.1022727,17.6394253 C63.1022727,19.4875266 64.4627273,19.0255013 64.4627273,19.0255013 C64.0340909,16.2533494 65.4318182,16.2533494 65.4318182,13.4811975 C65.6097955,13.4811975 65.7635455,13.4978304 65.8969131,13.5292481"/><path id="Stroke-75" stroke="#4550E6" stroke-linecap="round" stroke-linejoin="round" d="M65.8969131,13.5292481 C65.9228864,8.23721013 61.6076364,4.24069114 56.2804318,4.24069114 L54.0832045,4.24069114 C48.7550682,4.24069114 44.44075,8.23721013 44.4667232,13.5292481 C44.6000909,13.4978304 44.7538409,13.4811975 44.9318182,13.4811975 C44.9318182,16.2533494 46.3295455,16.2533494 45.9009091,19.0255013 C45.9009091,19.0255013 47.2613636,19.4875266 47.2613636,17.6394253 L47.2613636,13.9432228 C47.2613636,13.9432228 50.0568182,14.8672734 55.1818182,14.8672734 C60.3068182,14.8672734 63.1022727,13.9432228 63.1022727,13.9432228 L63.1022727,17.6394253 C63.1022727,19.4875266 64.4627273,19.0255013 64.4627273,19.0255013 C64.0340909,16.2533494 65.4318182,16.2533494 65.4318182,13.4811975 C65.6097955,13.4811975 65.7635455,13.4978304 65.8969131,13.5292481 Z"/><line id="Stroke-61" x1="34.477" x2="37.273" y1="12.165" y2="12.165" stroke="#4550E5" stroke-linecap="round" stroke-linejoin="round"/><line id="Stroke-63" x1="35.875" x2="35.875" y1="10.778" y2="13.551" stroke="#4550E5" stroke-linecap="round" stroke-linejoin="round"/><line id="Stroke-65" x1="29.818" x2="32.614" y1="22.791" y2="22.791" stroke="#4550E5" stroke-linecap="round" stroke-linejoin="round"/><line id="Stroke-67" x1="31.216" x2="31.216" y1="21.405" y2="24.177" stroke="#4550E5" stroke-linecap="round" stroke-linejoin="round"/><line id="Stroke-69" x1="18.17" x2="20.966" y1="19.095" y2="19.095" stroke="#4550E5" stroke-linecap="round" stroke-linejoin="round"/><line id="Stroke-71" x1="19.568" x2="19.568" y1="17.709" y2="20.481" stroke="#4550E5" stroke-linecap="round" stroke-linejoin="round"/><path id="Fill-77" fill="#FFF" d="M12.9090909,34.4177215 C12.9090909,34.4177215 10.5795455,40.7687215 10.5795455,44.1202532 L26.4204545,44.1202532 C26.93575,44.1202532 27.3522727,43.7062785 27.3522727,43.1962025 L27.3522727,40.8860759 L19.0097045,40.8860759 C18.0424773,40.8860759 15.2386364,39.0379747 17.4218864,34.4177215 L12.9090909,34.4177215 Z"/><path id="Stroke-79" stroke="#4550E6" stroke-linecap="round" stroke-linejoin="round" d="M12.9090909,34.4177215 C12.9090909,34.4177215 10.5795455,40.7687215 10.5795455,44.1202532 L26.4204545,44.1202532 C26.93575,44.1202532 27.3522727,43.7062785 27.3522727,43.1962025 L27.3522727,40.8860759 L19.0097045,40.8860759 C18.0424773,40.8860759 15.2386364,39.0379747 17.4218864,34.4177215 L12.9090909,34.4177215 Z"/><path id="Fill-81" fill="#FFF" d="M12.6897409,44.1202532 L26.4200818,44.1202532 C26.9353773,44.1202532 27.3519,43.7062785 27.3519,43.1962025 L27.3519,40.4240506 C27.3519,40.1690127 27.1441045,39.9620253 26.8859909,39.9620253 L21.6137636,39.9620253 C18.1185136,39.9620253 14.8208091,41.3360886 12.6897409,44.1202532"/><path id="Stroke-83" stroke="#4550E6" stroke-linecap="round" stroke-linejoin="round" d="M12.6897409,44.1202532 L26.4200818,44.1202532 C26.9353773,44.1202532 27.3519,43.7062785 27.3519,43.1962025 L27.3519,40.4240506 C27.3519,40.1690127 27.1441045,39.9620253 26.8859909,39.9620253 L21.6137636,39.9620253 C18.1185136,39.9620253 14.8208091,41.3360886 12.6897409,44.1202532 Z"/><path id="Fill-85" fill="#FFF" d="M27.1057136,42.2721519 C36.6708273,42.2721519 38.5614864,39.0379747 38.5614864,39.0379747 L15.7049182,39.0379747 C15.7049182,39.0379747 17.5406,42.2721519 27.1057136,42.2721519"/><path id="Stroke-87" stroke="#4550E6" stroke-linecap="round" stroke-linejoin="round" d="M27.1057136,42.2721519 C36.6708273,42.2721519 38.5614864,39.0379747 38.5614864,39.0379747 L15.7049182,39.0379747 C15.7049182,39.0379747 17.5406,42.2721519 27.1057136,42.2721519 Z"/><path id="Fill-89" fill="#FFF" d="M27.8181818,48.278481 L29.2159091,48.278481 C29.7312045,48.278481 30.1477273,47.8645063 30.1477273,47.3544304 C30.1477273,46.8443544 29.7312045,46.4303797 29.2159091,46.4303797 L27.8181818,46.4303797 L27.8181818,48.278481 Z"/><path id="Stroke-91" stroke="#4550E6" stroke-linecap="round" stroke-linejoin="round" d="M27.8181818,48.278481 L29.2159091,48.278481 C29.7312045,48.278481 30.1477273,47.8645063 30.1477273,47.3544304 C30.1477273,46.8443544 29.7312045,46.4303797 29.2159091,46.4303797 L27.8181818,46.4303797 L27.8181818,48.278481 Z"/><path id="Fill-93" fill="#D6DAFF" d="M21.2954545,31.1835443 C21.2954545,31.9495823 20.6692727,32.5696203 19.8977273,32.5696203 L11.0454545,32.5696203 C10.2739091,32.5696203 9.64772727,31.9495823 9.64772727,31.1835443 C9.64772727,30.4184304 10.2739091,29.7974684 11.0454545,29.7974684 L19.8977273,29.7974684 C20.6692727,29.7974684 21.2954545,30.4184304 21.2954545,31.1835443"/><path id="Stroke-95" stroke="#4550E6" stroke-linecap="round" stroke-linejoin="round" d="M21.2954545,31.1835443 C21.2954545,31.9495823 20.6692727,32.5696203 19.8977273,32.5696203 L11.0454545,32.5696203 C10.2739091,32.5696203 9.64772727,31.9495823 9.64772727,31.1835443 C9.64772727,30.4184304 10.2739091,29.7974684 11.0454545,29.7974684 L19.8977273,29.7974684 C20.6692727,29.7974684 21.2954545,30.4184304 21.2954545,31.1835443 Z"/><path id="Fill-97" fill="#FFF" d="M17.3061545,34.4177215 L13.1716773,34.4177215 C12.7439727,34.4177215 12.3712455,34.1294177 12.2678136,33.7182152 L11.9780182,32.5696203 L18.4998136,32.5696203 L18.21095,33.7182152 C18.1065864,34.1294177 17.7338591,34.4177215 17.3061545,34.4177215"/><path id="Stroke-99" stroke="#4550E6" stroke-linecap="round" stroke-linejoin="round" d="M17.3061545,34.4177215 L13.1716773,34.4177215 C12.7439727,34.4177215 12.3712455,34.1294177 12.2678136,33.7182152 L11.9780182,32.5696203 L18.4998136,32.5696203 L18.21095,33.7182152 C18.1065864,34.1294177 17.7338591,34.4177215 17.3061545,34.4177215 Z"/><path id="Fill-101" fill="#FFF" d="M26.5378636,46.1402278 C26.4670455,46.3148734 26.2955909,46.4303797 26.1045682,46.4303797 L10.8125,46.4303797 C10.1695455,46.4303797 9.64772727,45.9129114 9.64772727,45.2753165 C9.64772727,44.6377215 10.1695455,44.1202532 10.8125,44.1202532 L25.9759773,44.1202532 C26.6347727,44.1202532 27.0857727,44.7809494 26.8407045,45.3880506 L26.5378636,46.1402278 Z"/><path id="Stroke-103" stroke="#4550E6" stroke-linecap="round" stroke-linejoin="round" d="M26.5378636,46.1402278 C26.4670455,46.3148734 26.2955909,46.4303797 26.1045682,46.4303797 L10.8125,46.4303797 C10.1695455,46.4303797 9.64772727,45.9129114 9.64772727,45.2753165 C9.64772727,44.6377215 10.1695455,44.1202532 10.8125,44.1202532 L25.9759773,44.1202532 C26.6347727,44.1202532 27.0857727,44.7809494 26.8407045,45.3880506 L26.5378636,46.1402278 Z"/><path id="Fill-105" fill="#FFF" d="M12.9090909,47.3544304 C12.9090909,48.1204684 13.5352727,48.7405063 14.3068182,48.7405063 L27.3522727,48.7405063 C27.6094545,48.7405063 27.8181818,48.533519 27.8181818,48.278481 L27.8181818,46.4303797 C27.8181818,46.1753418 27.6094545,45.9683544 27.3522727,45.9683544 L14.3068182,45.9683544 C13.5352727,45.9683544 12.9090909,46.5893165 12.9090909,47.3544304"/><path id="Stroke-107" stroke="#4550E6" stroke-linecap="round" stroke-linejoin="round" d="M12.9090909,47.3544304 C12.9090909,48.1204684 13.5352727,48.7405063 14.3068182,48.7405063 L27.3522727,48.7405063 C27.6094545,48.7405063 27.8181818,48.533519 27.8181818,48.278481 L27.8181818,46.4303797 C27.8181818,46.1753418 27.6094545,45.9683544 27.3522727,45.9683544 L14.3068182,45.9683544 C13.5352727,45.9683544 12.9090909,46.5893165 12.9090909,47.3544304 Z"/><line id="Stroke-109" x1="31.545" x2="30.148" y1="47.354" y2="47.354" stroke="#4550E6" stroke-linecap="round" stroke-linejoin="round"/><path id="Fill-111" fill="#D6DAFF" d="M27.1057136,35.3417722 C22.2984636,35.3417722 15.0284182,36.3342025 13.6167136,38.332 C13.4079864,38.6286203 13.6521227,39.0379747 14.0173955,39.0379747 L40.2145318,39.0379747 C40.5816682,39.0379747 40.8276682,38.624 40.61335,38.3292278 C39.17835,36.3600759 31.9045773,35.3417722 27.1057136,35.3417722"/><path id="Stroke-113" stroke="#4550E6" stroke-linecap="round" stroke-linejoin="round" d="M27.1057136,35.3417722 C22.2984636,35.3417722 15.0284182,36.3342025 13.6167136,38.332 C13.4079864,38.6286203 13.6521227,39.0379747 14.0173955,39.0379747 L40.2145318,39.0379747 C40.5816682,39.0379747 40.8276682,38.624 40.61335,38.3292278 C39.17835,36.3600759 31.9045773,35.3417722 27.1057136,35.3417722 Z"/><path id="Fill-115" fill="#D6DAFF" d="M25.4886364,48.7405063 L27.3522727,48.7405063 C27.6094545,48.7405063 27.8181818,48.533519 27.8181818,48.278481 L27.8181818,46.4303797 C27.8181818,46.1753418 27.6094545,45.9683544 27.3522727,45.9683544 L25.4886364,45.9683544 L25.4886364,48.7405063 Z"/><path id="Stroke-117" stroke="#4550E6" stroke-linecap="round" stroke-linejoin="round" d="M25.4886364,48.7405063 L27.3522727,48.7405063 C27.6094545,48.7405063 27.8181818,48.533519 27.8181818,48.278481 L27.8181818,46.4303797 C27.8181818,46.1753418 27.6094545,45.9683544 27.3522727,45.9683544 L25.4886364,45.9683544 L25.4886364,48.7405063 Z"/></g></g></g></svg>