<svg width="40" height="41" viewBox="0 0 40 41" fill="none" xmlns="http://www.w3.org/2000/svg">
<g id="bird">
<path id="Path" d="M28.3818 24.2143C28.3864 24.2143 28.3864 24.2143 28.391 24.2143C31.439 24.2097 33.9912 22.1009 34.6843 19.2616L28.3818 17.8971V24.2143Z" fill="white"/>
<path id="Oval" d="M25.7241 16.8956C26.543 16.8956 27.2068 16.2312 27.2068 15.4116C27.2068 14.592 26.543 13.9276 25.7241 13.9276C24.9053 13.9276 24.2415 14.592 24.2415 15.4116C24.2415 16.2312 24.9053 16.8956 25.7241 16.8956Z" fill="white"/>
<path id="Path_2" d="M40 17.8053C40 14.4192 38.5403 11.3732 36.2176 9.25978C34.3401 7.55069 31.8935 6.45723 29.199 6.29184C28.9419 6.27805 28.6849 6.26886 28.4278 6.26886C25.9353 6.24589 23.4703 6.74208 21.1889 7.6977C20.4177 8.01931 19.6649 8.39605 18.9442 8.82332L16.112 2.53825L14.9782 0.0251465C12.1643 1.29778 10.0987 3.54901 9.00161 6.19535L13.3716 10.0638L8.54257 7.50934L2.03351 3.89818C-1.95547 11.0791 0.674776 20.1714 7.84485 24.1638L0 39.1414C3.75947 41.117 8.40946 39.6698 10.3833 35.9024C10.4935 35.6956 10.5899 35.4797 10.6771 35.2684C10.4384 35.1443 10.2043 35.0203 9.97016 34.8916C9.54785 34.6573 9.13013 34.4184 8.71701 34.1749C7.89534 33.6833 7.08744 33.1642 6.3025 32.6312C7.18843 32.9758 8.08813 33.2928 8.98783 33.5868C9.43769 33.7293 9.88754 33.8671 10.342 33.9957C10.6863 34.0922 11.0351 34.1841 11.3748 34.2622C18.1822 34.5287 24.8611 30.9497 28.235 24.5038L28.3681 24.219C28.3268 24.219 28.2855 24.219 28.2442 24.219C23.7365 24.1409 20.1056 20.4608 20.1056 15.9308C20.1056 15.8021 20.1102 15.6781 20.1148 15.5494C20.3121 11.1572 23.9477 7.65636 28.3819 7.63798C28.3819 10.4176 28.3819 16.5372 28.3819 17.5664L39.7797 20.0335C39.922 19.3122 40 18.5679 40 17.8053Z" fill="white"/>
</g>
</svg>
