<svg xmlns="http://www.w3.org/2000/svg" xmlns:xlink="http://www.w3.org/1999/xlink" width="1531" height="505" version="1.1" viewBox="0 0 1531 505"><title>Slice</title><desc>Created with Sketch.</desc><g id="Page-1" fill="none" fill-rule="evenodd" stroke="none" stroke-width="1"><g id="P2P" transform="translate(898.000000, 54.000000)"><path id="Line-6" stroke="#454EE0" stroke-linecap="square" stroke-width="5" d="M143.5,280.5 L145.5,34.5"/><line id="Line-5" x1="35.5" x2="253.5" y1="216.5" y2="98.5" stroke="#454EE0" stroke-linecap="square" stroke-width="5"/><line id="Line-5-Copy" x1="35.5" x2="145.5" y1="216.5" y2="34.5" stroke="#454EE0" stroke-linecap="square" stroke-width="5"/><line id="Line-5-Copy-2" x1="35.5" x2="252.5" y1="216.5" y2="216.5" stroke="#454EE0" stroke-linecap="square" stroke-width="5"/><line id="Line-5" x1="35.5" x2="253.5" y1="98.5" y2="216.5" stroke="#454EE0" stroke-linecap="square" stroke-width="5"/><line id="Line-5-Copy-5" x1="145.5" x2="253.5" y1="34.5" y2="216.5" stroke="#454EE0" stroke-linecap="square" stroke-width="5"/><line id="Line-5-Copy-6" x1="145.5" x2="252.5" y1="280.5" y2="98.5" stroke="#454EE0" stroke-linecap="square" stroke-width="5"/><line id="Line-5-Copy-3" x1="35.5" x2="145.5" y1="98.5" y2="280.5" stroke="#454EE0" stroke-linecap="square" stroke-width="5"/><line id="Line-5-Copy-4" x1="35.5" x2="252.5" y1="98.5" y2="98.5" stroke="#454EE0" stroke-linecap="square" stroke-width="5"/><polygon id="Line-5" stroke="#454EE0" stroke-linecap="square" stroke-width="5" points="34.5 216.5 34.5 98.5 144.5 34.5 252 98 252.5 216 145 280"/><circle id="Oval" cx="145.5" cy="280.5" r="34.5" fill="#7F85F4" stroke="#454EE0" stroke-width="6"/><path id="P" fill="#FFF" fill-rule="nonzero" d="M143.632812,294 L143.632812,283.316406 L146.601562,283.316406 C150.208333,283.316406 152.988281,282.522135 154.941406,280.933594 C156.894531,279.345052 157.871094,277.059896 157.871094,274.078125 C157.871094,271.239583 156.982422,269.091146 155.205078,267.632812 C153.427734,266.174479 150.755208,265.445312 147.1875,265.445312 L147.1875,265.445312 L138.964844,265.445312 L138.964844,294 L143.632812,294 Z M146.113281,279.390625 L143.632812,279.390625 L143.632812,269.351562 L146.875,269.351562 C148.997396,269.351562 150.559896,269.755208 151.5625,270.5625 C152.565104,271.369792 153.066406,272.59375 153.066406,274.234375 C153.066406,276.005208 152.50651,277.307292 151.386719,278.140625 C150.266927,278.973958 148.509115,279.390625 146.113281,279.390625 L146.113281,279.390625 Z"/><circle id="Oval" cx="145.5" cy="34.5" r="34.5" fill="#7F85F4" stroke="#454EE0" stroke-width="6"/><path id="P" fill="#FFF" fill-rule="nonzero" d="M143.632812,49 L143.632812,38.3164062 L146.601562,38.3164062 C150.208333,38.3164062 152.988281,37.5221354 154.941406,35.9335938 C156.894531,34.3450521 157.871094,32.0598958 157.871094,29.078125 C157.871094,26.2395833 156.982422,24.0911458 155.205078,22.6328125 C153.427734,21.1744792 150.755208,20.4453125 147.1875,20.4453125 L147.1875,20.4453125 L138.964844,20.4453125 L138.964844,49 L143.632812,49 Z M146.113281,34.390625 L143.632812,34.390625 L143.632812,24.3515625 L146.875,24.3515625 C148.997396,24.3515625 150.559896,24.7552083 151.5625,25.5625 C152.565104,26.3697917 153.066406,27.59375 153.066406,29.234375 C153.066406,31.0052083 152.50651,32.3072917 151.386719,33.140625 C150.266927,33.9739583 148.509115,34.390625 146.113281,34.390625 L146.113281,34.390625 Z"/><circle id="Oval" cx="252.5" cy="98.5" r="34.5" fill="#7F85F4" stroke="#454EE0" stroke-width="6"/><path id="P" fill="#FFF" fill-rule="nonzero" d="M250.632812,113 L250.632812,102.316406 L253.601562,102.316406 C257.208333,102.316406 259.988281,101.522135 261.941406,99.9335938 C263.894531,98.3450521 264.871094,96.0598958 264.871094,93.078125 C264.871094,90.2395833 263.982422,88.0911458 262.205078,86.6328125 C260.427734,85.1744792 257.755208,84.4453125 254.1875,84.4453125 L254.1875,84.4453125 L245.964844,84.4453125 L245.964844,113 L250.632812,113 Z M253.113281,98.390625 L250.632812,98.390625 L250.632812,88.3515625 L253.875,88.3515625 C255.997396,88.3515625 257.559896,88.7552083 258.5625,89.5625 C259.565104,90.3697917 260.066406,91.59375 260.066406,93.234375 C260.066406,95.0052083 259.50651,96.3072917 258.386719,97.140625 C257.266927,97.9739583 255.509115,98.390625 253.113281,98.390625 L253.113281,98.390625 Z"/><circle id="Oval" cx="252.5" cy="216.5" r="34.5" fill="#7F85F4" stroke="#454EE0" stroke-width="6"/><path id="P" fill="#FFF" fill-rule="nonzero" d="M250.632812,231 L250.632812,220.316406 L253.601562,220.316406 C257.208333,220.316406 259.988281,219.522135 261.941406,217.933594 C263.894531,216.345052 264.871094,214.059896 264.871094,211.078125 C264.871094,208.239583 263.982422,206.091146 262.205078,204.632812 C260.427734,203.174479 257.755208,202.445312 254.1875,202.445312 L254.1875,202.445312 L245.964844,202.445312 L245.964844,231 L250.632812,231 Z M253.113281,216.390625 L250.632812,216.390625 L250.632812,206.351562 L253.875,206.351562 C255.997396,206.351562 257.559896,206.755208 258.5625,207.5625 C259.565104,208.369792 260.066406,209.59375 260.066406,211.234375 C260.066406,213.005208 259.50651,214.307292 258.386719,215.140625 C257.266927,215.973958 255.509115,216.390625 253.113281,216.390625 L253.113281,216.390625 Z"/><circle id="Oval" cx="34.5" cy="98.5" r="34.5" fill="#7F85F4" stroke="#454EE0" stroke-width="6"/><path id="P" fill="#FFF" fill-rule="nonzero" d="M32.6328125,112 L32.6328125,101.316406 L35.6015625,101.316406 C39.2083333,101.316406 41.9882812,100.522135 43.9414062,98.9335938 C45.8945312,97.3450521 46.8710938,95.0598958 46.8710938,92.078125 C46.8710938,89.2395833 45.9824219,87.0911458 44.2050781,85.6328125 C42.4277344,84.1744792 39.7552083,83.4453125 36.1875,83.4453125 L36.1875,83.4453125 L27.9648438,83.4453125 L27.9648438,112 L32.6328125,112 Z M35.1132812,97.390625 L32.6328125,97.390625 L32.6328125,87.3515625 L35.875,87.3515625 C37.9973958,87.3515625 39.5598958,87.7552083 40.5625,88.5625 C41.5651042,89.3697917 42.0664062,90.59375 42.0664062,92.234375 C42.0664062,94.0052083 41.5065104,95.3072917 40.3867188,96.140625 C39.2669271,96.9739583 37.5091146,97.390625 35.1132812,97.390625 L35.1132812,97.390625 Z"/><circle id="Oval" cx="34.5" cy="216.5" r="34.5" fill="#7F85F4" stroke="#454EE0" stroke-width="6"/><path id="P" fill="#FFF" fill-rule="nonzero" d="M32.6328125,230 L32.6328125,219.316406 L35.6015625,219.316406 C39.2083333,219.316406 41.9882812,218.522135 43.9414062,216.933594 C45.8945312,215.345052 46.8710938,213.059896 46.8710938,210.078125 C46.8710938,207.239583 45.9824219,205.091146 44.2050781,203.632812 C42.4277344,202.174479 39.7552083,201.445312 36.1875,201.445312 L36.1875,201.445312 L27.9648438,201.445312 L27.9648438,230 L32.6328125,230 Z M35.1132812,215.390625 L32.6328125,215.390625 L32.6328125,205.351562 L35.875,205.351562 C37.9973958,205.351562 39.5598958,205.755208 40.5625,206.5625 C41.5651042,207.369792 42.0664062,208.59375 42.0664062,210.234375 C42.0664062,212.005208 41.5065104,213.307292 40.3867188,214.140625 C39.2669271,214.973958 37.5091146,215.390625 35.1132812,215.390625 L35.1132812,215.390625 Z"/><path fill="#454EE0" fill-rule="nonzero" d="M116.412109,397 L116.412109,386.316406 L119.380859,386.316406 C122.98763,386.316406 125.767578,385.522135 127.720703,383.933594 C129.673828,382.345052 130.650391,380.059896 130.650391,377.078125 C130.650391,374.239583 129.761719,372.091146 127.984375,370.632812 C126.207031,369.174479 123.534505,368.445312 119.966797,368.445312 L119.966797,368.445312 L111.744141,368.445312 L111.744141,397 L116.412109,397 Z M118.892578,382.390625 L116.412109,382.390625 L116.412109,372.351562 L119.654297,372.351562 C121.776693,372.351562 123.339193,372.755208 124.341797,373.5625 C125.344401,374.369792 125.845703,375.59375 125.845703,377.234375 C125.845703,379.005208 125.285807,380.307292 124.166016,381.140625 C123.046224,381.973958 121.288411,382.390625 118.892578,382.390625 L118.892578,382.390625 Z M153.697266,397 L153.697266,392.957031 L140.142578,392.957031 L140.142578,392.761719 L145.103516,387.957031 C147.330078,385.860677 148.921875,384.197266 149.878906,382.966797 C150.835938,381.736328 151.545573,380.541667 152.007812,379.382812 C152.470052,378.223958 152.701172,377 152.701172,375.710938 C152.701172,373.367188 151.900391,371.501953 150.298828,370.115234 C148.697266,368.728516 146.568359,368.035156 143.912109,368.035156 C142.219401,368.035156 140.624349,368.315104 139.126953,368.875 C137.629557,369.434896 136.086589,370.385417 134.498047,371.726562 L134.498047,371.726562 L136.978516,374.753906 C138.319661,373.699219 139.501302,372.970052 140.523438,372.566406 C141.545573,372.16276 142.603516,371.960938 143.697266,371.960938 C145.064453,371.960938 146.135417,372.332031 146.910156,373.074219 C147.684896,373.816406 148.072266,374.832031 148.072266,376.121094 C148.072266,377.058594 147.909505,377.9375 147.583984,378.757812 C147.258464,379.578125 146.740885,380.453776 146.03125,381.384766 C145.321615,382.315755 143.879557,383.894531 141.705078,386.121094 L141.705078,386.121094 L134.341797,393.523438 L134.341797,397 L153.697266,397 Z M163.853516,397 L163.853516,386.316406 L166.822266,386.316406 C170.429036,386.316406 173.208984,385.522135 175.162109,383.933594 C177.115234,382.345052 178.091797,380.059896 178.091797,377.078125 C178.091797,374.239583 177.203125,372.091146 175.425781,370.632812 C173.648438,369.174479 170.975911,368.445312 167.408203,368.445312 L167.408203,368.445312 L159.185547,368.445312 L159.185547,397 L163.853516,397 Z M166.333984,382.390625 L163.853516,382.390625 L163.853516,372.351562 L167.095703,372.351562 C169.218099,372.351562 170.780599,372.755208 171.783203,373.5625 C172.785807,374.369792 173.287109,375.59375 173.287109,377.234375 C173.287109,379.005208 172.727214,380.307292 171.607422,381.140625 C170.48763,381.973958 168.729818,382.390625 166.333984,382.390625 L166.333984,382.390625 Z"/></g><g id="CLIENT-SERVER" transform="translate(352.000000, 54.000000)"><line id="Line-5" x1="143.5" x2="145.5" y1="280.5" y2="34.5" stroke="#7F85F4" stroke-linecap="square" stroke-width="5"/><line id="Line-5" x1="34.5" x2="252.5" y1="216.5" y2="98.5" stroke="#7F85F4" stroke-linecap="square" stroke-width="5"/><line id="Line-5" x1="34.5" x2="252.5" y1="98.5" y2="216.5" stroke="#7F85F4" stroke-linecap="square" stroke-width="5"/><circle id="Oval" cx="145.5" cy="280.5" r="34.5" fill="#7F85F4" stroke="#7F85F4" stroke-width="6"/><path id="C" fill="#FFF" fill-rule="nonzero" d="M146.175781,293.390625 C149.014323,293.390625 151.553385,292.967448 153.792969,292.121094 L153.792969,292.121094 L153.792969,288.117188 C152.56901,288.494792 151.390625,288.804036 150.257812,289.044922 C149.125,289.285807 147.953125,289.40625 146.742188,289.40625 C143.942708,289.40625 141.804036,288.507812 140.326172,286.710938 C138.848307,284.914062 138.109375,282.264323 138.109375,278.761719 C138.109375,275.415365 138.877604,272.791667 140.414062,270.890625 C141.950521,268.989583 144.059896,268.039062 146.742188,268.039062 C147.927083,268.039062 149.056641,268.211589 150.130859,268.556641 C151.205078,268.901693 152.223958,269.302083 153.1875,269.757812 L153.1875,269.757812 L154.867188,265.871094 C152.393229,264.647135 149.697917,264.035156 146.78125,264.035156 C144.007812,264.035156 141.592448,264.627604 139.535156,265.8125 C137.477865,266.997396 135.905599,268.703125 134.818359,270.929688 C133.73112,273.15625 133.1875,275.753906 133.1875,278.722656 C133.1875,283.436198 134.307292,287.059245 136.546875,289.591797 C138.786458,292.124349 141.996094,293.390625 146.175781,293.390625 Z"/><circle id="Oval" cx="145.5" cy="34.5" r="34.5" fill="#7F85F4" stroke="#7F85F4" stroke-width="6"/><path id="C" fill="#FFF" fill-rule="nonzero" d="M146.175781,47.390625 C149.014323,47.390625 151.553385,46.9674479 153.792969,46.1210938 L153.792969,46.1210938 L153.792969,42.1171875 C152.56901,42.4947917 151.390625,42.8040365 150.257812,43.0449219 C149.125,43.2858073 147.953125,43.40625 146.742188,43.40625 C143.942708,43.40625 141.804036,42.5078125 140.326172,40.7109375 C138.848307,38.9140625 138.109375,36.2643229 138.109375,32.7617188 C138.109375,29.4153646 138.877604,26.7916667 140.414062,24.890625 C141.950521,22.9895833 144.059896,22.0390625 146.742188,22.0390625 C147.927083,22.0390625 149.056641,22.2115885 150.130859,22.5566406 C151.205078,22.9016927 152.223958,23.3020833 153.1875,23.7578125 L153.1875,23.7578125 L154.867188,19.8710938 C152.393229,18.6471354 149.697917,18.0351562 146.78125,18.0351562 C144.007812,18.0351562 141.592448,18.6276042 139.535156,19.8125 C137.477865,20.9973958 135.905599,22.703125 134.818359,24.9296875 C133.73112,27.15625 133.1875,29.7539062 133.1875,32.7226562 C133.1875,37.4361979 134.307292,41.0592448 136.546875,43.5917969 C138.786458,46.124349 141.996094,47.390625 146.175781,47.390625 Z"/><circle id="Oval" cx="252.5" cy="98.5" r="34.5" fill="#7F85F4" stroke="#7F85F4" stroke-width="6"/><path id="C" fill="#FFF" fill-rule="nonzero" d="M253.175781,111.390625 C256.014323,111.390625 258.553385,110.967448 260.792969,110.121094 L260.792969,110.121094 L260.792969,106.117188 C259.56901,106.494792 258.390625,106.804036 257.257812,107.044922 C256.125,107.285807 254.953125,107.40625 253.742188,107.40625 C250.942708,107.40625 248.804036,106.507812 247.326172,104.710938 C245.848307,102.914062 245.109375,100.264323 245.109375,96.7617188 C245.109375,93.4153646 245.877604,90.7916667 247.414062,88.890625 C248.950521,86.9895833 251.059896,86.0390625 253.742188,86.0390625 C254.927083,86.0390625 256.056641,86.2115885 257.130859,86.5566406 C258.205078,86.9016927 259.223958,87.3020833 260.1875,87.7578125 L260.1875,87.7578125 L261.867188,83.8710938 C259.393229,82.6471354 256.697917,82.0351562 253.78125,82.0351562 C251.007812,82.0351562 248.592448,82.6276042 246.535156,83.8125 C244.477865,84.9973958 242.905599,86.703125 241.818359,88.9296875 C240.73112,91.15625 240.1875,93.7539062 240.1875,96.7226562 C240.1875,101.436198 241.307292,105.059245 243.546875,107.591797 C245.786458,110.124349 248.996094,111.390625 253.175781,111.390625 Z"/><circle id="Oval" cx="252.5" cy="216.5" r="34.5" fill="#7F85F4" stroke="#7F85F4" stroke-width="6"/><path id="C" fill="#FFF" fill-rule="nonzero" d="M253.175781,229.390625 C256.014323,229.390625 258.553385,228.967448 260.792969,228.121094 L260.792969,228.121094 L260.792969,224.117188 C259.56901,224.494792 258.390625,224.804036 257.257812,225.044922 C256.125,225.285807 254.953125,225.40625 253.742188,225.40625 C250.942708,225.40625 248.804036,224.507812 247.326172,222.710938 C245.848307,220.914062 245.109375,218.264323 245.109375,214.761719 C245.109375,211.415365 245.877604,208.791667 247.414062,206.890625 C248.950521,204.989583 251.059896,204.039062 253.742188,204.039062 C254.927083,204.039062 256.056641,204.211589 257.130859,204.556641 C258.205078,204.901693 259.223958,205.302083 260.1875,205.757812 L260.1875,205.757812 L261.867188,201.871094 C259.393229,200.647135 256.697917,200.035156 253.78125,200.035156 C251.007812,200.035156 248.592448,200.627604 246.535156,201.8125 C244.477865,202.997396 242.905599,204.703125 241.818359,206.929688 C240.73112,209.15625 240.1875,211.753906 240.1875,214.722656 C240.1875,219.436198 241.307292,223.059245 243.546875,225.591797 C245.786458,228.124349 248.996094,229.390625 253.175781,229.390625 Z"/><circle id="Oval" cx="34.5" cy="98.5" r="34.5" fill="#7F85F4" stroke="#7F85F4" stroke-width="6"/><path id="C" fill="#FFF" fill-rule="nonzero" d="M35.1757812,111.390625 C38.0143229,111.390625 40.5533854,110.967448 42.7929688,110.121094 L42.7929688,110.121094 L42.7929688,106.117188 C41.5690104,106.494792 40.390625,106.804036 39.2578125,107.044922 C38.125,107.285807 36.953125,107.40625 35.7421875,107.40625 C32.9427083,107.40625 30.8040365,106.507812 29.3261719,104.710938 C27.8483073,102.914062 27.109375,100.264323 27.109375,96.7617188 C27.109375,93.4153646 27.8776042,90.7916667 29.4140625,88.890625 C30.9505208,86.9895833 33.0598958,86.0390625 35.7421875,86.0390625 C36.9270833,86.0390625 38.0566406,86.2115885 39.1308594,86.5566406 C40.2050781,86.9016927 41.2239583,87.3020833 42.1875,87.7578125 L42.1875,87.7578125 L43.8671875,83.8710938 C41.3932292,82.6471354 38.6979167,82.0351562 35.78125,82.0351562 C33.0078125,82.0351562 30.5924479,82.6276042 28.5351562,83.8125 C26.4778646,84.9973958 24.905599,86.703125 23.8183594,88.9296875 C22.7311198,91.15625 22.1875,93.7539062 22.1875,96.7226562 C22.1875,101.436198 23.3072917,105.059245 25.546875,107.591797 C27.7864583,110.124349 30.9960938,111.390625 35.1757812,111.390625 Z"/><circle id="Oval" cx="34.5" cy="216.5" r="34.5" fill="#7F85F4" stroke="#7F85F4" stroke-width="6"/><path id="C" fill="#FFF" fill-rule="nonzero" d="M35.1757812,229.390625 C38.0143229,229.390625 40.5533854,228.967448 42.7929688,228.121094 L42.7929688,228.121094 L42.7929688,224.117188 C41.5690104,224.494792 40.390625,224.804036 39.2578125,225.044922 C38.125,225.285807 36.953125,225.40625 35.7421875,225.40625 C32.9427083,225.40625 30.8040365,224.507812 29.3261719,222.710938 C27.8483073,220.914062 27.109375,218.264323 27.109375,214.761719 C27.109375,211.415365 27.8776042,208.791667 29.4140625,206.890625 C30.9505208,204.989583 33.0598958,204.039062 35.7421875,204.039062 C36.9270833,204.039062 38.0566406,204.211589 39.1308594,204.556641 C40.2050781,204.901693 41.2239583,205.302083 42.1875,205.757812 L42.1875,205.757812 L43.8671875,201.871094 C41.3932292,200.647135 38.6979167,200.035156 35.78125,200.035156 C33.0078125,200.035156 30.5924479,200.627604 28.5351562,201.8125 C26.4778646,202.997396 24.905599,204.703125 23.8183594,206.929688 C22.7311198,209.15625 22.1875,211.753906 22.1875,214.722656 C22.1875,219.436198 23.3072917,223.059245 25.546875,225.591797 C27.7864583,228.124349 30.9960938,229.390625 35.1757812,229.390625 Z"/><circle id="Oval" cx="145.5" cy="155.5" r="34.5" fill="#454EE0" stroke="#454EE0" stroke-width="6"/><path id="S" fill="#FFF" fill-rule="nonzero" d="M144.386719,168.390625 C147.615885,168.390625 150.148438,167.667969 151.984375,166.222656 C153.820312,164.777344 154.738281,162.785156 154.738281,160.246094 C154.738281,158.957031 154.510417,157.83724 154.054688,156.886719 C153.598958,155.936198 152.882812,155.083333 151.90625,154.328125 C150.929688,153.572917 149.393229,152.759115 147.296875,151.886719 C145.434896,151.11849 144.145833,150.5 143.429688,150.03125 C142.713542,149.5625 142.199219,149.064453 141.886719,148.537109 C141.574219,148.009766 141.417969,147.375 141.417969,146.632812 C141.417969,145.552083 141.808594,144.682943 142.589844,144.025391 C143.371094,143.367839 144.516927,143.039062 146.027344,143.039062 C148.019531,143.039062 150.285156,143.572917 152.824219,144.640625 L152.824219,144.640625 L154.308594,140.832031 C151.60026,139.634115 148.878906,139.035156 146.144531,139.035156 C143.292969,139.035156 141.020833,139.71875 139.328125,141.085938 C137.635417,142.453125 136.789062,144.328125 136.789062,146.710938 C136.789062,148.611979 137.322917,150.239583 138.390625,151.59375 C139.458333,152.947917 141.294271,154.152344 143.898438,155.207031 C146.424479,156.222656 148.091146,157.101562 148.898438,157.84375 C149.705729,158.585938 150.109375,159.490885 150.109375,160.558594 C150.109375,161.74349 149.669922,162.6875 148.791016,163.390625 C147.912109,164.09375 146.548177,164.445312 144.699219,164.445312 C143.436198,164.445312 142.072266,164.269531 140.607422,163.917969 C139.142578,163.566406 137.759115,163.084635 136.457031,162.472656 L136.457031,162.472656 L136.457031,166.886719 C138.514323,167.889323 141.157552,168.390625 144.386719,168.390625 Z"/><path id="Client-Server" fill="#454EE0" fill-rule="nonzero" d="M23.625,397.390625 C26.4635417,397.390625 29.0026042,396.967448 31.2421875,396.121094 L31.2421875,396.121094 L31.2421875,392.117188 C30.0182292,392.494792 28.8398438,392.804036 27.7070312,393.044922 C26.5742188,393.285807 25.4023438,393.40625 24.1914062,393.40625 C21.3919271,393.40625 19.2532552,392.507812 17.7753906,390.710938 C16.297526,388.914062 15.5585938,386.264323 15.5585938,382.761719 C15.5585938,379.415365 16.3268229,376.791667 17.8632812,374.890625 C19.3997396,372.989583 21.5091146,372.039062 24.1914062,372.039062 C25.3763021,372.039062 26.5058594,372.211589 27.5800781,372.556641 C28.6542969,372.901693 29.6731771,373.302083 30.6367188,373.757812 L30.6367188,373.757812 L32.3164062,369.871094 C29.8424479,368.647135 27.1471354,368.035156 24.2304688,368.035156 C21.4570312,368.035156 19.0416667,368.627604 16.984375,369.8125 C14.9270833,370.997396 13.3548177,372.703125 12.2675781,374.929688 C11.1803385,377.15625 10.6367188,379.753906 10.6367188,382.722656 C10.6367188,387.436198 11.7565104,391.059245 13.9960938,393.591797 C16.2356771,396.124349 19.4453125,397.390625 23.625,397.390625 Z M41.4960938,397 L41.4960938,366.609375 L36.90625,366.609375 L36.90625,397 L41.4960938,397 Z M50.3828125,372.195312 C51.1901042,372.195312 51.8183594,371.970703 52.2675781,371.521484 C52.7167969,371.072266 52.9414062,370.457031 52.9414062,369.675781 C52.9414062,368.855469 52.7167969,368.223958 52.2675781,367.78125 C51.8183594,367.338542 51.1901042,367.117188 50.3828125,367.117188 C49.5494792,367.117188 48.9082031,367.338542 48.4589844,367.78125 C48.0097656,368.223958 47.7851562,368.855469 47.7851562,369.675781 C47.7851562,370.457031 48.0097656,371.072266 48.4589844,371.521484 C48.9082031,371.970703 49.5494792,372.195312 50.3828125,372.195312 Z M52.6484375,397 L52.6484375,375.398438 L48.0585938,375.398438 L48.0585938,397 L52.6484375,397 Z M68.6445312,397.390625 C70.1158854,397.390625 71.4244792,397.279948 72.5703125,397.058594 C73.7161458,396.83724 74.8489583,396.459635 75.96875,395.925781 L75.96875,395.925781 L75.96875,392.195312 C74.7057292,392.755208 73.5240885,393.155599 72.4238281,393.396484 C71.3235677,393.63737 70.1354167,393.757812 68.859375,393.757812 C66.9192708,393.757812 65.4153646,393.194661 64.3476562,392.068359 C63.2799479,390.942057 62.7135417,389.330729 62.6484375,387.234375 L62.6484375,387.234375 L77.0429688,387.234375 L77.0429688,384.753906 C77.0429688,381.720052 76.2161458,379.33724 74.5625,377.605469 C72.9088542,375.873698 70.65625,375.007812 67.8046875,375.007812 C64.7317708,375.007812 62.3164062,376.016927 60.5585938,378.035156 C58.8007812,380.053385 57.921875,382.826823 57.921875,386.355469 C57.921875,389.792969 58.8691406,392.491536 60.7636719,394.451172 C62.6582031,396.410807 65.2851562,397.390625 68.6445312,397.390625 Z M72.53125,383.914062 L62.7265625,383.914062 C62.8958333,382.143229 63.4199219,380.795573 64.2988281,379.871094 C65.1777344,378.946615 66.3463542,378.484375 67.8046875,378.484375 C69.2630208,378.484375 70.4088542,378.943359 71.2421875,379.861328 C72.0755208,380.779297 72.5052083,382.130208 72.53125,383.914062 L72.53125,383.914062 Z M86.8476562,397 L86.8476562,386.238281 C86.8476562,383.542969 87.296875,381.622396 88.1953125,380.476562 C89.09375,379.330729 90.5130208,378.757812 92.453125,378.757812 C93.9114583,378.757812 94.9759115,379.167969 95.6464844,379.988281 C96.3170573,380.808594 96.6523438,382.052083 96.6523438,383.71875 L96.6523438,383.71875 L96.6523438,397 L101.261719,397 L101.261719,382.917969 C101.261719,377.644531 98.6705729,375.007812 93.4882812,375.007812 C92.0299479,375.007812 90.7018229,375.28776 89.5039062,375.847656 C88.3059896,376.407552 87.3815104,377.201823 86.7304688,378.230469 L86.7304688,378.230469 L86.4960938,378.230469 L85.8515625,375.398438 L82.2578125,375.398438 L82.2578125,397 L86.8476562,397 Z M114.601562,397.390625 C115.460938,397.390625 116.291016,397.315755 117.091797,397.166016 C117.892578,397.016276 118.546875,396.830729 119.054688,396.609375 L119.054688,396.609375 L119.054688,393.152344 C117.934896,393.503906 116.815104,393.679688 115.695312,393.679688 C114.796875,393.679688 114.070964,393.416016 113.517578,392.888672 C112.964193,392.361328 112.6875,391.544271 112.6875,390.4375 L112.6875,390.4375 L112.6875,378.875 L118.839844,378.875 L118.839844,375.398438 L112.6875,375.398438 L112.6875,370.59375 L109.855469,370.59375 L108.292969,375.164062 L105.128906,376.84375 L105.128906,378.875 L108.078125,378.875 L108.078125,390.515625 C108.078125,395.098958 110.252604,397.390625 114.601562,397.390625 Z M141.925781,388.230469 L141.925781,384.324219 L131.886719,384.324219 L131.886719,388.230469 L141.925781,388.230469 Z M163.625,397.390625 C166.854167,397.390625 169.386719,396.667969 171.222656,395.222656 C173.058594,393.777344 173.976562,391.785156 173.976562,389.246094 C173.976562,387.957031 173.748698,386.83724 173.292969,385.886719 C172.83724,384.936198 172.121094,384.083333 171.144531,383.328125 C170.167969,382.572917 168.63151,381.759115 166.535156,380.886719 C164.673177,380.11849 163.384115,379.5 162.667969,379.03125 C161.951823,378.5625 161.4375,378.064453 161.125,377.537109 C160.8125,377.009766 160.65625,376.375 160.65625,375.632812 C160.65625,374.552083 161.046875,373.682943 161.828125,373.025391 C162.609375,372.367839 163.755208,372.039062 165.265625,372.039062 C167.257812,372.039062 169.523438,372.572917 172.0625,373.640625 L172.0625,373.640625 L173.546875,369.832031 C170.838542,368.634115 168.117188,368.035156 165.382812,368.035156 C162.53125,368.035156 160.259115,368.71875 158.566406,370.085938 C156.873698,371.453125 156.027344,373.328125 156.027344,375.710938 C156.027344,377.611979 156.561198,379.239583 157.628906,380.59375 C158.696615,381.947917 160.532552,383.152344 163.136719,384.207031 C165.66276,385.222656 167.329427,386.101562 168.136719,386.84375 C168.94401,387.585938 169.347656,388.490885 169.347656,389.558594 C169.347656,390.74349 168.908203,391.6875 168.029297,392.390625 C167.150391,393.09375 165.786458,393.445312 163.9375,393.445312 C162.674479,393.445312 161.310547,393.269531 159.845703,392.917969 C158.380859,392.566406 156.997396,392.084635 155.695312,391.472656 L155.695312,391.472656 L155.695312,395.886719 C157.752604,396.889323 160.395833,397.390625 163.625,397.390625 Z M188.449219,397.390625 C189.920573,397.390625 191.229167,397.279948 192.375,397.058594 C193.520833,396.83724 194.653646,396.459635 195.773438,395.925781 L195.773438,395.925781 L195.773438,392.195312 C194.510417,392.755208 193.328776,393.155599 192.228516,393.396484 C191.128255,393.63737 189.940104,393.757812 188.664062,393.757812 C186.723958,393.757812 185.220052,393.194661 184.152344,392.068359 C183.084635,390.942057 182.518229,389.330729 182.453125,387.234375 L182.453125,387.234375 L196.847656,387.234375 L196.847656,384.753906 C196.847656,381.720052 196.020833,379.33724 194.367188,377.605469 C192.713542,375.873698 190.460938,375.007812 187.609375,375.007812 C184.536458,375.007812 182.121094,376.016927 180.363281,378.035156 C178.605469,380.053385 177.726562,382.826823 177.726562,386.355469 C177.726562,389.792969 178.673828,392.491536 180.568359,394.451172 C182.462891,396.410807 185.089844,397.390625 188.449219,397.390625 Z M192.335938,383.914062 L182.53125,383.914062 C182.700521,382.143229 183.224609,380.795573 184.103516,379.871094 C184.982422,378.946615 186.151042,378.484375 187.609375,378.484375 C189.067708,378.484375 190.213542,378.943359 191.046875,379.861328 C191.880208,380.779297 192.309896,382.130208 192.335938,383.914062 L192.335938,383.914062 Z M206.652344,397 L206.652344,385.710938 C206.652344,383.796875 207.222005,382.240885 208.361328,381.042969 C209.500651,379.845052 210.988281,379.246094 212.824219,379.246094 C213.527344,379.246094 214.204427,379.324219 214.855469,379.480469 L214.855469,379.480469 L215.304688,375.203125 C214.705729,375.072917 213.94401,375.007812 213.019531,375.007812 C211.691406,375.007812 210.451172,375.385417 209.298828,376.140625 C208.146484,376.895833 207.21224,377.917969 206.496094,379.207031 L206.496094,379.207031 L206.261719,379.207031 L205.65625,375.398438 L202.0625,375.398438 L202.0625,397 L206.652344,397 Z M229.191406,397 L237.433594,375.398438 L232.550781,375.398438 L228.15625,387.957031 C227.361979,390.43099 226.90625,392.136719 226.789062,393.074219 L226.789062,393.074219 L226.632812,393.074219 C226.476562,391.772135 226.020833,390.066406 225.265625,387.957031 L225.265625,387.957031 L220.871094,375.398438 L216.027344,375.398438 L224.230469,397 L229.191406,397 Z M250.148438,397.390625 C251.619792,397.390625 252.928385,397.279948 254.074219,397.058594 C255.220052,396.83724 256.352865,396.459635 257.472656,395.925781 L257.472656,395.925781 L257.472656,392.195312 C256.209635,392.755208 255.027995,393.155599 253.927734,393.396484 C252.827474,393.63737 251.639323,393.757812 250.363281,393.757812 C248.423177,393.757812 246.919271,393.194661 245.851562,392.068359 C244.783854,390.942057 244.217448,389.330729 244.152344,387.234375 L244.152344,387.234375 L258.546875,387.234375 L258.546875,384.753906 C258.546875,381.720052 257.720052,379.33724 256.066406,377.605469 C254.41276,375.873698 252.160156,375.007812 249.308594,375.007812 C246.235677,375.007812 243.820312,376.016927 242.0625,378.035156 C240.304688,380.053385 239.425781,382.826823 239.425781,386.355469 C239.425781,389.792969 240.373047,392.491536 242.267578,394.451172 C244.162109,396.410807 246.789062,397.390625 250.148438,397.390625 Z M254.035156,383.914062 L244.230469,383.914062 C244.39974,382.143229 244.923828,380.795573 245.802734,379.871094 C246.681641,378.946615 247.85026,378.484375 249.308594,378.484375 C250.766927,378.484375 251.91276,378.943359 252.746094,379.861328 C253.579427,380.779297 254.009115,382.130208 254.035156,383.914062 L254.035156,383.914062 Z M268.351562,397 L268.351562,385.710938 C268.351562,383.796875 268.921224,382.240885 270.060547,381.042969 C271.19987,379.845052 272.6875,379.246094 274.523438,379.246094 C275.226562,379.246094 275.903646,379.324219 276.554688,379.480469 L276.554688,379.480469 L277.003906,375.203125 C276.404948,375.072917 275.643229,375.007812 274.71875,375.007812 C273.390625,375.007812 272.150391,375.385417 270.998047,376.140625 C269.845703,376.895833 268.911458,377.917969 268.195312,379.207031 L268.195312,379.207031 L267.960938,379.207031 L267.355469,375.398438 L263.761719,375.398438 L263.761719,397 L268.351562,397 Z"/></g></g></svg>