<svg width="93" height="92" viewBox="0 0 93 92" fill="none" xmlns="http://www.w3.org/2000/svg">
<path d="M38.7191 80.4999C38.5564 80.4999 38.3979 80.4493 38.266 80.3552C38.134 80.2611 38.0353 80.1284 37.9839 79.9757C37.9324 79.8231 37.9309 79.6583 37.9794 79.5047C38.0279 79.3511 38.124 79.2165 38.2541 79.1199L46.1901 73.2687L36.0841 79.0402C35.9105 79.1399 35.7045 79.169 35.5095 79.1215C35.3146 79.0739 35.1459 78.9534 35.039 78.7852C34.9322 78.6171 34.8954 78.4145 34.9365 78.2201C34.9777 78.0257 35.0934 77.8546 35.2595 77.743L39.9297 74.5905L36.0841 76.7847C35.9103 76.8826 35.705 76.9104 35.511 76.862C35.3171 76.8137 35.1495 76.693 35.0434 76.5253C34.9373 76.3575 34.9009 76.1557 34.9417 75.962C34.9826 75.7683 35.0976 75.5977 35.2626 75.4859L39.1268 72.8946L36.0841 74.6319C35.9123 74.7285 35.7097 74.7566 35.5177 74.7104C35.3257 74.6642 35.1588 74.5472 35.0511 74.3833C34.9434 74.2194 34.9031 74.0209 34.9384 73.8286C34.9737 73.6363 35.0819 73.4645 35.2409 73.3485L44.7951 66.4853L36.0841 71.464C35.9121 71.5581 35.7103 71.5839 35.5197 71.5364C35.3291 71.4889 35.1639 71.3714 35.0575 71.2079C34.9512 71.0444 34.9116 70.847 34.9467 70.6557C34.9819 70.4644 35.0893 70.2935 35.2471 70.1775L43.4218 64.3999L36.0841 68.5951C35.9102 68.6916 35.7054 68.718 35.5123 68.6689C35.3192 68.6199 35.1526 68.499 35.0472 68.3316C34.9419 68.1642 34.9058 67.963 34.9465 67.7699C34.9871 67.5768 35.1015 67.4067 35.2657 67.2949L36.484 66.4883L36.0841 66.7168C35.9102 66.8188 35.7028 66.8494 35.5064 66.8023C35.3099 66.7551 35.1398 66.6339 35.0324 66.4644C34.925 66.295 34.8888 66.0907 34.9316 65.8952C34.9743 65.6998 35.0925 65.5285 35.2611 65.4181L37.5938 63.8541L36.0841 64.7143C35.9122 64.8096 35.7101 64.8365 35.5188 64.7897C35.3275 64.7428 35.1614 64.6256 35.0544 64.4619C34.9474 64.2982 34.9074 64.1003 34.9427 63.9085C34.9779 63.7167 35.0856 63.5453 35.244 63.4293L41.3603 59.067L36.0903 62.0785C35.919 62.1734 35.7176 62.2005 35.5269 62.1543C35.3361 62.108 35.1703 61.9918 35.0628 61.8292C34.9553 61.6666 34.9142 61.4698 34.9479 61.2783C34.9815 61.0869 35.0874 60.9153 35.244 60.7981L40.5714 56.9219L36.0888 59.4825C35.9168 59.5802 35.7135 59.6089 35.5207 59.5628C35.328 59.5166 35.1604 59.3991 35.0526 59.2345C34.9448 59.0699 34.9048 58.8706 34.941 58.6777C34.9772 58.4848 35.0867 58.313 35.2471 58.1976L37.707 56.4266L36.312 57.2209C36.141 57.3164 35.9398 57.3441 35.7489 57.2985C35.5581 57.2529 35.3918 57.1374 35.2838 56.9752C35.1758 56.813 35.134 56.6163 35.1668 56.4248C35.1997 56.2334 35.3049 56.0614 35.461 55.9436L36.8979 54.8825C36.7284 54.9491 36.5406 54.9544 36.3676 54.8975C36.1946 54.8406 36.0473 54.7252 35.9518 54.5716C35.8563 54.4179 35.8186 54.2359 35.8453 54.0575C35.8721 53.8791 35.9616 53.7157 36.0981 53.5961L38.5409 51.4494C38.3773 51.3853 38.2403 51.2687 38.1518 51.1182C38.049 50.9421 38.0212 50.7329 38.0744 50.5365C38.1276 50.3401 38.2575 50.1726 38.4355 50.0709L43.3381 47.2726C43.5044 47.1789 43.6998 47.1493 43.8867 47.1896C44.0737 47.2299 44.239 47.3371 44.3508 47.4907C44.4626 47.6444 44.513 47.8335 44.4923 48.0217C44.4716 48.2098 44.3813 48.3838 44.2387 48.51L42.8917 49.6891L47.4565 47.0825C47.6274 46.987 47.8287 46.9592 48.0195 47.0048C48.2103 47.0504 48.3766 47.166 48.4846 47.3282C48.5927 47.4903 48.6345 47.687 48.6016 47.8785C48.5687 48.07 48.4635 48.242 48.3074 48.3597L46.9217 49.3825L49.9194 47.6866C50.0914 47.589 50.2947 47.5603 50.4874 47.6064C50.6802 47.6525 50.8477 47.77 50.9556 47.9347C51.0634 48.0993 51.1033 48.2986 51.0672 48.4914C51.031 48.6843 50.9214 48.8561 50.7611 48.9715L48.2997 50.7349L51.9391 48.6557C52.1104 48.5607 52.3118 48.5336 52.5025 48.5799C52.6932 48.6261 52.8591 48.7423 52.9666 48.9049C53.0741 49.0675 53.1151 49.2644 53.0815 49.4558C53.0478 49.6472 52.942 49.8188 52.7854 49.936L47.4534 53.8153L53.8471 50.1645C54.019 50.0692 54.2212 50.0422 54.4125 50.0891C54.6037 50.136 54.7698 50.2532 54.8768 50.4169C54.9838 50.5806 55.0238 50.7785 54.9886 50.9703C54.9534 51.1621 54.8456 51.3334 54.6872 51.4494L48.5709 55.8133L55.2716 51.9799C55.4455 51.878 55.6528 51.8473 55.8493 51.8945C56.0458 51.9416 56.2158 52.0628 56.3232 52.2323C56.4306 52.4018 56.4668 52.606 56.4241 52.8015C56.3814 52.997 56.2632 53.1682 56.0946 53.2787L53.7696 54.8365L56.0171 53.5547C56.191 53.4582 56.3958 53.4318 56.5889 53.4809C56.782 53.53 56.9486 53.6508 57.054 53.8182C57.1594 53.9856 57.1955 54.1868 57.1548 54.3799C57.1141 54.573 56.9997 54.7431 56.8355 54.8549L55.6064 55.6691L56.5767 55.1141C56.749 55.0168 56.9526 54.9887 57.1453 55.0354C57.338 55.0822 57.5053 55.2003 57.6126 55.3654C57.7199 55.5306 57.7591 55.7301 57.7221 55.923C57.6851 56.1159 57.5747 56.2873 57.4137 56.4021L49.2421 62.172L56.9146 57.7897C57.0863 57.6931 57.2889 57.665 57.4809 57.7112C57.673 57.7574 57.8399 57.8744 57.9476 58.0383C58.0552 58.2023 58.0956 58.4007 58.0603 58.593C58.025 58.7854 57.9168 58.9571 57.7578 59.0731L48.2051 65.944L56.9301 60.9607C57.1038 60.8627 57.3092 60.835 57.5032 60.8833C57.6971 60.9317 57.8647 61.0523 57.9708 61.2201C58.0769 61.3878 58.1133 61.5897 58.0725 61.7834C58.0316 61.9771 57.9166 62.1476 57.7516 62.2594L53.8905 64.8477L56.9347 63.1104C57.1084 63.0107 57.3144 62.9816 57.5093 63.0291C57.7042 63.0767 57.8729 63.1972 57.9798 63.3654C58.0867 63.5335 58.1234 63.7361 58.0823 63.9305C58.0412 64.1249 57.9254 64.296 57.7593 64.4076L53.0799 67.5663L56.9378 65.3644C57.1091 65.2658 57.312 65.2359 57.5049 65.2807C57.6978 65.3256 57.866 65.4418 57.9749 65.6055C58.0839 65.7692 58.1253 65.968 58.0907 66.161C58.056 66.354 57.948 66.5266 57.7888 66.6432L49.8605 72.4821L56.9456 68.4357C57.1136 68.3401 57.3118 68.3103 57.5009 68.3521C57.6901 68.3939 57.8565 68.5044 57.9675 68.6616C58.0784 68.8189 58.1257 69.0116 58.1001 69.2016C58.0744 69.3917 57.9777 69.5654 57.8291 69.6884L51.9174 74.5491L56.9518 71.6741C57.1155 71.578 57.3093 71.5449 57.4962 71.5812C57.683 71.6174 57.8498 71.7204 57.9648 71.8706C58.0798 72.0207 58.1348 72.2074 58.1195 72.3952C58.1042 72.5829 58.0196 72.7585 57.8818 72.8885L54.695 75.9444L56.9626 74.6518C57.1126 74.5659 57.2874 74.5323 57.4591 74.5563C57.6307 74.5802 57.7893 74.6604 57.9094 74.7841C58.0295 74.9077 58.1043 75.0675 58.1218 75.2381C58.1392 75.4087 58.0984 75.5802 58.0058 75.7251L56.8851 77.4762L56.9673 77.4302C57.0555 77.3747 57.1541 77.3375 57.2572 77.3207C57.3604 77.3039 57.4659 77.3079 57.5674 77.3326C57.6689 77.3571 57.7644 77.4018 57.848 77.4638C57.9316 77.5259 58.0017 77.604 58.054 77.6935C58.1063 77.783 58.1398 77.8821 58.1524 77.9848C58.165 78.0874 58.1565 78.1915 58.1273 78.2908C58.0982 78.3901 58.0491 78.4826 57.9829 78.5626C57.9167 78.6426 57.8349 78.7086 57.7423 78.7565L54.9414 80.3558C54.7914 80.4409 54.6169 80.474 54.4457 80.4497C54.2745 80.4254 54.1164 80.3452 53.9967 80.2217C53.8769 80.0983 53.8023 79.9388 53.7847 79.7686C53.7672 79.5984 53.8077 79.4273 53.8998 79.2825L55.0174 77.5283L50.0496 80.365C49.8858 80.4611 49.692 80.4941 49.5052 80.4579C49.3184 80.4217 49.1516 80.3186 49.0366 80.1685C48.9216 80.0184 48.8665 79.8316 48.8818 79.6439C48.8972 79.4562 48.9818 79.2806 49.1196 79.1506L52.3033 76.0962L44.8091 80.3773C44.6411 80.4712 44.4437 80.4998 44.2555 80.4574C44.0673 80.4151 43.9019 80.3047 43.7916 80.1481C43.6813 79.9914 43.6341 79.7997 43.6591 79.6104C43.6842 79.4211 43.7798 79.2478 43.9271 79.1245L49.8373 74.2639L39.1113 80.3972C38.9923 80.4659 38.8568 80.5014 38.7191 80.4999Z" fill="#A9725E"/>
<path d="M66.4378 65.1376C66.2714 65.1378 66.1093 65.085 65.9756 64.987C65.8419 64.8891 65.7436 64.7511 65.6952 64.5936C65.6469 64.4361 65.6511 64.2673 65.7072 64.1124C65.7634 63.9574 65.8684 63.8244 66.0069 63.7331L66.0797 63.6871L65.066 64.2651C64.8921 64.3671 64.6848 64.3978 64.4883 64.3506C64.2918 64.3035 64.1217 64.1822 64.0143 64.0128C63.907 63.8433 63.8708 63.6391 63.9135 63.4436C63.9562 63.2481 64.0744 63.0769 64.243 62.9664L65.3063 62.258L64.5235 62.7042C64.3495 62.804 64.143 62.8329 63.9478 62.7849C63.7525 62.7368 63.5838 62.6155 63.4774 62.4467C63.3709 62.2778 63.3349 62.0746 63.3772 61.88C63.4194 61.6854 63.5364 61.5147 63.7036 61.4039L64.0942 61.1448C63.9299 61.1963 63.7531 61.193 63.591 61.1354C63.4288 61.0778 63.2903 60.969 63.1967 60.8259C63.0894 60.6588 63.0515 60.4571 63.0911 60.263C63.1307 60.069 63.2446 59.8976 63.4091 59.7847L65.221 58.5443L64.0771 59.1959C63.9051 59.29 63.7033 59.3159 63.5128 59.2683C63.3222 59.2208 63.1569 59.1034 63.0506 58.9399C62.9442 58.7764 62.9046 58.579 62.9398 58.3877C62.975 58.1964 63.0823 58.0254 63.2401 57.9095L65.1249 56.5801L63.9841 57.2317C63.8209 57.3237 63.6295 57.3538 63.4455 57.3166C63.2616 57.2795 63.0975 57.1774 62.9838 57.0296C62.8701 56.8817 62.8146 56.698 62.8275 56.5127C62.8405 56.3273 62.921 56.153 63.0541 56.0219L67.4747 51.7286L64.9947 53.1469C64.9065 53.2024 64.8079 53.2397 64.7047 53.2564C64.6016 53.2732 64.4961 53.2692 64.3946 53.2446C64.2931 53.22 64.1976 53.1753 64.114 53.1133C64.0304 53.0513 63.9603 52.9731 63.908 52.8836C63.8557 52.7941 63.8222 52.695 63.8096 52.5924C63.797 52.4897 63.8055 52.3856 63.8346 52.2863C63.8638 52.187 63.9129 52.0946 63.9791 52.0145C64.0453 51.9345 64.1271 51.8685 64.2197 51.8206L71.9697 47.3908C72.1329 47.2989 72.3243 47.2687 72.5083 47.3059C72.6923 47.3431 72.8564 47.4451 72.9701 47.593C73.0837 47.7409 73.1393 47.9245 73.1263 48.1099C73.1134 48.2952 73.0329 48.4696 72.8997 48.6006L68.4807 52.8939L78.4611 47.193C78.6335 47.0957 78.837 47.0676 79.0297 47.1144C79.2225 47.1611 79.3897 47.2792 79.497 47.4444C79.6043 47.6095 79.6435 47.8091 79.6065 48.0019C79.5695 48.1948 79.4591 48.3663 79.2981 48.481L77.4211 49.8027L80.7195 47.9198C80.8927 47.8201 81.0983 47.7906 81.293 47.8377C81.4878 47.8847 81.6565 48.0045 81.7638 48.172C81.8712 48.3395 81.9087 48.5416 81.8686 48.7359C81.8285 48.9302 81.7138 49.1015 81.5487 49.2139L79.7306 50.459L82.3656 48.9533C82.5392 48.8581 82.7431 48.8325 82.9353 48.8818C83.1275 48.931 83.2932 49.0513 83.3984 49.2178C83.5035 49.3844 83.5401 49.5845 83.5005 49.7769C83.4609 49.9693 83.3481 50.1394 83.1855 50.252L82.998 50.3777L83.5901 50.0404C83.7635 49.9464 83.9666 49.9215 84.158 49.9708C84.3493 50.0201 84.5144 50.1399 84.6194 50.3057C84.7243 50.4714 84.7613 50.6706 84.7227 50.8625C84.684 51.0543 84.5727 51.2243 84.4116 51.3376L83.3452 52.0491L85.6702 50.7228C85.8447 50.6152 86.0552 50.5806 86.2555 50.6266C86.4558 50.6726 86.6294 50.7955 86.7381 50.9681C86.8468 51.1407 86.8818 51.349 86.8353 51.5471C86.7888 51.7453 86.6646 51.917 86.4901 52.0245L86.4188 52.069L86.8838 51.8007C87.0535 51.704 87.2539 51.6745 87.4447 51.718C87.6356 51.7615 87.8026 51.8749 87.9124 52.0354C88.0221 52.1958 88.0664 52.3914 88.0364 52.5828C88.0063 52.7742 87.9041 52.9473 87.7503 53.0672L81.014 58.2959L87.8851 54.3797C88.0502 54.2849 88.2449 54.2537 88.4318 54.292C88.6187 54.3304 88.7847 54.4357 88.898 54.5877C89.0113 54.7397 89.064 54.9277 89.0458 55.1157C89.0276 55.3037 88.94 55.4784 88.7996 55.6064L83.7001 60.2601L87.8371 57.8987C87.9893 57.812 88.1668 57.7789 88.3405 57.8051C88.5142 57.8312 88.6738 57.9149 88.7931 58.0425C88.9123 58.1702 88.9842 58.3341 88.997 58.5074C89.0097 58.6808 88.9625 58.8533 88.8632 58.9966L86.78 61.9943L87.2651 61.7183C87.4422 61.6266 87.6483 61.6062 87.8403 61.6613C88.0322 61.7164 88.1953 61.8427 88.2953 62.0139C88.3953 62.1851 88.4246 62.3879 88.3771 62.58C88.3295 62.7721 88.2088 62.9385 88.0401 63.0446L84.5914 65.0134C84.4391 65.1002 84.2616 65.1332 84.0879 65.1071C83.9142 65.081 83.7546 64.9972 83.6354 64.8696C83.5161 64.742 83.4442 64.5781 83.4314 64.4047C83.4187 64.2314 83.4659 64.0589 83.5653 63.9155L85.6485 60.9163L78.4673 65.018C78.3022 65.1129 78.1076 65.1441 77.9206 65.1057C77.7337 65.0673 77.5677 64.9621 77.4544 64.8101C77.3411 64.6581 77.2885 64.4701 77.3066 64.2821C77.3248 64.0941 77.4125 63.9193 77.5528 63.7913L82.6477 59.1331L72.3355 65.0241C72.1658 65.1208 71.9654 65.1504 71.7746 65.1068C71.5838 65.0633 71.4167 64.9499 71.3069 64.7895C71.1972 64.629 71.1529 64.4334 71.183 64.242C71.213 64.0506 71.3153 63.8775 71.4691 63.7576L78.2085 58.5274L66.8253 65.0287C66.7082 65.0986 66.5744 65.1362 66.4378 65.1376Z" fill="#A9725E"/>
<path d="M63.0432 91.2335C62.8805 91.2335 62.722 91.1829 62.59 91.0888C62.4581 90.9947 62.3594 90.8619 62.308 90.7093C62.2565 90.5566 62.2549 90.3918 62.3034 90.2382C62.3519 90.0847 62.4481 89.9501 62.5782 89.8535L70.6382 83.8735L61.0871 89.3276C60.9165 89.4236 60.7154 89.4521 60.5244 89.4071C60.3334 89.3622 60.1668 89.2473 60.0582 89.0855C59.9495 88.9237 59.907 88.7272 59.9392 88.5356C59.9714 88.3441 60.0758 88.1717 60.2315 88.0534L66.2501 83.55L61.4172 86.31C61.2456 86.4081 61.0425 86.4374 60.8497 86.3919C60.6569 86.3464 60.4891 86.2295 60.3807 86.0653C60.2723 85.9012 60.2316 85.7022 60.267 85.5092C60.3024 85.3163 60.4112 85.1441 60.5709 85.0281L61.5707 84.3028C61.4021 84.3777 61.212 84.3905 61.0348 84.3389C60.8575 84.2874 60.7047 84.1748 60.6039 84.0216C60.5031 83.8684 60.4609 83.6847 60.485 83.5034C60.5091 83.3222 60.5978 83.1554 60.7352 83.0332L63.6167 80.4618C63.4831 80.407 63.3677 80.3162 63.2835 80.1999C63.1993 80.0835 63.1498 79.9461 63.1404 79.8033C63.1311 79.6605 63.1623 79.518 63.2306 79.3918C63.2989 79.2657 63.4015 79.161 63.5268 79.0895L68.1132 76.469C68.2781 76.3804 68.4699 76.354 68.653 76.3947C68.8361 76.4353 68.998 76.5403 69.1088 76.6902C69.2196 76.84 69.2716 77.0245 69.2553 77.2094C69.2389 77.3944 69.1553 77.5671 69.02 77.6957L67.2158 79.3057L72.9353 76.0535C73.1069 75.9554 73.31 75.9261 73.5028 75.9716C73.6956 76.0171 73.8635 76.134 73.9718 76.2981C74.0802 76.4623 74.1209 76.6613 74.0855 76.8542C74.0501 77.0472 73.9414 77.2193 73.7816 77.3354L72.8159 78.0376L76.2895 76.0535C76.4601 75.9574 76.6612 75.929 76.8522 75.9739C77.0432 76.0189 77.2098 76.1338 77.3184 76.2956C77.427 76.4574 77.4696 76.6539 77.4374 76.8454C77.4052 77.037 77.3008 77.2094 77.1451 77.3277L71.1264 81.8296L81.0464 76.1639C81.2175 76.0663 81.4198 76.0369 81.6119 76.0818C81.8041 76.1267 81.9718 76.2425 82.0806 76.4055C82.1894 76.5685 82.2312 76.7665 82.1974 76.959C82.1637 77.1515 82.0569 77.3239 81.8989 77.4412L73.8467 83.4212L84.8114 77.159C84.9853 77.0571 85.1927 77.0264 85.3891 77.0736C85.5856 77.1207 85.7557 77.2419 85.8631 77.4114C85.9705 77.5809 86.0067 77.7851 85.9639 77.9806C85.9212 78.1761 85.803 78.3473 85.6344 78.4578L84.3944 79.2873L86.4435 78.1158C86.6124 78.0183 86.8122 77.9875 87.003 78.0295C87.1938 78.0716 87.3615 78.1835 87.4725 78.3427C87.5835 78.5019 87.6295 78.6967 87.6014 78.8881C87.5732 79.0795 87.473 79.2533 87.3208 79.3747L80.3272 85.0066L88.6709 80.241C88.8414 80.1436 89.0429 80.114 89.2346 80.1583C89.4263 80.2025 89.5939 80.3173 89.7031 80.4793C89.8124 80.6413 89.8553 80.8383 89.8231 81.0304C89.7909 81.2226 89.6859 81.3953 89.5296 81.5137L86.4544 83.8367L89.7853 81.9354C89.9514 81.8419 90.1465 81.8124 90.3332 81.8526C90.5199 81.8927 90.6851 81.9997 90.7969 82.1529C90.9088 82.3061 90.9595 82.4949 90.9393 82.6828C90.919 82.8708 90.8294 83.0447 90.6874 83.1712L87.4696 85.991L90.6595 84.171C90.813 84.084 90.992 84.0516 91.1666 84.0791C91.3413 84.1067 91.5012 84.1925 91.6198 84.3223C91.7383 84.4521 91.8085 84.6182 91.8185 84.7929C91.8285 84.9676 91.7778 85.1404 91.6748 85.2826L89.7047 87.9798L91.0114 87.2346C91.1885 87.1429 91.3946 87.1225 91.5866 87.1776C91.7785 87.2327 91.9416 87.359 92.0416 87.5302C92.1416 87.7014 92.1709 87.9042 92.1234 88.0963C92.0758 88.2884 91.9551 88.4548 91.7864 88.5609L87.341 91.1001C87.1875 91.1879 87.0082 91.2209 86.8331 91.1937C86.6579 91.1665 86.4975 91.0808 86.3785 90.9507C86.2596 90.8207 86.1893 90.6542 86.1794 90.4791C86.1695 90.304 86.2206 90.1308 86.3242 89.9884L88.2958 87.2898L81.606 91.1093C81.4397 91.2045 81.2436 91.2352 81.0558 91.1954C80.8679 91.1557 80.7017 91.0483 80.5893 90.8942C80.4769 90.74 80.4264 90.5501 80.4476 90.3612C80.4688 90.1723 80.5601 89.9979 80.7039 89.8719L83.9186 87.0567L76.8056 91.1185C76.6352 91.2159 76.4336 91.2455 76.2419 91.2013C76.0502 91.157 75.8827 91.0422 75.7734 90.8803C75.6641 90.7183 75.6212 90.5212 75.6534 90.3291C75.6857 90.137 75.7906 89.9642 75.9469 89.8458L79.0221 87.5213L72.7121 91.1262C72.5436 91.2198 72.3458 91.2477 72.1575 91.2045C71.9693 91.1613 71.8041 91.0501 71.6944 90.8927C71.5848 90.7353 71.5386 90.543 71.5648 90.3536C71.5911 90.1641 71.6879 89.9913 71.8363 89.8688L78.8284 84.2369L66.7461 91.1369C66.5722 91.2389 66.3649 91.2695 66.1684 91.2224C65.9719 91.1752 65.8019 91.054 65.6945 90.8845C65.5871 90.7151 65.5509 90.5108 65.5936 90.3154C65.6363 90.1199 65.7545 89.9486 65.9231 89.8382L67.1631 89.004L63.4214 91.1415C63.3055 91.2041 63.1752 91.2358 63.0432 91.2335Z" fill="#4B95FF"/>
<path d="M76.5577 81.8694C76.4078 81.8694 76.2612 81.8263 76.1356 81.7455C76.0099 81.6647 75.9106 81.5496 75.8498 81.4141C75.7889 81.2786 75.7691 81.1285 75.7927 80.9821C75.8163 80.8357 75.8823 80.6992 75.9827 80.5891L76.6879 79.8148L74.1475 81.2668C73.9801 81.3598 73.7837 81.3879 73.5965 81.3458C73.4093 81.3037 73.2446 81.1944 73.1342 81.039C73.0238 80.8836 72.9757 80.6932 72.9991 80.5047C73.0225 80.3162 73.1158 80.1431 73.2609 80.0187L73.3942 79.9052L72.8501 80.2119C72.6815 80.3089 72.4821 80.3394 72.2918 80.2974C72.1014 80.2554 71.934 80.1439 71.8231 79.9852C71.7122 79.8265 71.6658 79.6322 71.6933 79.4412C71.7207 79.2502 71.82 79.0764 71.9713 78.9546L72.7757 78.2998L72.0209 78.7322C71.8646 78.8219 71.6816 78.8548 71.5035 78.8251C71.3253 78.7955 71.1633 78.7052 71.0453 78.5699C70.9272 78.4347 70.8607 78.2628 70.8572 78.0842C70.8536 77.9055 70.9132 77.7312 71.0258 77.5914L73.2965 74.7686L71.7341 75.6594C71.6014 75.7352 71.449 75.7703 71.2962 75.7604C71.1433 75.7505 70.9968 75.696 70.8752 75.6038C70.7536 75.5116 70.6624 75.3858 70.6131 75.2423C70.5637 75.0989 70.5585 74.9441 70.598 74.7977L71.0165 73.2475C70.8886 73.1878 70.7796 73.0946 70.7014 72.978C70.6232 72.8615 70.5788 72.726 70.5729 72.5862C70.567 72.4464 70.5998 72.3077 70.6679 72.185C70.736 72.0624 70.8367 71.9606 70.9591 71.8905L71.7341 71.4443C71.8667 71.3683 72.0191 71.3328 72.1721 71.3425C72.3251 71.3521 72.4717 71.4064 72.5935 71.4984C72.7152 71.5905 72.8067 71.7162 72.8562 71.8597C72.9058 72.0032 72.9112 72.158 72.8718 72.3045L72.5727 73.407L76.0478 71.4228C76.204 71.3332 76.387 71.3003 76.5652 71.33C76.7433 71.3596 76.9054 71.4498 77.0234 71.5851C77.1414 71.7204 77.208 71.8923 77.2115 72.0709C77.2151 72.2496 77.1554 72.4239 77.0429 72.5636L74.7737 75.385L80.1599 72.3091C80.3285 72.2121 80.5279 72.1816 80.7183 72.2236C80.9087 72.2656 81.076 72.3771 81.187 72.5358C81.2979 72.6945 81.3443 72.8888 81.3168 73.0798C81.2893 73.2709 81.1901 73.4446 81.0388 73.5664L80.2157 74.235C80.3856 74.1561 80.5786 74.1408 80.759 74.192C80.9394 74.2433 81.0948 74.3575 81.1965 74.5135C81.2982 74.6696 81.3392 74.8568 81.3119 75.0405C81.2846 75.2241 81.1909 75.3918 81.0481 75.5122L80.5118 75.96C80.6301 75.9587 80.7472 75.9836 80.8545 76.033C80.9618 76.0823 81.0565 76.1548 81.1318 76.2452C81.2476 76.3872 81.3084 76.5654 81.3033 76.7478C81.2982 76.9302 81.2275 77.1049 81.1039 77.2403L79.7988 78.674C79.9362 78.7246 80.0562 78.8128 80.145 78.9282C80.2337 79.0437 80.2876 79.1817 80.3002 79.3262C80.3129 79.4707 80.2838 79.6158 80.2165 79.7446C80.1491 79.8734 80.0462 79.9807 79.9197 80.054L76.9328 81.7606C76.8195 81.8284 76.6902 81.8659 76.5577 81.8694Z" fill="#EABEA3"/>
<path d="M77.6427 75.5933C77.4898 75.5935 77.3402 75.549 77.2128 75.4654C77.0854 75.3817 76.9858 75.2627 76.9266 75.1232C76.8675 74.9837 76.8514 74.83 76.8803 74.6814C76.9093 74.5329 76.982 74.3961 77.0894 74.2884L78.8393 72.5296L73.915 75.3479C73.7444 75.444 73.5433 75.4724 73.3523 75.4275C73.1613 75.3826 72.9947 75.2676 72.886 75.1058C72.7774 74.9441 72.7349 74.7476 72.7671 74.556C72.7992 74.3644 72.9037 74.192 73.0594 74.0737L76.2756 71.6633L71.7806 74.2286C71.6123 74.3234 71.4141 74.3524 71.2252 74.3098C71.0363 74.2672 70.8704 74.1562 70.7601 73.9987C70.6498 73.8411 70.6032 73.6484 70.6294 73.4585C70.6556 73.2686 70.7528 73.0953 70.9018 72.9728L77.7078 67.4666L69.7904 71.9899C69.6213 72.0849 69.4223 72.1135 69.2329 72.0701C69.0434 72.0267 68.8774 71.9144 68.7677 71.7556C68.6581 71.5967 68.6128 71.4029 68.6409 71.2125C68.669 71.0222 68.7683 70.8492 68.9193 70.728L75.0294 65.8888L68.8201 69.4339C68.6481 69.5315 68.4448 69.5602 68.2521 69.5141C68.0593 69.4679 67.8918 69.3504 67.784 69.1858C67.6761 69.0212 67.6362 68.8219 67.6724 68.629C67.7086 68.4361 67.8181 68.2643 67.9785 68.1489L70.0756 66.6524L67.8204 67.9404C67.651 68.0378 67.4507 68.0681 67.2596 68.0253C67.0686 67.9824 66.901 67.8696 66.7906 67.7095C66.6803 67.5495 66.6353 67.354 66.6647 67.1624C66.6941 66.9708 66.7958 66.7973 66.9493 66.6769L72.6238 62.1981L65.7868 66.1019C65.6217 66.1968 65.427 66.228 65.2401 66.1896C65.0532 66.1513 64.8871 66.046 64.7738 65.894C64.6605 65.742 64.6079 65.554 64.6261 65.366C64.6442 65.178 64.7319 65.0033 64.8723 64.8753L69.4742 60.6203L68.7628 61.0266C68.602 61.1177 68.4135 61.1488 68.2315 61.1143C68.0495 61.0797 67.8861 60.9818 67.7708 60.8383C67.6555 60.6948 67.596 60.5151 67.6031 60.3319C67.6102 60.1487 67.6835 59.9742 67.8095 59.8398L69.5145 58.0274C69.374 57.9793 69.2504 57.8923 69.1584 57.7767C69.0665 57.661 69.0102 57.5217 68.9961 57.3752C68.982 57.2288 69.0109 57.0814 69.0792 56.9507C69.1475 56.82 69.2523 56.7115 69.3812 56.6382L72.6052 54.7982C72.766 54.7071 72.9545 54.676 73.1365 54.7105C73.3185 54.7451 73.4819 54.843 73.5972 54.9865C73.7125 55.13 73.772 55.3097 73.7649 55.4928C73.7578 55.676 73.6845 55.8506 73.5585 55.985L72.4735 57.1335L74.5629 55.939C74.728 55.8427 74.9233 55.8104 75.1111 55.8483C75.2989 55.8861 75.4658 55.9914 75.5797 56.1439C75.6936 56.2964 75.7463 56.4853 75.7277 56.6739C75.7091 56.8626 75.6205 57.0378 75.4789 57.1657L70.8754 61.4207L80.7815 55.7627C80.9506 55.6677 81.1496 55.639 81.339 55.6825C81.5285 55.7259 81.6945 55.8381 81.8042 55.997C81.9138 56.1559 81.9591 56.3497 81.931 56.54C81.9029 56.7304 81.8036 56.9033 81.6526 57.0246L75.978 61.5035L82.4741 57.7943C82.6461 57.6967 82.8494 57.668 83.0421 57.7141C83.2349 57.7602 83.4024 57.8777 83.5102 58.0424C83.6181 58.207 83.658 58.4063 83.6218 58.5991C83.5856 58.792 83.4761 58.9639 83.3157 59.0793L81.2155 60.5789L83.0894 59.5055C83.2586 59.4087 83.4584 59.3787 83.649 59.4215C83.8396 59.4643 84.0068 59.5768 84.1171 59.7363C84.2274 59.8959 84.2728 60.0908 84.244 60.282C84.2153 60.4732 84.1146 60.6466 83.9621 60.7675L77.8566 65.6128L85.2145 61.413C85.3828 61.3198 85.5802 61.292 85.7681 61.3351C85.956 61.3782 86.1209 61.4891 86.2306 61.6461C86.3403 61.8031 86.3868 61.9949 86.3611 62.184C86.3355 62.3731 86.2394 62.546 86.0918 62.6688L79.2873 68.1719L86.2623 64.1929C86.4329 64.0969 86.634 64.0684 86.825 64.1133C87.016 64.1583 87.1826 64.2732 87.2912 64.435C87.3998 64.5968 87.4423 64.7933 87.4102 64.9849C87.378 65.1764 87.2735 65.3488 87.1179 65.4671L83.3684 68.2777C83.4943 68.2661 83.621 68.2874 83.7358 68.3397C83.8506 68.3919 83.9495 68.4731 84.0225 68.5752C84.137 68.7218 84.1939 68.9044 84.1828 69.0893C84.1717 69.2742 84.0933 69.4489 83.9621 69.5811L81.7332 71.8228C81.8445 71.8417 81.9502 71.8848 82.0426 71.9489C82.1351 72.0131 82.212 72.0968 82.2679 72.1939C82.3708 72.3698 82.3989 72.5789 82.346 72.7753C82.2931 72.9716 82.1636 73.1392 81.9858 73.2411L78.038 75.4936C77.9179 75.5618 77.7812 75.5963 77.6427 75.5933Z" fill="#F9D2B6"/>
<path d="M8.23835 65.1361C8.07569 65.1361 7.91716 65.0854 7.7852 64.9914C7.65325 64.8973 7.55456 64.7645 7.50312 64.6118C7.45169 64.4592 7.45011 64.2944 7.49861 64.1408C7.54711 63.9872 7.64323 63.8526 7.77335 63.7561L15.9434 57.6043L5.84205 63.3773C5.6683 63.4768 5.4623 63.5057 5.26744 63.458C5.07258 63.4102 4.90405 63.2895 4.79735 63.1213C4.69045 62.953 4.65381 62.7501 4.69516 62.5556C4.73652 62.3611 4.85263 62.1901 5.019 62.0786L6.2001 61.2889L5.453 61.7152C5.28014 61.8151 5.07492 61.8449 4.88031 61.7985C4.68571 61.752 4.51683 61.6329 4.40904 61.466C4.30125 61.2991 4.26292 61.0974 4.30208 60.9032C4.34124 60.709 4.45484 60.5373 4.6191 60.4241L8.13605 57.9708L5.1988 59.6467C5.02923 59.7398 4.83053 59.7667 4.64193 59.7219C4.45334 59.6772 4.28856 59.5641 4.18013 59.405C4.07169 59.246 4.02749 59.0525 4.05625 58.8627C4.085 58.673 4.18463 58.5008 4.33545 58.3802L10.1294 53.8983L5.08255 56.7809C4.91744 56.8772 4.72213 56.9095 4.53434 56.8717C4.34655 56.8338 4.17959 56.7285 4.06571 56.576C3.95184 56.4235 3.89911 56.2347 3.91773 56.046C3.93634 55.8573 4.02497 55.6821 4.1665 55.5543L7.933 52.0889L6.0916 53.1393C6.00339 53.1947 5.90475 53.232 5.80162 53.2488C5.69848 53.2655 5.59298 53.2615 5.49145 53.2369C5.38993 53.2123 5.29449 53.1676 5.21087 53.1056C5.12724 53.0436 5.05717 52.9655 5.00486 52.8759C4.95256 52.7864 4.91909 52.6874 4.90649 52.5847C4.89389 52.4821 4.9024 52.378 4.93152 52.2786C4.96065 52.1793 5.00977 52.0869 5.07595 52.0069C5.14213 51.9268 5.22399 51.8609 5.3166 51.8129L13.0666 47.3831C13.2317 47.2883 13.4264 47.2571 13.6133 47.2954C13.8002 47.3338 13.9662 47.4391 14.0795 47.5911C14.1928 47.743 14.2455 47.9311 14.2273 48.119C14.2091 48.307 14.1215 48.4818 13.9811 48.6098L10.2301 52.0751L18.9334 47.1041C19.103 47.0092 19.3025 46.9811 19.4922 47.0253C19.6818 47.0694 19.8477 47.1827 19.9568 47.3424C20.0659 47.5021 20.1101 47.6966 20.0807 47.8871C20.0514 48.0777 19.9505 48.2503 19.7983 48.3706L13.9997 52.8525L22.2504 48.1467C22.423 48.0483 22.6273 48.0194 22.8209 48.066C23.0145 48.1126 23.1825 48.2312 23.29 48.3972C23.3975 48.5632 23.4363 48.7637 23.3983 48.9572C23.3602 49.1507 23.2483 49.3222 23.0858 49.4363L19.5658 51.8896L23.9321 49.3887C24.106 49.2868 24.3134 49.2561 24.5098 49.3033C24.7063 49.3504 24.8764 49.4716 24.9838 49.6411C25.0912 49.8105 25.1274 50.0148 25.0847 50.2103C25.0419 50.4058 24.9237 50.577 24.7552 50.6875L23.5679 51.4833L25.7379 50.2459C25.9083 50.1505 26.1088 50.1224 26.2993 50.1674C26.4897 50.2123 26.6559 50.3268 26.7645 50.488C26.873 50.6492 26.9159 50.8451 26.8845 51.0362C26.853 51.2274 26.7496 51.3997 26.595 51.5185L18.4219 57.6687L28.1946 52.0889C28.3657 51.9913 28.5679 51.9619 28.7601 52.0068C28.9523 52.0517 29.1199 52.1675 29.2287 52.3305C29.3376 52.4935 29.3793 52.6915 29.3456 52.884C29.3118 53.0765 29.2051 53.249 29.0471 53.3662L23.8019 57.2471L28.9665 54.2969C29.1357 54.2001 29.3355 54.1701 29.5261 54.2129C29.7167 54.2557 29.8839 54.3682 29.9942 54.5277C30.1045 54.6873 30.1499 54.8822 30.1211 55.0734C30.0924 55.2646 29.9917 55.438 29.8392 55.5589L25.9642 58.6179L28.9851 56.8975C29.1524 56.8019 29.3499 56.7715 29.5386 56.8125C29.7274 56.8534 29.8939 56.9626 30.0055 57.1187C30.117 57.2747 30.1657 57.4664 30.1418 57.6561C30.1179 57.8458 30.0232 58.0198 29.8764 58.1441L28.2411 59.5241L28.8456 59.1791C28.9918 59.0954 29.1616 59.0613 29.3292 59.0818C29.4968 59.1024 29.653 59.1766 29.774 59.293C29.8951 59.4095 29.9744 59.5619 29.9999 59.7271C30.0253 59.8922 29.9956 60.0611 29.9151 60.2079L28.5682 62.6613C28.7213 62.6938 28.8609 62.7714 28.9686 62.884C29.0763 62.9965 29.1469 63.1387 29.1713 63.2918C29.1956 63.4449 29.1725 63.6017 29.1049 63.7415C29.0374 63.8813 28.9286 63.9976 28.7929 64.075L27.1437 65.018C26.9975 65.1017 26.8277 65.1358 26.6602 65.1152C26.4926 65.0947 26.3364 65.0205 26.2153 64.904C26.0942 64.7876 26.0149 64.6352 25.9895 64.47C25.964 64.3049 25.9938 64.136 26.0742 63.9891L27.2398 61.8701L21.7172 65.0226C21.55 65.1163 21.3537 65.1453 21.1662 65.104C20.9787 65.0626 20.8134 64.9538 20.7024 64.7988C20.5914 64.6437 20.5425 64.4533 20.5654 64.2646C20.5882 64.0759 20.681 63.9023 20.8259 63.7775L22.4627 62.3975L17.853 65.0303C17.6839 65.1271 17.484 65.1571 17.2934 65.1143C17.1029 65.0715 16.9357 64.959 16.8253 64.7995C16.715 64.6399 16.6697 64.445 16.6984 64.2538C16.7272 64.0626 16.8279 63.8892 16.9804 63.7683L20.8554 60.7109L13.2821 65.0349C13.1111 65.1304 12.9099 65.1581 12.719 65.1125C12.5282 65.0669 12.3619 64.9513 12.2539 64.7892C12.1458 64.627 12.1041 64.4303 12.1369 64.2388C12.1698 64.0473 12.275 63.8754 12.4311 63.7576L17.6701 59.8706L8.62585 65.0333C8.5083 65.1012 8.37448 65.1367 8.23835 65.1361Z" fill="#7A4E43"/>
<path d="M13.7269 91.1889C13.562 91.1889 13.4014 91.1368 13.2685 91.0403C13.1356 90.9437 13.0372 90.8078 12.9878 90.6521C12.9384 90.4965 12.9404 90.3294 12.9936 90.175C13.0468 90.0206 13.1484 89.887 13.2836 89.7936L14.0586 89.2585L10.8578 91.0801C10.6868 91.1777 10.4845 91.2071 10.2923 91.1622C10.1001 91.1173 9.9325 91.0015 9.82369 90.8385C9.71487 90.6755 9.67308 90.4775 9.70683 90.285C9.74059 90.0925 9.84735 89.9201 10.0053 89.8028L16.1697 85.2396L5.93966 91.0801C5.76767 91.1777 5.56437 91.2064 5.37163 91.1603C5.17888 91.1142 5.01135 90.9967 4.90351 90.832C4.79567 90.6674 4.75573 90.4681 4.79192 90.2753C4.8281 90.0824 4.93765 89.9105 5.09801 89.7951L11.5274 85.1951L2.31111 90.4667C2.14093 90.5615 1.94085 90.5892 1.75091 90.5443C1.56097 90.4994 1.39517 90.3852 1.28666 90.2246C1.17815 90.064 1.13494 89.8688 1.16568 89.678C1.19641 89.4872 1.29882 89.3149 1.45241 89.1956L9.34501 83.1972L2.08171 87.3372C1.91363 87.4345 1.71467 87.4657 1.52443 87.4244C1.33419 87.3832 1.16662 87.2726 1.05505 87.1147C0.943488 86.9568 0.896112 86.7631 0.922353 86.5722C0.948593 86.3813 1.04653 86.2072 1.19666 86.0845L6.37212 81.8111L2.99466 83.7507C2.82788 83.8453 2.63151 83.8752 2.44369 83.8346C2.25588 83.794 2.09003 83.6858 1.97836 83.531C1.86669 83.3761 1.81717 83.1858 1.83943 82.9969C1.86168 82.808 1.95411 82.634 2.09876 82.5088L4.37261 80.563C4.2383 80.4942 4.1277 80.3874 4.05486 80.2563C3.9521 80.0802 3.92425 79.8709 3.97744 79.6745C4.03064 79.4781 4.16052 79.3107 4.33851 79.209L9.24117 76.4107C9.40791 76.3175 9.6036 76.2888 9.79052 76.3299C9.97744 76.371 10.1423 76.4792 10.2534 76.6335C10.3645 76.7877 10.414 76.9773 10.3922 77.1655C10.3704 77.3537 10.279 77.5272 10.1355 77.6527L9.28456 78.381L13.3828 76.0534C13.5506 75.9598 13.7476 75.9314 13.9354 75.9737C14.1233 76.016 14.2885 76.126 14.3988 76.2822C14.5091 76.4384 14.5566 76.6297 14.5321 76.8187C14.5076 77.0077 14.4129 77.181 14.2663 77.3046L9.09391 81.5734L18.7644 76.0534C18.9346 75.9567 19.1356 75.9276 19.3268 75.9718C19.5179 76.0161 19.685 76.1304 19.7942 76.2918C19.9034 76.4532 19.9466 76.6496 19.9152 76.8412C19.8837 77.0329 19.7798 77.2057 19.6246 77.3246L11.7305 83.3199L23.9119 76.3601C24.0839 76.2624 24.2872 76.2337 24.48 76.2799C24.6727 76.326 24.8402 76.4435 24.9481 76.6081C25.0559 76.7728 25.0958 76.972 25.0597 77.1649C25.0235 77.3578 24.9139 77.5296 24.7536 77.645L18.3242 82.245L26.6554 77.4917C26.8265 77.394 27.0287 77.3647 27.2209 77.4096C27.4131 77.4545 27.5807 77.5702 27.6895 77.7333C27.7984 77.8963 27.8402 78.0943 27.8064 78.2868C27.7726 78.4792 27.6659 78.6517 27.5079 78.7689L21.3451 83.3337L28.7851 79.0848C28.9581 78.9866 29.1627 78.9582 29.3564 79.0054C29.55 79.0526 29.7178 79.1719 29.8249 79.3384C29.9319 79.5049 29.9699 79.7058 29.931 79.8994C29.8921 80.0929 29.7792 80.2641 29.6159 80.3774L28.8409 80.911L29.8949 80.3099C30.0648 80.2146 30.2647 80.1861 30.4549 80.2303C30.645 80.2745 30.8112 80.3881 30.9203 80.5484C31.0294 80.7086 31.0734 80.9037 31.0433 81.0946C31.0133 81.2855 30.9115 81.4582 30.7583 81.578L27.3762 84.1847L30.9799 82.127C31.148 82.0314 31.3461 82.0016 31.5353 82.0434C31.7244 82.0852 31.8909 82.1956 32.0018 82.3529C32.1127 82.5102 32.16 82.7028 32.1344 82.8929C32.1088 83.083 32.0121 83.2567 31.8634 83.3797L29.5539 85.2795L31.5023 84.1678C31.6649 84.0794 31.8541 84.0517 32.0357 84.0896C32.2172 84.1276 32.3789 84.2287 32.4915 84.3745C32.6041 84.5204 32.66 84.7014 32.6491 84.8847C32.6383 85.0679 32.5613 85.2412 32.4323 85.373L30.9303 86.8588L31.7565 86.3865C31.9053 86.3018 32.0783 86.2683 32.2485 86.2913C32.4186 86.3144 32.5762 86.3927 32.6964 86.514C32.8167 86.6352 32.8929 86.7926 32.9129 86.9613C32.933 87.13 32.8959 87.3005 32.8074 87.4461L32.2509 88.3569C32.4074 88.3314 32.568 88.3532 32.7118 88.4194C32.8556 88.4856 32.9758 88.5931 33.0569 88.7279C33.1597 88.904 33.1875 89.1133 33.1343 89.3097C33.0811 89.5061 32.9513 89.6735 32.7733 89.7752L30.4591 91.0969C30.3103 91.181 30.1376 91.214 29.9678 91.1906C29.7981 91.1672 29.641 91.0889 29.5211 90.9678C29.4012 90.8467 29.3252 90.6897 29.3051 90.5214C29.2849 90.353 29.3217 90.1829 29.4098 90.0374L29.9166 89.2079L26.6136 91.0801C26.451 91.1685 26.2617 91.1962 26.0802 91.1583C25.8987 91.1203 25.7369 91.0192 25.6243 90.8734C25.5118 90.7275 25.4558 90.5465 25.4667 90.3632C25.4776 90.18 25.5545 90.0067 25.6836 89.8749L27.1855 88.3891L22.4751 91.0801C22.3071 91.1741 22.1097 91.2026 21.9215 91.1603C21.7333 91.1179 21.5679 91.0075 21.4576 90.8509C21.3473 90.6942 21.3001 90.5025 21.3251 90.3132C21.3502 90.1239 21.4458 89.9506 21.5931 89.8273L23.9042 87.9245L18.3707 91.0801C18.2008 91.1755 18.0008 91.2039 17.8107 91.1597C17.6206 91.1155 17.4543 91.0019 17.3452 90.8417C17.2361 90.6814 17.1922 90.4863 17.2223 90.2954C17.2523 90.1045 17.3541 89.9319 17.5073 89.812L20.8879 87.2053L14.1144 91.0801C13.9972 91.1495 13.8635 91.1871 13.7269 91.1889Z" fill="#4B95FF"/>
<path d="M45.55 35.8006C45.4018 35.8019 45.2563 35.7611 45.1308 35.6831C45.0053 35.6051 44.905 35.4932 44.8419 35.3605C44.7787 35.2278 44.7554 35.0801 44.7746 34.9347C44.7938 34.7893 44.8547 34.6524 44.9502 34.5402L47.6921 31.2987L43.1739 33.887C43.0146 33.9782 42.8277 34.0103 42.6467 33.9777C42.4657 33.9451 42.3023 33.8498 42.1858 33.7089C42.0692 33.568 42.0072 33.3907 42.0108 33.2087C42.0143 33.0267 42.0832 32.8519 42.2051 32.7155L44.0651 30.6332L42.3415 31.6161C42.2117 31.6899 42.063 31.7249 41.9135 31.7168C41.7639 31.7088 41.62 31.6581 41.499 31.5708C41.378 31.4836 41.2851 31.3635 41.2316 31.2251C41.1782 31.0868 41.1663 30.936 41.1976 30.7912L41.6301 28.8116C41.4927 28.761 41.3726 28.6728 41.2839 28.5574C41.1951 28.4419 41.1413 28.3039 41.1286 28.1595C41.116 28.015 41.145 27.8699 41.2124 27.741C41.2797 27.6122 41.3826 27.5049 41.5092 27.4316L42.2842 26.9854C42.414 26.9117 42.5627 26.8767 42.7122 26.8847C42.8617 26.8928 43.0057 26.9435 43.1267 27.0307C43.2477 27.118 43.3405 27.2381 43.394 27.3764C43.4475 27.5148 43.4593 27.6655 43.4281 27.8104L43.0902 29.4219L47.41 26.9532C47.5693 26.862 47.7561 26.8299 47.9372 26.8625C48.1182 26.8951 48.2816 26.9904 48.3981 27.1313C48.5146 27.2722 48.5767 27.4495 48.5731 27.6315C48.5696 27.8135 48.5007 27.9884 48.3788 28.1247L46.5188 30.207L50.7239 27.8058C50.8817 27.7151 51.0667 27.6824 51.2464 27.7134C51.4262 27.7443 51.5891 27.8371 51.7065 27.9752C51.8239 28.1134 51.8883 28.2881 51.8883 28.4685C51.8883 28.649 51.824 28.8237 51.7066 28.9619L48.9554 32.2003L50.4434 31.3508C50.6213 31.2508 50.832 31.2244 51.0295 31.2774C51.227 31.3305 51.3952 31.4587 51.4976 31.634C51.5999 31.8093 51.628 32.0176 51.5757 32.2133C51.5234 32.409 51.3949 32.5763 51.2184 32.6787L45.9375 35.6963C45.8201 35.7648 45.6863 35.8008 45.55 35.8006Z" fill="#E1EFFF"/>
<path d="M17.402 81.9202C17.2569 81.9203 17.1146 81.8801 16.9915 81.8041C16.8683 81.7282 16.7692 81.6195 16.7054 81.4906C16.6416 81.3616 16.6156 81.2175 16.6306 81.0747C16.6455 80.9319 16.7006 80.7961 16.7897 80.6828L18.6079 78.3721L14.4601 80.7395C14.2979 80.831 14.1077 80.8614 13.9246 80.8252C13.7415 80.7891 13.5778 80.6887 13.4635 80.5427C13.3493 80.3966 13.2921 80.2146 13.3026 80.0302C13.3132 79.8458 13.3906 79.6713 13.5208 79.5389L17.1106 75.9249L13.0201 78.2571C12.8551 78.3493 12.6617 78.3785 12.4764 78.3391C12.2911 78.2998 12.1268 78.1946 12.0145 78.0436C11.9023 77.8925 11.8499 77.706 11.8673 77.5193C11.8846 77.3326 11.9705 77.1587 12.1087 77.0304L12.9736 76.2469L12.831 76.3266C12.7011 76.4005 12.5522 76.4356 12.4025 76.4275C12.2528 76.4195 12.1087 76.3686 11.9876 76.2811C11.8665 76.1936 11.7737 76.0733 11.7204 75.9347C11.667 75.7961 11.6555 75.6451 11.6871 75.5001L12.1754 73.2753C12.0054 73.2143 11.863 73.0952 11.7739 72.9395C11.6715 72.7637 11.6437 72.5549 11.6966 72.3589C11.7495 72.1629 11.8787 71.9956 12.056 71.8937L12.831 71.4475C12.961 71.3736 13.1099 71.3385 13.2596 71.3466C13.4093 71.3547 13.5534 71.4055 13.6745 71.493C13.7956 71.5805 13.8884 71.7008 13.9417 71.8394C13.9951 71.9781 14.0066 72.129 13.9749 72.274L13.5673 74.1339L18.318 71.4199C18.4831 71.3277 18.6765 71.2985 18.8618 71.3379C19.0471 71.3772 19.2114 71.4824 19.3237 71.6334C19.4359 71.7845 19.4883 71.971 19.4709 72.1577C19.4536 72.3444 19.3677 72.5183 19.2294 72.6466L18.3645 73.4332L21.2568 71.7803C21.4193 71.6876 21.6101 71.6564 21.794 71.6923C21.978 71.7282 22.1425 71.8288 22.2572 71.9756C22.3718 72.1223 22.4288 72.3052 22.4176 72.4903C22.4064 72.6754 22.3277 72.8503 22.1961 72.9824L18.6156 76.5965L21.2677 75.0831C21.4232 74.9955 21.6045 74.9638 21.7809 74.9934C21.9573 75.0231 22.1179 75.1121 22.2355 75.2456C22.353 75.379 22.4203 75.5486 22.4258 75.7255C22.4314 75.9024 22.3749 76.0758 22.2659 76.2162L20.44 78.5377C20.6213 78.4602 20.8256 78.4542 21.0113 78.5208C21.1969 78.5874 21.3499 78.7216 21.4389 78.8959C21.5279 79.0703 21.5463 79.2717 21.4903 79.459C21.4343 79.6464 21.3081 79.8055 21.1375 79.9039L17.7895 81.8159C17.6718 81.8838 17.5382 81.9197 17.402 81.9202Z" fill="#925C4C"/>
<path d="M36.2562 91.189C36.0902 91.1895 35.9283 91.1373 35.7945 91.04C35.6607 90.9426 35.5621 90.8053 35.5131 90.6484C35.4642 90.4914 35.4675 90.323 35.5226 90.168C35.5777 90.013 35.6816 89.8796 35.8191 89.7875L37.3009 88.7924L33.2864 91.0801C33.1144 91.1778 32.9111 91.2065 32.7184 91.1603C32.5257 91.1142 32.3581 90.9967 32.2503 90.8321C32.1424 90.6675 32.1025 90.4682 32.1387 90.2753C32.1749 90.0824 32.2844 89.9106 32.4448 89.7952L39.1625 84.9974L31.4342 89.4134C31.2607 89.5099 31.0563 89.5367 30.8633 89.4882C30.6704 89.4396 30.5037 89.3195 30.3979 89.1527C30.2921 88.9859 30.2552 88.7852 30.2949 88.5923C30.3346 88.3993 30.4478 88.2288 30.6111 88.1162L31.3117 87.6455C31.1379 87.6913 30.9533 87.6759 30.7897 87.6019C30.6261 87.5279 30.4936 87.3998 30.4149 87.2397C30.3363 87.0796 30.3164 86.8974 30.3587 86.7244C30.401 86.5514 30.5029 86.3984 30.6468 86.2915L34.1188 83.7125L31.9333 84.9591C31.7695 85.0551 31.5757 85.0882 31.3889 85.052C31.202 85.0157 31.0352 84.9127 30.9203 84.7626C30.8053 84.6124 30.7502 84.4257 30.7655 84.238C30.7808 84.0502 30.8655 83.8746 31.0033 83.7447L34.2443 80.6535C34.0983 80.6622 33.9526 80.6314 33.8229 80.5644C33.6932 80.4974 33.5844 80.3967 33.5081 80.2732C33.4053 80.0971 33.3775 79.8878 33.4307 79.6914C33.4839 79.495 33.6137 79.3276 33.7917 79.2259L38.6959 76.4261C38.8597 76.33 39.0535 76.2969 39.2403 76.3332C39.4272 76.3694 39.594 76.4724 39.709 76.6225C39.8239 76.7727 39.879 76.9594 39.8637 77.1472C39.8484 77.3349 39.7638 77.5105 39.6259 77.6405L36.6081 80.5293L44.434 76.0535C44.6049 75.9558 44.8071 75.9263 44.9992 75.9711C45.1913 76.0158 45.3589 76.1314 45.4679 76.2942C45.5767 76.4569 45.6187 76.6546 45.5852 76.8469C45.5518 77.0392 45.4456 77.2117 45.2881 77.3292L41.8176 79.9083L48.5725 76.0535C48.7461 75.9569 48.9505 75.9301 49.1434 75.9787C49.3363 76.0272 49.503 76.1473 49.6088 76.3141C49.7147 76.4809 49.7516 76.6816 49.7119 76.8746C49.6721 77.0676 49.5589 77.238 49.3956 77.3507L49.0034 77.6144L51.5516 76.1593C51.7236 76.0616 51.9269 76.0329 52.1197 76.079C52.3124 76.1252 52.4799 76.2427 52.5878 76.4073C52.6956 76.5719 52.7356 76.7712 52.6994 76.9641C52.6632 77.157 52.5536 77.3288 52.3933 77.4442L45.6678 82.2481L54.9136 76.9689C55.0875 76.8669 55.2948 76.8362 55.4913 76.8834C55.6878 76.9305 55.8579 77.0518 55.9653 77.2212C56.0726 77.3907 56.1088 77.5949 56.0661 77.7904C56.0234 77.9859 55.9052 78.1571 55.7366 78.2676L54.2734 79.2505L56.6852 77.8705C56.8555 77.7738 57.0565 77.7446 57.2476 77.7889C57.4388 77.8331 57.6058 77.9475 57.715 78.1089C57.8243 78.2702 57.8675 78.4666 57.836 78.6583C57.8046 78.85 57.7007 79.0227 57.5455 79.1416L51.2354 83.9363L58.7591 79.643C58.9252 79.5509 59.1196 79.5224 59.3055 79.563C59.4914 79.6037 59.6556 79.7106 59.767 79.8633C59.8783 80.0161 59.9289 80.204 59.9091 80.3913C59.8893 80.5786 59.8005 80.7522 59.6597 80.8789L53.8565 85.9649L60.4502 82.1868C60.6193 82.0918 60.8183 82.0632 61.0077 82.1066C61.1972 82.15 61.3632 82.2623 61.4729 82.4211C61.5825 82.58 61.6278 82.7738 61.5997 82.9642C61.5716 83.1545 61.4723 83.3275 61.3213 83.4487L59.7558 84.6861L61.174 83.8781C61.3271 83.7907 61.5058 83.7576 61.6804 83.7845C61.8551 83.8113 62.0152 83.8964 62.1343 84.0256C62.2533 84.1549 62.3241 84.3205 62.335 84.495C62.3459 84.6695 62.2961 84.8424 62.1939 84.9851L60.0394 88.0135L61.5677 87.1425C61.7449 87.0509 61.9509 87.0305 62.1429 87.0856C62.3349 87.1406 62.4979 87.267 62.5979 87.4382C62.698 87.6094 62.7273 87.8122 62.6797 88.0043C62.6322 88.1963 62.5114 88.3628 62.3427 88.4689L57.7563 91.0801C57.6034 91.1669 57.4251 91.1995 57.2509 91.1726C57.0768 91.1456 56.9171 91.0607 56.7982 90.9319C56.6794 90.8031 56.6085 90.638 56.5973 90.464C56.586 90.29 56.6351 90.1173 56.7364 89.9746L58.8924 86.957L51.6679 91.0801C51.4987 91.1769 51.2989 91.2069 51.1083 91.1641C50.9177 91.1213 50.7505 91.0089 50.6402 90.8493C50.5299 90.6898 50.4845 90.4949 50.5133 90.3037C50.542 90.1125 50.6427 89.9391 50.7952 89.8182L52.3638 88.5777L47.9804 91.0801C47.8144 91.1723 47.6199 91.2007 47.434 91.1601C47.2482 91.1194 47.0839 91.0125 46.9726 90.8598C46.8613 90.707 46.8107 90.5191 46.8305 90.3318C46.8503 90.1445 46.9391 89.971 47.0799 89.8443L52.8831 84.7582L41.8145 91.0801C41.6443 91.1768 41.4433 91.206 41.2521 91.1617C41.061 91.1175 40.8939 91.0031 40.7847 90.8417C40.6755 90.6804 40.6323 90.484 40.6637 90.2923C40.6952 90.1006 40.7991 89.9279 40.9543 89.809L47.2612 85.0158L36.6437 91.0801C36.5265 91.1496 36.3928 91.1871 36.2562 91.189Z" fill="#AEA8FB"/>
<path d="M41.9663 29.8558C41.8036 29.8558 41.6451 29.8051 41.5131 29.711C41.3811 29.617 41.2825 29.4842 41.231 29.3315C41.1796 29.1789 41.178 29.0141 41.2265 28.8605C41.275 28.7069 41.3711 28.5723 41.5013 28.4758L47.0456 24.4017L40.7294 28.0096C40.5575 28.1088 40.3537 28.1388 40.1601 28.0934C39.9665 28.048 39.7979 27.9307 39.6894 27.7657C39.5808 27.6008 39.5405 27.4009 39.5769 27.2074C39.6132 27.0138 39.7234 26.8416 39.8846 26.7262L46.5977 21.8794L40.2814 25.4842C40.1109 25.5784 39.9107 25.6054 39.7209 25.5598C39.5311 25.5142 39.3657 25.3994 39.2578 25.2384C39.1499 25.0774 39.1074 24.882 39.1388 24.6913C39.1703 24.5007 39.2733 24.3288 39.4274 24.21L47.9818 17.813L38.4478 23.2578C38.2768 23.3533 38.0756 23.3811 37.8847 23.3355C37.6939 23.2899 37.5276 23.1743 37.4196 23.0121C37.3116 22.85 37.2698 22.6533 37.3026 22.4618C37.3355 22.2703 37.4407 22.0983 37.5968 21.9806L46.3977 15.4869L36.5521 21.1081C36.3787 21.2061 36.1738 21.2342 35.98 21.1864C35.7862 21.1386 35.6186 21.0186 35.512 20.8515C35.4055 20.6844 35.3682 20.4831 35.4081 20.2895C35.448 20.0959 35.5618 19.925 35.726 19.8124L39.9807 16.9114L35.7012 19.3555C35.5285 19.4539 35.3242 19.4829 35.1306 19.4362C34.937 19.3896 34.769 19.271 34.6615 19.105C34.554 18.9391 34.5152 18.7385 34.5533 18.545C34.5913 18.3515 34.7032 18.18 34.8657 18.066L40.7914 13.9152L34.9603 17.2502C34.7863 17.3522 34.579 17.3828 34.3825 17.3357C34.186 17.2885 34.016 17.1673 33.9086 16.9979C33.8012 16.8284 33.765 16.6241 33.8077 16.4287C33.8504 16.2332 33.9687 16.0619 34.1372 15.9515L34.9758 15.3918L34.6999 15.5452C34.5284 15.6319 34.3305 15.6524 34.1446 15.6027C33.9588 15.553 33.7983 15.4366 33.6944 15.2763C33.5905 15.1159 33.5507 14.923 33.5827 14.7352C33.6147 14.5474 33.7162 14.378 33.8675 14.2602L36.9257 12.135L34.6627 13.4276C34.4905 13.5239 34.2877 13.5514 34.0957 13.5045C33.9038 13.4577 33.7372 13.34 33.63 13.1756C33.5229 13.0113 33.4833 12.8126 33.5194 12.6203C33.5554 12.428 33.6645 12.2566 33.8241 12.1412L36.0313 10.5802L35.03 11.1476C34.8672 11.2371 34.6773 11.2656 34.4949 11.2279C34.3126 11.1902 34.1501 11.0888 34.0372 10.9422C33.9243 10.7957 33.8685 10.6139 33.88 10.43C33.8916 10.2461 33.9696 10.0724 34.1 9.94082L38.3703 5.72109H38.361C38.2727 5.77656 38.1741 5.81381 38.071 5.83059C37.9678 5.84737 37.8623 5.84334 37.7608 5.81874C37.6593 5.79414 37.5638 5.74948 37.4802 5.68744C37.3966 5.62541 37.3265 5.54728 37.2742 5.45776C37.2219 5.36824 37.1884 5.26918 37.1758 5.16653C37.1632 5.06389 37.1718 4.95978 37.2009 4.86048C37.23 4.76117 37.2791 4.66872 37.3453 4.58869C37.4115 4.50865 37.4933 4.44268 37.586 4.39476L42.701 1.47376C42.8636 1.38537 43.0528 1.35763 43.2343 1.39556C43.4159 1.4335 43.5776 1.53459 43.6902 1.68048C43.8028 1.82637 43.8587 2.00737 43.8478 2.19059C43.837 2.37381 43.76 2.5471 43.631 2.67896L39.37 6.90022L49.0513 1.38022C49.2231 1.28694 49.4243 1.26151 49.6143 1.30906C49.8043 1.35661 49.969 1.47361 50.0753 1.63649C50.1816 1.79937 50.2216 1.99605 50.1872 2.18692C50.1527 2.37778 50.0465 2.54866 49.8899 2.66516L47.678 4.22302L51.3205 2.14689C51.4933 2.04994 51.697 2.02229 51.8898 2.06966C52.0825 2.11704 52.2496 2.23581 52.3564 2.40146C52.4632 2.56712 52.5016 2.76701 52.4637 2.95989C52.4259 3.15276 52.3146 3.32389 52.1529 3.43796L49.1009 5.55396L53.2441 3.18802C53.4178 3.09005 53.6232 3.06234 53.8172 3.11068C54.0111 3.15903 54.1787 3.27969 54.2848 3.44744C54.3909 3.61518 54.4273 3.817 54.3864 4.01071C54.3456 4.20441 54.2306 4.37498 54.0656 4.48676L53.2146 5.05562L54.5073 4.31656C54.6799 4.21809 54.8842 4.18918 55.0778 4.23582C55.2714 4.28247 55.4394 4.40108 55.5469 4.56703C55.6544 4.73298 55.6932 4.93352 55.6552 5.12701C55.6172 5.3205 55.5053 5.49207 55.3428 5.60609L49.4233 9.74609L56.0356 5.98022C56.2091 5.8785 56.4159 5.84771 56.612 5.89438C56.8081 5.94106 56.9781 6.06153 57.0859 6.23021C57.1936 6.39888 57.2306 6.60247 57.1891 6.79772C57.1475 6.99298 57.0307 7.16451 56.8633 7.27589L52.5993 10.1892L57.0803 7.63009C57.2516 7.53151 57.4545 7.50157 57.6474 7.54641C57.8403 7.59125 58.0085 7.70748 58.1174 7.8712C58.2264 8.03492 58.2678 8.23371 58.2332 8.4267C58.1985 8.6197 58.0905 8.79225 57.9313 8.90889L49.135 15.3842L58.0506 10.2935C58.2209 10.2042 58.4187 10.1809 58.6054 10.2281C58.7921 10.2754 58.9544 10.3897 59.0605 10.5489C59.1666 10.708 59.2089 10.9006 59.1792 11.0889C59.1496 11.2773 59.05 11.448 58.9 11.5677L50.3456 17.9648L58.3575 13.3878C58.5294 13.2886 58.7332 13.2586 58.9268 13.304C59.1204 13.3494 59.2889 13.4667 59.3975 13.6316C59.5061 13.7966 59.5463 13.9965 59.51 14.19C59.4736 14.3835 59.3635 14.5558 59.2023 14.6712L52.4908 19.518L57.9034 16.4268C58.0745 16.3305 58.2763 16.3023 58.4678 16.3479C58.6592 16.3935 58.8259 16.5095 58.9341 16.6723C59.0422 16.8351 59.0836 17.0325 59.05 17.2244C59.0163 17.4164 58.91 17.5884 58.7528 17.7056L53.2022 21.7843L56.265 20.0409C56.43 19.9487 56.6235 19.9195 56.8088 19.9588C56.9941 19.9982 57.1584 20.1033 57.2706 20.2544C57.3829 20.4055 57.4352 20.592 57.4179 20.7787C57.4005 20.9653 57.3146 21.1393 57.1764 21.2676L52.7915 25.2542C53.0062 25.2682 53.2095 25.3554 53.3665 25.5011C53.4859 25.6293 53.5576 25.794 53.5697 25.9679C53.5819 26.1418 53.5337 26.3147 53.4332 26.4579L52.7837 27.3779C52.9178 27.4475 53.0287 27.554 53.103 27.6846C53.2053 27.8605 53.2329 28.0694 53.1797 28.2654C53.1265 28.4614 52.9969 28.6286 52.8194 28.7303L51.0322 29.7515C50.8798 29.8381 50.7022 29.8709 50.5285 29.8446C50.3548 29.8182 50.1954 29.7342 50.0762 29.6064C49.9571 29.4786 49.8855 29.3145 49.873 29.1411C49.8605 28.9677 49.908 28.7953 50.0077 28.6521L50.1875 28.396L47.8098 29.753C47.6447 29.8452 47.4513 29.8744 47.266 29.8351C47.0807 29.7957 46.9164 29.6906 46.8042 29.5395C46.6919 29.3885 46.6395 29.2019 46.6569 29.0152C46.6742 28.8286 46.7601 28.6546 46.8984 28.5264L50.9408 24.8464L42.3584 29.753C42.2394 29.8216 42.1039 29.8571 41.9663 29.8558Z" fill="#FDE05E"/>
<path d="M16.5106 75.7728C16.3506 75.7729 16.1946 75.7241 16.0638 75.633C15.933 75.5419 15.834 75.4131 15.7801 75.2641C15.7263 75.1151 15.7204 74.9533 15.7632 74.8009C15.806 74.6485 15.8954 74.5129 16.0192 74.4127L16.8345 73.7518L14.4863 75.0935C14.3167 75.1915 14.1159 75.2222 13.9243 75.1794C13.7327 75.1365 13.5648 75.0234 13.4543 74.8627C13.3439 74.702 13.2992 74.5059 13.3294 74.3139C13.3595 74.1219 13.4622 73.9485 13.6167 73.8285L18.9069 69.6885L12.138 73.5525C11.9693 73.6482 11.7703 73.6777 11.5806 73.635C11.3909 73.5923 11.2244 73.4806 11.1141 73.322C11.0038 73.1635 10.9578 72.9697 10.9853 72.7792C11.0127 72.5887 11.1116 72.4154 11.2623 72.2936L17.7258 67.0987L10.4485 71.254C10.2778 71.3523 10.0757 71.3823 9.88336 71.3381C9.69102 71.2939 9.52301 71.1787 9.41361 71.0161C9.30422 70.8535 9.2617 70.6557 9.29473 70.4631C9.32777 70.2705 9.43386 70.0977 9.59136 69.9798L14.2414 66.4854L9.81766 69.0123C9.64698 69.1105 9.44484 69.1406 9.25251 69.0964C9.06017 69.0521 8.89216 68.937 8.78276 68.7743C8.67337 68.6117 8.63085 68.4139 8.66388 68.2214C8.69692 68.0288 8.80301 67.8559 8.96051 67.7381L13.2664 64.5028L7.96851 67.5296C7.79566 67.6381 7.58644 67.6745 7.38652 67.631C7.18659 67.5874 7.01222 67.4673 6.90147 67.297C6.79071 67.1267 6.75258 66.92 6.79539 66.7219C6.8382 66.5239 6.95848 66.3506 7.12996 66.24L9.50146 64.5534L6.86646 66.053C6.69917 66.147 6.50249 66.1762 6.31468 66.1347C6.12687 66.0932 5.96138 65.9841 5.85039 65.8286C5.73941 65.6731 5.69087 65.4823 5.71423 65.2934C5.73759 65.1044 5.83117 64.9308 5.97676 64.8064L9.76496 61.6278L7.74996 62.7716C7.58736 62.86 7.3981 62.8878 7.21658 62.8498C7.03505 62.8119 6.8733 62.7108 6.76073 62.5649C6.64815 62.419 6.59222 62.238 6.60309 62.0548C6.61396 61.8716 6.69091 61.6983 6.81996 61.5664L10.4702 57.96C10.3594 57.8923 10.2673 57.7986 10.2021 57.6871C10.0993 57.511 10.0714 57.3017 10.1246 57.1053C10.1778 56.9089 10.3077 56.7415 10.4857 56.6398L13.7097 54.7998C13.8723 54.7114 14.0616 54.6837 14.2431 54.7216C14.4246 54.7596 14.5864 54.8607 14.6989 55.0066C14.8115 55.1524 14.8675 55.3334 14.8566 55.5167C14.8457 55.6999 14.7688 55.8732 14.6397 56.005L12.1008 58.5197L16.3928 56.0664C16.5602 55.972 16.7573 55.9427 16.9454 55.9842C17.1335 56.0258 17.2992 56.1352 17.4102 56.2912C17.5212 56.4471 17.5694 56.6383 17.5455 56.8275C17.5216 57.0168 17.4273 57.1904 17.2809 57.3145L13.5082 60.4885L21.855 55.726C22.027 55.6283 22.2303 55.5996 22.423 55.6457C22.6157 55.6919 22.7833 55.8094 22.8911 55.974C22.999 56.1386 23.0389 56.3379 23.0027 56.5308C22.9665 56.7237 22.857 56.8955 22.6966 57.0109L20.3298 58.6976L23.143 57.0922C23.3136 56.9961 23.5147 56.9677 23.7057 57.0126C23.8967 57.0575 24.0633 57.1725 24.1719 57.3342C24.2806 57.496 24.3231 57.6925 24.2909 57.8841C24.2587 58.0757 24.1543 58.248 23.9986 58.3664L19.685 61.6094L24.1056 59.0855C24.2762 58.9873 24.4784 58.9572 24.6707 59.0014C24.8631 59.0457 25.0311 59.1608 25.1405 59.3234C25.2499 59.4861 25.2924 59.6839 25.2593 59.8765C25.2263 60.069 25.1202 60.2419 24.9627 60.3597L20.3127 63.8542L25.3921 60.9531C25.5606 60.8595 25.7584 60.8315 25.9466 60.8747C26.1349 60.9179 26.3001 61.0291 26.4097 61.1866C26.5194 61.344 26.5656 61.5363 26.5394 61.7257C26.5131 61.9151 26.4163 62.088 26.2678 62.2104L19.809 67.4023L27.3187 63.109C27.488 63.0135 27.6875 62.9846 27.8773 63.028C28.0672 63.0715 28.2336 63.1841 28.3433 63.3435C28.4529 63.5029 28.4979 63.6973 28.4692 63.8879C28.4404 64.0786 28.3401 64.2516 28.1883 64.3724L22.895 68.5124L24.273 67.7258C24.4414 67.6293 24.6403 67.5991 24.8303 67.641C25.0203 67.683 25.1873 67.7941 25.2982 67.9524C25.4091 68.1106 25.4558 68.3043 25.429 68.495C25.4021 68.6857 25.3037 68.8594 25.1534 68.9816L23.9134 69.9906C24.0536 69.9882 24.1921 70.0224 24.3148 70.0897C24.4375 70.1569 24.5401 70.255 24.6124 70.3739C24.7152 70.55 24.743 70.7592 24.6898 70.9556C24.6366 71.152 24.5068 71.3195 24.3288 71.4212L16.895 75.67C16.7783 75.7374 16.6456 75.7729 16.5106 75.7728Z" fill="#A9725E"/>
<path d="M46.1466 81.9168C45.997 81.9168 45.8507 81.874 45.7252 81.7936C45.5997 81.7132 45.5003 81.5985 45.4392 81.4635C45.3781 81.3285 45.3578 81.1788 45.3807 81.0326C45.4036 80.8864 45.4688 80.7499 45.5684 80.6396L47.2967 78.7321L43.8479 80.6994C43.6829 80.7942 43.4882 80.8254 43.3013 80.7871C43.1143 80.7487 42.9483 80.6434 42.835 80.4914C42.7217 80.3394 42.6691 80.1514 42.6872 79.9634C42.7054 79.7754 42.7931 79.6007 42.9334 79.4727L44.8864 77.6848L42.6203 78.979C42.4577 79.0673 42.2685 79.0951 42.087 79.0571C41.9054 79.0192 41.7437 78.9181 41.6311 78.7722C41.5185 78.6263 41.4626 78.4453 41.4735 78.2621C41.4843 78.0789 41.5613 77.9056 41.6903 77.7738L42.2669 77.2049C42.1352 77.2731 41.9865 77.3028 41.8383 77.2906C41.6901 77.2783 41.5485 77.2247 41.4299 77.1359C41.3082 77.0437 41.2169 76.9178 41.1675 76.7743C41.1182 76.6307 41.1129 76.4759 41.1525 76.3293L41.571 74.7822C41.4431 74.7225 41.3341 74.6293 41.2559 74.5128C41.1777 74.3962 41.1333 74.2607 41.1274 74.1209C41.1215 73.9811 41.1543 73.8424 41.2224 73.7197C41.2905 73.5971 41.3912 73.4953 41.5136 73.4252L42.2886 72.979C42.4212 72.903 42.5736 72.8675 42.7266 72.8772C42.8796 72.8868 43.0262 72.9411 43.148 73.0331C43.2697 73.1252 43.3612 73.2509 43.4107 73.3944C43.4603 73.5379 43.4657 73.6927 43.4263 73.8392L43.1272 74.9386L46.5961 72.9575C46.7587 72.8692 46.948 72.8414 47.1295 72.8793C47.311 72.9173 47.4727 73.0184 47.5853 73.1643C47.6979 73.3102 47.7538 73.4912 47.743 73.6744C47.7321 73.8576 47.6551 74.0309 47.5261 74.1627L46.9526 74.7285L50.0867 72.9391C50.2518 72.8443 50.4464 72.8131 50.6334 72.8514C50.8203 72.8898 50.9863 72.9951 51.0996 73.1471C51.2129 73.2991 51.2656 73.4871 51.2474 73.6751C51.2292 73.8631 51.1416 74.0378 51.0012 74.1658L49.0451 75.9567L50.7098 75.0076C50.8694 74.9165 51.0565 74.8845 51.2377 74.9176C51.4189 74.9506 51.5823 75.0464 51.6986 75.1878C51.8148 75.3292 51.8764 75.507 51.8721 75.6892C51.8679 75.8714 51.7982 76.0462 51.6754 76.1821L49.9472 78.0912L50.2572 77.9164C50.4351 77.8163 50.6458 77.7899 50.8433 77.8429C51.0408 77.896 51.2091 78.0242 51.3114 78.1995C51.4137 78.3748 51.4418 78.5831 51.3895 78.7788C51.3372 78.9745 51.2087 79.1418 51.0322 79.2442L46.5372 81.8126C46.4189 81.8816 46.2839 81.9176 46.1466 81.9168Z" fill="#EABEA3"/>
<path d="M48.1928 75.5936C48.0378 75.5939 47.8862 75.5483 47.7577 75.4625C47.6292 75.3767 47.5296 75.2548 47.4719 75.1125C47.4141 74.9702 47.4009 74.814 47.4338 74.6641C47.4667 74.5143 47.5443 74.3776 47.6565 74.2718L48.6578 73.3258L44.9378 75.4525C44.7698 75.5465 44.5724 75.5751 44.3842 75.5327C44.1961 75.4903 44.0307 75.38 43.9204 75.2233C43.8101 75.0666 43.7628 74.8749 43.7879 74.6856C43.8129 74.4963 43.9085 74.3231 44.0559 74.1998L49.7909 69.4909L42.0207 73.9376C41.8486 74.0338 41.6458 74.0613 41.4538 74.0145C41.2618 73.9676 41.0952 73.85 40.9881 73.6856C40.8809 73.5212 40.8413 73.3225 40.8774 73.1302C40.9135 72.9379 41.0225 72.7665 41.1822 72.6511L43.4002 71.0702L40.7141 72.6036C40.5412 72.7035 40.336 72.7333 40.1414 72.6868C39.9468 72.6404 39.7779 72.5212 39.6701 72.3544C39.5623 72.1875 39.524 71.9858 39.5631 71.7916C39.6023 71.5974 39.7159 71.4257 39.8802 71.3125L40.5839 70.8218L39.8864 71.2205C39.715 71.3176 39.5125 71.3464 39.3204 71.3008C39.1284 71.2552 38.9611 71.1388 38.8529 70.9754C38.7446 70.8119 38.7036 70.6137 38.7381 70.4213C38.7726 70.2289 38.88 70.0568 39.0385 69.9402L40.8861 68.5878L39.3795 69.448C39.2145 69.5415 39.0204 69.5717 38.8343 69.5328C38.6482 69.4939 38.4831 69.3887 38.3703 69.2372C38.2575 69.0857 38.205 68.8984 38.2228 68.7111C38.2405 68.5238 38.3273 68.3495 38.4666 68.2213L43.036 64.0583L37.2281 67.3749C37.0595 67.4701 36.861 67.4993 36.6717 67.4567C36.4824 67.4141 36.3162 67.3027 36.2059 67.1447C36.0957 66.9866 36.0494 66.7934 36.0762 66.6032C36.103 66.413 36.201 66.2397 36.3508 66.1176L39.0137 63.9709L36.2113 65.5702C36.0473 65.6627 35.8548 65.6928 35.6699 65.6548C35.485 65.6168 35.3205 65.5134 35.2073 65.3639C35.0941 65.2144 35.0399 65.0292 35.055 64.843C35.07 64.6568 35.1533 64.4825 35.2891 64.3527L39.8073 60.0762C39.6708 60.0239 39.5521 59.9344 39.4649 59.8181C39.3777 59.7019 39.3256 59.5635 39.3145 59.4191C39.3035 59.2747 39.334 59.1302 39.4026 59.0023C39.4711 58.8744 39.5749 58.7682 39.7019 58.6962L43.7102 56.4116C43.8743 56.3122 44.07 56.2768 44.259 56.3122C44.4481 56.3477 44.617 56.4514 44.7331 56.6033C44.8491 56.7552 44.9038 56.9443 44.8867 57.1339C44.8695 57.3235 44.7816 57.5 44.6402 57.629L41.0117 61.0637L46.6475 57.8437C46.816 57.7501 47.0138 57.7221 47.202 57.7653C47.3903 57.8085 47.5555 57.9197 47.6651 58.0772C47.7748 58.2346 47.821 58.4269 47.7947 58.6163C47.7685 58.8057 47.6716 58.9786 47.5232 59.101L44.8619 61.2477L48.3184 59.2743C48.4834 59.1808 48.6775 59.1506 48.8635 59.1895C49.0496 59.2283 49.2148 59.3335 49.3276 59.4851C49.4403 59.6366 49.4928 59.8238 49.4751 60.0112C49.4573 60.1985 49.3706 60.3728 49.2313 60.501L44.665 64.6624L51.9593 60.4964C52.1307 60.3992 52.3331 60.3705 52.5252 60.4161C52.7173 60.4616 52.8846 60.578 52.9928 60.7415C53.101 60.905 53.1421 61.1031 53.1076 61.2955C53.0731 61.4879 52.9656 61.6601 52.8072 61.7767L50.9472 63.1337L54.7633 60.9548C54.9361 60.8549 55.1413 60.8251 55.3359 60.8716C55.5306 60.918 55.6994 61.0372 55.8072 61.204C55.915 61.3709 55.9533 61.5726 55.9142 61.7668C55.875 61.961 55.7614 62.1327 55.5972 62.2459L54.8857 62.7396L56.2513 61.9607C56.4234 61.8645 56.6262 61.837 56.8182 61.8838C57.0101 61.9306 57.1767 62.0483 57.2839 62.2127C57.391 62.3771 57.4306 62.5757 57.3946 62.7681C57.3585 62.9604 57.2495 63.1318 57.0898 63.2472L54.8702 64.8219L56.9054 63.6612C57.0734 63.5672 57.2707 63.5386 57.4589 63.581C57.6471 63.6234 57.8125 63.7337 57.9228 63.8904C58.0331 64.047 58.0803 64.2388 58.0553 64.4281C58.0302 64.6174 57.9347 64.7906 57.7873 64.9139L52.0585 69.6136L53.4535 68.8147C53.6176 68.7153 53.8133 68.6799 54.0023 68.7154C54.1914 68.7508 54.3603 68.8546 54.4764 69.0064C54.5924 69.1583 54.6471 69.3474 54.63 69.537C54.6128 69.7266 54.5249 69.9031 54.3835 70.0322L52.4429 71.8722C52.5759 71.9275 52.6907 72.0185 52.7743 72.1349C52.8579 72.2513 52.9069 72.3885 52.9159 72.531C52.925 72.6734 52.8936 72.8156 52.8253 72.9414C52.7571 73.0672 52.6547 73.1716 52.5297 73.243L48.5819 75.4954C48.4634 75.5621 48.329 75.596 48.1928 75.5936Z" fill="#F9D2B6"/>
<path d="M81.7223 75.9216C81.7223 75.1754 81.7223 74.4287 81.7223 73.6814C81.8571 73.5726 82.0013 73.4775 82.1284 73.361C83.5458 72.006 84.4748 70.2284 84.7727 68.301C84.7153 68.5877 84.892 67.841 84.72 68.0158C84.9851 67.8883 85.2617 67.7856 85.5461 67.7091C85.968 67.5113 86.356 67.2495 86.6962 66.9332C87.4363 66.252 87.8779 65.3116 87.9269 64.3128C89.3808 62.5172 89.4258 59.3601 89.4676 57.284C89.6778 55.7237 89.4798 54.1362 88.8926 52.6732C88.4588 51.9056 87.8386 51.2571 87.0879 50.7861C86.3372 50.3152 85.4797 50.0368 84.5929 49.9761C83.125 47.6976 79.76 46.9938 77.0785 46.8941C77.1048 44.3166 77.2071 41.3158 73.9056 40.7899C73.0528 40.7043 72.1946 40.6853 71.3388 40.7332H47.6238V35.6517C48.5664 35.459 49.4491 35.0473 50.1991 34.4506C50.9491 33.854 51.545 33.0894 51.9375 32.2201C52.2266 31.3646 52.3425 30.4611 52.2785 29.5613C52.7194 29.3586 53.0965 29.0413 53.3695 28.6433C53.6424 28.2453 53.8011 27.7814 53.8285 27.3012C53.7827 26.5364 53.8815 25.7699 54.1199 25.041C54.7042 24.1074 55.454 23.2856 56.3333 22.6153C57.7475 21.151 58.8009 19.3836 59.4115 17.4506C60.022 15.5176 60.1732 13.4713 59.8533 11.471C59.2174 8.2132 57.3658 5.31131 54.6664 3.34204C51.967 1.37276 48.6174 0.480277 45.2833 0.841946C42.138 1.15009 39.197 2.52436 36.9586 4.73195C34.7203 6.93954 33.3222 9.8447 33.0011 12.9553C32.8627 14.7384 33.1028 16.5304 33.7061 18.2162C34.3093 19.902 35.2624 21.4443 36.5041 22.7441C37.8201 24.1011 39.0942 24.9368 39.1639 26.993C39.2042 28.2058 39.3189 29.2822 40.6705 29.7422C40.6845 29.7422 40.7046 29.7422 40.7201 29.753C40.66 30.5748 40.719 31.4009 40.8953 32.2063C41.0981 32.8946 41.4486 33.5316 41.9228 34.0738C42.3971 34.616 42.9839 35.0506 43.6434 35.3481C44.1919 35.5852 44.7755 35.7333 45.3717 35.7866V40.7316H23.3756C22.4456 40.7316 21.5156 40.701 20.5856 40.7316C19.6679 40.7005 18.7612 40.9371 17.9784 41.4121C17.1957 41.887 16.5715 42.5793 16.1836 43.4027C15.8634 44.5388 15.7702 45.7258 15.9093 46.8972C13.3301 47.1011 10.1247 47.9122 8.61498 50.0221C6.9972 50.2435 5.53266 51.0863 4.53848 52.3681C3.67396 53.7815 3.31884 55.4429 3.53098 57.0816C3.46637 59.1352 3.72788 61.1862 4.30598 63.1597C4.46623 63.7313 4.72871 64.2698 5.08098 64.7498C5.12396 65.381 5.32808 65.9912 5.67424 66.5232C6.0204 67.0553 6.49729 67.4918 7.06033 67.7919C7.34088 67.9452 7.97793 68.0556 8.14533 68.2918C8.29023 68.7025 8.3753 69.1315 8.39798 69.566C8.62218 70.4643 8.99621 71.3193 9.50468 72.096C9.98629 72.831 10.5851 73.484 11.2779 74.0295C11.2779 74.7675 11.2779 75.5056 11.2779 76.2436C8.95562 76.4773 6.74881 77.361 4.9161 78.7911C3.08338 80.2212 1.70069 82.1385 0.930082 84.3182C0.486782 85.7074 -0.275818 89.1942 0.951782 90.43C1.31206 90.694 1.72249 90.8833 2.15849 90.9865C2.59449 91.0898 3.04707 91.105 3.48913 91.0311H31.5395C31.9366 91.1454 32.3489 91.2002 32.7624 91.1936H58.6831H59.8518C60.0108 91.2474 60.1781 91.2734 60.3462 91.2703H88.2292C88.7453 91.2703 89.2801 91.3071 89.7962 91.2703C92.4188 91.0786 92.656 88.9826 92.5862 86.8957C92.4524 84.0664 91.2713 81.3845 89.268 79.3609C87.2647 77.3372 84.5789 76.1131 81.7223 75.9216ZM37.8914 21.0375C36.8418 19.7542 36.0781 18.2661 35.6501 16.6705C34.8873 13.8928 35.203 10.9332 36.5352 8.37414C37.8673 5.8151 40.1194 3.84194 42.8483 2.84295C49.5396 0.61348 56.4201 5.44195 57.612 12.0675C57.8835 13.7554 57.781 15.4816 57.3116 17.1265C56.8421 18.7714 56.017 20.2958 54.8933 21.5941C53.8915 22.455 52.984 23.4176 52.1855 24.466C51.838 25.0785 51.6306 25.7589 51.5779 26.4594C51.6195 26.9388 51.6049 27.4215 51.5345 27.8976C51.2043 28.8667 48.6639 28.3576 47.8315 28.3576H42.5786C41.8113 28.3576 41.5323 28.1215 41.4331 27.2398C41.4538 26.2228 41.2612 25.2125 40.8674 24.2728C39.9827 23.1024 38.9861 22.0189 37.8914 21.0375ZM43.1288 31.5531C43.0074 31.0464 42.9516 30.5265 42.963 30.006C43.9643 29.9922 44.9888 29.894 45.8398 29.894C47.227 29.894 48.6298 29.9416 50.0341 29.9109C50.0656 30.4895 50.0401 31.0698 49.9581 31.6436C49.8681 32.2092 49.6552 32.7489 49.3341 33.2254C49.013 33.7018 48.5914 34.1038 48.0981 34.4036C47.9506 34.4858 47.7947 34.5526 47.6331 34.6029C47.5248 34.6343 47.4145 34.6583 47.303 34.675C47.0334 34.58 46.7421 34.5624 46.4629 34.6244C46.0764 34.5677 45.7007 34.454 45.3484 34.287C44.8044 34.012 44.3254 33.6263 43.9428 33.1551C43.5602 32.6839 43.2828 32.1379 43.1288 31.5531ZM77.9821 80.0647C77.7574 80.2449 77.5052 80.3888 77.235 80.491C76.9868 80.5834 76.725 80.6351 76.46 80.6443C75.7032 80.6508 74.9624 80.4288 74.3365 80.008C73.7324 79.5916 73.242 79.0336 72.909 78.384C72.5761 77.7343 72.411 77.0132 72.4285 76.285V75.2638C74.726 76.1093 77.2673 76.0272 79.5042 75.0354C79.5476 76.88 79.5569 78.8135 77.9821 80.0647ZM84.8331 66.418C84.2503 66.878 83.449 66.7998 82.9266 67.3963C82.6056 67.9026 82.4294 68.4855 82.4167 69.083C82.2578 69.8549 81.9691 70.5951 81.5626 71.2726C80.8296 72.5327 79.6706 73.4965 78.2897 73.9941C76.9088 74.4917 75.3947 74.4912 74.0141 73.9927C72.6357 73.4802 71.45 72.5605 70.6181 71.3584C70.2207 70.7934 69.9099 70.1733 69.6958 69.5184C69.5935 68.8016 69.4297 68.0948 69.206 67.4055C68.8712 66.7922 68.2853 66.8075 67.7041 66.5453C67.3352 66.3667 67.014 66.1048 66.7665 65.7806C66.5191 65.4564 66.3522 65.0791 66.2796 64.6792C66.2542 64.5236 66.2428 64.3661 66.2455 64.2085C66.2463 64.1978 66.2463 64.187 66.2455 64.1763C66.2445 63.5824 66.4653 63.009 66.8655 62.5663C67.3987 61.999 68.2063 62.0649 68.7937 61.5773C69.592 60.9149 69.5222 59.5993 69.9516 58.6931C70.4476 57.63 71.2816 56.7566 72.3262 56.206C73.2847 56.9981 74.4915 57.4364 75.7404 57.4462C76.9893 57.456 78.2029 57.0366 79.1741 56.2597C79.9713 56.6559 80.6717 57.2191 81.2266 57.9103C81.7815 58.6014 82.1776 59.4038 82.3872 60.2617C82.5872 61.0636 82.6058 61.6417 83.4722 62.0143C84.1046 62.2857 84.5572 62.321 85.0408 62.876C85.4362 63.353 85.6607 63.9461 85.6794 64.5627C85.6814 64.9151 85.6069 65.2637 85.4609 65.5851C85.3148 65.9065 85.1008 66.1932 84.8331 66.4257V66.418ZM82.319 50.5618C82.4058 50.6661 82.6864 51.1077 82.5779 50.8976C82.6461 51.0165 82.7478 51.1132 82.8705 51.176C82.9932 51.2389 83.1317 51.2652 83.2692 51.2518C84.1821 51.292 85.0554 51.6322 85.751 52.2184C86.4466 52.8046 86.9248 53.6035 87.1101 54.4887C87.3205 55.9199 87.3383 57.3723 87.1628 58.8081C87.1119 59.7708 86.9907 60.7285 86.8001 61.6739C86.5433 61.4252 86.2508 61.2155 85.9321 61.0514C85.3663 60.7631 84.9013 60.8505 84.7324 60.1973C84.644 59.8508 84.5851 59.5042 84.4735 59.1623C84.1057 58.0723 83.4831 57.0836 82.6562 56.2766C81.8294 55.4696 80.8217 54.867 79.715 54.5178C79.3993 54.436 79.066 54.4496 78.7582 54.557C78.4504 54.6645 78.1822 54.8607 77.9883 55.1204C77.7178 55.4107 77.3831 55.6352 77.0104 55.7764C76.6377 55.9176 76.237 55.9717 75.8397 55.9344C75.4424 55.8972 75.0591 55.7696 74.7198 55.5616C74.3806 55.3536 74.0945 55.0709 73.8839 54.7356C73.5894 54.2848 72.7524 54.5025 72.3758 54.6359C70.7294 55.1855 69.3073 56.248 68.3225 57.6642C67.9661 58.2006 67.6817 58.7804 67.4762 59.3892C67.3928 59.8544 67.2851 60.315 67.1538 60.7692C67.1383 60.7401 67.0128 60.8244 66.926 60.8658C66.7028 60.9701 66.461 61.0376 66.244 61.1495C65.8688 61.3364 65.5218 61.5743 65.2132 61.8564C65.1962 61.8717 65.1838 61.8916 65.1667 61.907C64.9754 60.9922 64.8485 60.0653 64.787 59.1332C64.5669 56.755 63.9949 51.2534 67.7676 51.2534C68.2326 51.2534 69.0076 51.1 69.2479 50.64C70.3003 48.6222 73.2918 48.2066 75.4169 48.1867C75.5946 48.2135 75.7754 48.2135 75.9532 48.1867C77.8231 48.1525 79.664 48.6478 81.2588 49.6142C81.6555 49.8792 82.0125 50.1982 82.319 50.5618ZM68.3008 42.0656C69.5656 42.0656 70.8614 41.9828 72.1247 42.0656C74.9736 42.2527 74.8837 44.7812 74.8356 46.9432C72.2549 47.1486 69.0061 47.9536 67.501 50.0696C65.8939 50.2977 64.4379 51.1311 63.4369 52.3957C62.5682 53.803 62.2116 55.4617 62.4263 57.0969C62.3617 59.1465 62.6232 61.1935 63.2013 63.1628C63.3624 63.7283 63.6249 64.2607 63.9763 64.7344C64.0208 65.4475 64.2762 66.132 64.7108 66.7026C65.1454 67.2732 65.74 67.7048 66.4207 67.9437C66.8376 68.097 66.9291 68.0326 67.1058 68.4175C67.2093 68.842 67.2844 69.2728 67.3305 69.707C67.5566 70.544 67.9149 71.3404 68.3923 72.0668C68.8754 72.8027 69.4788 73.4541 70.1779 73.9942C70.1779 74.7098 70.1779 75.4284 70.1779 76.1501C68.4342 76.3508 66.7522 76.9102 65.24 77.7922C63.7278 78.6741 62.4188 79.8593 61.3971 81.2714C61.3785 81.2408 61.3646 81.2086 61.346 81.1779C60.5875 80.0141 59.6123 79.0036 58.4723 78.2002V65.843C58.4723 61.4194 59.2767 55.976 56.7068 52.0906C55.698 50.6141 54.348 49.3968 52.7686 48.5395C51.1893 47.6822 49.4262 47.2096 47.6254 47.1609V42.0656H68.3008ZM48.529 80.1935C48.3095 80.3632 48.0732 80.5107 47.8238 80.6336L47.6269 80.7041C47.6874 80.678 47.4022 80.7516 47.5866 80.7179C47.4255 80.7543 47.2606 80.7718 47.0953 80.77C46.3129 80.7571 45.5528 80.5107 44.9144 80.0632C44.3031 79.6382 43.8064 79.0714 43.4678 78.4125C43.1292 77.7535 42.9591 77.0226 42.9723 76.2835V75.1948C43.6784 75.4681 44.4171 75.6505 45.1702 75.7376C46.8372 75.8959 48.5172 75.6221 50.0449 74.9434C50.093 76.8462 50.1224 78.884 48.529 80.1935ZM40.7279 76.029C39.3582 76.1867 38.0229 76.5599 36.7723 77.1345V67.7229C37.0597 67.7949 37.3285 67.926 37.5612 68.1078C37.7798 68.3638 37.7627 69.2363 37.8433 69.569C37.956 70.031 38.1117 70.4817 38.3083 70.9153C38.7182 71.8208 39.2906 72.6453 39.9978 73.3487C40.2288 73.5618 40.472 73.7614 40.7263 73.9467C40.7279 74.6398 40.7263 75.3344 40.7279 76.029ZM37.1086 55.3412C38.0991 51.58 41.3556 48.1346 45.4507 47.9812C45.4641 47.982 45.4776 47.982 45.491 47.9812C45.7638 48.2971 46.466 48.268 46.9945 48.0502C48.706 48.2824 50.3351 48.9217 51.7422 49.9132C53.1492 50.9048 54.2922 52.2191 55.0731 53.7435C56.0656 56.0467 56.4983 58.5481 56.3364 61.0468C55.732 60.8158 55.0916 60.6908 54.4438 60.6772C53.4935 60.6156 52.5522 60.4563 51.6352 60.2019C49.7117 59.6806 47.7044 58.644 47.6223 56.4406C47.6099 56.1048 47.1464 56.022 46.6442 56.1018C43.2745 56.2214 39.4274 57.6581 37.9224 60.8551C37.5241 60.9471 37.1381 61.085 36.7723 61.266V60.2372C36.6717 58.5977 36.7848 56.9522 37.1086 55.3412ZM49.1831 73.9942C47.5668 74.5853 45.784 74.5479 44.1944 73.8897C42.6048 73.2315 41.3266 72.0014 40.6178 70.4476C40.281 69.6016 40.0403 68.7212 39.9002 67.8226C39.6692 66.852 38.8803 66.9409 38.1409 66.5269C36.4204 65.5624 36.1848 62.091 38.6059 61.9775C38.8685 61.9722 39.1249 61.8974 39.3484 61.761C39.5719 61.6246 39.7544 61.4314 39.8769 61.2016C40.3621 60.1235 41.1411 59.2002 42.1266 58.5351C43.112 57.8701 44.2652 57.4894 45.4569 57.4358C45.8475 60.0547 48.8576 61.1771 51.1919 61.6601C52.4629 61.9238 54.2811 61.6892 55.3041 62.5801C55.6412 62.8559 55.9005 63.2134 56.0565 63.6178C56.2126 64.0222 56.2602 64.4596 56.1946 64.8876C56.1291 65.3155 55.9526 65.7194 55.6825 66.0599C55.4124 66.4003 55.0577 66.6658 54.6531 66.8305C54.3086 66.9009 53.988 67.0571 53.7216 67.2844C53.4552 67.5117 53.2519 67.8025 53.131 68.1292C52.9899 68.9261 52.7994 69.7137 52.5606 70.4875C51.9178 72.0332 50.7127 73.2844 49.1831 73.9942ZM52.2754 73.6002C53.3165 72.7663 54.1444 71.7015 54.6918 70.4921C54.8859 70.0575 55.0415 69.6071 55.1568 69.1458C55.1971 68.9818 55.2576 67.9299 55.2467 67.9437C55.5438 67.7438 55.876 67.6008 56.2263 67.522V76.9536C54.9707 76.4232 53.6353 76.101 52.2738 75.9998C52.2862 75.1948 52.2785 74.3929 52.2754 73.6002ZM19.9594 42.0656C20.9729 41.9936 21.9902 41.9936 23.0036 42.0656H45.3748V47.2468C42.4567 47.5591 39.7364 48.8559 37.6713 50.9191C33.9869 54.6957 34.5279 59.5947 34.5279 64.391V64.529C34.5279 64.579 34.5279 64.6302 34.5279 64.6823V78.4685C33.92 78.9173 33.3573 79.423 32.8477 79.9788C32.4983 80.3715 32.1767 80.7875 31.8851 81.2239C31.0583 79.9036 29.9656 78.7658 28.6751 77.8812C26.9329 76.739 24.9188 76.0676 22.8331 75.9339C22.8424 75.2163 22.8331 74.4972 22.8331 73.7796C22.9711 73.663 23.123 73.5618 23.2547 73.4376C23.9642 72.7719 24.5575 71.9948 25.0109 71.1376C25.3864 70.2325 25.6795 69.296 25.8866 68.3393C25.9269 68.2151 26.0153 68.002 25.8556 68.1338C26.1217 68.0086 26.3981 67.906 26.6818 67.8272C27.1025 67.6205 27.4875 67.3493 27.8226 67.0237C28.5568 66.3218 28.9925 65.3692 29.0409 64.3603C30.4917 62.5663 30.5351 59.3754 30.5769 57.307C30.783 55.7419 30.584 54.1507 29.9988 52.6824C29.565 51.9055 28.942 51.2481 28.1863 50.7699C27.4305 50.2916 26.566 50.0077 25.6712 49.9439C24.1801 47.6776 20.846 46.9708 18.1661 46.8665C18.0901 45.0802 17.8251 42.3846 19.9594 42.0656ZM18.2901 80.6535C18.2798 80.6521 18.2694 80.6521 18.2591 80.6535C18.2312 80.6627 18.1041 80.6949 18.0839 80.701C17.9212 80.7369 17.7546 80.7529 17.5879 80.7486C16.8279 80.7313 16.0903 80.4905 15.4691 80.057C14.8572 79.6337 14.3596 79.0683 14.0202 78.4103C13.6808 77.7524 13.5098 77.0221 13.5223 76.2835V75.3267C14.6549 75.7627 15.864 75.9716 17.079 75.941C18.294 75.9105 19.4908 75.6412 20.5996 75.1488C20.612 75.6686 20.612 76.193 20.581 76.7113C20.581 76.7266 20.5655 76.7374 20.5624 76.7527C20.5593 76.768 20.5748 76.7849 20.5732 76.8064C20.5793 77.4344 20.4517 78.0568 20.1988 78.6329C19.946 79.209 19.5734 79.7261 19.1054 80.1506C18.8801 80.3342 18.6322 80.4887 18.3676 80.6106C18.3133 80.632 18.3056 80.6366 18.2901 80.6535ZM8.88003 51.2932C9.15984 51.3176 9.44138 51.2724 9.69907 51.1618C9.95676 51.0512 10.1824 50.8787 10.3556 50.66C11.4654 48.5332 14.9421 48.1836 17.0656 48.2312C18.9321 48.1945 20.7706 48.6837 22.3666 49.6418C22.7619 49.9007 23.1175 50.2147 23.4221 50.5741C23.5105 50.6814 23.8019 51.1368 23.6779 50.8976C23.7435 51.0238 23.8448 51.1285 23.9695 51.1987C24.0942 51.2689 24.2368 51.3018 24.38 51.2932C25.2879 51.3246 26.1589 51.6566 26.8534 52.236C27.5479 52.8154 28.0256 53.6087 28.2101 54.4887C28.4187 55.9159 28.4354 57.3642 28.2597 58.7958C28.2088 59.7548 28.0887 60.7089 27.9001 61.6509C27.7089 61.4553 27.4963 61.2815 27.2661 61.1326C26.7918 60.8367 26.0804 60.8091 25.851 60.3276C25.7456 59.9751 25.6618 59.6167 25.5999 59.2543C25.2417 58.1332 24.6192 57.1123 23.7838 56.276C22.9484 55.4397 21.9239 54.8118 20.7949 54.4442C20.4788 54.3437 20.1378 54.3505 19.8261 54.4636C19.5144 54.5766 19.2498 54.7895 19.0744 55.0683C19.3022 54.7187 18.8636 55.2814 18.7318 55.3903C18.4853 55.5891 18.2003 55.7357 17.8942 55.8212C17.5881 55.9066 17.2676 55.9291 16.9524 55.8871C16.5567 55.8439 16.1752 55.7163 15.8343 55.5129C15.4933 55.3096 15.2011 55.0355 14.9777 54.7095C14.8202 54.5496 14.6196 54.438 14.3997 54.388C14.1798 54.338 13.95 54.3516 13.7377 54.4274C12.0148 54.9618 10.5172 56.0414 9.47523 57.5002C9.12712 58.011 8.84441 58.5626 8.63358 59.1424C8.53748 59.4092 8.11278 60.369 8.22748 60.6757C8.04957 60.7243 7.8755 60.7858 7.70668 60.8597C7.35226 61.0036 7.01702 61.1901 6.70848 61.4148C6.54379 61.5384 6.38839 61.6737 6.24348 61.8196C6.06655 60.9322 5.9485 60.0343 5.89008 59.1316C5.66843 56.7488 5.11508 51.2932 8.88003 51.2932ZM10.3463 67.4822C10.0689 66.8535 9.57133 66.7676 8.98078 66.5499C8.61818 66.423 8.29074 66.2138 8.02476 65.9389C7.75879 65.6641 7.56172 65.3314 7.44938 64.9675C7.38032 64.7237 7.34948 64.4708 7.35793 64.2177C7.35793 64.2177 7.35793 64.2054 7.35793 64.1978C7.35871 63.672 7.5445 63.1629 7.88338 62.758C8.39023 62.1768 9.12338 62.229 9.73408 61.8211C10.6393 61.2078 10.5633 59.8722 10.9741 58.9476C11.4726 57.8052 12.3569 56.8697 13.4758 56.3011C14.4256 57.0983 15.629 57.5388 16.8746 57.5453C18.1202 57.5517 19.3283 57.1237 20.2865 56.3364C21.0671 56.7113 21.7557 57.2502 22.3042 57.9154C22.8527 58.5807 23.248 59.3562 23.4624 60.1881C23.6577 60.9379 23.6546 61.6846 24.473 62.0603C24.9848 62.1949 25.4714 62.4098 25.9145 62.6966C26.171 62.9217 26.3787 63.1959 26.525 63.5027C26.6712 63.8095 26.7531 64.1425 26.7655 64.4814C26.7745 64.8337 26.7024 65.1833 26.5547 65.5039C26.407 65.8245 26.1876 66.1077 25.913 66.3322C25.3085 66.7722 24.518 66.7017 24.0111 67.3273C23.7013 67.8579 23.5302 68.4566 23.5136 69.0692C23.3538 69.8339 23.0623 70.5657 22.6518 71.2327C21.9117 72.4527 20.7752 73.3883 19.4281 73.8866C18.0809 74.3849 16.6026 74.4163 15.235 73.9758C13.8485 73.5138 12.6444 72.6312 11.794 71.4535C11.3907 70.9054 11.0726 70.3007 10.8501 69.6595C10.6021 68.9649 10.6362 68.1384 10.3463 67.4822ZM17.8158 89.9026H7.64623C6.11948 89.9026 2.94353 90.637 2.67228 88.5701C2.31034 85.9377 3.01863 83.2707 4.64179 81.1542C6.26494 79.0377 8.67042 77.6445 11.3306 77.2802C11.3836 78.0383 11.6184 78.773 12.0154 79.4236C12.4124 80.0742 12.9603 80.6219 13.6137 81.0215C14.4237 81.4581 15.32 81.715 16.2404 81.7744C17.1608 81.8339 18.0833 81.6944 18.9437 81.3656C19.8042 81.0369 20.582 80.5269 21.2231 79.8709C21.8642 79.2149 22.3533 78.4287 22.6564 77.5669C24.4113 77.8071 26.0716 78.4989 27.4713 79.5731C28.8711 80.6473 29.9612 82.0662 30.6327 83.688C30.1066 85.21 29.8482 86.8099 29.8686 88.4183C29.8547 88.9306 29.9608 89.4391 30.1786 89.9041L17.8158 89.9026ZM59.0458 89.74H35.6671C34.798 89.832 33.9214 89.832 33.0523 89.74C31.2543 89.3076 32.1347 85.551 32.8074 83.6466C32.8844 83.5497 32.9279 83.4309 32.9314 83.3077C33.0182 83.0808 33.0988 82.8906 33.1639 82.7603C33.8724 81.3047 34.9471 80.0535 36.2849 79.1269C37.6227 78.2003 39.1788 77.6294 40.8038 77.4688C40.8823 78.1906 41.1266 78.8852 41.518 79.4993C41.9094 80.1135 42.4376 80.631 43.0622 81.0123C43.8759 81.4481 44.7758 81.7033 45.6993 81.7601C46.6228 81.8169 47.5477 81.674 48.4097 81.3412C49.2717 81.0085 50.0501 80.4939 50.6906 79.8334C51.3312 79.1728 51.8186 78.3821 52.1188 77.5163C53.445 77.702 54.7207 78.1465 55.8718 78.8241C57.0229 79.5016 58.0264 80.3986 58.8241 81.4631C60.3462 83.6661 61.0671 86.3152 60.8686 88.9764C60.8686 89.3904 60.8841 89.5898 60.8794 89.6695H60.5539C60.3949 89.6709 60.2374 89.7005 60.0889 89.7569C59.7355 89.7692 59.3651 89.74 59.0458 89.74ZM90.0039 89.6695C89.9249 89.7186 89.7187 89.6511 89.6304 89.6695C88.7752 89.7515 87.9141 89.7515 87.0589 89.6695H62.8789C63.2114 88.6371 63.2901 87.541 63.1083 86.4725C63.0318 85.3656 62.7851 84.2766 62.3767 83.2433C63.0803 81.5167 64.2623 80.0216 65.7867 78.93C67.095 78.0016 68.6396 77.4535 70.2461 77.3476C70.3166 78.1064 70.563 78.8388 70.9663 79.4879C71.3695 80.1371 71.9187 80.6855 72.5711 81.0905C73.3785 81.5406 74.2772 81.8071 75.2017 81.8705C76.1263 81.9339 77.0536 81.7927 77.9161 81.4572C78.7786 81.1216 79.5546 80.6001 80.1878 79.9306C80.821 79.2611 81.2954 78.4605 81.5766 77.5868C83.9835 77.9454 86.1834 79.1382 87.7837 80.9525C89.3841 82.7668 90.2808 85.0845 90.3139 87.4922C90.3248 87.9629 90.5201 89.3552 90.0039 89.6695Z" fill="#262626"/>
<path d="M41.4224 13.5024C41.4358 12.7682 41.5872 12.0429 41.8688 11.3634C42.0001 11.0405 42.1653 10.7322 42.3617 10.4434C42.4671 10.2901 42.5787 10.1368 42.698 9.98344C42.7492 9.92057 42.8019 9.85924 42.853 9.79791L42.9569 9.68291C43.2044 9.43181 43.4736 9.20248 43.7613 8.99751L43.8528 8.93771C43.9442 8.87944 44.0372 8.82271 44.1318 8.76904C44.2031 8.72917 44.2759 8.69237 44.3488 8.65404C44.0992 8.78744 44.372 8.64484 44.4294 8.61877C44.5162 8.58044 44.6061 8.54364 44.696 8.50991L44.7363 8.49151C44.9118 8.42343 45.0934 8.37208 45.2788 8.33817H45.2881C45.2947 8.33954 45.3016 8.33954 45.3082 8.33817C45.4198 8.32284 45.5314 8.30444 45.6446 8.29217L45.7996 8.27837H46.0553C46.3321 8.29292 46.6086 8.24686 46.8653 8.14349C47.122 8.04013 47.3524 7.88199 47.5402 7.68037C47.8347 7.25411 47.2876 7.06704 46.9419 7.06704C44.8431 7.0546 42.8184 7.83374 41.2798 9.24591C40.6172 9.87288 40.0896 10.6258 39.7284 11.4595C39.3672 12.2931 39.18 13.1904 39.178 14.0974C39.178 14.266 39.5019 14.3626 39.6073 14.3841C39.8865 14.4281 40.172 14.4093 40.4428 14.3289C40.8489 14.2124 41.4193 13.9885 41.4224 13.5024Z" fill="#262626"/>
</svg>
